<svg id="Layer_1" data-name="Layer 1" xmlns="http://www.w3.org/2000/svg" width="1602" height="202.07" viewBox="0 0 1602 202.07"><defs><style>.cls-1{fill:#9c4c5d;stroke:#9c4c5d;}.cls-1,.cls-10,.cls-100,.cls-102,.cls-103,.cls-106,.cls-107,.cls-11,.cls-110,.cls-111,.cls-112,.cls-113,.cls-114,.cls-115,.cls-116,.cls-12,.cls-120,.cls-121,.cls-122,.cls-124,.cls-126,.cls-127,.cls-128,.cls-129,.cls-132,.cls-133,.cls-14,.cls-15,.cls-16,.cls-17,.cls-18,.cls-19,.cls-2,.cls-22,.cls-23,.cls-29,.cls-3,.cls-30,.cls-31,.cls-33,.cls-34,.cls-37,.cls-38,.cls-4,.cls-40,.cls-41,.cls-42,.cls-44,.cls-45,.cls-46,.cls-48,.cls-49,.cls-5,.cls-51,.cls-53,.cls-55,.cls-57,.cls-59,.cls-6,.cls-60,.cls-62,.cls-63,.cls-64,.cls-65,.cls-7,.cls-71,.cls-73,.cls-75,.cls-76,.cls-77,.cls-78,.cls-79,.cls-8,.cls-83,.cls-86,.cls-87,.cls-88,.cls-9,.cls-90,.cls-91,.cls-92,.cls-95,.cls-98,.cls-99{stroke-width:2px;}.cls-2{fill:#ae6475;stroke:#ae6475;}.cls-3{fill:#a94f5d;stroke:#a94f5d;}.cls-4{fill:#a04c5d;stroke:#a04c5d;}.cls-5{fill:#a64e5f;stroke:#a64e5f;}.cls-6{fill:#954b5d;stroke:#954b5d;}.cls-7{fill:#9f5667;stroke:#9f5667;}.cls-8{fill:#a74f5d;stroke:#a74f5d;}.cls-9{fill:#a44f5d;stroke:#a44f5d;}.cls-10{fill:#9f5664;stroke:#9f5664;}.cls-11{fill:#a2505c;stroke:#a2505c;}.cls-12{fill:#964e5e;stroke:#964e5e;}.cls-13{fill:#9b4f5b;stroke:#9b4f5b;}.cls-101,.cls-104,.cls-105,.cls-108,.cls-109,.cls-117,.cls-118,.cls-119,.cls-123,.cls-125,.cls-13,.cls-130,.cls-131,.cls-20,.cls-21,.cls-24,.cls-25,.cls-26,.cls-27,.cls-28,.cls-32,.cls-35,.cls-36,.cls-39,.cls-43,.cls-47,.cls-50,.cls-52,.cls-54,.cls-56,.cls-58,.cls-61,.cls-66,.cls-67,.cls-68,.cls-69,.cls-70,.cls-72,.cls-74,.cls-80,.cls-81,.cls-82,.cls-84,.cls-85,.cls-89,.cls-93,.cls-94,.cls-96,.cls-97{stroke-width:1.51px;}.cls-14{fill:#a9525e;stroke:#a9525e;}.cls-15{fill:#a35e6a;stroke:#a35e6a;}.cls-16{fill:#a4525b;stroke:#a4525b;}.cls-17{fill:#9c5664;stroke:#9c5664;}.cls-18{fill:#b87581;stroke:#b87581;}.cls-19{fill:#aa5561;stroke:#aa5561;}.cls-20{fill:#984f5c;stroke:#984f5c;}.cls-21{fill:#9c515d;stroke:#9c515d;}.cls-22{fill:#a8565f;stroke:#a8565f;}.cls-23{fill:#b57481;stroke:#b57481;}.cls-24{fill:#96505d;stroke:#96505d;}.cls-25{fill:#9a555f;stroke:#9a555f;}.cls-26{fill:#99525c;stroke:#99525c;}.cls-27{fill:#a1545e;stroke:#a1545e;}.cls-28{fill:#97535d;stroke:#97535d;}.cls-29{fill:#ae5861;stroke:#ae5861;}.cls-30{fill:#b37376;stroke:#b37376;}.cls-31{fill:#a3616f;stroke:#a3616f;}.cls-32{fill:#a45761;stroke:#a45761;}.cls-33{fill:#ac5962;stroke:#ac5962;}.cls-34{fill:#a9585e;stroke:#a9585e;}.cls-35{fill:#9f5660;stroke:#9f5660;}.cls-36{fill:#a1575e;stroke:#a1575e;}.cls-37{fill:#ab5a60;stroke:#ab5a60;}.cls-38{fill:#97565d;stroke:#97565d;}.cls-39{fill:#9e585e;stroke:#9e585e;}.cls-40{fill:#9e5f67;stroke:#9e5f67;}.cls-41{fill:#ae7072;stroke:#ae7072;}.cls-42{fill:#a85a60;stroke:#a85a60;}.cls-43{fill:#99585f;stroke:#99585f;}.cls-44{fill:#a04e54;stroke:#a04e54;}.cls-45{fill:#a2565c;stroke:#a2565c;}.cls-46{fill:#a55a61;stroke:#a55a61;}.cls-47{fill:#9f5960;stroke:#9f5960;}.cls-48{fill:#aa5a61;stroke:#aa5a61;}.cls-49{fill:#ac7072;stroke:#ac7072;}.cls-50{fill:#9a565c;stroke:#9a565c;}.cls-51{fill:#9e6068;stroke:#9e6068;}.cls-52{fill:#924e58;stroke:#924e58;}.cls-53{fill:#935460;stroke:#935460;}.cls-54{fill:#9a4f54;stroke:#9a4f54;}.cls-55{fill:#98484e;stroke:#98484e;}.cls-56{fill:#924a50;stroke:#924a50;}.cls-57{fill:#9b5b62;stroke:#9b5b62;}.cls-58{fill:#8b4349;stroke:#8b4349;}.cls-59{fill:#8b4b51;stroke:#8b4b51;}.cls-60{fill:#8f4146;stroke:#8f4146;}.cls-61{fill:#813d46;stroke:#813d46;}.cls-62{fill:#8c4b55;stroke:#8c4b55;}.cls-63{fill:#95555b;stroke:#95555b;}.cls-64{fill:#883a3f;stroke:#883a3f;}.cls-65{fill:#82363b;stroke:#82363b;}.cls-66{fill:#7c373e;stroke:#7c373e;}.cls-67{fill:#77373e;stroke:#77373e;}.cls-68{fill:#7c343e;stroke:#7c343e;}.cls-69{fill:#742d37;stroke:#742d37;}.cls-70{fill:#73333a;stroke:#73333a;}.cls-71{fill:#85434c;stroke:#85434c;}.cls-72{fill:#65262f;stroke:#65262f;}.cls-73{fill:#7e2f36;stroke:#7e2f36;}.cls-74{fill:#6b2833;stroke:#6b2833;}.cls-75{fill:#752a33;stroke:#752a33;}.cls-76{fill:#8d4d53;stroke:#8d4d53;}.cls-77{fill:#814149;stroke:#814149;}.cls-78{fill:#6d232e;stroke:#6d232e;}.cls-79{fill:#6f222f;stroke:#6f222f;}.cls-80{fill:#63232f;stroke:#63232f;}.cls-81{fill:#5e1c28;stroke:#5e1c28;}.cls-82{fill:#66212e;stroke:#66212e;}.cls-83{fill:#6b2b35;stroke:#6b2b35;}.cls-84{fill:#591b2a;stroke:#591b2a;}.cls-85{fill:#5a172a;stroke:#5a172a;}.cls-86{fill:#691d2d;stroke:#691d2d;}.cls-87{fill:#6d2d36;stroke:#6d2d36;}.cls-88{fill:#60182b;stroke:#60182b;}.cls-89{fill:#521628;stroke:#521628;}.cls-90{fill:#60212c;stroke:#60212c;}.cls-91{fill:#5d1f2a;stroke:#5d1f2a;}.cls-92{fill:#5a102c;stroke:#5a102c;}.cls-93{fill:#4f1027;stroke:#4f1027;}.cls-94{fill:#4e0c27;stroke:#4e0c27;}.cls-109,.cls-95{fill:#560d2b;stroke:#560d2b;}.cls-96{fill:#4d0e27;stroke:#4d0e27;}.cls-97{fill:#4e0c26;stroke:#4e0c26;}.cls-104,.cls-98{fill:#580e2b;stroke:#580e2b;}.cls-99{fill:#6b2934;stroke:#6b2934;}.cls-100{fill:#57172b;stroke:#57172b;}.cls-101{fill:#540d2a;stroke:#540d2a;}.cls-102,.cls-125{fill:#5d0e2d;stroke:#5d0e2d;}.cls-103{fill:#541229;stroke:#541229;}.cls-105{fill:#550e2b;stroke:#550e2b;}.cls-106{fill:#631f2e;stroke:#631f2e;}.cls-107{fill:#600f30;stroke:#600f30;}.cls-108{fill:#590e2e;stroke:#590e2e;}.cls-110{fill:#5f0e2f;stroke:#5f0e2f;}.cls-111,.cls-123{fill:#650f32;stroke:#650f32;}.cls-112{fill:#5d182c;stroke:#5d182c;}.cls-113{fill:#621b2c;stroke:#621b2c;}.cls-114{fill:#722834;stroke:#722834;}.cls-115{fill:#671032;stroke:#671032;}.cls-116{fill:#7a2d34;stroke:#7a2d34;}.cls-117{fill:#5a0e2d;stroke:#5a0e2d;}.cls-118{fill:#620f30;stroke:#620f30;}.cls-119{fill:#5b132c;stroke:#5b132c;}.cls-120{fill:#6d1137;stroke:#6d1137;}.cls-121{fill:#681d2c;stroke:#681d2c;}.cls-122{fill:#772a33;stroke:#772a33;}.cls-124{fill:#6a1135;stroke:#6a1135;}.cls-126{fill:#62162d;stroke:#62162d;}.cls-127{fill:#5e132a;stroke:#5e132a;}.cls-128{fill:#742530;stroke:#742530;}.cls-129{fill:#6c1136;stroke:#6c1136;}.cls-130{fill:#610f2f;stroke:#610f2f;}.cls-131{fill:#661033;stroke:#661033;}.cls-132{fill:#701238;stroke:#701238;}.cls-133{fill:#7e2b35;stroke:#7e2b35;}</style></defs><title>Untitled-21</title><polygon class="cls-1" points="1484.93 98.9 1601 141.39 1601 129.96 1542.34 41.49 1484.93 98.9"/><polygon class="cls-2" points="1601 201 1601 165.76 1583.96 201 1601 201"/><polygon class="cls-3" points="1601 3.31 1601 1 1508.09 1 1550.22 22.35 1601 3.31"/><polygon class="cls-4" points="1601 129.96 1601 6.11 1542.34 41.49 1601 129.96"/><polygon class="cls-5" points="1542.34 41.49 1601 6.11 1601 3.31 1550.22 22.35 1542.34 41.49"/><polygon class="cls-6" points="1568.84 201 1583.96 201 1601 165.76 1601 141.39 1484.93 98.9 1568.84 201"/><polygon class="cls-7" points="1479.1 201 1568.84 201 1484.93 98.89 1479.1 201"/><polygon class="cls-8" points="1550.22 22.35 1508.09 1 1492.29 1 1542.34 41.48 1550.22 22.35"/><polygon class="cls-9" points="1542.34 41.49 1492.29 1 1469.23 1 1484.93 98.89 1542.34 41.49"/><polygon class="cls-10" points="1441.17 201 1479.1 201 1484.93 98.89 1441.17 201"/><polygon class="cls-11" points="1484.93 98.9 1469.23 1 1453.38 1 1408.39 78.63 1484.93 98.9"/><polygon class="cls-12" points="1401.63 141.67 1433.27 201 1441.17 201 1484.93 98.89 1401.63 141.67"/><polygon class="cls-13" points="1484.93 98.9 1408.39 78.64 1401.63 141.68 1484.93 98.9"/><polygon class="cls-14" points="1453.38 1 1404.07 1 1408.39 78.63 1453.38 1"/><polygon class="cls-15" points="1333.66 201 1339.89 201 1335.22 192.33 1333.66 201"/><polygon class="cls-16" points="1408.39 78.63 1404.07 1 1379.08 1 1336.34 84.26 1408.39 78.63"/><polygon class="cls-17" points="1368.99 156.31 1427 201 1433.27 201 1401.63 141.67 1368.99 156.31"/><polygon class="cls-18" points="1339.89 201 1387.84 201 1335.22 192.33 1339.89 201"/><polygon class="cls-15" points="1335.22 192.33 1387.84 201 1427 201 1368.99 156.31 1335.22 192.33"/><polygon class="cls-19" points="1379.08 1 1325.09 1 1336.34 84.26 1379.08 1"/><polygon class="cls-20" points="1401.63 141.68 1336.34 84.27 1368.99 156.31 1401.63 141.68"/><polygon class="cls-21" points="1408.39 78.64 1336.34 84.27 1401.63 141.68 1408.39 78.64"/><polygon class="cls-22" points="1336.34 84.26 1325.09 1 1278.55 1 1260.92 18.97 1336.34 84.26"/><polygon class="cls-23" points="1294.69 200.21 1294.83 201 1333.66 201 1335.22 192.33 1294.69 200.21"/><polygon class="cls-24" points="1368.99 156.31 1336.34 84.27 1335.22 192.33 1368.99 156.31"/><polygon class="cls-25" points="1335.22 192.33 1336.34 84.27 1294.69 200.21 1335.22 192.33"/><polygon class="cls-26" points="1294.69 200.21 1336.34 84.27 1242.91 103.4 1294.69 200.21"/><polygon class="cls-15" points="1293.99 201 1294.83 201 1294.69 200.21 1293.99 201"/><polygon class="cls-27" points="1336.34 84.27 1260.92 18.98 1242.91 103.4 1336.34 84.27"/><polygon class="cls-28" points="1222.65 130.42 1294.69 200.21 1242.91 103.4 1222.65 130.42"/><polygon class="cls-29" points="1278.55 1 1261.58 1 1260.92 18.97 1278.55 1"/><polygon class="cls-30" points="1289.5 201 1293.99 201 1294.69 200.21 1289.5 201"/><polygon class="cls-31" points="1222.65 130.42 1191.48 201 1289.5 201 1294.69 200.21 1222.65 130.42"/><polygon class="cls-32" points="1260.92 18.98 1185.5 24.6 1242.91 103.4 1260.92 18.98"/><polygon class="cls-33" points="1261.58 1 1213.75 1 1260.92 18.97 1261.58 1"/><polygon class="cls-34" points="1260.92 18.97 1213.75 1 1213.59 1 1185.5 24.6 1260.92 18.97"/><polygon class="cls-35" points="1242.91 103.4 1185.5 24.6 1222.65 130.42 1242.91 103.4"/><polygon class="cls-36" points="1185.5 24.6 1103.33 61.75 1222.65 130.42 1185.5 24.6"/><polygon class="cls-37" points="1213.59 1 1091.11 1 1185.5 24.6 1213.59 1"/><polygon class="cls-38" points="1083.06 105.65 1169.75 201 1191.48 201 1222.65 130.41 1083.06 105.65"/><polygon class="cls-39" points="1222.65 130.42 1103.33 61.75 1083.06 105.65 1222.65 130.42"/><polygon class="cls-40" points="1068.43 179.95 1134.15 201 1169.75 201 1083.06 105.65 1068.43 179.95"/><polygon class="cls-41" points="1073.69 201 1134.15 201 1068.43 179.94 1073.69 201"/><polygon class="cls-42" points="1185.5 24.6 1091.11 1 1090.95 1 1103.33 61.75 1185.5 24.6"/><polygon class="cls-43" points="1068.43 179.95 1083.06 105.65 1056.05 129.29 1068.43 179.95"/><polygon class="cls-44" points="1006.96 1 955.91 1 988.5 9.96 1006.96 1"/><polygon class="cls-45" points="1008.77 88.77 1090.9 1 1090.48 1 988.5 9.97 1008.77 88.77"/><polygon class="cls-46" points="1103.33 61.75 1090.95 1 1090.9 1 1008.77 88.76 1103.33 61.75"/><polygon class="cls-47" points="1103.33 61.75 1008.77 88.77 1083.06 105.65 1103.33 61.75"/><polygon class="cls-48" points="1090.48 1 1006.96 1 988.5 9.96 1090.48 1"/><polygon class="cls-49" points="1035.72 201 1073.69 201 1068.43 179.94 1035.72 201"/><polygon class="cls-50" points="1083.06 105.65 1008.77 88.77 1056.05 129.29 1083.06 105.65"/><polygon class="cls-51" points="1056.05 129.29 1007.72 201 1035.72 201 1068.43 179.94 1056.05 129.29"/><polygon class="cls-52" points="1056.05 129.29 1008.77 88.77 934.47 143.93 1056.05 129.29"/><polygon class="cls-53" points="934.47 143.92 967.71 201 1007.72 201 1056.05 129.29 934.47 143.92"/><polygon class="cls-54" points="988.5 9.97 956.99 27.98 1008.77 88.77 988.5 9.97"/><polygon class="cls-55" points="988.5 9.97 955.91 1 906.34 1 956.99 27.98 988.5 9.97"/><polygon class="cls-56" points="1008.77 88.77 956.99 27.98 934.47 143.93 1008.77 88.77"/><polygon class="cls-57" points="912.99 201 967.71 201 934.47 143.92 912.99 201"/><polygon class="cls-58" points="956.99 27.98 859.05 73.01 934.47 143.93 956.99 27.98"/><polygon class="cls-59" points="875.94 152.93 885.55 201 912.99 201 934.47 143.92 875.94 152.93"/><polygon class="cls-60" points="956.99 27.98 906.34 1 855.01 1 859.05 73 956.99 27.98"/><polygon class="cls-61" points="934.47 143.93 859.05 73.01 875.94 152.93 934.47 143.93"/><polygon class="cls-62" points="807.27 196.83 814.34 201 885.55 201 875.94 152.93 807.27 196.83"/><polygon class="cls-63" points="804.74 201 814.34 201 807.27 196.83 804.74 201"/><polygon class="cls-64" points="855.01 1 803.88 1 859.05 73 855.01 1"/><polygon class="cls-65" points="859.05 73.01 803.88 1 785.73 1 774.63 24.6 859.05 73.01"/><polygon class="cls-66" points="875.94 152.93 859.05 73.01 789.26 119.16 875.94 152.93"/><polygon class="cls-67" points="807.27 196.83 875.94 152.93 789.26 119.16 807.27 196.83"/><polygon class="cls-68" points="859.05 73.01 774.63 24.6 789.26 119.16 859.05 73.01"/><polygon class="cls-69" points="774.63 24.6 692.45 80.89 789.26 119.16 774.63 24.6"/><polygon class="cls-70" points="686.82 191.21 807.27 196.83 789.26 119.16 686.82 191.21"/><polygon class="cls-71" points="686.82 191.2 697.22 201 804.74 201 807.27 196.83 686.82 191.2"/><polygon class="cls-72" points="682.32 132.67 686.82 191.21 789.26 119.16 682.32 132.67"/><polygon class="cls-73" points="785.73 1 730.2 1 774.63 24.6 785.73 1"/><polygon class="cls-74" points="789.26 119.16 692.45 80.89 682.32 132.67 789.26 119.16"/><polygon class="cls-75" points="774.63 24.6 730.2 1 701.01 1 692.45 80.88 774.63 24.6"/><polygon class="cls-76" points="690.66 201 697.22 201 686.82 191.2 690.66 201"/><polygon class="cls-77" points="667.22 201 690.66 201 686.82 191.2 667.22 201"/><polygon class="cls-78" points="692.45 80.89 701.01 1 681.53 1 628.29 38.11 692.45 80.89"/><polygon class="cls-79" points="681.53 1 637.24 1 628.29 38.11 681.53 1"/><polygon class="cls-80" points="615.9 167.57 686.82 191.21 682.32 132.67 615.9 167.57"/><polygon class="cls-81" points="682.32 132.67 628.29 38.11 590.01 137.17 682.32 132.67"/><polygon class="cls-82" points="692.45 80.89 628.29 38.11 682.32 132.67 692.45 80.89"/><polygon class="cls-83" points="615.9 167.56 630.68 201 667.22 201 686.82 191.2 615.9 167.56"/><polygon class="cls-84" points="590.01 137.17 615.9 167.57 682.32 132.67 590.01 137.17"/><polygon class="cls-85" points="628.29 38.11 541.61 68.51 590.01 137.17 628.29 38.11"/><polygon class="cls-86" points="637.24 1 601.49 1 628.29 38.11 637.24 1"/><polygon class="cls-87" points="602.63 201 630.68 201 615.9 167.56 602.63 201"/><polygon class="cls-88" points="628.29 38.11 601.49 1 573.27 1 541.61 68.5 628.29 38.11"/><polygon class="cls-89" points="510.09 163.06 615.9 167.57 590.01 137.17 510.09 163.06"/><polygon class="cls-90" points="510.09 163.06 545.4 201 602.63 201 615.9 167.56 510.09 163.06"/><polygon class="cls-91" points="493.2 193.45 506.96 201 545.4 201 510.09 163.06 493.2 193.45"/><polygon class="cls-92" points="573.27 1 484.23 1 541.61 68.5 573.27 1"/><polygon class="cls-93" points="590.01 137.17 541.61 68.51 510.09 163.06 590.01 137.17"/><polygon class="cls-83" points="493.52 201 506.96 201 493.2 193.45 493.52 201"/><polygon class="cls-94" points="541.61 68.51 485.32 78.64 510.09 163.06 541.61 68.51"/><polygon class="cls-95" points="541.61 68.5 484.23 1 469.62 1 485.32 78.63 541.61 68.5"/><polygon class="cls-96" points="493.2 193.46 510.09 163.06 411.03 109.03 493.2 193.46"/><polygon class="cls-97" points="510.09 163.06 485.32 78.64 411.03 109.03 510.09 163.06"/><polygon class="cls-98" points="485.32 78.63 469.62 1 443.92 1 397.52 50.49 485.32 78.63"/><polygon class="cls-99" points="465.35 201 493.52 201 493.2 193.45 465.35 201"/><polygon class="cls-100" points="411.03 109.03 380.96 201 465.35 201 493.2 193.45 411.03 109.03"/><polygon class="cls-101" points="485.32 78.64 397.52 50.49 411.03 109.03 485.32 78.64"/><polygon class="cls-102" points="443.92 1 381.73 1 397.52 50.49 443.92 1"/><polygon class="cls-103" points="328.85 154.06 357.46 201 380.96 201 411.03 109.03 328.85 154.06"/><polygon class="cls-104" points="397.52 50.49 337.86 30.23 411.03 109.03 397.52 50.49"/><polygon class="cls-105" points="411.03 109.03 337.86 30.23 328.85 154.06 411.03 109.03"/><polygon class="cls-102" points="397.52 50.49 381.73 1 376.16 1 337.86 30.23 397.52 50.49"/><polygon class="cls-106" points="318.92 201 357.46 201 328.85 154.05 318.92 201"/><polygon class="cls-107" points="376.16 1 333.68 1 337.86 30.23 376.16 1"/><polygon class="cls-108" points="337.86 30.23 242.18 68.51 328.85 154.06 337.86 30.23"/><polygon class="cls-109" points="328.85 154.06 242.18 68.51 230.92 159.69 328.85 154.06"/><polygon class="cls-110" points="337.86 30.23 333.68 1 330.36 1 242.18 68.5 337.86 30.23"/><polygon class="cls-111" points="330.36 1 233.29 1 242.18 68.5 330.36 1"/><polygon class="cls-112" points="230.92 159.68 297.73 201 318.92 201 328.85 154.05 230.92 159.68"/><polygon class="cls-113" points="206.15 179.95 277.31 201 297.73 201 230.92 159.68 206.15 179.95"/><polygon class="cls-114" points="206.4 201 277.31 201 206.15 179.94 206.4 201"/><polygon class="cls-115" points="242.18 68.5 233.29 1 182.93 1 181.39 3.21 242.18 68.5"/><polygon class="cls-116" points="194.97 201 206.4 201 206.15 179.94 194.97 201"/><polygon class="cls-104" points="178.01 142.8 230.92 159.69 184.77 91.02 178.01 142.8"/><polygon class="cls-117" points="230.92 159.69 242.18 68.51 184.77 91.02 230.92 159.69"/><polygon class="cls-118" points="242.18 68.51 181.39 3.22 184.77 91.02 242.18 68.51"/><polygon class="cls-119" points="206.15 179.95 230.92 159.69 178.01 142.8 206.15 179.95"/><polygon class="cls-120" points="182.93 1 159.28 1 181.39 3.21 182.93 1"/><polygon class="cls-121" points="178.01 142.8 143.47 201 177.47 201 206.15 179.94 178.01 142.8"/><polygon class="cls-122" points="177.47 201 194.97 201 206.15 179.94 177.47 201"/><polygon class="cls-118" points="184.77 91.02 181.39 3.22 102.59 97.77 184.77 91.02"/><polygon class="cls-123" points="181.39 3.22 67.69 73.01 102.59 97.77 181.39 3.22"/><polygon class="cls-124" points="181.39 3.21 159.28 1 68.69 1 67.69 73 181.39 3.21"/><polygon class="cls-125" points="102.59 97.77 178.01 142.8 184.77 91.02 102.59 97.77"/><polygon class="cls-126" points="37.3 151.8 79.39 201 112.83 201 102.59 97.77 37.3 151.8"/><polygon class="cls-127" points="102.59 97.77 112.83 201 143.47 201 178.01 142.8 102.59 97.77"/><polygon class="cls-128" points="41.84 201 79.39 201 37.3 151.8 41.84 201"/><polygon class="cls-129" points="67.69 73.01 68.69 1 56.42 1 27.17 22.35 67.69 73.01"/><polygon class="cls-130" points="67.69 73.01 37.3 151.81 102.59 97.77 67.69 73.01"/><polygon class="cls-131" points="27.17 22.35 37.3 151.81 67.69 73.01 27.17 22.35"/><polygon class="cls-132" points="56.42 1 6.43 1 27.17 22.35 56.42 1"/><polygon class="cls-124" points="37.3 151.81 27.17 22.35 6.43 1 1 1 1 25.18 37.3 151.81"/><polygon class="cls-133" points="23.98 201 41.84 201 37.3 151.8 23.98 201"/><polygon class="cls-107" points="1 25.18 1 201 23.98 201 37.3 151.8 1 25.18"/></svg>