<svg id="Layer_1" data-name="Layer 1" xmlns="http://www.w3.org/2000/svg" width="1282" height="282" viewBox="0 0 1282 282"><defs><style>.cls-1{fill:#2c3f4a;stroke:#2c3f4a;}.cls-1,.cls-10,.cls-100,.cls-101,.cls-102,.cls-107,.cls-11,.cls-110,.cls-115,.cls-116,.cls-118,.cls-120,.cls-122,.cls-124,.cls-128,.cls-129,.cls-132,.cls-133,.cls-134,.cls-135,.cls-136,.cls-138,.cls-141,.cls-147,.cls-148,.cls-149,.cls-15,.cls-151,.cls-152,.cls-153,.cls-160,.cls-161,.cls-162,.cls-164,.cls-165,.cls-166,.cls-168,.cls-170,.cls-171,.cls-172,.cls-173,.cls-2,.cls-20,.cls-21,.cls-23,.cls-25,.cls-27,.cls-28,.cls-29,.cls-3,.cls-30,.cls-31,.cls-34,.cls-4,.cls-40,.cls-41,.cls-42,.cls-43,.cls-44,.cls-45,.cls-46,.cls-5,.cls-50,.cls-59,.cls-6,.cls-62,.cls-64,.cls-67,.cls-68,.cls-69,.cls-7,.cls-70,.cls-77,.cls-79,.cls-8,.cls-83,.cls-85,.cls-86,.cls-87,.cls-89,.cls-90,.cls-94,.cls-99{stroke-width:2px;}.cls-2{fill:#273d45;stroke:#273d45;}.cls-3{fill:#263f47;stroke:#263f47;}.cls-4{fill:#213c42;stroke:#213c42;}.cls-5{fill:#243e46;stroke:#243e46;}.cls-6{fill:#203b41;stroke:#203b41;}.cls-7{fill:#294451;stroke:#294451;}.cls-8{fill:#27424d;stroke:#27424d;}.cls-9{fill:#27414a;stroke:#27414a;}.cls-103,.cls-104,.cls-105,.cls-106,.cls-108,.cls-109,.cls-111,.cls-112,.cls-113,.cls-114,.cls-117,.cls-119,.cls-12,.cls-121,.cls-123,.cls-125,.cls-126,.cls-127,.cls-13,.cls-130,.cls-131,.cls-137,.cls-139,.cls-14,.cls-140,.cls-142,.cls-143,.cls-144,.cls-145,.cls-146,.cls-150,.cls-154,.cls-155,.cls-156,.cls-157,.cls-158,.cls-159,.cls-16,.cls-163,.cls-167,.cls-169,.cls-17,.cls-18,.cls-19,.cls-22,.cls-24,.cls-26,.cls-32,.cls-33,.cls-35,.cls-36,.cls-37,.cls-38,.cls-39,.cls-47,.cls-48,.cls-49,.cls-51,.cls-52,.cls-53,.cls-54,.cls-55,.cls-56,.cls-57,.cls-58,.cls-60,.cls-61,.cls-63,.cls-65,.cls-66,.cls-71,.cls-72,.cls-73,.cls-74,.cls-75,.cls-76,.cls-78,.cls-80,.cls-81,.cls-82,.cls-84,.cls-88,.cls-9,.cls-91,.cls-92,.cls-93,.cls-95,.cls-96,.cls-97,.cls-98{stroke-width:1.51px;}.cls-10{fill:#2a4653;stroke:#2a4653;}.cls-11{fill:#2a434d;stroke:#2a434d;}.cls-12{fill:#27454f;stroke:#27454f;}.cls-13{fill:#224046;stroke:#224046;}.cls-14{fill:#234149;stroke:#234149;}.cls-15{fill:#2d4551;stroke:#2d4551;}.cls-16{fill:#244750;stroke:#244750;}.cls-17{fill:#29454f;stroke:#29454f;}.cls-18{fill:#23444c;stroke:#23444c;}.cls-19{fill:#294650;stroke:#294650;}.cls-20{fill:#2d4854;stroke:#2d4854;}.cls-21{fill:#2c4a59;stroke:#2c4a59;}.cls-22{fill:#294854;stroke:#294854;}.cls-23{fill:#2f4855;stroke:#2f4855;}.cls-24{fill:#284955;stroke:#284955;}.cls-25{fill:#2b4958;stroke:#2b4958;}.cls-26{fill:#254951;stroke:#254951;}.cls-27{fill:#2c4955;stroke:#2c4955;}.cls-28{fill:#2c4a56;stroke:#2c4a56;}.cls-29{fill:#2f4c5b;stroke:#2f4c5b;}.cls-30{fill:#2e4f60;stroke:#2e4f60;}.cls-31{fill:#2d4e5e;stroke:#2d4e5e;}.cls-32{fill:#2a4c5a;stroke:#2a4c5a;}.cls-33{fill:#254b53;stroke:#254b53;}.cls-34{fill:#304b59;stroke:#304b59;}.cls-35{fill:#2e4e5c;stroke:#2e4e5c;}.cls-36{fill:#284e59;stroke:#284e59;}.cls-37,.cls-67{fill:#29505d;stroke:#29505d;}.cls-38{fill:#274d58;stroke:#274d58;}.cls-39{fill:#2b4e5b;stroke:#2b4e5b;}.cls-40{fill:#304c5a;stroke:#304c5a;}.cls-41{fill:#2c5261;stroke:#2c5261;}.cls-42{fill:#325060;stroke:#325060;}.cls-43{fill:#2d5363;stroke:#2d5363;}.cls-44{fill:#2e5565;stroke:#2e5565;}.cls-45{fill:#2c5362;stroke:#2c5362;}.cls-46{fill:#304f5d;stroke:#304f5d;}.cls-47{fill:#284f5b;stroke:#284f5b;}.cls-48{fill:#254e58;stroke:#254e58;}.cls-49{fill:#2d4f5d;stroke:#2d4f5d;}.cls-50{fill:#315160;stroke:#315160;}.cls-51{fill:#2b4e5a;stroke:#2b4e5a;}.cls-52,.cls-70{fill:#274d57;stroke:#274d57;}.cls-53{fill:#234c55;stroke:#234c55;}.cls-54{fill:#29515d;stroke:#29515d;}.cls-55{fill:#2c4f5b;stroke:#2c4f5b;}.cls-56{fill:#244d56;stroke:#244d56;}.cls-57{fill:#274f5a;stroke:#274f5a;}.cls-58{fill:#224c54;stroke:#224c54;}.cls-59{fill:#2f4f5c;stroke:#2f4f5c;}.cls-60{fill:#254c55;stroke:#254c55;}.cls-61{fill:#224b52;stroke:#224b52;}.cls-62{fill:#2e4f5c;stroke:#2e4f5c;}.cls-63{fill:#284d57;stroke:#284d57;}.cls-121,.cls-64{fill:#2c4e59;stroke:#2c4e59;}.cls-65{fill:#284d56;stroke:#284d56;}.cls-66{fill:#274e5a;stroke:#274e5a;}.cls-68{fill:#28505c;stroke:#28505c;}.cls-69{fill:#2d4d58;stroke:#2d4d58;}.cls-71,.cls-89{fill:#254d57;stroke:#254d57;}.cls-72{fill:#234c54;stroke:#234c54;}.cls-73{fill:#234d55;stroke:#234d55;}.cls-74{fill:#214a51;stroke:#214a51;}.cls-75{fill:#234a52;stroke:#234a52;}.cls-76{fill:#204950;stroke:#204950;}.cls-77{fill:#2b4c56;stroke:#2b4c56;}.cls-78{fill:#244b52;stroke:#244b52;}.cls-125,.cls-79{fill:#294c55;stroke:#294c55;}.cls-80{fill:#224a4f;stroke:#224a4f;}.cls-81{fill:#1f494e;stroke:#1f494e;}.cls-82{fill:#1d484c;stroke:#1d484c;}.cls-83{fill:#294c54;stroke:#294c54;}.cls-84{fill:#254a51;stroke:#254a51;}.cls-85{fill:#264f5a;stroke:#264f5a;}.cls-86{fill:#254d58;stroke:#254d58;}.cls-87{fill:#284951;stroke:#284951;}.cls-88{fill:#20494f;stroke:#20494f;}.cls-90{fill:#2a4952;stroke:#2a4952;}.cls-91{fill:#244a50;stroke:#244a50;}.cls-92{fill:#20494d;stroke:#20494d;}.cls-93{fill:#284b52;stroke:#284b52;}.cls-94{fill:#2a4b55;stroke:#2a4b55;}.cls-95{fill:#1e484b;stroke:#1e484b;}.cls-96{fill:#21494d;stroke:#21494d;}.cls-97{fill:#264d56;stroke:#264d56;}.cls-98{fill:#264c55;stroke:#264c55;}.cls-99{fill:#294e5a;stroke:#294e5a;}.cls-100{fill:#2a4d58;stroke:#2a4d58;}.cls-101{fill:#2e4d57;stroke:#2e4d57;}.cls-102,.cls-137{fill:#2d4b55;stroke:#2d4b55;}.cls-103{fill:#274a51;stroke:#274a51;}.cls-104{fill:#22494f;stroke:#22494f;}.cls-105{fill:#2b4c55;stroke:#2b4c55;}.cls-106{fill:#244a51;stroke:#244a51;}.cls-107{fill:#2f4c57;stroke:#2f4c57;}.cls-108{fill:#2a4e59;stroke:#2a4e59;}.cls-109{fill:#264a51;stroke:#264a51;}.cls-110{fill:#2c505d;stroke:#2c505d;}.cls-111{fill:#284c56;stroke:#284c56;}.cls-112{fill:#2c4c55;stroke:#2c4c55;}.cls-113{fill:#294b53;stroke:#294b53;}.cls-114{fill:#294b54;stroke:#294b54;}.cls-115{fill:#2b4b57;stroke:#2b4b57;}.cls-116{fill:#2c4c59;stroke:#2c4c59;}.cls-117{fill:#284d55;stroke:#284d55;}.cls-118,.cls-123{fill:#2f4d58;stroke:#2f4d58;}.cls-119{fill:#2c4e5a;stroke:#2c4e5a;}.cls-120{fill:#324e5a;stroke:#324e5a;}.cls-122,.cls-126{fill:#2f505e;stroke:#2f505e;}.cls-124{fill:#324d5a;stroke:#324d5a;}.cls-127{fill:#2e4d58;stroke:#2e4d58;}.cls-128{fill:#31505f;stroke:#31505f;}.cls-129{fill:#344c5a;stroke:#344c5a;}.cls-130{fill:#314d59;stroke:#314d59;}.cls-131{fill:#2e4e5a;stroke:#2e4e5a;}.cls-132{fill:#314d5b;stroke:#314d5b;}.cls-133{fill:#314b5a;stroke:#314b5a;}.cls-134{fill:#344b59;stroke:#344b59;}.cls-135{fill:#354e5d;stroke:#354e5d;}.cls-136{fill:#314f5e;stroke:#314f5e;}.cls-138{fill:#344a58;stroke:#344a58;}.cls-139{fill:#2a4a52;stroke:#2a4a52;}.cls-140{fill:#2d4c57;stroke:#2d4c57;}.cls-141{fill:#314956;stroke:#314956;}.cls-142{fill:#2e4a55;stroke:#2e4a55;}.cls-143{fill:#28474f;stroke:#28474f;}.cls-144{fill:#2a4852;stroke:#2a4852;}.cls-145{fill:#2d4852;stroke:#2d4852;}.cls-146{fill:#29474f;stroke:#29474f;}.cls-147{fill:#2f4d5b;stroke:#2f4d5b;}.cls-148{fill:#304d5c;stroke:#304d5c;}.cls-149{fill:#2f4a59;stroke:#2f4a59;}.cls-150{fill:#27444c;stroke:#27444c;}.cls-151{fill:#304652;stroke:#304652;}.cls-152{fill:#2e4855;stroke:#2e4855;}.cls-153{fill:#324855;stroke:#324855;}.cls-154{fill:#2b4852;stroke:#2b4852;}.cls-155{fill:#2a4650;stroke:#2a4650;}.cls-156{fill:#2e4651;stroke:#2e4651;}.cls-157{fill:#2a444d;stroke:#2a444d;}.cls-158{fill:#28434b;stroke:#28434b;}.cls-159{fill:#27444b;stroke:#27444b;}.cls-160{fill:#2d4552;stroke:#2d4552;}.cls-161{fill:#2d4754;stroke:#2d4754;}.cls-162{fill:#2c4551;stroke:#2c4551;}.cls-163{fill:#2a454f;stroke:#2a454f;}.cls-164{fill:#314551;stroke:#314551;}.cls-165{fill:#2b424a;stroke:#2b424a;}.cls-166{fill:#2c434d;stroke:#2c434d;}.cls-167{fill:#264249;stroke:#264249;}.cls-168{fill:#273f47;stroke:#273f47;}.cls-169{fill:#27434a;stroke:#27434a;}.cls-170{fill:#254046;stroke:#254046;}.cls-171{fill:#253f46;stroke:#253f46;}.cls-172{fill:#28414a;stroke:#28414a;}.cls-173{fill:#2f424e;stroke:#2f424e;}</style></defs><title>Untitled-3</title><polygon class="cls-1" points="1281 1 1240 1 1281 15.46 1281 1"/><polygon class="cls-2" points="1281 15.46 1241.37 1 1240.41 1 1281 50.21 1281 15.46"/><polygon class="cls-3" points="1281 103.02 1281 50.21 1240.41 1 1239.97 1 1234 105.13 1281 103.02"/><polygon class="cls-4" points="1234 105.13 1243 184.84 1281 145.08 1281 103.02 1234 105.13"/><polygon class="cls-5" points="1281 222.71 1281 179.55 1243 184.84 1281 222.71"/><polygon class="cls-6" points="1281 179.55 1281 145.08 1243 184.84 1281 179.55"/><polygon class="cls-7" points="1218.82 281 1281 281 1281 234.46 1167 242.88 1218.82 281"/><polygon class="cls-8" points="1243 184.84 1167 242.63 1281 234.46 1281 222.71 1243 184.84"/><polygon class="cls-9" points="1234 105.13 1240 0.5 1198 98.15 1234 105.13"/><polygon class="cls-10" points="1158.56 281 1218.82 281 1167 243.13 1158.56 281"/><polygon class="cls-11" points="1198 98.15 1239.79 1 1239.02 1 1166 38.37 1198 98.15"/><polygon class="cls-12" points="1167 242.63 1243 184.84 1170 199.79 1167 242.63"/><polygon class="cls-13" points="1198 98.15 1243 184.84 1234 105.13 1198 98.15"/><polygon class="cls-14" points="1170 199.79 1243 184.84 1198 98.15 1170 199.79"/><polygon class="cls-15" points="1240 1 1170.07 1 1166 38.87 1240 1"/><polygon class="cls-16" points="1170 199.79 1107 83.2 1088 188.83 1170 199.79"/><polygon class="cls-17" points="1166 38.37 1137 51.32 1198 98.15 1166 38.37"/><polygon class="cls-18" points="1198 98.15 1107 83.2 1170 199.79 1198 98.15"/><polygon class="cls-19" points="1137 51.32 1107 83.2 1198 98.15 1137 51.32"/><polygon class="cls-20" points="1166 38.62 1122.78 1 1113.89 1 1137 51.69 1166 38.62"/><polygon class="cls-21" points="1122 254.84 1137.8 281 1158.56 281 1167 243.01 1122 254.84"/><polygon class="cls-22" points="1122 254.59 1167 242.63 1170 199.79 1122 254.59"/><polygon class="cls-23" points="1170.07 1 1122.78 1 1166 38.87 1170.07 1"/><polygon class="cls-24" points="1088 188.83 1122 254.59 1170 199.79 1088 188.83"/><polygon class="cls-25" points="1119.94 281 1137.8 281 1122 255.09 1119.94 281"/><polygon class="cls-26" points="1107 83.2 1071 90.18 1088 188.83 1107 83.2"/><polygon class="cls-27" points="1137 51.57 1113.89 1 1107.87 1 1107 83.58 1137 51.57"/><polygon class="cls-28" points="1107 83.45 1107.87 1 1103.33 1 1071 90.56 1107 83.45"/><polygon class="cls-29" points="1071 90.43 1103.33 1 1044.53 1 1025 4.86 1071 90.43"/><polygon class="cls-30" points="1031.11 281 1082.96 281 1048 243.13 1031.11 281"/><polygon class="cls-31" points="1048 242.88 1082.96 281 1119.94 281 1122 254.97 1048 242.88"/><polygon class="cls-32" points="1048 242.63 1122 254.59 1088 188.83 1048 242.63"/><polygon class="cls-33" points="1088 188.83 1071 90.18 1016 151.96 1088 188.83"/><polygon class="cls-34" points="1044.53 1 1025.85 1 1025 4.99 1044.53 1"/><polygon class="cls-35" points="1071 90.18 1025 4.49 1007 28.4 1071 90.18"/><polygon class="cls-36" points="1016 151.96 1048 242.63 1088 188.83 1016 151.96"/><polygon class="cls-37" points="987 203.77 1048 242.63 1016 151.96 987 203.77"/><polygon class="cls-38" points="1016 151.96 1071 90.18 973 105.13 1016 151.96"/><polygon class="cls-39" points="973 105.13 1071 90.18 1007 28.4 973 105.13"/><polygon class="cls-40" points="1025 4.99 1025.85 1 1022.09 1 1025 4.99"/><polygon class="cls-41" points="987 204.02 1024.58 281 1031.11 281 1048 243.01 987 204.02"/><polygon class="cls-42" points="1007 28.65 1025 4.86 1022.09 1 997.17 1 1007 28.65"/><polygon class="cls-43" points="927 243.88 1011.93 281 1021.37 281 956 212.12 927 243.88"/><polygon class="cls-44" points="930.89 281 1011.93 281 927 244.13 930.89 281"/><polygon class="cls-45" points="1021.37 281 1024.58 281 987 204.02 956 212.12 1021.37 281"/><polygon class="cls-46" points="997.17 1 958.34 1 1007 28.9 997.17 1"/><polygon class="cls-47" points="922 178.86 987 203.77 1016 151.96 922 178.86"/><polygon class="cls-48" points="922 178.86 1016 151.96 973 105.13 922 178.86"/><polygon class="cls-49" points="973 105.13 1007 28.4 883 6.48 973 105.13"/><polygon class="cls-50" points="1007 28.65 958.34 1 885.77 1 883 6.85 1007 28.65"/><polygon class="cls-51" points="870 72.24 973 105.13 883 6.48 870 72.24"/><polygon class="cls-37" points="956 211.75 987 203.77 922 178.86 956 211.75"/><polygon class="cls-52" points="883 124.06 973 105.13 870 72.24 883 124.06"/><polygon class="cls-53" points="883 124.06 922 178.86 973 105.13 883 124.06"/><polygon class="cls-37" points="956 211.75 922 178.86 927 243.63 956 211.75"/><polygon class="cls-54" points="922 178.86 852 247.62 927 243.63 922 178.86"/><polygon class="cls-45" points="852 247.87 902.43 281 930.89 281 927 244.01 852 247.87"/><polygon class="cls-41" points="837.48 281 902.43 281 852 248.12 837.48 281"/><polygon class="cls-55" points="883 6.48 859 27.4 870 72.24 883 6.48"/><polygon class="cls-56" points="805 200.78 922 178.86 883 124.06 805 200.78"/><polygon class="cls-57" points="805 200.78 852 247.62 922 178.86 805 200.78"/><polygon class="cls-58" points="796 145.98 805 200.78 883 124.06 796 145.98"/><polygon class="cls-59" points="885.77 1 856.6 1 883 6.98 885.77 1"/><polygon class="cls-60" points="797 119.08 883 124.06 870 72.24 797 119.08"/><polygon class="cls-61" points="797 119.08 796 145.98 883 124.06 797 119.08"/><polygon class="cls-62" points="856.6 1 827.5 1 859 27.65 883 6.85 856.6 1"/><polygon class="cls-63" points="870 72.24 859 27.4 797 119.08 870 72.24"/><polygon class="cls-64" points="859 27.65 827.5 1 804.88 1 751 40.73 859 27.65"/><polygon class="cls-65" points="859 27.4 751 40.36 797 119.08 859 27.4"/><polygon class="cls-66" points="792 213.74 852 247.62 805 200.78 792 213.74"/><polygon class="cls-67" points="852 247.87 792 214.11 822.31 281 837.48 281 852 247.87"/><polygon class="cls-67" points="775.77 281 822.31 281 792 214.24 775.77 281"/><polygon class="cls-68" points="688 258.83 707.35 281 775.77 281 792 214.11 688 258.83"/><polygon class="cls-69" points="804.88 1 758.77 1 751 40.86 804.88 1"/><polygon class="cls-70" points="683.93 281 707.35 281 688 259.08 683.93 281"/><polygon class="cls-71" points="688 258.58 792 213.74 719 204.77 688 258.58"/><polygon class="cls-72" points="719 204.77 792 213.74 796 145.98 719 204.77"/><polygon class="cls-73" points="796 145.98 792 213.74 805 200.78 796 145.98"/><polygon class="cls-74" points="719 204.77 796 145.98 716 133.03 719 204.77"/><polygon class="cls-75" points="797 119.08 751 40.36 716 133.03 797 119.08"/><polygon class="cls-76" points="716 133.03 796 145.98 797 119.08 716 133.03"/><polygon class="cls-77" points="758.77 1 708.46 1 751 40.86 758.77 1"/><polygon class="cls-78" points="751 40.36 699 48.33 716 133.03 751 40.36"/><polygon class="cls-79" points="751 40.61 708.46 1 688.86 1 699 48.7 751 40.61"/><polygon class="cls-80" points="716 133.03 699 48.33 638 87.19 716 133.03"/><polygon class="cls-81" points="601 147.97 719 204.77 716 133.03 601 147.97"/><polygon class="cls-74" points="657 236.66 719 204.77 601 147.97 657 236.66"/><polygon class="cls-56" points="657 236.66 688 258.58 719 204.77 657 236.66"/><polygon class="cls-82" points="601 147.97 716 133.03 638 87.19 601 147.97"/><polygon class="cls-83" points="699 48.58 688.86 1 649.22 1 622 18.81 699 48.58"/><polygon class="cls-84" points="699 48.33 622 18.44 638 87.19 699 48.33"/><polygon class="cls-85" points="649.31 281 683.93 281 688 259.08 649.31 281"/><polygon class="cls-86" points="639.75 281 649.31 281 688 258.83 657 237.03 639.75 281"/><polygon class="cls-87" points="649.22 1 619.21 1 622 18.94 649.22 1"/><polygon class="cls-88" points="569 178.86 657 236.66 601 147.97 569 178.86"/><polygon class="cls-89" points="570 271.78 607.69 281 639.75 281 657 237.03 570 271.78"/><polygon class="cls-72" points="570 271.53 657 236.66 569 178.86 570 271.53"/><polygon class="cls-90" points="622 18.94 619.21 1 576.47 1 622 18.94"/><polygon class="cls-70" points="561.77 281 607.69 281 570 272.03 561.77 281"/><polygon class="cls-91" points="638 87.19 622 18.44 531 82.21 638 87.19"/><polygon class="cls-92" points="531 82.21 601 147.97 638 87.19 531 82.21"/><polygon class="cls-93" points="622 18.44 527 30.39 531 82.21 622 18.44"/><polygon class="cls-94" points="622 18.69 576.47 1 532.87 1 527 30.77 622 18.69"/><polygon class="cls-95" points="569 178.86 601 147.97 531 82.21 569 178.86"/><polygon class="cls-96" points="487 104.13 569 178.86 531 82.21 487 104.13"/><polygon class="cls-97" points="474 261.57 570 271.53 569 178.86 474 261.57"/><polygon class="cls-80" points="487 104.13 466 191.82 569 178.86 487 104.13"/><polygon class="cls-98" points="466 191.82 474 261.57 569 178.86 466 191.82"/><polygon class="cls-99" points="474 261.82 501.02 281 561.77 281 570 271.91 474 261.82"/><polygon class="cls-93" points="531 82.21 527 30.39 468 61.28 531 82.21"/><polygon class="cls-100" points="467.02 281 501.02 281 474 262.07 467.02 281"/><polygon class="cls-101" points="527 30.64 509.86 1 458.14 1 445 34.75 527 30.64"/><polygon class="cls-102" points="532.87 1 509.86 1 527 30.89 532.87 1"/><polygon class="cls-103" points="468 61.28 487 104.13 531 82.21 468 61.28"/><polygon class="cls-104" points="441 129.04 466 191.82 487 104.13 441 129.04"/><polygon class="cls-105" points="527 30.39 445 34.38 468 61.28 527 30.39"/><polygon class="cls-106" points="430 161.92 466 191.82 441 129.04 430 161.92"/><polygon class="cls-107" points="458.14 1 421.03 1 445 34.88 458.14 1"/><polygon class="cls-108" points="466 191.82 415 264.56 474 261.57 466 191.82"/><polygon class="cls-109" points="441 129.04 487 104.13 468 61.28 441 129.04"/><polygon class="cls-110" points="415 264.81 429.26 281 467.02 281 474 261.94 415 264.81"/><polygon class="cls-111" points="430 161.92 415 264.56 466 191.82 430 161.92"/><polygon class="cls-112" points="445 34.38 374 57.3 468 61.28 445 34.38"/><polygon class="cls-113" points="468 61.28 374 57.3 441 129.04 468 61.28"/><polygon class="cls-114" points="374 57.3 359 84.2 441 129.04 374 57.3"/><polygon class="cls-115" points="417.46 281 429.26 281 415 265.06 417.46 281"/><polygon class="cls-116" points="394.68 281 417.46 281 415 265.06 394.68 281"/><polygon class="cls-117" points="362 154.95 415 264.56 430 161.92 362 154.95"/><polygon class="cls-118" points="445 34.63 421.03 1 393 1 374 57.67 445 34.63"/><polygon class="cls-84" points="362 154.95 430 161.92 441 129.04 362 154.95"/><polygon class="cls-109" points="359 84.2 362 154.95 441 129.04 359 84.2"/><polygon class="cls-119" points="358 274.52 415 264.56 362 154.95 358 274.52"/><polygon class="cls-120" points="393 1 357.28 1 374 57.8 393 1"/><polygon class="cls-121" points="302 206.76 358 274.52 362 154.95 302 206.76"/><polygon class="cls-122" points="415 264.81 358 274.9 360.22 281 394.68 281 415 264.81"/><polygon class="cls-123" points="374 57.3 286 9.47 359 84.2 374 57.3"/><polygon class="cls-124" points="357.28 1 308 1 286 9.72 374 57.67 357.28 1"/><polygon class="cls-113" points="252 113.1 362 154.95 359 84.2 252 113.1"/><polygon class="cls-29" points="351.07 281 360.22 281 358 275.02 351.07 281"/><polygon class="cls-125" points="302 206.76 362 154.95 252 113.1 302 206.76"/><polygon class="cls-126" points="247 250.61 358 274.52 302 206.76 247 250.61"/><polygon class="cls-127" points="359 84.2 286 9.47 252 113.1 359 84.2"/><polygon class="cls-128" points="247 250.86 263.1 281 351.07 281 358 274.9 247 250.86"/><polygon class="cls-129" points="283.92 1 286 9.97 308 1 283.92 1"/><polygon class="cls-130" points="286 9.47 213 49.33 252 113.1 286 9.47"/><polygon class="cls-105" points="206 156.94 302 206.76 252 113.1 206 156.94"/><polygon class="cls-131" points="206 156.94 247 250.61 302 206.76 206 156.94"/><polygon class="cls-132" points="195.18 281 245.92 281 247 251.11 195.18 281"/><polygon class="cls-133" points="245.92 281 263.1 281 247 251.11 245.92 281"/><polygon class="cls-134" points="277.64 1 286 9.97 283.92 1 277.64 1"/><polygon class="cls-135" points="286 9.72 277.64 1 216.56 1 213 49.7 286 9.72"/><polygon class="cls-136" points="198 261.82 191.09 281 195.18 281 247 250.98 198 261.82"/><polygon class="cls-131" points="198 261.57 247 250.61 206 156.94 198 261.57"/><polygon class="cls-137" points="252 113.1 213 49.33 202 101.14 252 113.1"/><polygon class="cls-138" points="216.56 1 163.35 1 213 49.83 216.56 1"/><polygon class="cls-139" points="202 101.14 206 156.94 252 113.1 202 101.14"/><polygon class="cls-140" points="143 222.71 198 261.57 206 156.94 143 222.71"/><polygon class="cls-141" points="213 49.58 163.35 1 132.67 1 126 54.68 213 49.58"/><polygon class="cls-142" points="213 49.33 126 54.31 202 101.14 213 49.33"/><polygon class="cls-143" points="105 158.93 206 156.94 202 101.14 105 158.93"/><polygon class="cls-144" points="143 222.71 206 156.94 105 158.93 143 222.71"/><polygon class="cls-145" points="202 101.14 126 54.31 104 72.24 202 101.14"/><polygon class="cls-146" points="104 72.24 105 158.93 202 101.14 104 72.24"/><polygon class="cls-147" points="187.69 281 191.09 281 198 261.82 143 223.08 187.69 281"/><polygon class="cls-148" points="133.94 281 187.69 281 143 223.21 133.94 281"/><polygon class="cls-149" points="90 243.88 108.75 281 133.94 281 143 223.08 90 243.88"/><polygon class="cls-150" points="70 136.02 105 158.93 104 72.24 70 136.02"/><polygon class="cls-151" points="79 39.61 126 54.68 89.7 1 84.09 1 79 39.61"/><polygon class="cls-152" points="90 244.13 84.23 281 108.75 281 90 244.13"/><polygon class="cls-153" points="132.67 1 89.7 1 126 54.81 132.67 1"/><polygon class="cls-154" points="105 158.93 90 243.63 143 222.71 105 158.93"/><polygon class="cls-155" points="59 184.84 90 243.63 105 158.93 59 184.84"/><polygon class="cls-156" points="126 54.31 79 39.36 104 72.24 126 54.31"/><polygon class="cls-157" points="79 39.36 25 130.04 104 72.24 79 39.36"/><polygon class="cls-158" points="104 72.24 25 130.04 70 136.02 104 72.24"/><polygon class="cls-159" points="59 184.84 105 158.93 70 136.02 59 184.84"/><polygon class="cls-160" points="57.72 281 84.23 281 90 244.13 57.72 281"/><polygon class="cls-161" points="5 206.02 6.71 281 57.72 281 90 244.01 5 206.02"/><polygon class="cls-162" points="1 208.04 1 281 6.71 281 5 206.02 1 208.04"/><polygon class="cls-163" points="5 205.77 90 243.63 59 184.84 5 205.77"/><polygon class="cls-164" points="84.09 1 13.68 1 79 39.86 84.09 1"/><polygon class="cls-165" points="12.1 1 10.79 1 1 8.57 1 102.08 25 130.29 12.1 1"/><polygon class="cls-166" points="13.68 1 12.1 1 25 130.29 79 39.74 13.68 1"/><polygon class="cls-167" points="70 136.02 25 130.04 59 184.84 70 136.02"/><polygon class="cls-168" points="1 102.08 1 123.42 25 130.04 1 102.08"/><polygon class="cls-169" points="25 130.04 5 205.77 59 184.84 25 130.04"/><polygon class="cls-170" points="25 130.04 1 123.42 1 197.44 5 205.77 25 130.04"/><polygon class="cls-171" points="1 197.44 1 204.58 5 205.77 1 197.44"/><polygon class="cls-172" points="1 204.58 1 208.04 5 205.77 1 204.58"/><polygon class="cls-173" points="1 1 1 8.57 10.79 1 1 1"/></svg>