<svg id="Layer_1" data-name="Layer 1" xmlns="http://www.w3.org/2000/svg" width="1601" height="201" viewBox="0 0 1601 201"><defs><style>.cls-1{fill:#85829d;stroke:#85829d;}.cls-2{fill:#a09faf;stroke:#a09faf;}.cls-3{fill:#8f8aaa;stroke:#8f8aaa;}.cls-4{fill:#8783a1;stroke:#8783a1;}.cls-5{fill:#8c87a7;stroke:#8c87a7;}.cls-6{fill:#817e96;stroke:#817e96;}.cls-7{fill:#8e8ca0;stroke:#8e8ca0;}.cls-8{fill:#8e89a8;stroke:#8e89a8;}.cls-9{fill:#8c88a5;stroke:#8c88a5;}.cls-10{fill:#8f8da0;stroke:#8f8da0;}.cls-11{fill:#8c88a3;stroke:#8c88a3;}.cls-12{fill:#848197;stroke:#848197;}.cls-13{fill:#88849c;stroke:#88849c;}.cls-14{fill:#928daa;stroke:#928daa;}.cls-15{fill:#c5c5c5;stroke:#c5c5c5;}.cls-16{fill:#8f8ba5;stroke:#8f8ba5;}.cls-17{fill:#8d8b9d;stroke:#8d8b9d;}.cls-18{fill:#b3b2b9;stroke:#b3b2b9;}.cls-19{fill:#9795a4;stroke:#9795a4;}.cls-20{fill:#948fab;stroke:#948fab;}.cls-21{fill:#878499;stroke:#878499;}.cls-22{fill:#89869d;stroke:#89869d;}.cls-23{fill:#948fa9;stroke:#948fa9;}.cls-24{fill:#b1b0b6;stroke:#b1b0b6;}.cls-25{fill:#868397;stroke:#868397;}.cls-26{fill:#8c899b;stroke:#8c899b;}.cls-27{fill:#89869a;stroke:#89869a;}.cls-28{fill:#bebebf;stroke:#bebebf;}.cls-29{fill:#8f8ba2;stroke:#8f8ba2;}.cls-30{fill:#898698;stroke:#898698;}.cls-31{fill:#9993af;stroke:#9993af;}.cls-32{fill:#b0afb4;stroke:#b0afb4;}.cls-33{fill:#9998a4;stroke:#9998a4;}.cls-34{fill:#938fa5;stroke:#938fa5;}.cls-35{fill:#9894ad;stroke:#9894ad;}.cls-36{fill:#9792aa;stroke:#9792aa;}.cls-37{fill:#908ca0;stroke:#908ca0;}.cls-38{fill:#928ea2;stroke:#928ea2;}.cls-39{fill:#9995ac;stroke:#9995ac;}.cls-40{fill:#8b8998;stroke:#8b8998;}.cls-41{fill:#918d9f;stroke:#918d9f;}.cls-42{fill:#95949f;stroke:#95949f;}.cls-43{fill:#abaaaf;stroke:#abaaaf;}.cls-44{fill:#9894a9;stroke:#9894a9;}.cls-45{fill:#8e8c9a;stroke:#8e8c9a;}.cls-46{fill:#8c86a1;stroke:#8c86a1;}.cls-47{fill:#928da3;stroke:#928da3;}.cls-48{fill:#9793a6;stroke:#9793a6;}.cls-49{fill:#928fa0;stroke:#928fa0;}.cls-50{fill:#9994ab;stroke:#9994ab;}.cls-51{fill:#aaa9ad;stroke:#aaa9ad;}.cls-52{fill:#8d8a9b;stroke:#8d8a9b;}.cls-53{fill:#96959f;stroke:#96959f;}.cls-54{fill:#838093;stroke:#838093;}.cls-55{fill:#888694;stroke:#888694;}.cls-56{fill:#88849b;stroke:#88849b;}.cls-57{fill:#837d99;stroke:#837d99;}.cls-58{fill:#817d93;stroke:#817d93;}.cls-59{fill:#928f9c;stroke:#928f9c;}.cls-60{fill:#78738c;stroke:#78738c;}.cls-61{fill:#7e7a8c;stroke:#7e7a8c;}.cls-62{fill:#797390;stroke:#797390;}.cls-63{fill:#6f6a82;stroke:#6f6a82;}.cls-64{fill:#7e7c8d;stroke:#7e7c8d;}.cls-65{fill:#8a8896;stroke:#8a8896;}.cls-66{fill:#706989;stroke:#706989;}.cls-67{fill:#696383;stroke:#696383;}.cls-68{fill:#67637d;stroke:#67637d;}.cls-69{fill:#646078;stroke:#646078;}.cls-70{fill:#65607d;stroke:#65607d;}.cls-71{fill:#5b5675;stroke:#5b5675;}.cls-72{fill:#5f5a74;stroke:#5f5a74;}.cls-73{fill:#757186;stroke:#757186;}.cls-74{fill:#4e4a66;stroke:#4e4a66;}.cls-75{fill:#625b7f;stroke:#625b7f;}.cls-76{fill:#524e6c;stroke:#524e6c;}.cls-77{fill:#595376;stroke:#595376;}.cls-78{fill:#807d8e;stroke:#807d8e;}.cls-79{fill:#706d82;stroke:#706d82;}.cls-80{fill:#504a6e;stroke:#504a6e;}.cls-81{fill:#4f4a70;stroke:#4f4a70;}.cls-82{fill:#4b4764;stroke:#4b4764;}.cls-83{fill:#423e5f;stroke:#423e5f;}.cls-84{fill:#4a4667;stroke:#4a4667;}.cls-85{fill:#55516c;stroke:#55516c;}.cls-86{fill:#3e3b5a;stroke:#3e3b5a;}.cls-87{fill:#3a385b;stroke:#3a385b;}.cls-88{fill:#48436a;stroke:#48436a;}.cls-89{fill:#57536e;stroke:#57536e;}.cls-90{fill:#3e3b61;stroke:#3e3b61;}.cls-91{fill:#363453;stroke:#363453;}.cls-92{fill:#484461;stroke:#484461;}.cls-93{fill:#44405e;stroke:#44405e;}.cls-94{fill:#32315b;stroke:#32315b;}.cls-95{fill:#2e2d50;stroke:#2e2d50;}.cls-96{fill:#2a294f;stroke:#2a294f;}.cls-97{fill:#2e2d57;stroke:#2e2d57;}.cls-98{fill:#2b2b4e;stroke:#2b2b4e;}.cls-99{fill:#2f2e59;stroke:#2f2e59;}.cls-100{fill:#534f6c;stroke:#534f6c;}.cls-101{fill:#393758;stroke:#393758;}.cls-102{fill:#2d2c55;stroke:#2d2c55;}.cls-103{fill:#31315e;stroke:#31315e;}.cls-104{fill:#333155;stroke:#333155;}.cls-105{fill:#2d2d56;stroke:#2d2d56;}.cls-106{fill:#474264;stroke:#474264;}.cls-107{fill:#333261;stroke:#333261;}.cls-108{fill:#2f2f5a;stroke:#2f2f5a;}.cls-109{fill:#323260;stroke:#323260;}.cls-110{fill:#363566;stroke:#363566;}.cls-111{fill:#3c395e;stroke:#3c395e;}.cls-112{fill:#423e63;stroke:#423e63;}.cls-113{fill:#575173;stroke:#575173;}.cls-114{fill:#373668;stroke:#373668;}.cls-115{fill:#5f587b;stroke:#5f587b;}.cls-116{fill:#302f5b;stroke:#302f5b;}.cls-117{fill:#343463;stroke:#343463;}.cls-118{fill:#36345c;stroke:#36345c;}.cls-119{fill:#3a396e;stroke:#3a396e;}.cls-120{fill:#484369;stroke:#484369;}.cls-121{fill:#5a5478;stroke:#5a5478;}.cls-122{fill:#38386b;stroke:#38386b;}.cls-123{fill:#3c3963;stroke:#3c3963;}.cls-124{fill:#39365f;stroke:#39365f;}.cls-125{fill:#544e75;stroke:#544e75;}.cls-126{fill:#39396d;stroke:#39396d;}.cls-127{fill:#343362;stroke:#343362;}.cls-128{fill:#363667;stroke:#363667;}.cls-129{fill:#3b3b71;stroke:#3b3b71;}.cls-130{fill:#5f587f;stroke:#5f587f;}</style></defs><title>Untitled-9</title><polygon class="cls-1" points="1484.68 97.9 1600.5 140.39 1600.5 128.96 1541.97 40.49 1484.68 97.9"/><polygon class="cls-2" points="1600.5 200.5 1600.5 164.76 1583.96 200.5 1600.5 200.5"/><polygon class="cls-3" points="1600.5 2.31 1600.5 0.5 1508.09 0.5 1549.97 21.6 1600.5 2.31"/><polygon class="cls-4" points="1600.5 128.96 1600.5 5.11 1541.84 40.49 1600.5 128.96"/><polygon class="cls-5" points="1542.09 40.49 1600.5 5.11 1600.5 2.31 1549.85 21.35 1542.09 40.49"/><polygon class="cls-6" points="1568.84 200.5 1583.96 200.5 1600.5 164.76 1600.5 140.39 1484.68 98.15 1568.84 200.5"/><polygon class="cls-7" points="1479.1 200.5 1568.84 200.5 1484.93 98.39 1479.1 200.5"/><polygon class="cls-8" points="1550.22 21.6 1508.09 0.5 1492.29 0.5 1542.34 40.86 1550.22 21.6"/><polygon class="cls-9" points="1542.34 40.74 1492.29 0.5 1469.23 0.5 1484.93 98.27 1542.34 40.74"/><polygon class="cls-10" points="1441.17 200.5 1479.1 200.5 1484.93 98.39 1441.17 200.5"/><polygon class="cls-11" points="1484.93 98.15 1469.23 0.5 1453.38 0.5 1408.39 78.01 1484.93 98.15"/><polygon class="cls-12" points="1401.63 140.92 1433.27 200.5 1441.17 200.5 1484.93 98.27 1401.63 140.92"/><polygon class="cls-13" points="1484.93 97.9 1408.39 77.64 1401.63 140.68 1484.93 97.9"/><polygon class="cls-14" points="1453.38 0.5 1404.07 0.5 1408.39 78.13 1453.38 0.5"/><polygon class="cls-15" points="1333.66 200.5 1339.89 200.5 1335.22 191.83 1333.66 200.5"/><polygon class="cls-16" points="1408.39 77.88 1404.07 0.5 1379.08 0.5 1336.34 83.64 1408.39 77.88"/><polygon class="cls-17" points="1368.99 155.56 1427 200.5 1433.27 200.5 1401.63 141.05 1368.99 155.56"/><polygon class="cls-18" points="1339.89 200.5 1387.84 200.5 1335.22 191.83 1339.89 200.5"/><polygon class="cls-19" points="1335.22 191.58 1387.84 200.5 1427 200.5 1368.99 155.68 1335.22 191.58"/><polygon class="cls-20" points="1379.08 0.5 1325.09 0.5 1336.34 83.76 1379.08 0.5"/><polygon class="cls-21" points="1401.63 140.68 1336.34 83.27 1368.99 155.31 1401.63 140.68"/><polygon class="cls-22" points="1408.39 77.64 1336.34 83.27 1401.63 140.68 1408.39 77.64"/><polygon class="cls-23" points="1336.34 83.51 1325.09 0.5 1278.55 0.5 1260.92 18.35 1336.34 83.51"/><polygon class="cls-24" points="1294.69 199.46 1294.83 200.5 1333.66 200.5 1335.22 191.7 1294.69 199.46"/><polygon class="cls-25" points="1368.99 155.31 1336.34 83.27 1335.22 191.33 1368.99 155.31"/><polygon class="cls-26" points="1335.22 191.33 1336.34 83.27 1294.69 199.21 1335.22 191.33"/><polygon class="cls-27" points="1294.69 199.21 1336.34 83.27 1242.91 102.4 1294.69 199.21"/><polygon class="cls-28" points="1293.99 200 1294.83 200 1294.69 199.21 1293.99 200"/><polygon class="cls-29" points="1336.34 83.27 1260.92 17.98 1242.91 102.4 1336.34 83.27"/><polygon class="cls-30" points="1222.65 129.42 1294.69 199.21 1242.91 102.4 1222.65 129.42"/><polygon class="cls-31" points="1278.55 0.5 1261.58 0.5 1260.92 18.47 1278.55 0.5"/><polygon class="cls-32" points="1289.5 200.5 1293.99 200.5 1294.69 199.71 1289.5 200.5"/><polygon class="cls-33" points="1222.65 129.67 1191.48 200.5 1289.5 200.5 1294.69 199.58 1222.65 129.67"/><polygon class="cls-34" points="1260.92 17.98 1185.5 23.6 1242.91 102.4 1260.92 17.98"/><polygon class="cls-35" points="1261.58 0.5 1213.75 0.5 1260.92 18.47 1261.58 0.5"/><polygon class="cls-36" points="1260.92 18.22 1213.75 0.5 1213.59 0.5 1185.5 23.98 1260.92 18.22"/><polygon class="cls-37" points="1242.91 102.4 1185.5 23.6 1222.65 129.42 1242.91 102.4"/><polygon class="cls-38" points="1185.5 23.6 1103.33 60.75 1222.65 129.42 1185.5 23.6"/><polygon class="cls-39" points="1213.59 0.5 1091.11 0.5 1185.5 24.1 1213.59 0.5"/><polygon class="cls-40" points="1083.06 104.9 1169.75 200.5 1191.48 200.5 1222.65 129.79 1083.06 104.9"/><polygon class="cls-41" points="1222.65 129.42 1103.33 60.75 1083.06 104.65 1222.65 129.42"/><polygon class="cls-42" points="1068.43 179.2 1134.15 200.5 1169.75 200.5 1083.06 105.02 1068.43 179.2"/><polygon class="cls-43" points="1073.69 200.5 1134.15 200.5 1068.43 179.44 1073.69 200.5"/><polygon class="cls-44" points="1185.5 23.85 1091.11 0.5 1090.95 0.5 1103.33 61.12 1185.5 23.85"/><polygon class="cls-45" points="1068.43 178.95 1083.06 104.65 1056.05 128.29 1068.43 178.95"/><polygon class="cls-46" points="1006.96 0.5 955.91 0.5 988.5 9.46 1006.96 0.5"/><polygon class="cls-47" points="1008.77 88.02 1090.9 0.5 1090.48 0.5 988.5 9.34 1008.77 88.02"/><polygon class="cls-48" points="1103.33 61 1090.95 0.5 1090.9 0.5 1008.77 88.14 1103.33 61"/><polygon class="cls-49" points="1103.33 60.75 1008.77 87.77 1083.06 104.65 1103.33 60.75"/><polygon class="cls-50" points="1090.48 0.5 1006.96 0.5 988.5 9.46 1090.48 0.5"/><polygon class="cls-51" points="1035.72 200.5 1073.69 200.5 1068.43 179.44 1035.72 200.5"/><polygon class="cls-52" points="1083.06 104.65 1008.77 87.77 1056.05 128.29 1083.06 104.65"/><polygon class="cls-53" points="1056.05 128.54 1007.72 200.5 1035.72 200.5 1068.43 179.32 1056.05 128.54"/><polygon class="cls-54" points="1056.05 128.29 1008.77 87.77 934.47 142.93 1056.05 128.29"/><polygon class="cls-55" points="934.47 143.17 967.71 200.5 1007.72 200.5 1056.05 128.66 934.47 143.17"/><polygon class="cls-56" points="988.5 8.97 956.99 26.98 1008.77 87.77 988.5 8.97"/><polygon class="cls-57" points="988.5 9.22 955.91 0.5 906.34 0.5 956.99 27.35 988.5 9.22"/><polygon class="cls-58" points="1008.77 87.77 956.99 26.98 934.47 142.93 1008.77 87.77"/><polygon class="cls-59" points="912.99 200.5 967.71 200.5 934.47 143.42 912.99 200.5"/><polygon class="cls-60" points="956.99 26.98 859.05 72.01 934.47 142.93 956.99 26.98"/><polygon class="cls-61" points="875.94 152.18 885.55 200.5 912.99 200.5 934.47 143.3 875.94 152.18"/><polygon class="cls-62" points="956.99 27.23 906.34 0.5 855.01 0.5 859.05 72.38 956.99 27.23"/><polygon class="cls-63" points="934.47 142.93 859.05 72.01 875.94 151.93 934.47 142.93"/><polygon class="cls-64" points="807.27 196.08 814.34 200.5 885.55 200.5 875.94 152.3 807.27 196.08"/><polygon class="cls-65" points="804.74 200.5 814.34 200.5 807.27 196.33 804.74 200.5"/><polygon class="cls-66" points="855.01 0.5 803.88 0.5 859.05 72.5 855.01 0.5"/><polygon class="cls-67" points="859.05 72.26 803.88 0.5 785.73 0.5 774.63 23.98 859.05 72.26"/><polygon class="cls-68" points="875.94 151.93 859.05 72.01 789.26 118.16 875.94 151.93"/><polygon class="cls-69" points="807.27 195.83 875.94 151.93 789.26 118.16 807.27 195.83"/><polygon class="cls-70" points="859.05 72.01 774.63 23.6 789.26 118.16 859.05 72.01"/><polygon class="cls-71" points="774.63 23.6 692.45 79.89 789.26 118.16 774.63 23.6"/><polygon class="cls-72" points="686.82 190.21 807.27 195.83 789.26 118.16 686.82 190.21"/><polygon class="cls-73" points="686.82 190.45 697.22 200.5 804.74 200.5 807.27 196.21 686.82 190.45"/><polygon class="cls-74" points="682.32 131.67 686.82 190.21 789.26 118.16 682.32 131.67"/><polygon class="cls-75" points="785.73 0.5 730.2 0.5 774.63 24.1 785.73 0.5"/><polygon class="cls-76" points="789.26 118.16 692.45 79.89 682.32 131.67 789.26 118.16"/><polygon class="cls-77" points="774.63 23.85 730.2 0.5 701.01 0.5 692.45 80.26 774.63 23.85"/><polygon class="cls-78" points="690.66 200.5 697.22 200.5 686.82 190.7 690.66 200.5"/><polygon class="cls-79" points="667.22 200.5 690.66 200.5 686.82 190.7 667.22 200.5"/><polygon class="cls-80" points="692.45 80.14 701.01 0.5 681.53 0.5 628.29 37.48 692.45 80.14"/><polygon class="cls-81" points="681.53 0.5 637.24 0.5 628.29 37.61 681.53 0.5"/><polygon class="cls-82" points="615.9 166.57 686.82 190.21 682.32 131.67 615.9 166.57"/><polygon class="cls-83" points="682.32 131.67 628.29 37.11 590.01 136.17 682.32 131.67"/><polygon class="cls-84" points="692.45 79.89 628.29 37.11 682.32 131.67 692.45 79.89"/><polygon class="cls-85" points="615.9 166.81 630.68 200.5 667.22 200.5 686.82 190.58 615.9 166.81"/><polygon class="cls-86" points="590.01 136.17 615.9 166.57 682.32 131.67 590.01 136.17"/><polygon class="cls-87" points="628.29 37.11 541.61 67.51 590.01 136.17 628.29 37.11"/><polygon class="cls-88" points="637.24 0.5 601.49 0.5 628.29 37.61 637.24 0.5"/><polygon class="cls-89" points="602.63 200.5 630.68 200.5 615.9 167.06 602.63 200.5"/><polygon class="cls-90" points="628.29 37.36 601.49 0.5 573.27 0.5 541.61 67.88 628.29 37.36"/><polygon class="cls-91" points="510.09 162.06 615.9 166.57 590.01 136.17 510.09 162.06"/><polygon class="cls-92" points="510.09 162.31 545.4 200.5 602.63 200.5 615.9 166.94 510.09 162.31"/><polygon class="cls-93" points="493.2 192.7 506.96 200.5 545.4 200.5 510.09 162.43 493.2 192.7"/><polygon class="cls-94" points="573.27 0.5 484.23 0.5 541.61 68 573.27 0.5"/><polygon class="cls-95" points="590.01 136.17 541.61 67.51 510.09 162.06 590.01 136.17"/><polygon class="cls-85" points="493.52 200.5 506.96 200.5 493.2 192.95 493.52 200.5"/><polygon class="cls-96" points="541.61 67.51 485.32 77.64 510.09 162.06 541.61 67.51"/><polygon class="cls-97" points="541.61 67.75 484.23 0.5 469.62 0.5 485.32 78.01 541.61 67.75"/><polygon class="cls-98" points="493.2 192.46 510.09 162.06 411.03 108.03 493.2 192.46"/><polygon class="cls-96" points="510.09 162.06 485.32 77.64 411.03 108.03 510.09 162.06"/><polygon class="cls-99" points="485.32 77.88 469.62 0.5 443.92 0.5 397.52 49.87 485.32 77.88"/><polygon class="cls-100" points="465.35 200.5 493.52 200.5 493.2 192.95 465.35 200.5"/><polygon class="cls-101" points="411.03 108.28 380.96 200.5 465.35 200.5 493.2 192.83 411.03 108.28"/><polygon class="cls-102" points="485.32 77.64 397.52 49.49 411.03 108.03 485.32 77.64"/><polygon class="cls-103" points="443.92 0.5 381.73 0.5 397.52 49.99 443.92 0.5"/><polygon class="cls-104" points="328.85 153.31 357.46 200.5 380.96 200.5 411.03 108.4 328.85 153.31"/><polygon class="cls-99" points="397.52 49.49 337.86 29.23 411.03 108.03 397.52 49.49"/><polygon class="cls-105" points="411.03 108.03 337.86 29.23 328.85 153.06 411.03 108.03"/><polygon class="cls-103" points="397.52 49.74 381.73 0.5 376.16 0.5 337.86 29.6 397.52 49.74"/><polygon class="cls-106" points="318.92 200.5 357.46 200.5 328.85 153.55 318.92 200.5"/><polygon class="cls-107" points="376.16 0.5 333.68 0.5 337.86 29.73 376.16 0.5"/><polygon class="cls-108" points="337.86 29.23 242.18 67.51 328.85 153.06 337.86 29.23"/><polygon class="cls-97" points="328.85 153.06 242.18 67.51 230.92 158.69 328.85 153.06"/><polygon class="cls-109" points="337.86 29.48 333.68 0.5 330.36 0.5 242.18 67.88 337.86 29.48"/><polygon class="cls-110" points="330.36 0.5 233.29 0.5 242.18 68 330.36 0.5"/><polygon class="cls-111" points="230.92 158.93 297.73 200.5 318.92 200.5 328.85 153.43 230.92 158.93"/><polygon class="cls-112" points="206.15 179.2 277.31 200.5 297.73 200.5 230.92 159.06 206.15 179.2"/><polygon class="cls-113" points="206.4 200.5 277.31 200.5 206.15 179.44 206.4 200.5"/><polygon class="cls-114" points="242.18 67.75 233.29 0.5 182.93 0.5 181.39 2.59 242.18 67.75"/><polygon class="cls-115" points="194.97 200.5 206.4 200.5 206.15 179.44 194.97 200.5"/><polygon class="cls-99" points="178.01 141.8 230.92 158.69 184.77 90.02 178.01 141.8"/><polygon class="cls-116" points="230.92 158.69 242.18 67.51 184.77 90.02 230.92 158.69"/><polygon class="cls-117" points="242.18 67.51 181.39 2.22 184.77 90.02 242.18 67.51"/><polygon class="cls-118" points="206.15 178.95 230.92 158.69 178.01 141.8 206.15 178.95"/><polygon class="cls-119" points="182.93 0.5 159.28 0.5 181.39 2.71 182.93 0.5"/><polygon class="cls-120" points="178.01 142.05 143.47 200.5 177.47 200.5 206.15 179.32 178.01 142.05"/><polygon class="cls-121" points="177.47 200.5 194.97 200.5 206.15 179.44 177.47 200.5"/><polygon class="cls-117" points="184.77 90.02 181.39 2.22 102.59 96.77 184.77 90.02"/><polygon class="cls-110" points="181.39 2.22 67.69 72.01 102.59 96.77 181.39 2.22"/><polygon class="cls-122" points="181.39 2.46 159.28 0.5 68.69 0.5 67.69 72.38 181.39 2.46"/><polygon class="cls-103" points="102.59 96.77 178.01 141.8 184.77 90.02 102.59 96.77"/><polygon class="cls-123" points="37.3 151.05 79.39 200.5 112.83 200.5 102.59 97.14 37.3 151.05"/><polygon class="cls-124" points="102.59 97.02 112.83 200.5 143.47 200.5 178.01 142.17 102.59 97.02"/><polygon class="cls-125" points="41.84 200.5 79.39 200.5 37.3 151.3 41.84 200.5"/><polygon class="cls-126" points="67.69 72.26 68.69 0.5 56.42 0.5 27.17 21.72 67.69 72.26"/><polygon class="cls-127" points="67.69 72.01 37.3 150.81 102.59 96.77 67.69 72.01"/><polygon class="cls-128" points="27.17 21.35 37.3 150.81 67.69 72.01 27.17 21.35"/><polygon class="cls-129" points="56.42 0.5 6.43 0.5 27.17 21.85 56.42 0.5"/><polygon class="cls-122" points="37.05 150.81 27.05 21.6 6.43 0.5 0.5 0.5 0.5 24.18 37.05 150.81"/><polygon class="cls-130" points="23.98 200.5 41.84 200.5 37.3 151.3 23.98 200.5"/><polygon class="cls-107" points="0.5 24.18 0.5 200.5 23.98 200.5 37.05 151.05 0.5 24.18"/></svg>