<svg id="Layer_1" data-name="Layer 1" xmlns="http://www.w3.org/2000/svg" width="1602" height="202.07" viewBox="0 0 1602 202.07"><defs><style>.cls-1{fill:#ba554d;stroke:#ba554d;}.cls-1,.cls-10,.cls-101,.cls-102,.cls-103,.cls-105,.cls-106,.cls-109,.cls-11,.cls-110,.cls-113,.cls-114,.cls-115,.cls-116,.cls-117,.cls-118,.cls-119,.cls-12,.cls-123,.cls-124,.cls-125,.cls-127,.cls-129,.cls-130,.cls-131,.cls-132,.cls-135,.cls-136,.cls-14,.cls-15,.cls-16,.cls-17,.cls-18,.cls-19,.cls-2,.cls-20,.cls-23,.cls-24,.cls-3,.cls-31,.cls-32,.cls-33,.cls-35,.cls-36,.cls-39,.cls-4,.cls-40,.cls-42,.cls-43,.cls-44,.cls-46,.cls-47,.cls-48,.cls-5,.cls-50,.cls-51,.cls-53,.cls-55,.cls-57,.cls-59,.cls-6,.cls-61,.cls-62,.cls-64,.cls-65,.cls-66,.cls-67,.cls-7,.cls-73,.cls-75,.cls-77,.cls-78,.cls-79,.cls-8,.cls-80,.cls-81,.cls-85,.cls-88,.cls-89,.cls-9,.cls-90,.cls-92,.cls-93,.cls-94,.cls-96,.cls-98{stroke-width:2px;}.cls-2{fill:#cc716b;stroke:#cc716b;}.cls-3{fill:#c75a4e;stroke:#c75a4e;}.cls-4{fill:#be554c;stroke:#be554c;}.cls-5{fill:#c4574d;stroke:#c4574d;}.cls-6{fill:#b3544e;stroke:#b3544e;}.cls-7{fill:#bd615b;stroke:#bd615b;}.cls-8{fill:#c55a4f;stroke:#c55a4f;}.cls-9{fill:#c25a50;stroke:#c25a50;}.cls-10{fill:#bd635c;stroke:#bd635c;}.cls-11{fill:#c05c51;stroke:#c05c51;}.cls-12{fill:#b45952;stroke:#b45952;}.cls-13{fill:#b95b52;stroke:#b95b52;}.cls-100,.cls-104,.cls-107,.cls-108,.cls-111,.cls-112,.cls-120,.cls-121,.cls-122,.cls-126,.cls-128,.cls-13,.cls-133,.cls-134,.cls-21,.cls-22,.cls-25,.cls-26,.cls-27,.cls-28,.cls-29,.cls-30,.cls-34,.cls-37,.cls-38,.cls-41,.cls-45,.cls-49,.cls-52,.cls-54,.cls-56,.cls-58,.cls-60,.cls-63,.cls-68,.cls-69,.cls-70,.cls-71,.cls-72,.cls-74,.cls-76,.cls-82,.cls-83,.cls-84,.cls-86,.cls-87,.cls-91,.cls-95,.cls-97,.cls-99{stroke-width:1.51px;}.cls-14{fill:#c75f53;stroke:#c75f53;}.cls-15{fill:#e29793;stroke:#e29793;}.cls-16{fill:#c26054;stroke:#c26054;}.cls-17{fill:#ba645c;stroke:#ba645c;}.cls-18{fill:#d68680;stroke:#d68680;}.cls-19{fill:#c16d65;stroke:#c16d65;}.cls-20{fill:#c86256;stroke:#c86256;}.cls-21{fill:#b65d54;stroke:#b65d54;}.cls-22{fill:#ba5d54;stroke:#ba5d54;}.cls-23{fill:#c66458;stroke:#c66458;}.cls-24{fill:#d38680;stroke:#d38680;}.cls-25{fill:#b45d55;stroke:#b45d55;}.cls-26{fill:#b8635b;stroke:#b8635b;}.cls-27{fill:#b76057;stroke:#b76057;}.cls-28{fill:#dc938e;stroke:#dc938e;}.cls-29{fill:#bf6358;stroke:#bf6358;}.cls-30{fill:#b56159;stroke:#b56159;}.cls-31{fill:#cc6759;stroke:#cc6759;}.cls-32{fill:#d18780;stroke:#d18780;}.cls-33{fill:#c1716a;stroke:#c1716a;}.cls-34{fill:#c2675b;stroke:#c2675b;}.cls-35{fill:#ca685b;stroke:#ca685b;}.cls-36{fill:#c7695b;stroke:#c7695b;}.cls-37{fill:#bd665b;stroke:#bd665b;}.cls-38{fill:#bf685d;stroke:#bf685d;}.cls-39{fill:#c96b5e;stroke:#c96b5e;}.cls-40{fill:#b5665d;stroke:#b5665d;}.cls-41{fill:#bc695e;stroke:#bc695e;}.cls-42{fill:#bc7068;stroke:#bc7068;}.cls-43{fill:#cc847d;stroke:#cc847d;}.cls-44{fill:#c66c5f;stroke:#c66c5f;}.cls-45{fill:#b76960;stroke:#b76960;}.cls-46{fill:#be5f50;stroke:#be5f50;}.cls-47{fill:#c0675a;stroke:#c0675a;}.cls-48{fill:#c36d60;stroke:#c36d60;}.cls-49{fill:#bd6b60;stroke:#bd6b60;}.cls-50{fill:#c86c5e;stroke:#c86c5e;}.cls-51{fill:#ca847d;stroke:#ca847d;}.cls-52{fill:#b8675d;stroke:#b8675d;}.cls-53{fill:#bc726a;stroke:#bc726a;}.cls-54{fill:#b05e54;stroke:#b05e54;}.cls-55{fill:#b1645c;stroke:#b1645c;}.cls-56{fill:#b85f52;stroke:#b85f52;}.cls-57{fill:#b65749;stroke:#b65749;}.cls-58{fill:#b05a4e;stroke:#b05a4e;}.cls-59{fill:#b96d64;stroke:#b96d64;}.cls-60{fill:#a95245;stroke:#a95245;}.cls-61{fill:#a95b51;stroke:#a95b51;}.cls-62{fill:#ad4f41;stroke:#ad4f41;}.cls-63{fill:#9f4b40;stroke:#9f4b40;}.cls-64{fill:#aa5b52;stroke:#aa5b52;}.cls-65{fill:#b3665d;stroke:#b3665d;}.cls-66{fill:#a64638;stroke:#a64638;}.cls-67{fill:#a04133;stroke:#a04133;}.cls-68{fill:#9a4338;stroke:#9a4338;}.cls-69{fill:#954238;stroke:#954238;}.cls-70{fill:#9a3e33;stroke:#9a3e33;}.cls-71{fill:#92352a;stroke:#92352a;}.cls-72{fill:#913d33;stroke:#913d33;}.cls-73{fill:#a35248;stroke:#a35248;}.cls-74{fill:#832d24;stroke:#832d24;}.cls-75{fill:#9c382a;stroke:#9c382a;}.cls-76{fill:#892e25;stroke:#892e25;}.cls-77{fill:#933125;stroke:#933125;}.cls-78{fill:#ab5d53;stroke:#ab5d53;}.cls-79{fill:#9f4e44;stroke:#9f4e44;}.cls-80{fill:#8b281d;stroke:#8b281d;}.cls-81{fill:#8d251a;stroke:#8d251a;}.cls-82{fill:#812921;stroke:#812921;}.cls-83{fill:#7c1e16;stroke:#7c1e16;}.cls-84{fill:#84251c;stroke:#84251c;}.cls-85{fill:#89342a;stroke:#89342a;}.cls-86{fill:#771c16;stroke:#771c16;}.cls-87{fill:#78130f;stroke:#78130f;}.cls-88{fill:#871d14;stroke:#871d14;}.cls-89{fill:#8b362c;stroke:#8b362c;}.cls-90{fill:#7e140f;stroke:#7e140f;}.cls-91{fill:#701310;stroke:#701310;}.cls-92{fill:#7e261e;stroke:#7e261e;}.cls-93{fill:#7b231b;stroke:#7b231b;}.cls-94{fill:#780403;stroke:#780403;}.cls-95{fill:#6d0807;stroke:#6d0807;}.cls-96{fill:#89332a;stroke:#89332a;}.cls-97{fill:#6c0001;stroke:#6c0001;}.cls-112,.cls-98{fill:#740001;stroke:#740001;}.cls-99{fill:#6b0404;stroke:#6b0404;}.cls-100{fill:#6c0000;stroke:#6c0000;}.cls-101,.cls-107{fill:#760001;stroke:#760001;}.cls-102{fill:#893027;stroke:#893027;}.cls-103{fill:#751410;stroke:#751410;}.cls-104{fill:#720001;stroke:#720001;}.cls-105,.cls-128{fill:#7b0001;stroke:#7b0001;}.cls-106{fill:#720b09;stroke:#720b09;}.cls-108{fill:#730001;stroke:#730001;}.cls-109{fill:#812119;stroke:#812119;}.cls-110{fill:#7e0001;stroke:#7e0001;}.cls-111{fill:#770001;stroke:#770001;}.cls-113{fill:#7d0001;stroke:#7d0001;}.cls-114,.cls-126{fill:#830001;stroke:#830001;}.cls-115{fill:#7b140f;stroke:#7b140f;}.cls-116{fill:#801a13;stroke:#801a13;}.cls-117{fill:#902f24;stroke:#902f24;}.cls-118{fill:#850001;stroke:#850001;}.cls-119{fill:#983629;stroke:#983629;}.cls-120{fill:#780001;stroke:#780001;}.cls-121{fill:#800001;stroke:#800001;}.cls-122{fill:#790a08;stroke:#790a08;}.cls-123{fill:#8b0001;stroke:#8b0001;}.cls-124{fill:#861e15;stroke:#861e15;}.cls-125{fill:#953125;stroke:#953125;}.cls-127{fill:#880001;stroke:#880001;}.cls-129{fill:#800e0a;stroke:#800e0a;}.cls-130{fill:#7c0c08;stroke:#7c0c08;}.cls-131{fill:#92291d;stroke:#92291d;}.cls-132{fill:#8a0001;stroke:#8a0001;}.cls-133{fill:#7f0001;stroke:#7f0001;}.cls-134{fill:#840001;stroke:#840001;}.cls-135{fill:#8e0001;stroke:#8e0001;}.cls-136{fill:#9c3325;stroke:#9c3325;}</style></defs><title>Untitled-42</title><polygon class="cls-1" points="1484.93 98.9 1601 141.39 1601 129.96 1542.34 41.49 1484.93 98.9"/><polygon class="cls-2" points="1601 201 1601 165.76 1583.96 201 1601 201"/><polygon class="cls-3" points="1601 3.31 1601 1 1508.09 1 1550.22 22.35 1601 3.31"/><polygon class="cls-4" points="1601 129.96 1601 6.11 1542.34 41.49 1601 129.96"/><polygon class="cls-5" points="1542.34 41.49 1601 6.11 1601 3.31 1550.22 22.35 1542.34 41.49"/><polygon class="cls-6" points="1568.84 201 1583.96 201 1601 165.76 1601 141.39 1484.93 98.9 1568.84 201"/><polygon class="cls-7" points="1479.1 201 1568.84 201 1484.93 98.89 1479.1 201"/><polygon class="cls-8" points="1550.22 22.35 1508.09 1 1492.29 1 1542.34 41.48 1550.22 22.35"/><polygon class="cls-9" points="1542.34 41.49 1492.29 1 1469.23 1 1484.93 98.89 1542.34 41.49"/><polygon class="cls-10" points="1441.17 201 1479.1 201 1484.93 98.89 1441.17 201"/><polygon class="cls-11" points="1484.93 98.9 1469.23 1 1453.38 1 1408.39 78.63 1484.93 98.9"/><polygon class="cls-12" points="1401.63 141.67 1433.27 201 1441.17 201 1484.93 98.89 1401.63 141.67"/><polygon class="cls-13" points="1484.93 98.9 1408.39 78.64 1401.63 141.68 1484.93 98.9"/><polygon class="cls-14" points="1453.38 1 1404.07 1 1408.39 78.63 1453.38 1"/><polygon class="cls-15" points="1333.66 201 1339.89 201 1335.22 192.33 1333.66 201"/><polygon class="cls-16" points="1408.39 78.63 1404.07 1 1379.08 1 1336.34 84.26 1408.39 78.63"/><polygon class="cls-17" points="1368.99 156.31 1427 201 1433.27 201 1401.63 141.67 1368.99 156.31"/><polygon class="cls-18" points="1339.89 201 1387.84 201 1335.22 192.33 1339.89 201"/><polygon class="cls-19" points="1335.22 192.33 1387.84 201 1427 201 1368.99 156.31 1335.22 192.33"/><polygon class="cls-20" points="1379.08 1 1325.09 1 1336.34 84.26 1379.08 1"/><polygon class="cls-21" points="1401.63 141.68 1336.34 84.27 1368.99 156.31 1401.63 141.68"/><polygon class="cls-22" points="1408.39 78.64 1336.34 84.27 1401.63 141.68 1408.39 78.64"/><polygon class="cls-23" points="1336.34 84.26 1325.09 1 1278.55 1 1260.92 18.97 1336.34 84.26"/><polygon class="cls-24" points="1294.69 200.21 1294.83 201 1333.66 201 1335.22 192.33 1294.69 200.21"/><polygon class="cls-25" points="1368.99 156.31 1336.34 84.27 1335.22 192.33 1368.99 156.31"/><polygon class="cls-26" points="1335.22 192.33 1336.34 84.27 1294.69 200.21 1335.22 192.33"/><polygon class="cls-27" points="1294.69 200.21 1336.34 84.27 1242.91 103.4 1294.69 200.21"/><polygon class="cls-28" points="1293.99 201 1294.83 201 1294.69 200.21 1293.99 201"/><polygon class="cls-29" points="1336.34 84.27 1260.92 18.98 1242.91 103.4 1336.34 84.27"/><polygon class="cls-30" points="1222.65 130.42 1294.69 200.21 1242.91 103.4 1222.65 130.42"/><polygon class="cls-31" points="1278.55 1 1261.58 1 1260.92 18.97 1278.55 1"/><polygon class="cls-32" points="1289.5 201 1293.99 201 1294.69 200.21 1289.5 201"/><polygon class="cls-33" points="1222.65 130.42 1191.48 201 1289.5 201 1294.69 200.21 1222.65 130.42"/><polygon class="cls-34" points="1260.92 18.98 1185.5 24.6 1242.91 103.4 1260.92 18.98"/><polygon class="cls-35" points="1261.58 1 1213.75 1 1260.92 18.97 1261.58 1"/><polygon class="cls-36" points="1260.92 18.97 1213.75 1 1213.59 1 1185.5 24.6 1260.92 18.97"/><polygon class="cls-37" points="1242.91 103.4 1185.5 24.6 1222.65 130.42 1242.91 103.4"/><polygon class="cls-38" points="1185.5 24.6 1103.33 61.75 1222.65 130.42 1185.5 24.6"/><polygon class="cls-39" points="1213.59 1 1091.11 1 1185.5 24.6 1213.59 1"/><polygon class="cls-40" points="1083.06 105.65 1169.75 201 1191.48 201 1222.65 130.41 1083.06 105.65"/><polygon class="cls-41" points="1222.65 130.42 1103.33 61.75 1083.06 105.65 1222.65 130.42"/><polygon class="cls-42" points="1068.43 179.95 1134.15 201 1169.75 201 1083.06 105.65 1068.43 179.95"/><polygon class="cls-43" points="1073.69 201 1134.15 201 1068.43 179.94 1073.69 201"/><polygon class="cls-44" points="1185.5 24.6 1091.11 1 1090.95 1 1103.33 61.75 1185.5 24.6"/><polygon class="cls-45" points="1068.43 179.95 1083.06 105.65 1056.05 129.29 1068.43 179.95"/><polygon class="cls-46" points="1006.96 1 955.91 1 988.5 9.96 1006.96 1"/><polygon class="cls-47" points="1008.77 88.77 1090.9 1 1090.48 1 988.5 9.97 1008.77 88.77"/><polygon class="cls-48" points="1103.33 61.75 1090.95 1 1090.9 1 1008.77 88.76 1103.33 61.75"/><polygon class="cls-49" points="1103.33 61.75 1008.77 88.77 1083.06 105.65 1103.33 61.75"/><polygon class="cls-50" points="1090.48 1 1006.96 1 988.5 9.96 1090.48 1"/><polygon class="cls-51" points="1035.72 201 1073.69 201 1068.43 179.94 1035.72 201"/><polygon class="cls-52" points="1083.06 105.65 1008.77 88.77 1056.05 129.29 1083.06 105.65"/><polygon class="cls-53" points="1056.05 129.29 1007.72 201 1035.72 201 1068.43 179.94 1056.05 129.29"/><polygon class="cls-54" points="1056.05 129.29 1008.77 88.77 934.47 143.93 1056.05 129.29"/><polygon class="cls-55" points="934.47 143.92 967.71 201 1007.72 201 1056.05 129.29 934.47 143.92"/><polygon class="cls-56" points="988.5 9.97 956.99 27.98 1008.77 88.77 988.5 9.97"/><polygon class="cls-57" points="988.5 9.97 955.91 1 906.34 1 956.99 27.98 988.5 9.97"/><polygon class="cls-58" points="1008.77 88.77 956.99 27.98 934.47 143.93 1008.77 88.77"/><polygon class="cls-59" points="912.99 201 967.71 201 934.47 143.92 912.99 201"/><polygon class="cls-60" points="956.99 27.98 859.05 73.01 934.47 143.93 956.99 27.98"/><polygon class="cls-61" points="875.94 152.93 885.55 201 912.99 201 934.47 143.92 875.94 152.93"/><polygon class="cls-62" points="956.99 27.98 906.34 1 855.01 1 859.05 73 956.99 27.98"/><polygon class="cls-63" points="934.47 143.93 859.05 73.01 875.94 152.93 934.47 143.93"/><polygon class="cls-64" points="807.27 196.83 814.34 201 885.55 201 875.94 152.93 807.27 196.83"/><polygon class="cls-65" points="804.74 201 814.34 201 807.27 196.83 804.74 201"/><polygon class="cls-66" points="855.01 1 803.88 1 859.05 73 855.01 1"/><polygon class="cls-67" points="859.05 73.01 803.88 1 785.73 1 774.63 24.6 859.05 73.01"/><polygon class="cls-68" points="875.94 152.93 859.05 73.01 789.26 119.16 875.94 152.93"/><polygon class="cls-69" points="807.27 196.83 875.94 152.93 789.26 119.16 807.27 196.83"/><polygon class="cls-70" points="859.05 73.01 774.63 24.6 789.26 119.16 859.05 73.01"/><polygon class="cls-71" points="774.63 24.6 692.45 80.89 789.26 119.16 774.63 24.6"/><polygon class="cls-72" points="686.82 191.21 807.27 196.83 789.26 119.16 686.82 191.21"/><polygon class="cls-73" points="686.82 191.2 697.22 201 804.74 201 807.27 196.83 686.82 191.2"/><polygon class="cls-74" points="682.32 132.67 686.82 191.21 789.26 119.16 682.32 132.67"/><polygon class="cls-75" points="785.73 1 730.2 1 774.63 24.6 785.73 1"/><polygon class="cls-76" points="789.26 119.16 692.45 80.89 682.32 132.67 789.26 119.16"/><polygon class="cls-77" points="774.63 24.6 730.2 1 701.01 1 692.45 80.88 774.63 24.6"/><polygon class="cls-78" points="690.66 201 697.22 201 686.82 191.2 690.66 201"/><polygon class="cls-79" points="667.22 201 690.66 201 686.82 191.2 667.22 201"/><polygon class="cls-80" points="692.45 80.89 701.01 1 681.53 1 628.29 38.11 692.45 80.89"/><polygon class="cls-81" points="681.53 1 637.24 1 628.29 38.11 681.53 1"/><polygon class="cls-82" points="615.9 167.57 686.82 191.21 682.32 132.67 615.9 167.57"/><polygon class="cls-83" points="682.32 132.67 628.29 38.11 590.01 137.17 682.32 132.67"/><polygon class="cls-84" points="692.45 80.89 628.29 38.11 682.32 132.67 692.45 80.89"/><polygon class="cls-85" points="615.9 167.56 630.68 201 667.22 201 686.82 191.2 615.9 167.56"/><polygon class="cls-86" points="590.01 137.17 615.9 167.57 682.32 132.67 590.01 137.17"/><polygon class="cls-87" points="628.29 38.11 541.61 68.51 590.01 137.17 628.29 38.11"/><polygon class="cls-88" points="637.24 1 601.49 1 628.29 38.11 637.24 1"/><polygon class="cls-89" points="602.63 201 630.68 201 615.9 167.56 602.63 201"/><polygon class="cls-90" points="628.29 38.11 601.49 1 573.27 1 541.61 68.5 628.29 38.11"/><polygon class="cls-91" points="510.09 163.06 615.9 167.57 590.01 137.17 510.09 163.06"/><polygon class="cls-92" points="510.09 163.06 545.4 201 602.63 201 615.9 167.56 510.09 163.06"/><polygon class="cls-93" points="493.2 193.45 506.96 201 545.4 201 510.09 163.06 493.2 193.45"/><polygon class="cls-94" points="573.27 1 484.23 1 541.61 68.5 573.27 1"/><polygon class="cls-95" points="590.01 137.17 541.61 68.51 510.09 163.06 590.01 137.17"/><polygon class="cls-96" points="493.52 201 506.96 201 493.2 193.45 493.52 201"/><polygon class="cls-97" points="541.61 68.51 485.32 78.64 510.09 163.06 541.61 68.51"/><polygon class="cls-98" points="541.61 68.5 484.23 1 469.62 1 485.32 78.63 541.61 68.5"/><polygon class="cls-99" points="493.2 193.46 510.09 163.06 411.03 109.03 493.2 193.46"/><polygon class="cls-100" points="510.09 163.06 485.32 78.64 411.03 109.03 510.09 163.06"/><polygon class="cls-101" points="485.32 78.63 469.62 1 443.92 1 397.52 50.49 485.32 78.63"/><polygon class="cls-102" points="465.35 201 493.52 201 493.2 193.45 465.35 201"/><polygon class="cls-103" points="411.03 109.03 380.96 201 465.35 201 493.2 193.45 411.03 109.03"/><polygon class="cls-104" points="485.32 78.64 397.52 50.49 411.03 109.03 485.32 78.64"/><polygon class="cls-105" points="443.92 1 381.73 1 397.52 50.49 443.92 1"/><polygon class="cls-106" points="328.85 154.06 357.46 201 380.96 201 411.03 109.03 328.85 154.06"/><polygon class="cls-107" points="397.52 50.49 337.86 30.23 411.03 109.03 397.52 50.49"/><polygon class="cls-108" points="411.03 109.03 337.86 30.23 328.85 154.06 411.03 109.03"/><polygon class="cls-105" points="397.52 50.49 381.73 1 376.16 1 337.86 30.23 397.52 50.49"/><polygon class="cls-109" points="318.92 201 357.46 201 328.85 154.05 318.92 201"/><polygon class="cls-110" points="376.16 1 333.68 1 337.86 30.23 376.16 1"/><polygon class="cls-111" points="337.86 30.23 242.18 68.51 328.85 154.06 337.86 30.23"/><polygon class="cls-112" points="328.85 154.06 242.18 68.51 230.92 159.69 328.85 154.06"/><polygon class="cls-113" points="337.86 30.23 333.68 1 330.36 1 242.18 68.5 337.86 30.23"/><polygon class="cls-114" points="330.36 1 233.29 1 242.18 68.5 330.36 1"/><polygon class="cls-115" points="230.92 159.68 297.73 201 318.92 201 328.85 154.05 230.92 159.68"/><polygon class="cls-116" points="206.15 179.95 277.31 201 297.73 201 230.92 159.68 206.15 179.95"/><polygon class="cls-117" points="206.4 201 277.31 201 206.15 179.94 206.4 201"/><polygon class="cls-118" points="242.18 68.5 233.29 1 182.93 1 181.39 3.21 242.18 68.5"/><polygon class="cls-119" points="194.97 201 206.4 201 206.15 179.94 194.97 201"/><polygon class="cls-107" points="178.01 142.8 230.92 159.69 184.77 91.02 178.01 142.8"/><polygon class="cls-120" points="230.92 159.69 242.18 68.51 184.77 91.02 230.92 159.69"/><polygon class="cls-121" points="242.18 68.51 181.39 3.22 184.77 91.02 242.18 68.51"/><polygon class="cls-122" points="206.15 179.95 230.92 159.69 178.01 142.8 206.15 179.95"/><polygon class="cls-123" points="182.93 1 159.28 1 181.39 3.21 182.93 1"/><polygon class="cls-124" points="178.01 142.8 143.47 201 177.47 201 206.15 179.94 178.01 142.8"/><polygon class="cls-125" points="177.47 201 194.97 201 206.15 179.94 177.47 201"/><polygon class="cls-121" points="184.77 91.02 181.39 3.22 102.59 97.77 184.77 91.02"/><polygon class="cls-126" points="181.39 3.22 67.69 73.01 102.59 97.77 181.39 3.22"/><polygon class="cls-127" points="181.39 3.21 159.28 1 68.69 1 67.69 73 181.39 3.21"/><polygon class="cls-128" points="102.59 97.77 178.01 142.8 184.77 91.02 102.59 97.77"/><polygon class="cls-129" points="37.3 151.8 79.39 201 112.83 201 102.59 97.77 37.3 151.8"/><polygon class="cls-130" points="102.59 97.77 112.83 201 143.47 201 178.01 142.8 102.59 97.77"/><polygon class="cls-131" points="41.84 201 79.39 201 37.3 151.8 41.84 201"/><polygon class="cls-132" points="67.69 73.01 68.69 1 56.42 1 27.17 22.35 67.69 73.01"/><polygon class="cls-133" points="67.69 73.01 37.3 151.81 102.59 97.77 67.69 73.01"/><polygon class="cls-134" points="27.17 22.35 37.3 151.81 67.69 73.01 27.17 22.35"/><polygon class="cls-135" points="56.42 1 6.43 1 27.17 22.35 56.42 1"/><polygon class="cls-127" points="37.3 151.81 27.17 22.35 6.43 1 1 1 1 25.18 37.3 151.81"/><polygon class="cls-136" points="23.98 201 41.84 201 37.3 151.8 23.98 201"/><polygon class="cls-110" points="1 25.18 1 201 23.98 201 37.3 151.8 1 25.18"/></svg>