<svg id="Layer_1" data-name="Layer 1" xmlns="http://www.w3.org/2000/svg" width="1602" height="202.07" viewBox="0 0 1602 202.07"><defs><style>.cls-1,.cls-17{fill:#b8b3a5;stroke:#b8b3a5;}.cls-1,.cls-10,.cls-100,.cls-102,.cls-103,.cls-106,.cls-107,.cls-11,.cls-13,.cls-14,.cls-15,.cls-18,.cls-19,.cls-2,.cls-25,.cls-27,.cls-29,.cls-3,.cls-30,.cls-32,.cls-33,.cls-35,.cls-36,.cls-37,.cls-39,.cls-4,.cls-40,.cls-42,.cls-43,.cls-44,.cls-45,.cls-5,.cls-50,.cls-52,.cls-54,.cls-55,.cls-56,.cls-57,.cls-58,.cls-6,.cls-62,.cls-65,.cls-66,.cls-67,.cls-69,.cls-7,.cls-70,.cls-72,.cls-74,.cls-76,.cls-77,.cls-79,.cls-8,.cls-82,.cls-85,.cls-86,.cls-87,.cls-88,.cls-89,.cls-9,.cls-90,.cls-91,.cls-96,.cls-97,.cls-98{stroke-width:2px;}.cls-2{fill:#cac4b5;stroke:#cac4b5;}.cls-3{fill:#c5c0b1;stroke:#c5c0b1;}.cls-4{fill:#bcb7a9;stroke:#bcb7a9;}.cls-5{fill:#c2bdae;stroke:#c2bdae;}.cls-6{fill:#b1ac9f;stroke:#b1ac9f;}.cls-28,.cls-7{fill:#bbb6a8;stroke:#bbb6a8;}.cls-8{fill:#c3beaf;stroke:#c3beaf;}.cls-26,.cls-9{fill:#c0bbac;stroke:#c0bbac;}.cls-10{fill:#beb9ab;stroke:#beb9ab;}.cls-11,.cls-20{fill:#b2ada0;stroke:#b2ada0;}.cls-12,.cls-37{fill:#b7b2a5;stroke:#b7b2a5;}.cls-101,.cls-104,.cls-105,.cls-12,.cls-16,.cls-17,.cls-20,.cls-21,.cls-22,.cls-23,.cls-24,.cls-26,.cls-28,.cls-31,.cls-34,.cls-38,.cls-41,.cls-46,.cls-47,.cls-48,.cls-49,.cls-51,.cls-53,.cls-59,.cls-60,.cls-61,.cls-63,.cls-64,.cls-68,.cls-71,.cls-73,.cls-75,.cls-78,.cls-80,.cls-81,.cls-83,.cls-84,.cls-92,.cls-93,.cls-94,.cls-95,.cls-99{stroke-width:1.51px;}.cls-13{fill:#bfbaac;stroke:#bfbaac;}.cls-14{fill:#d4cebe;stroke:#d4cebe;}.cls-15{fill:#c6c1b2;stroke:#c6c1b2;}.cls-16,.cls-36{fill:#b4afa2;stroke:#b4afa2;}.cls-18{fill:#c4bfb1;stroke:#c4bfb1;}.cls-19{fill:#d1ccbc;stroke:#d1ccbc;}.cls-21{fill:#b6b1a3;stroke:#b6b1a3;}.cls-22{fill:#b5b0a2;stroke:#b5b0a2;}.cls-23{fill:#bdb8aa;stroke:#bdb8aa;}.cls-24,.cls-30{fill:#b3aea1;stroke:#b3aea1;}.cls-25{fill:#cfc9ba;stroke:#cfc9ba;}.cls-27{fill:#c8c3b4;stroke:#c8c3b4;}.cls-29{fill:#c7c2b2;stroke:#c7c2b2;}.cls-31,.cls-32{fill:#bab5a7;stroke:#bab5a7;}.cls-33{fill:#c1bcae;stroke:#c1bcae;}.cls-34{fill:#aea99c;stroke:#aea99c;}.cls-35{fill:#afaa9d;stroke:#afaa9d;}.cls-38,.cls-39{fill:#a39e92;stroke:#a39e92;}.cls-40{fill:#a7a295;stroke:#a7a295;}.cls-41,.cls-56{fill:#999589;stroke:#999589;}.cls-42{fill:#a49f92;stroke:#a49f92;}.cls-43{fill:#ada89b;stroke:#ada89b;}.cls-44{fill:#a09b8f;stroke:#a09b8f;}.cls-45{fill:#9a9689;stroke:#9a9689;}.cls-46{fill:#949085;stroke:#949085;}.cls-47{fill:#8f8b80;stroke:#8f8b80;}.cls-48{fill:#8c887d;stroke:#8c887d;}.cls-49{fill:#8b877c;stroke:#8b877c;}.cls-50{fill:#9d998c;stroke:#9d998c;}.cls-51{fill:#7d7970;stroke:#7d7970;}.cls-52{fill:#969286;stroke:#969286;}.cls-53,.cls-62{fill:#837f75;stroke:#837f75;}.cls-54{fill:#8d897e;stroke:#8d897e;}.cls-55{fill:#a5a094;stroke:#a5a094;}.cls-57{fill:#817e74;stroke:#817e74;}.cls-58{fill:#838076;stroke:#838076;}.cls-59{fill:#7b776d;stroke:#7b776d;}.cls-60{fill:#6e6a62;stroke:#6e6a62;}.cls-61{fill:#7a776d;stroke:#7a776d;}.cls-63{fill:#6d6b62;stroke:#6d6b62;}.cls-64,.cls-70{fill:#6e6c63;stroke:#6e6c63;}.cls-65{fill:#7d7a70;stroke:#7d7a70;}.cls-66{fill:#89857b;stroke:#89857b;}.cls-67{fill:#747269;stroke:#747269;}.cls-68{fill:#66645c;stroke:#66645c;}.cls-69{fill:#716f66;stroke:#716f66;}.cls-71{fill:#636159;stroke:#636159;}.cls-72{fill:#7f7c72;stroke:#7f7c72;}.cls-73{fill:#626058;stroke:#626058;}.cls-74,.cls-95{fill:#6a6860;stroke:#6a6860;}.cls-75{fill:#615f57;stroke:#615f57;}.cls-76,.cls-80{fill:#6c6a61;stroke:#6c6a61;}.cls-77{fill:#6b6960;stroke:#6b6960;}.cls-78,.cls-79{fill:#68665d;stroke:#68665d;}.cls-81{fill:#69675e;stroke:#69675e;}.cls-82{fill:#6a685f;stroke:#6a685f;}.cls-83{fill:#68665e;stroke:#68665e;}.cls-84{fill:#65635b;stroke:#65635b;}.cls-85{fill:#6e6c64;stroke:#6e6c64;}.cls-86,.cls-99{fill:#747169;stroke:#747169;}.cls-101,.cls-87{fill:#6c6a62;stroke:#6c6a62;}.cls-88,.cls-94{fill:#716e66;stroke:#716e66;}.cls-89{fill:#817e75;stroke:#817e75;}.cls-90{fill:#76736b;stroke:#76736b;}.cls-91{fill:#89867c;stroke:#89867c;}.cls-92{fill:#67655d;stroke:#67655d;}.cls-93{fill:#69675f;stroke:#69675f;}.cls-96{fill:#7c7970;stroke:#7c7970;}.cls-97{fill:#6b6861;stroke:#6b6861;}.cls-98{fill:#868379;stroke:#868379;}.cls-100{fill:#79766d;stroke:#79766d;}.cls-102{fill:#6d6a62;stroke:#6d6a62;}.cls-103{fill:#7b786f;stroke:#7b786f;}.cls-104{fill:#706d65;stroke:#706d65;}.cls-105{fill:#757269;stroke:#757269;}.cls-106{fill:#8d8a7f;stroke:#8d8a7f;}.cls-107{fill:#6f6d64;stroke:#6f6d64;}</style></defs><title>Untitled-47</title><polygon class="cls-1" points="117.07 98.9 1 141.39 1 129.96 59.66 41.49 117.07 98.9"/><polygon class="cls-2" points="1 201 1 165.76 18.04 201 1 201"/><polygon class="cls-3" points="1 3.31 1 1 93.91 1 51.78 22.35 1 3.31"/><polygon class="cls-4" points="1 129.96 1 6.11 59.66 41.49 1 129.96"/><polygon class="cls-5" points="59.66 41.49 1 6.11 1 3.31 51.78 22.35 59.66 41.49"/><polygon class="cls-6" points="33.16 201 18.04 201 1 165.76 1 141.39 117.07 98.9 33.16 201"/><polygon class="cls-7" points="122.9 201 33.16 201 117.07 98.89 122.9 201"/><polygon class="cls-8" points="51.78 22.35 93.91 1 109.71 1 59.66 41.48 51.78 22.35"/><polygon class="cls-9" points="59.66 41.49 109.71 1 132.77 1 117.07 98.89 59.66 41.49"/><polygon class="cls-7" points="160.83 201 122.9 201 117.07 98.89 160.83 201"/><polygon class="cls-10" points="117.07 98.9 132.77 1 148.62 1 193.61 78.63 117.07 98.9"/><polygon class="cls-11" points="200.37 141.67 168.73 201 160.83 201 117.07 98.89 200.37 141.67"/><polygon class="cls-12" points="117.07 98.9 193.61 78.64 200.37 141.68 117.07 98.9"/><polygon class="cls-3" points="148.62 1 197.93 1 193.61 78.63 148.62 1"/><polygon class="cls-13" points="268.34 201 262.11 201 266.78 192.33 268.34 201"/><polygon class="cls-9" points="193.61 78.63 197.93 1 222.92 1 265.66 84.26 193.61 78.63"/><polygon class="cls-1" points="233.01 156.31 175 201 168.73 201 200.37 141.67 233.01 156.31"/><polygon class="cls-14" points="262.11 201 214.16 201 266.78 192.33 262.11 201"/><polygon class="cls-13" points="266.78 192.33 214.16 201 175 201 233.01 156.31 266.78 192.33"/><polygon class="cls-15" points="222.92 1 276.91 1 265.66 84.26 222.92 1"/><polygon class="cls-16" points="200.37 141.68 265.66 84.27 233.01 156.31 200.37 141.68"/><polygon class="cls-17" points="193.61 78.64 265.66 84.27 200.37 141.68 193.61 78.64"/><polygon class="cls-18" points="265.66 84.26 276.91 1 323.45 1 341.08 18.97 265.66 84.26"/><polygon class="cls-19" points="307.31 200.21 307.17 201 268.34 201 266.78 192.33 307.31 200.21"/><polygon class="cls-20" points="233.01 156.31 265.66 84.27 266.78 192.33 233.01 156.31"/><polygon class="cls-21" points="266.78 192.33 265.66 84.27 307.31 200.21 266.78 192.33"/><polygon class="cls-22" points="307.31 200.21 265.66 84.27 359.09 103.4 307.31 200.21"/><polygon class="cls-13" points="308.01 201 307.17 201 307.31 200.21 308.01 201"/><polygon class="cls-23" points="265.66 84.27 341.08 18.98 359.09 103.4 265.66 84.27"/><polygon class="cls-24" points="379.35 130.42 307.31 200.21 359.09 103.4 379.35 130.42"/><polygon class="cls-2" points="323.45 1 340.43 1 341.08 18.97 323.45 1"/><polygon class="cls-25" points="312.5 201 308.01 201 307.31 200.21 312.5 201"/><polygon class="cls-13" points="379.35 130.42 410.52 201 312.5 201 307.31 200.21 379.35 130.42"/><polygon class="cls-26" points="341.08 18.98 416.5 24.6 359.09 103.4 341.08 18.98"/><polygon class="cls-27" points="340.43 1 388.25 1 341.08 18.97 340.43 1"/><polygon class="cls-3" points="341.08 18.97 388.25 1 388.41 1 416.5 24.6 341.08 18.97"/><polygon class="cls-28" points="359.09 103.4 416.5 24.6 379.35 130.42 359.09 103.4"/><polygon class="cls-23" points="416.5 24.6 498.68 61.75 379.35 130.42 416.5 24.6"/><polygon class="cls-29" points="388.41 1 510.89 1 416.5 24.6 388.41 1"/><polygon class="cls-30" points="518.94 105.65 432.25 201 410.52 201 379.35 130.41 518.94 105.65"/><polygon class="cls-31" points="379.35 130.42 498.68 61.75 518.94 105.65 379.35 130.42"/><polygon class="cls-32" points="533.57 179.95 467.85 201 432.25 201 518.94 105.65 533.57 179.95"/><polygon class="cls-2" points="528.31 201 467.85 201 533.57 179.94 528.31 201"/><polygon class="cls-18" points="416.5 24.6 510.89 1 511.05 1 498.68 61.75 416.5 24.6"/><polygon class="cls-22" points="533.57 179.95 518.94 105.65 545.95 129.29 533.57 179.95"/><polygon class="cls-4" points="595.04 1 646.09 1 613.5 9.96 595.04 1"/><polygon class="cls-10" points="593.23 88.77 511.1 1 511.52 1 613.5 9.97 593.23 88.77"/><polygon class="cls-33" points="498.68 61.75 511.05 1 511.1 1 593.23 88.76 498.68 61.75"/><polygon class="cls-28" points="498.68 61.75 593.23 88.77 518.94 105.65 498.68 61.75"/><polygon class="cls-15" points="511.52 1 595.04 1 613.5 9.96 511.52 1"/><polygon class="cls-27" points="566.28 201 528.31 201 533.57 179.94 566.28 201"/><polygon class="cls-21" points="518.94 105.65 593.23 88.77 545.95 129.29 518.94 105.65"/><polygon class="cls-32" points="545.95 129.29 594.28 201 566.28 201 533.57 179.94 545.95 129.29"/><polygon class="cls-34" points="545.95 129.29 593.23 88.77 667.53 143.93 545.95 129.29"/><polygon class="cls-35" points="667.53 143.92 634.29 201 594.28 201 545.95 129.29 667.53 143.92"/><polygon class="cls-21" points="613.5 9.97 645.01 27.98 593.23 88.77 613.5 9.97"/><polygon class="cls-36" points="613.5 9.97 646.09 1 695.66 1 645.01 27.98 613.5 9.97"/><polygon class="cls-34" points="593.23 88.77 645.01 27.98 667.53 143.93 593.23 88.77"/><polygon class="cls-37" points="689.01 201 634.29 201 667.53 143.92 689.01 201"/><polygon class="cls-38" points="645.01 27.98 742.95 73.01 667.53 143.93 645.01 27.98"/><polygon class="cls-39" points="726.06 152.93 716.45 201 689.01 201 667.53 143.92 726.06 152.93"/><polygon class="cls-40" points="645.01 27.98 695.66 1 746.99 1 742.95 73 645.01 27.98"/><polygon class="cls-41" points="667.53 143.93 742.95 73.01 726.06 152.93 667.53 143.93"/><polygon class="cls-42" points="794.73 196.83 787.66 201 716.45 201 726.06 152.93 794.73 196.83"/><polygon class="cls-43" points="797.26 201 787.66 201 794.73 196.83 797.26 201"/><polygon class="cls-44" points="746.99 1 798.12 1 742.95 73 746.99 1"/><polygon class="cls-45" points="742.95 73.01 798.12 1 816.27 1 827.38 24.6 742.95 73.01"/><polygon class="cls-46" points="726.06 152.93 742.95 73.01 812.74 119.16 726.06 152.93"/><polygon class="cls-47" points="794.73 196.83 726.06 152.93 812.74 119.16 794.73 196.83"/><polygon class="cls-46" points="742.95 73.01 827.38 24.6 812.74 119.16 742.95 73.01"/><polygon class="cls-48" points="827.38 24.6 909.55 80.89 812.74 119.16 827.38 24.6"/><polygon class="cls-49" points="915.18 191.21 794.73 196.83 812.74 119.16 915.18 191.21"/><polygon class="cls-50" points="915.18 191.2 904.78 201 797.26 201 794.73 196.83 915.18 191.2"/><polygon class="cls-51" points="919.68 132.67 915.18 191.21 812.74 119.16 919.68 132.67"/><polygon class="cls-52" points="816.27 1 871.8 1 827.38 24.6 816.27 1"/><polygon class="cls-53" points="812.74 119.16 909.55 80.89 919.68 132.67 812.74 119.16"/><polygon class="cls-54" points="827.38 24.6 871.8 1 900.99 1 909.55 80.88 827.38 24.6"/><polygon class="cls-55" points="911.34 201 904.78 201 915.18 191.2 911.34 201"/><polygon class="cls-56" points="934.78 201 911.34 201 915.18 191.2 934.78 201"/><polygon class="cls-57" points="909.55 80.89 900.99 1 920.47 1 973.71 38.11 909.55 80.89"/><polygon class="cls-58" points="920.47 1 964.76 1 973.71 38.11 920.47 1"/><polygon class="cls-59" points="986.1 167.57 915.18 191.21 919.68 132.67 986.1 167.57"/><polygon class="cls-60" points="919.68 132.67 973.71 38.11 1011.99 137.17 919.68 132.67"/><polygon class="cls-61" points="909.55 80.89 973.71 38.11 919.68 132.67 909.55 80.89"/><polygon class="cls-62" points="986.1 167.56 971.32 201 934.78 201 915.18 191.2 986.1 167.56"/><polygon class="cls-63" points="1011.99 137.17 986.1 167.57 919.68 132.67 1011.99 137.17"/><polygon class="cls-64" points="973.71 38.11 1060.39 68.51 1011.99 137.17 973.71 38.11"/><polygon class="cls-65" points="964.76 1 1000.51 1 973.71 38.11 964.76 1"/><polygon class="cls-66" points="999.37 201 971.32 201 986.1 167.56 999.37 201"/><polygon class="cls-67" points="973.71 38.11 1000.51 1 1028.72 1 1060.39 68.5 973.71 38.11"/><polygon class="cls-68" points="1091.91 163.06 986.1 167.57 1011.99 137.17 1091.91 163.06"/><polygon class="cls-67" points="1091.91 163.06 1056.6 201 999.37 201 986.1 167.56 1091.91 163.06"/><polygon class="cls-69" points="1108.8 193.45 1095.04 201 1056.6 201 1091.91 163.06 1108.8 193.45"/><polygon class="cls-70" points="1028.72 1 1117.77 1 1060.39 68.5 1028.72 1"/><polygon class="cls-71" points="1011.99 137.17 1060.39 68.51 1091.91 163.06 1011.99 137.17"/><polygon class="cls-72" points="1108.48 201 1095.04 201 1108.8 193.45 1108.48 201"/><polygon class="cls-73" points="1060.39 68.51 1116.68 78.64 1091.91 163.06 1060.39 68.51"/><polygon class="cls-74" points="1060.39 68.5 1117.77 1 1132.38 1 1116.68 78.63 1060.39 68.5"/><polygon class="cls-75" points="1108.8 193.46 1091.91 163.06 1190.97 109.03 1108.8 193.46"/><polygon class="cls-73" points="1091.91 163.06 1116.68 78.64 1190.97 109.03 1091.91 163.06"/><polygon class="cls-76" points="1116.68 78.63 1132.38 1 1158.08 1 1204.48 50.49 1116.68 78.63"/><polygon class="cls-72" points="1136.65 201 1108.48 201 1108.8 193.45 1136.65 201"/><polygon class="cls-77" points="1190.97 109.03 1221.04 201 1136.65 201 1108.8 193.45 1190.97 109.03"/><polygon class="cls-78" points="1116.68 78.64 1204.48 50.49 1190.97 109.03 1116.68 78.64"/><polygon class="cls-69" points="1158.08 1 1220.27 1 1204.48 50.49 1158.08 1"/><polygon class="cls-79" points="1273.15 154.06 1244.54 201 1221.04 201 1190.97 109.03 1273.15 154.06"/><polygon class="cls-80" points="1204.48 50.49 1264.14 30.23 1190.97 109.03 1204.48 50.49"/><polygon class="cls-81" points="1190.97 109.03 1264.14 30.23 1273.15 154.06 1190.97 109.03"/><polygon class="cls-69" points="1204.48 50.49 1220.27 1 1225.84 1 1264.14 30.23 1204.48 50.49"/><polygon class="cls-82" points="1283.08 201 1244.54 201 1273.15 154.05 1283.08 201"/><polygon class="cls-67" points="1225.84 1 1268.32 1 1264.14 30.23 1225.84 1"/><polygon class="cls-83" points="1264.14 30.23 1359.82 68.51 1273.15 154.06 1264.14 30.23"/><polygon class="cls-84" points="1273.15 154.06 1359.82 68.51 1371.08 159.69 1273.15 154.06"/><polygon class="cls-85" points="1264.14 30.23 1268.32 1 1271.64 1 1359.82 68.5 1264.14 30.23"/><polygon class="cls-86" points="1271.64 1 1368.71 1 1359.82 68.5 1271.64 1"/><polygon class="cls-87" points="1371.08 159.68 1304.27 201 1283.08 201 1273.15 154.05 1371.08 159.68"/><polygon class="cls-88" points="1395.85 179.95 1324.69 201 1304.27 201 1371.08 159.68 1395.85 179.95"/><polygon class="cls-89" points="1395.6 201 1324.69 201 1395.85 179.94 1395.6 201"/><polygon class="cls-90" points="1359.82 68.5 1368.71 1 1419.07 1 1420.61 3.21 1359.82 68.5"/><polygon class="cls-91" points="1407.03 201 1395.6 201 1395.85 179.94 1407.03 201"/><polygon class="cls-92" points="1423.99 142.8 1371.08 159.69 1417.23 91.02 1423.99 142.8"/><polygon class="cls-93" points="1371.08 159.69 1359.82 68.51 1417.23 91.02 1371.08 159.69"/><polygon class="cls-94" points="1359.82 68.51 1420.61 3.22 1417.23 91.02 1359.82 68.51"/><polygon class="cls-95" points="1395.85 179.95 1371.08 159.69 1423.99 142.8 1395.85 179.95"/><polygon class="cls-96" points="1419.07 1 1442.72 1 1420.61 3.21 1419.07 1"/><polygon class="cls-97" points="1423.99 142.8 1458.53 201 1424.53 201 1395.85 179.94 1423.99 142.8"/><polygon class="cls-98" points="1424.53 201 1407.03 201 1395.85 179.94 1424.53 201"/><polygon class="cls-94" points="1417.23 91.02 1420.61 3.22 1499.41 97.77 1417.23 91.02"/><polygon class="cls-99" points="1420.61 3.22 1534.31 73.01 1499.41 97.77 1420.61 3.22"/><polygon class="cls-100" points="1420.61 3.21 1442.72 1 1533.31 1 1534.31 73 1420.61 3.21"/><polygon class="cls-101" points="1499.41 97.77 1423.99 142.8 1417.23 91.02 1499.41 97.77"/><polygon class="cls-88" points="1564.7 151.8 1522.61 201 1489.16 201 1499.41 97.77 1564.7 151.8"/><polygon class="cls-102" points="1499.41 97.77 1489.16 201 1458.53 201 1423.99 142.8 1499.41 97.77"/><polygon class="cls-58" points="1560.16 201 1522.61 201 1564.7 151.8 1560.16 201"/><polygon class="cls-103" points="1534.31 73.01 1533.31 1 1545.58 1 1574.83 22.35 1534.31 73.01"/><polygon class="cls-104" points="1534.31 73.01 1564.7 151.81 1499.41 97.77 1534.31 73.01"/><polygon class="cls-105" points="1574.83 22.35 1564.7 151.81 1534.31 73.01 1574.83 22.35"/><polygon class="cls-72" points="1545.58 1 1595.57 1 1574.83 22.35 1545.58 1"/><polygon class="cls-100" points="1564.7 151.81 1574.83 22.35 1595.57 1 1601 1 1601 25.18 1564.7 151.81"/><polygon class="cls-106" points="1578.02 201 1560.16 201 1564.7 151.8 1578.02 201"/><polygon class="cls-107" points="1601 25.18 1601 201 1578.02 201 1564.7 151.8 1601 25.18"/></svg>