<svg id="Layer_1" data-name="Layer 1" xmlns="http://www.w3.org/2000/svg" width="1602" height="202.07" viewBox="0 0 1602 202.07"><defs><style>.cls-1{fill:#5b7687;stroke:#5b7687;}.cls-1,.cls-10,.cls-100,.cls-102,.cls-103,.cls-104,.cls-105,.cls-106,.cls-107,.cls-108,.cls-11,.cls-111,.cls-112,.cls-114,.cls-116,.cls-117,.cls-118,.cls-12,.cls-120,.cls-14,.cls-15,.cls-16,.cls-17,.cls-18,.cls-2,.cls-21,.cls-22,.cls-28,.cls-29,.cls-3,.cls-30,.cls-32,.cls-33,.cls-36,.cls-37,.cls-39,.cls-4,.cls-40,.cls-41,.cls-43,.cls-44,.cls-45,.cls-47,.cls-48,.cls-5,.cls-50,.cls-52,.cls-54,.cls-56,.cls-57,.cls-59,.cls-6,.cls-60,.cls-61,.cls-62,.cls-68,.cls-7,.cls-70,.cls-72,.cls-73,.cls-74,.cls-75,.cls-76,.cls-8,.cls-80,.cls-83,.cls-84,.cls-85,.cls-87,.cls-88,.cls-89,.cls-9,.cls-90,.cls-91,.cls-93,.cls-94,.cls-96,.cls-97,.cls-99{stroke-width:2px;}.cls-2{fill:#657687;stroke:#657687;}.cls-3{fill:#627c93;stroke:#627c93;}.cls-4{fill:#5c798b;stroke:#5c798b;}.cls-5{fill:#5f7d91;stroke:#5f7d91;}.cls-6{fill:#597580;stroke:#597580;}.cls-7{fill:#67798a;stroke:#67798a;}.cls-8{fill:#607a92;stroke:#607a92;}.cls-9{fill:#60798f;stroke:#60798f;}.cls-10{fill:#657a8a;stroke:#657a8a;}.cls-11{fill:#5f788d;stroke:#5f788d;}.cls-12{fill:#5b7481;stroke:#5b7481;}.cls-13{fill:#5e7385;stroke:#5e7385;}.cls-101,.cls-109,.cls-110,.cls-113,.cls-115,.cls-119,.cls-13,.cls-19,.cls-20,.cls-23,.cls-24,.cls-25,.cls-26,.cls-27,.cls-31,.cls-34,.cls-35,.cls-38,.cls-42,.cls-46,.cls-49,.cls-51,.cls-53,.cls-55,.cls-58,.cls-63,.cls-64,.cls-65,.cls-66,.cls-67,.cls-69,.cls-71,.cls-77,.cls-78,.cls-79,.cls-81,.cls-82,.cls-86,.cls-92,.cls-95,.cls-98{stroke-width:1.51px;}.cls-14{fill:#657d93;stroke:#657d93;}.cls-15{fill:#6d808e;stroke:#6d808e;}.cls-16{fill:#63788f;stroke:#63788f;}.cls-17{fill:#8795a3;stroke:#8795a3;}.cls-18{fill:#678094;stroke:#678094;}.cls-19{fill:#5d7383;stroke:#5d7383;}.cls-20{fill:#5f7487;stroke:#5f7487;}.cls-21{fill:#687e93;stroke:#687e93;}.cls-22{fill:#8493a0;stroke:#8493a0;}.cls-23{fill:#5d7281;stroke:#5d7281;}.cls-24{fill:#637384;stroke:#637384;}.cls-25{fill:#607484;stroke:#607484;}.cls-26{fill:#62798c;stroke:#62798c;}.cls-27{fill:#607482;stroke:#607482;}.cls-28{fill:#6a8199;stroke:#6a8199;}.cls-29{fill:#848e9e;stroke:#848e9e;}.cls-30{fill:#71808e;stroke:#71808e;}.cls-31{fill:#677b8f;stroke:#677b8f;}.cls-32{fill:#6b7f97;stroke:#6b7f97;}.cls-33{fill:#687c93;stroke:#687c93;}.cls-34{fill:#65788a;stroke:#65788a;}.cls-35{fill:#65788c;stroke:#65788c;}.cls-36{fill:#6a7e95;stroke:#6a7e95;}.cls-37{fill:#637282;stroke:#637282;}.cls-38{fill:#677689;stroke:#677689;}.cls-39{fill:#6d7b89;stroke:#6d7b89;}.cls-40{fill:#7f8b99;stroke:#7f8b99;}.cls-41{fill:#6b7e93;stroke:#6b7e93;}.cls-42{fill:#647384;stroke:#647384;}.cls-43{fill:#5e738b;stroke:#5e738b;}.cls-44{fill:#65788d;stroke:#65788d;}.cls-45{fill:#697b90;stroke:#697b90;}.cls-46{fill:#68778a;stroke:#68778a;}.cls-47{fill:#6a7e94;stroke:#6a7e94;}.cls-48{fill:#7f8897;stroke:#7f8897;}.cls-49{fill:#596d7d;stroke:#596d7d;}.cls-50{fill:#606f7e;stroke:#606f7e;}.cls-51{fill:#5d7084;stroke:#5d7084;}.cls-52{fill:#576b83;stroke:#576b83;}.cls-53{fill:#57697d;stroke:#57697d;}.cls-54{fill:#687785;stroke:#687785;}.cls-55{fill:#4f6276;stroke:#4f6276;}.cls-56{fill:#576776;stroke:#576776;}.cls-57{fill:#4e637a;stroke:#4e637a;}.cls-58{fill:#485a6c;stroke:#485a6c;}.cls-59{fill:#576977;stroke:#576977;}.cls-60{fill:#617080;stroke:#617080;}.cls-61{fill:#475a73;stroke:#475a73;}.cls-62{fill:#43546d;stroke:#43546d;}.cls-63{fill:#415367;stroke:#415367;}.cls-64{fill:#405062;stroke:#405062;}.cls-65{fill:#3e5567;stroke:#3e5567;}.cls-66{fill:#364b5f;stroke:#364b5f;}.cls-67{fill:#3b4b5e;stroke:#3b4b5e;}.cls-68{fill:#4d6070;stroke:#4d6070;}.cls-69{fill:#2d3f50;stroke:#2d3f50;}.cls-70{fill:#3a5169;stroke:#3a5169;}.cls-71{fill:#304656;stroke:#304656;}.cls-72{fill:#354a60;stroke:#354a60;}.cls-73{fill:#656d78;stroke:#656d78;}.cls-74{fill:#555f6c;stroke:#555f6c;}.cls-75{fill:#374558;stroke:#374558;}.cls-76{fill:#36465a;stroke:#36465a;}.cls-77{fill:#33404e;stroke:#33404e;}.cls-78{fill:#2b3b49;stroke:#2b3b49;}.cls-79{fill:#324351;stroke:#324351;}.cls-80{fill:#3c4856;stroke:#3c4856;}.cls-81{fill:#293744;stroke:#293744;}.cls-82{fill:#263645;stroke:#263645;}.cls-83{fill:#2f4454;stroke:#2f4454;}.cls-84{fill:#3e4858;stroke:#3e4858;}.cls-85{fill:#2a3a4b;stroke:#2a3a4b;}.cls-86{fill:#1e3340;stroke:#1e3340;}.cls-87{fill:#303e4b;stroke:#303e4b;}.cls-88{fill:#2d3948;stroke:#2d3948;}.cls-89{fill:#223645;stroke:#223645;}.cls-90{fill:#243949;stroke:#243949;}.cls-91,.cls-98{fill:#203543;stroke:#203543;}.cls-92,.cls-97{fill:#1f3241;stroke:#1f3241;}.cls-93{fill:#3a4956;stroke:#3a4956;}.cls-94{fill:#253742;stroke:#253742;}.cls-95{fill:#1c313f;stroke:#1c313f;}.cls-115,.cls-96{fill:#213848;stroke:#213848;}.cls-99{fill:#2f3e4e;stroke:#2f3e4e;}.cls-100{fill:#243a4b;stroke:#243a4b;}.cls-101{fill:#1f3544;stroke:#1f3544;}.cls-102{fill:#22394a;stroke:#22394a;}.cls-103,.cls-113{fill:#253e50;stroke:#253e50;}.cls-104{fill:#283948;stroke:#283948;}.cls-105{fill:#2c3d4d;stroke:#2c3d4d;}.cls-106{fill:#3c4c5d;stroke:#3c4c5d;}.cls-107{fill:#263e52;stroke:#263e52;}.cls-108{fill:#435165;stroke:#435165;}.cls-109{fill:#213545;stroke:#213545;}.cls-110{fill:#243c4d;stroke:#243c4d;}.cls-111{fill:#2f3f53;stroke:#2f3f53;}.cls-112{fill:#404e62;stroke:#404e62;}.cls-114{fill:#274255;stroke:#274255;}.cls-116{fill:#293d4d;stroke:#293d4d;}.cls-117{fill:#3b4b5f;stroke:#3b4b5f;}.cls-118{fill:#294457;stroke:#294457;}.cls-119{fill:#263e51;stroke:#263e51;}.cls-120{fill:#435569;stroke:#435569;}</style></defs><title>Untitled-51</title><polygon class="cls-1" points="1484.93 98.9 1601 141.39 1601 129.96 1542.34 41.49 1484.93 98.9"/><polygon class="cls-2" points="1601 201 1601 165.76 1583.96 201 1601 201"/><polygon class="cls-3" points="1601 3.31 1601 1 1508.09 1 1550.22 22.35 1601 3.31"/><polygon class="cls-4" points="1601 129.96 1601 6.11 1542.34 41.49 1601 129.96"/><polygon class="cls-5" points="1542.34 41.49 1601 6.11 1601 3.31 1550.22 22.35 1542.34 41.49"/><polygon class="cls-6" points="1568.84 201 1583.96 201 1601 165.76 1601 141.39 1484.93 98.9 1568.84 201"/><polygon class="cls-7" points="1479.1 201 1568.84 201 1484.93 98.89 1479.1 201"/><polygon class="cls-8" points="1550.22 22.35 1508.09 1 1492.29 1 1542.34 41.48 1550.22 22.35"/><polygon class="cls-9" points="1542.34 41.49 1492.29 1 1469.23 1 1484.93 98.89 1542.34 41.49"/><polygon class="cls-10" points="1441.17 201 1479.1 201 1484.93 98.89 1441.17 201"/><polygon class="cls-11" points="1484.93 98.9 1469.23 1 1453.38 1 1408.39 78.63 1484.93 98.9"/><polygon class="cls-12" points="1401.63 141.67 1433.27 201 1441.17 201 1484.93 98.89 1401.63 141.67"/><polygon class="cls-13" points="1484.93 98.9 1408.39 78.64 1401.63 141.68 1484.93 98.9"/><polygon class="cls-14" points="1453.38 1 1404.07 1 1408.39 78.63 1453.38 1"/><polygon class="cls-15" points="1333.66 201 1339.89 201 1335.22 192.33 1333.66 201"/><polygon class="cls-16" points="1408.39 78.63 1404.07 1 1379.08 1 1336.34 84.26 1408.39 78.63"/><polygon class="cls-2" points="1368.99 156.31 1427 201 1433.27 201 1401.63 141.67 1368.99 156.31"/><polygon class="cls-17" points="1339.89 201 1387.84 201 1335.22 192.33 1339.89 201"/><polygon class="cls-15" points="1335.22 192.33 1387.84 201 1427 201 1368.99 156.31 1335.22 192.33"/><polygon class="cls-18" points="1379.08 1 1325.09 1 1336.34 84.26 1379.08 1"/><polygon class="cls-19" points="1401.63 141.68 1336.34 84.27 1368.99 156.31 1401.63 141.68"/><polygon class="cls-20" points="1408.39 78.64 1336.34 84.27 1401.63 141.68 1408.39 78.64"/><polygon class="cls-21" points="1336.34 84.26 1325.09 1 1278.55 1 1260.92 18.97 1336.34 84.26"/><polygon class="cls-22" points="1294.69 200.21 1294.83 201 1333.66 201 1335.22 192.33 1294.69 200.21"/><polygon class="cls-23" points="1368.99 156.31 1336.34 84.27 1335.22 192.33 1368.99 156.31"/><polygon class="cls-24" points="1335.22 192.33 1336.34 84.27 1294.69 200.21 1335.22 192.33"/><polygon class="cls-25" points="1294.69 200.21 1336.34 84.27 1242.91 103.4 1294.69 200.21"/><polygon class="cls-15" points="1293.99 201 1294.83 201 1294.69 200.21 1293.99 201"/><polygon class="cls-26" points="1336.34 84.27 1260.92 18.98 1242.91 103.4 1336.34 84.27"/><polygon class="cls-27" points="1222.65 130.42 1294.69 200.21 1242.91 103.4 1222.65 130.42"/><polygon class="cls-28" points="1278.55 1 1261.58 1 1260.92 18.97 1278.55 1"/><polygon class="cls-29" points="1289.5 201 1293.99 201 1294.69 200.21 1289.5 201"/><polygon class="cls-30" points="1222.65 130.42 1191.48 201 1289.5 201 1294.69 200.21 1222.65 130.42"/><polygon class="cls-31" points="1260.92 18.98 1185.5 24.6 1242.91 103.4 1260.92 18.98"/><polygon class="cls-32" points="1261.58 1 1213.75 1 1260.92 18.97 1261.58 1"/><polygon class="cls-33" points="1260.92 18.97 1213.75 1 1213.59 1 1185.5 24.6 1260.92 18.97"/><polygon class="cls-34" points="1242.91 103.4 1185.5 24.6 1222.65 130.42 1242.91 103.4"/><polygon class="cls-35" points="1185.5 24.6 1103.33 61.75 1222.65 130.42 1185.5 24.6"/><polygon class="cls-36" points="1213.59 1 1091.11 1 1185.5 24.6 1213.59 1"/><polygon class="cls-37" points="1083.06 105.65 1169.75 201 1191.48 201 1222.65 130.41 1083.06 105.65"/><polygon class="cls-38" points="1222.65 130.42 1103.33 61.75 1083.06 105.65 1222.65 130.42"/><polygon class="cls-39" points="1068.43 179.95 1134.15 201 1169.75 201 1083.06 105.65 1068.43 179.95"/><polygon class="cls-40" points="1073.69 201 1134.15 201 1068.43 179.94 1073.69 201"/><polygon class="cls-41" points="1185.5 24.6 1091.11 1 1090.95 1 1103.33 61.75 1185.5 24.6"/><polygon class="cls-42" points="1068.43 179.95 1083.06 105.65 1056.05 129.29 1068.43 179.95"/><polygon class="cls-43" points="1006.96 1 955.91 1 988.5 9.96 1006.96 1"/><polygon class="cls-44" points="1008.77 88.77 1090.9 1 1090.48 1 988.5 9.97 1008.77 88.77"/><polygon class="cls-45" points="1103.33 61.75 1090.95 1 1090.9 1 1008.77 88.76 1103.33 61.75"/><polygon class="cls-46" points="1103.33 61.75 1008.77 88.77 1083.06 105.65 1103.33 61.75"/><polygon class="cls-47" points="1090.48 1 1006.96 1 988.5 9.96 1090.48 1"/><polygon class="cls-48" points="1035.72 201 1073.69 201 1068.43 179.94 1035.72 201"/><polygon class="cls-42" points="1083.06 105.65 1008.77 88.77 1056.05 129.29 1083.06 105.65"/><polygon class="cls-39" points="1056.05 129.29 1007.72 201 1035.72 201 1068.43 179.94 1056.05 129.29"/><polygon class="cls-49" points="1056.05 129.29 1008.77 88.77 934.47 143.93 1056.05 129.29"/><polygon class="cls-50" points="934.47 143.92 967.71 201 1007.72 201 1056.05 129.29 934.47 143.92"/><polygon class="cls-51" points="988.5 9.97 956.99 27.98 1008.77 88.77 988.5 9.97"/><polygon class="cls-52" points="988.5 9.97 955.91 1 906.34 1 956.99 27.98 988.5 9.97"/><polygon class="cls-53" points="1008.77 88.77 956.99 27.98 934.47 143.93 1008.77 88.77"/><polygon class="cls-54" points="912.99 201 967.71 201 934.47 143.92 912.99 201"/><polygon class="cls-55" points="956.99 27.98 859.05 73.01 934.47 143.93 956.99 27.98"/><polygon class="cls-56" points="875.94 152.93 885.55 201 912.99 201 934.47 143.92 875.94 152.93"/><polygon class="cls-57" points="956.99 27.98 906.34 1 855.01 1 859.05 73 956.99 27.98"/><polygon class="cls-58" points="934.47 143.93 859.05 73.01 875.94 152.93 934.47 143.93"/><polygon class="cls-59" points="807.27 196.83 814.34 201 885.55 201 875.94 152.93 807.27 196.83"/><polygon class="cls-60" points="804.74 201 814.34 201 807.27 196.83 804.74 201"/><polygon class="cls-61" points="855.01 1 803.88 1 859.05 73 855.01 1"/><polygon class="cls-62" points="859.05 73.01 803.88 1 785.73 1 774.63 24.6 859.05 73.01"/><polygon class="cls-63" points="875.94 152.93 859.05 73.01 789.26 119.16 875.94 152.93"/><polygon class="cls-64" points="807.27 196.83 875.94 152.93 789.26 119.16 807.27 196.83"/><polygon class="cls-65" points="859.05 73.01 774.63 24.6 789.26 119.16 859.05 73.01"/><polygon class="cls-66" points="774.63 24.6 692.45 80.89 789.26 119.16 774.63 24.6"/><polygon class="cls-67" points="686.82 191.21 807.27 196.83 789.26 119.16 686.82 191.21"/><polygon class="cls-68" points="686.82 191.2 697.22 201 804.74 201 807.27 196.83 686.82 191.2"/><polygon class="cls-69" points="682.32 132.67 686.82 191.21 789.26 119.16 682.32 132.67"/><polygon class="cls-70" points="785.73 1 730.2 1 774.63 24.6 785.73 1"/><polygon class="cls-71" points="789.26 119.16 692.45 80.89 682.32 132.67 789.26 119.16"/><polygon class="cls-72" points="774.63 24.6 730.2 1 701.01 1 692.45 80.88 774.63 24.6"/><polygon class="cls-73" points="690.66 201 697.22 201 686.82 191.2 690.66 201"/><polygon class="cls-74" points="667.22 201 690.66 201 686.82 191.2 667.22 201"/><polygon class="cls-75" points="692.45 80.89 701.01 1 681.53 1 628.29 38.11 692.45 80.89"/><polygon class="cls-76" points="681.53 1 637.24 1 628.29 38.11 681.53 1"/><polygon class="cls-77" points="615.9 167.57 686.82 191.21 682.32 132.67 615.9 167.57"/><polygon class="cls-78" points="682.32 132.67 628.29 38.11 590.01 137.17 682.32 132.67"/><polygon class="cls-79" points="692.45 80.89 628.29 38.11 682.32 132.67 692.45 80.89"/><polygon class="cls-80" points="615.9 167.56 630.68 201 667.22 201 686.82 191.2 615.9 167.56"/><polygon class="cls-81" points="590.01 137.17 615.9 167.57 682.32 132.67 590.01 137.17"/><polygon class="cls-82" points="628.29 38.11 541.61 68.51 590.01 137.17 628.29 38.11"/><polygon class="cls-83" points="637.24 1 601.49 1 628.29 38.11 637.24 1"/><polygon class="cls-84" points="602.63 201 630.68 201 615.9 167.56 602.63 201"/><polygon class="cls-85" points="628.29 38.11 601.49 1 573.27 1 541.61 68.5 628.29 38.11"/><polygon class="cls-86" points="510.09 163.06 615.9 167.57 590.01 137.17 510.09 163.06"/><polygon class="cls-87" points="510.09 163.06 545.4 201 602.63 201 615.9 167.56 510.09 163.06"/><polygon class="cls-88" points="493.2 193.45 506.96 201 545.4 201 510.09 163.06 493.2 193.45"/><polygon class="cls-89" points="573.27 1 484.23 1 541.61 68.5 573.27 1"/><polygon class="cls-90" points="590.01 137.17 541.61 68.51 510.09 163.06 590.01 137.17"/><polygon class="cls-80" points="493.52 201 506.96 201 493.2 193.45 493.52 201"/><polygon class="cls-91" points="541.61 68.51 485.32 78.64 510.09 163.06 541.61 68.51"/><polygon class="cls-90" points="541.61 68.5 484.23 1 469.62 1 485.32 78.63 541.61 68.5"/><polygon class="cls-91" points="493.2 193.46 510.09 163.06 411.03 109.03 493.2 193.46"/><polygon class="cls-92" points="510.09 163.06 485.32 78.64 411.03 109.03 510.09 163.06"/><polygon class="cls-91" points="485.32 78.63 469.62 1 443.92 1 397.52 50.49 485.32 78.63"/><polygon class="cls-93" points="465.35 201 493.52 201 493.2 193.45 465.35 201"/><polygon class="cls-94" points="411.03 109.03 380.96 201 465.35 201 493.2 193.45 411.03 109.03"/><polygon class="cls-95" points="485.32 78.64 397.52 50.49 411.03 109.03 485.32 78.64"/><polygon class="cls-96" points="443.92 1 381.73 1 397.52 50.49 443.92 1"/><polygon class="cls-97" points="328.85 154.06 357.46 201 380.96 201 411.03 109.03 328.85 154.06"/><polygon class="cls-98" points="397.52 50.49 337.86 30.23 411.03 109.03 397.52 50.49"/><polygon class="cls-86" points="411.03 109.03 337.86 30.23 328.85 154.06 411.03 109.03"/><polygon class="cls-96" points="397.52 50.49 381.73 1 376.16 1 337.86 30.23 397.52 50.49"/><polygon class="cls-99" points="318.92 201 357.46 201 328.85 154.05 318.92 201"/><polygon class="cls-100" points="376.16 1 333.68 1 337.86 30.23 376.16 1"/><polygon class="cls-101" points="337.86 30.23 242.18 68.51 328.85 154.06 337.86 30.23"/><polygon class="cls-92" points="328.85 154.06 242.18 68.51 230.92 159.69 328.85 154.06"/><polygon class="cls-102" points="337.86 30.23 333.68 1 330.36 1 242.18 68.5 337.86 30.23"/><polygon class="cls-103" points="330.36 1 233.29 1 242.18 68.5 330.36 1"/><polygon class="cls-104" points="230.92 159.68 297.73 201 318.92 201 328.85 154.05 230.92 159.68"/><polygon class="cls-105" points="206.15 179.95 277.31 201 297.73 201 230.92 159.68 206.15 179.95"/><polygon class="cls-106" points="206.4 201 277.31 201 206.15 179.94 206.4 201"/><polygon class="cls-107" points="242.18 68.5 233.29 1 182.93 1 181.39 3.21 242.18 68.5"/><polygon class="cls-108" points="194.97 201 206.4 201 206.15 179.94 194.97 201"/><polygon class="cls-98" points="178.01 142.8 230.92 159.69 184.77 91.02 178.01 142.8"/><polygon class="cls-109" points="230.92 159.69 242.18 68.51 184.77 91.02 230.92 159.69"/><polygon class="cls-110" points="242.18 68.51 181.39 3.22 184.77 91.02 242.18 68.51"/><polygon class="cls-98" points="206.15 179.95 230.92 159.69 178.01 142.8 206.15 179.95"/><polygon class="cls-102" points="182.93 1 159.28 1 181.39 3.21 182.93 1"/><polygon class="cls-111" points="178.01 142.8 143.47 201 177.47 201 206.15 179.94 178.01 142.8"/><polygon class="cls-112" points="177.47 201 194.97 201 206.15 179.94 177.47 201"/><polygon class="cls-102" points="184.77 91.02 181.39 3.22 102.59 97.77 184.77 91.02"/><polygon class="cls-113" points="181.39 3.22 67.69 73.01 102.59 97.77 181.39 3.22"/><polygon class="cls-114" points="181.39 3.21 159.28 1 68.69 1 67.69 73 181.39 3.21"/><polygon class="cls-115" points="102.59 97.77 178.01 142.8 184.77 91.02 102.59 97.77"/><polygon class="cls-116" points="37.3 151.8 79.39 201 112.83 201 102.59 97.77 37.3 151.8"/><polygon class="cls-90" points="102.59 97.77 112.83 201 143.47 201 178.01 142.8 102.59 97.77"/><polygon class="cls-117" points="41.84 201 79.39 201 37.3 151.8 41.84 201"/><polygon class="cls-118" points="67.69 73.01 68.69 1 56.42 1 27.17 22.35 67.69 73.01"/><polygon class="cls-103" points="67.69 73.01 37.3 151.81 102.59 97.77 67.69 73.01"/><polygon class="cls-119" points="27.17 22.35 37.3 151.81 67.69 73.01 27.17 22.35"/><polygon class="cls-117" points="56.42 1 6.43 1 27.17 22.35 56.42 1"/><polygon class="cls-114" points="37.3 151.81 27.17 22.35 6.43 1 1 1 1 25.18 37.3 151.81"/><polygon class="cls-120" points="23.98 201 41.84 201 37.3 151.8 23.98 201"/><polygon class="cls-100" points="1 25.18 1 201 23.98 201 37.3 151.8 1 25.18"/></svg>