<svg id="Layer_1" data-name="Layer 1" xmlns="http://www.w3.org/2000/svg" viewBox="0 0 71.57 82.6"><defs><style>.cls-1{fill:#d33c44;}.cls-2{fill:#af173f;}.cls-3{fill:#f8eaeb;}</style></defs><title>rust</title><polygon class="cls-1" points="71.53 61.95 35.76 82.6 0 61.95 0 20.65 35.76 0 71.53 20.65 71.53 61.95"/><polygon class="cls-2" points="71.45 45.11 57.05 30.13 15.05 30.77 15.06 51.97 41.5 79.38 71.57 62.14 71.45 45.11"/><path class="cls-3" d="M36,25.31c17.95,0,21,4.82,21,4.82v8.37a5.1,5.1,0,0,1-4,3.23L36,38.15v6.24l17,3.83s3-.71,4-3.05v6.6C56,54.25,52.88,55,52.88,55L36,51.13v6.31s-16,.85-21-5.6V44.68c6,7.38,20,6,20,6V44.11S20,45,15,38.86V30.77S18.05,25.31,36,25.31Z" transform="translate(0.02 0)"/></svg>