<svg id="Layer_1" data-name="Layer 1" xmlns="http://www.w3.org/2000/svg" viewBox="0 0 72 82.6"><defs><style>.cls-1{fill:#91dc47;}.cls-2{fill:#7bba3c;}.cls-3,.cls-4{fill:none;}.cls-3{stroke:#fff;stroke-miterlimit:10;stroke-width:3px;}.cls-5{fill:#fff;}</style></defs><title>clojure</title><polygon class="cls-1" points="71.77 61.95 36 82.6 0.23 61.95 0.23 20.65 36 0 71.77 20.65 71.77 61.95"/><path class="cls-2" d="M72.18,49.52L51.63,29s-7.49-6.12-15.33-6.12a18.9,18.9,0,0,0-12,4.24L12.15,22.26,0.78,20.88l17,17a19,19,0,0,0-.43,4c0,10.49,4.46,15.44,4.46,15.44L43.32,78.81,72.27,62.15ZM55.29,42.25a18.72,18.72,0,0,1-1.35,7l-0.11-.08A18.92,18.92,0,0,0,55.28,42C55.28,42.09,55.29,42.17,55.29,42.25Z" transform="translate(-0.5 -0.2)"/><circle class="cls-3" cx="36" cy="42.05" r="18.79"/><path class="cls-4" d="M36.34,38.3l2,4.43a28.85,28.85,0,0,0,26,16.14,32.45,32.45,0,0,0,8.11-1.13V20.88L36.5,0.25,0.5,20.88v0.34a39.15,39.15,0,0,1,7.1-.78A31.84,31.84,0,0,1,36.34,38.3Z" transform="translate(-0.5 -0.2)"/><path class="cls-4" d="M64.39,61.87A31.74,31.74,0,0,1,35.72,44l-2.05-4.43a28.87,28.87,0,0,0-26-16.14,35.63,35.63,0,0,0-7.12.85V62.13l36,20.62,36-20.62V60.86A35.79,35.79,0,0,1,64.39,61.87Z" transform="translate(-0.5 -0.2)"/><path class="cls-5" d="M33.63,39.58l2,4.43A31.84,31.84,0,0,0,64.39,61.87a35.79,35.79,0,0,0,8.11-1V57.74a32.45,32.45,0,0,1-8.11,1.13,28.75,28.75,0,0,1-26-16.14L36.38,38.3A31.87,31.87,0,0,0,7.62,20.44a39.32,39.32,0,0,0-7.12.78v3.08a35.47,35.47,0,0,1,7.1-.85A28.85,28.85,0,0,1,33.63,39.58Z" transform="translate(-0.5 -0.2)"/><line class="cls-3" x1="35.44" y1="41.3" x2="26.81" y2="58.44"/></svg>