<svg id="Layer_1" data-name="Layer 1" xmlns="http://www.w3.org/2000/svg" width="71.53" height="82.6" viewBox="0 0 71.53 82.6"><defs><style>.cls-1{fill:#688187;}.cls-2{fill:none;stroke:#e7f0f2;stroke-linecap:round;stroke-linejoin:round;stroke-width:2px;}</style></defs><title>c</title><polygon class="cls-1" points="71.53 61.95 35.77 82.6 0 61.95 0 20.65 35.77 0 71.53 20.65 71.53 61.95"/><polyline class="cls-2" points="28.8 36.67 12.67 44.74 17.14 51.53 21.68 49.26 26.29 56.06 30.9 53.96 35.39 60.66 58.86 48.92 54.38 42.23 49.87 44.49 45.15 37.52 40.91 39.64"/><line class="cls-2" x1="30.95" y1="53.96" x2="49.83" y2="44.5"/><line class="cls-2" x1="21.64" y1="49.28" x2="33.31" y2="43.49"/><path class="cls-2" d="M44.16,30.33c0,7.42-8.39,15.85-8.39,15.85s-8.39-8.43-8.39-15.85A8.39,8.39,0,0,1,44.16,30.33Z"/><circle class="cls-2" cx="35.76" cy="30.31" r="3.49"/></svg>