<svg id="Layer_1" data-name="Layer 1" xmlns="http://www.w3.org/2000/svg" viewBox="0 0 71.53 82.6"><defs><style>.cls-1{fill:#ff3030;}.cls-2{fill:#b32222;}.cls-3{fill:red;}.cls-4{fill:#fff;}</style></defs><title>sinatra</title><polygon class="cls-1" points="71.53 61.95 35.76 82.6 0 61.95 0 20.65 35.76 0 71.53 20.65 71.53 61.95"/><g id="hex-couch-db"><polygon class="cls-2" points="6.85 57.77 66.01 57.77 66.01 34.97 62.43 34.97 62.43 23.94 11.02 23.94 11.02 34.97 6.85 34.97 6.85 57.77"/><polygon class="cls-3" points="58.55 36.9 58.55 27.07 14.74 27.07 14.74 35.26 11.17 35.26 11.17 54.34 14.74 54.34 17.13 54.34 53.49 54.34 58.55 54.34 62.13 54.34 62.13 36.9 58.55 36.9"/><polygon class="cls-2" points="17.13 47.93 17.13 56.57 55.72 56.57 55.72 47.33 28.6 50.46 17.13 47.93"/><polygon class="cls-2" points="17.13 36.6 17.13 42.42 26.82 45.69 55.72 42.86 55.72 37.05 49.76 40.78 39.78 36.6 28.16 38.84 17.13 36.6"/><polygon class="cls-4" points="12.81 33.03 17.57 31.09 15.79 29.15 15.79 22.3 22.49 22.3 22.49 29.45 30.99 22.45 42.01 24.68 42.31 27.07 38.88 27.07 37.1 27.07 32.92 27.07 28.3 31.98 31.14 35.86 41.12 32.43 50.06 39.73 55.13 40.93 55.72 42.86 46.93 43.76 46.48 42.56 46.04 42.27 40.52 38.84 30.54 45.1 32.18 60.6 27.26 60.74 23.54 44.65 21.9 44.05 16.98 37.35 14.74 37.35 14.74 38.99 13.55 38.39 13.55 40.93 11.17 40.03 11.17 34.97 12.81 33.03"/></g></svg>