<svg id="Layer_1" data-name="Layer 1" xmlns="http://www.w3.org/2000/svg" viewBox="0 0 71.55 82.6"><defs><style>.cls-1{fill:#44b78b;}.cls-2{fill:#2e8663;}.cls-3{fill:#fff;}</style></defs><title>sinatra</title><polygon class="cls-1" points="71.53 61.95 35.76 82.6 0 61.95 0 20.65 35.76 0 71.53 20.65 71.53 61.95"/><path class="cls-2" d="M72.35,46L49.93,23.33l-5.14,5.11-5.1-5.16-6,6,0.15,5.21s-5-.28-8.25,2.27c-6.5,5.08-3.71,14.5-3.71,14.5L47.22,76.67,72.39,62.08Z" transform="translate(-0.84 -0.2)"/><g id="layer1"><path id="path2838" class="cls-3" d="M25.77,43.53c0,3.92,2.86,6.26,7.45,5.2V38.33c-4.65-1.42-7.43,1.45-7.45,5.2m7.59-20.24h6.32V53.23c-6.06,1-11.87,1.62-16-.7-5.35-3-5.78-12.49-1.55-16.73,2.15-2.15,6.47-3.66,11.1-2.67V23.71c0-.2,0-0.4.14-0.42" transform="translate(-0.84 -0.2)"/><path id="path2840" class="cls-3" d="M49.95,29.89H43.62V23.29h6.32v6.61Z" transform="translate(-0.84 -0.2)"/><path id="path2860" class="cls-3" d="M49.95,33.24c0,4.66,0,8,0,13.66-0.27,5.56-.21,10-2.24,12.65a11.82,11.82,0,0,1-2,1.83,6.81,6.81,0,0,1-2.39,1.41c-0.65,0-2.33-.91-3.09-1.27a22.64,22.64,0,0,0-3-1.41c2.41-1.49,4.69-2.61,5.62-5.62,0.81-2.62.7-6.42,0.7-10.12s0-7.9,0-11.13h6.31Z" transform="translate(-0.84 -0.2)"/></g></svg>