<svg id="Layer_1" data-name="Layer 1" xmlns="http://www.w3.org/2000/svg" viewBox="0 0 71.53 82.6"><defs><style>.cls-1{fill:#897596;}.cls-2{fill:#7b6987;}.cls-3{fill:none;}.cls-4{fill:#fff;}.cls-5,.cls-6{fill:#cbadde;}.cls-5{opacity:0.4;}.cls-6{opacity:0.28;}</style></defs><title>php</title><polygon class="cls-1" points="71.53 61.95 35.76 82.6 0 61.95 0 20.65 35.76 0 71.53 20.65 71.53 61.95"/><polyline class="cls-2" points="22.5 57.47 43.28 78.25 71.53 61.95 71.53 46.29 37.48 12.24"/><polyline class="cls-3" points="71.53 61.95 35.76 82.6 0 61.95 0 20.65 35.76 0 71.53 20.65"/><path class="cls-4" d="M38.21,12.44c0,18.5,15.39,21.3,15.39,33.51,0,9.82-6.37,17.88-16.72,17.88-8,0-17.24-4.88-17.24-17.61C19.64,32.41,33.7,12.44,38.21,12.44Z" transform="translate(-0.74 -0.2)"/><path class="cls-5" d="M53.05,42.16c-0.52,3.43-7.69,6.15-16.5,6.15-9,0-16.27-2.83-16.52-6.36a25.1,25.1,0,0,0-.39,4.25,22.37,22.37,0,0,0,.45,4.54c2.1,3.63,8.64,6.29,16.4,6.29,8.16,0,15-2.94,16.69-6.86a21.39,21.39,0,0,0,.43-4.23A13.25,13.25,0,0,0,53.05,42.16Z" transform="translate(-0.74 -0.2)"/><path class="cls-5" d="M51,56c-4.05-.22-10.41-5.27-15.87-13-5-7.09-7.83-14.48-7.71-19.12l-1.68,2.73c-3.1,2.75-.5,12.26,5.82,21.25s14,14,17.06,11.29Z" transform="translate(-0.74 -0.2)"/><path class="cls-5" d="M38.86,18.65A29.79,29.79,0,0,0,21.21,37.18a30.85,30.85,0,0,0-1.57,9c0,7.8,3.49,12.64,8,15.23a29.05,29.05,0,0,1-1.53-9.31c0-11.56,6.68-21.44,16.11-25.45A24.85,24.85,0,0,1,38.86,18.65Z" transform="translate(-0.74 -0.2)"/><path class="cls-6" d="M26.7,60.85a18.37,18.37,0,0,0,9.73,2.95c7.3-6.15,12.09-16.5,12.09-28.23,0-.34,0-0.68,0-1-1.19-1.41-2.46-2.83-3.7-4.37C44.32,44.3,36.93,56.21,26.7,60.85Z" transform="translate(-0.74 -0.2)"/></svg>