<svg id="Layer_1" data-name="Layer 1" xmlns="http://www.w3.org/2000/svg" viewBox="0 0 71.53 82.6"><defs><style>.cls-1{fill:#444;}.cls-2{fill:#fff;}.cls-3{fill:#939393;}.cls-4{fill:#bfbfbf;}</style></defs><title>sinatra</title><polygon class="cls-1" points="71.53 61.95 35.76 82.6 0 61.95 0 20.65 35.76 0 71.53 20.65 71.53 61.95"/><path class="cls-2" d="M27.39,22.28s8.44,1.39,11,1.75,1.85,2.7-.49,2-11.31-3-11.31-3Z" transform="translate(-0.85 -0.2)"/><polygon class="cls-3" points="19.85 29.49 19.25 26.5 32.99 23.58 33.79 26.43 19.85 29.49"/><path class="cls-2" d="M35.66,30.51S35.87,45.17,42,50A28.61,28.61,0,0,0,54.16,55.8c5.22,1.25,5,4.26-.89,4.5-6.78.27-14.68-.32-20.72-4.77C23,48.49,21,36.4,20.45,33.61c-2.32-.18-2.23-3.55,1.06-4.65A63.31,63.31,0,0,1,35.2,26.17C37.33,26.17,37.69,29.8,35.66,30.51Z" transform="translate(-0.85 -0.2)"/><path class="cls-4" d="M20.45,33.61C21,36.4,23,48.49,32.54,55.54c6,4.45,13.94,5,20.72,4.77,3.27-.13,4.79-1.13,4.58-2.2L57.78,58S42.6,59.09,35.17,52.72,26,40.51,25.61,37.32,28,30.86,28,30.86s-2,.62-4.78,1.24S20.79,30.24,21.52,29C18.22,30.06,18.14,33.43,20.45,33.61Z" transform="translate(-0.85 -0.2)"/><polygon class="cls-3" points="22.74 26.55 22.31 24.08 29.1 22.73 29.68 25.09 22.74 26.55"/><circle class="cls-3" cx="25.29" cy="21.92" r="1.76"/></svg>