<svg id="Layer_1" data-name="Layer 1" xmlns="http://www.w3.org/2000/svg" viewBox="0 0 71.53 82.6"><defs><style>.cls-1{fill:#75cede;}.cls-2{fill:#61aab8;}.cls-3{fill:#437680;}.cls-4{fill:#fff;}.cls-5{fill:#ace8f2;}</style></defs><title>go</title><polygon class="cls-1" points="71.53 61.95 35.76 82.6 0 61.95 0 20.65 35.76 0 71.53 20.65 71.53 61.95"/><path class="cls-2" d="M56.56,49.3h-2.8v-5a18.15,18.15,0,0,0-.94-10.58,4.56,4.56,0,1,0-5.08-7.09,18.25,18.25,0,0,0-23.88-.07,4.55,4.55,0,1,0-5.14,7.12,18.16,18.16,0,0,0-1,10.63v5H15a2,2,0,1,0,0,4h2.8V72l18,10.62L53.76,72V53.3h2.8A2,2,0,0,0,56.56,49.3Z"/><circle class="cls-3" cx="51.34" cy="29.37" r="1.92"/><circle class="cls-3" cx="20.32" cy="29.37" r="1.92"/><circle class="cls-4" cx="26.99" cy="35.72" r="6.35"/><circle class="cls-4" cx="44.99" cy="35.72" r="6.35"/><circle class="cls-4" cx="34.61" cy="50.45" r="1.16"/><rect class="cls-4" x="33.46" y="46.78" width="2.31" height="3.67"/><circle class="cls-4" cx="37.49" cy="50.45" r="1.16"/><rect class="cls-4" x="36.33" y="46.78" width="2.31" height="3.67"/><circle class="cls-3" cx="42.51" cy="36.04" r="1.92"/><circle class="cls-3" cx="24.02" cy="36.04" r="1.92"/><ellipse class="cls-5" cx="39.66" cy="45.89" rx="1.9" ry="1.89"/><ellipse class="cls-5" cx="32.53" cy="45.89" rx="1.9" ry="1.89"/><path class="cls-5" d="M33.33,47.6a4.87,4.87,0,0,1,5.16-.22c1.76,1.14,2.37-2.94,2.37-2.94a10.08,10.08,0,0,0-9.39-.12Z"/><ellipse class="cls-3" cx="36.13" cy="43.22" rx="2.83" ry="1.68"/></svg>