<svg id="Layer_1" data-name="Layer 1" xmlns="http://www.w3.org/2000/svg" viewBox="0 0 71.53 82.6"><defs><style>.cls-1{fill:#fb42b9;}.cls-2{fill:#ca127f;}.cls-3{fill:#fff;}</style></defs><title>rust</title><polygon class="cls-1" points="71.53 61.95 35.76 82.6 0 61.95 0 20.65 35.76 0 71.53 20.65 71.53 61.95"/><path class="cls-2" d="M60.69,57.89l-23,13.29a3.81,3.81,0,0,1-3.81,0l-23-13.29a3.81,3.81,0,0,1-1.9-3.3V28a3.81,3.81,0,0,1,1.9-3.3l23-13.29a3.81,3.81,0,0,1,3.81,0l23,13.29a3.81,3.81,0,0,1,1.9,3.3V54.59A3.81,3.81,0,0,1,60.69,57.89Z" transform="translate(0 0)"/><polygon class="cls-3" points="41 25.6 41 36.6 32 36.6 32 25.6 25 25.6 25 55.6 32 55.6 32 42.6 41 42.6 41 55.6 48 55.6 48 25.6 41 25.6"/></svg>