<svg id="Layer_1" data-name="Layer 1" xmlns="http://www.w3.org/2000/svg" viewBox="0 0 71.53 82.6"><defs><style>.cls-1{fill:#fb503b;}.cls-2{fill:#fff;}.cls-3{fill:#fd9689;}</style></defs><title>sinatra</title><polygon class="cls-1" points="71.53 61.95 35.76 82.6 0 61.95 0 20.65 35.76 0 71.53 20.65 71.53 61.95"/><path class="cls-2" d="M62,42.05h0c-0.17-.19-1.63-2-2.92-3.61s-2.46-3.06-2.84-3.52a1.87,1.87,0,0,0-2-.92l-0.12,0c-0.52.08-6.47,1.08-7,1.17a1.51,1.51,0,0,0-1.19.71,1,1,0,0,0,.19,1l4.66,6.6L36.41,46.92l-12-20-0.08-.12a1.82,1.82,0,0,0-2-1c-1.13.05-9.79,0.77-10.15,0.8a1.39,1.39,0,0,0-1.16.6,2,2,0,0,0,.1,1.79c0.42,1,5,11,8.1,17.58l2.35,5.09a2.52,2.52,0,0,0,3.13,1.45c1.49-.36,6.32-1.61,10.25-2.64,2.25,4.07,5,8.94,5.55,9.74a2.07,2.07,0,0,0,1.74,1.08,5.43,5.43,0,0,0,1.49-.31c1.09-.33,15.9-5.67,16.45-5.89a1.57,1.57,0,0,0,1.07-.85,1.2,1.2,0,0,0-.24-1c-0.29-.43-3.25-4.4-5.85-7.88l6.21-1.65A1.12,1.12,0,0,0,62.24,43,1,1,0,0,0,62,42.05Zm-9.48,3.8,2.11,2.9,2.87,3.94-5.15,1.75c-6.42,2.17-9.31,3.15-9.46,3.22l-0.08,0a1,1,0,0,1-.19-0.22c-0.26-.37-3.16-5.37-4.59-7.85Zm-3.27-8.57c1.3-.23,5-0.89,5.26-1a0.16,0.16,0,0,0,.08,0,0.47,0.47,0,0,1,.11.12c0.2,0.27,1.9,2.43,3.71,4.73l0.32,0.4-5.4,1.33ZM58,52.57h0ZM33.33,47.65l-8.81,2.12h0c-1-2-9.19-19-10.17-21l3.91-.34,3.9-.34C22.52,28.81,32.29,45.85,33.33,47.65Z" transform="translate(-0.85 -0.2)"/><polygon class="cls-3" points="32.54 47.45 30.1 48.06 31.63 50.88 34.13 50.23 32.54 47.45"/><polygon class="cls-3" points="51.69 45.65 52.94 47.35 55.53 46.68 54.36 45.12 51.69 45.65"/></svg>