<svg id="Layer_1" data-name="Layer 1" xmlns="http://www.w3.org/2000/svg" viewBox="0 0 71.53 82.6"><defs><style>.cls-1{fill:#4b88c9;}.cls-2{fill:#2d6faa;}.cls-3{fill:#fff;}</style></defs><title>sinatra</title><polygon class="cls-1" points="71.53 61.95 35.76 82.6 0 61.95 0 20.65 35.76 0 71.53 20.65 71.53 61.95"/><polygon class="cls-2" points="11.9 54.82 36.98 81.78 71.53 61.95 71.36 45.16 53.73 24.82 25.81 32.91 32.48 39.41 18.65 43.91 28.73 54.28 11.9 54.82"/><path class="cls-3" d="M54.5,33.5H26.56s0.15-8,5.82-8H54.5v8Z" transform="translate(-0.85 -0.2)"/><path class="cls-3" d="M54.5,44.5h-35s0.15-9,5.82-9H54.5v9Z" transform="translate(-0.85 -0.2)"/><path class="cls-3" d="M54.5,55.5H12.74s0.15-9,5.82-9H54.5v9Z" transform="translate(-0.85 -0.2)"/></svg>