<svg id="Layer_1" data-name="Layer 1" xmlns="http://www.w3.org/2000/svg" xmlns:xlink="http://www.w3.org/1999/xlink" viewBox="0 0 71.53 82.6"><defs><style>.cls-1,.cls-6{fill:none;}.cls-2{fill:#3d699c;}.cls-3{clip-path:url(#clip-path);}.cls-4{fill:#325680;}.cls-5{fill:#fff;}.cls-6{stroke:#fff;stroke-miterlimit:10;stroke-dasharray:3.93 1.96;}</style><clipPath id="clip-path" transform="translate(-0.73 -0.2)"><polygon class="cls-1" points="72.27 62.15 36.5 82.8 0.73 62.15 0.73 20.85 36.5 0.2 72.27 20.85 72.27 62.15"/></clipPath></defs><title>clojure</title><polygon class="cls-2" points="71.53 61.95 35.77 82.6 0 61.95 0 20.65 35.77 0 71.53 20.65 71.53 61.95"/><g class="cls-3"><polygon class="cls-4" points="23.72 50.99 48.17 75.44 71.53 61.95 71.53 55 46.86 30.33 23.72 50.99"/><polygon class="cls-4" points="55.26 23.95 71.53 40.22 71.53 52.31 48.73 29.51 55.26 23.95"/></g><circle class="cls-5" cx="35.77" cy="41.3" r="15.46"/><circle class="cls-6" cx="35.77" cy="41.3" r="21.57"/><circle class="cls-5" cx="51.29" cy="25.9" r="4.43"/><circle class="cls-2" cx="40.64" cy="36.55" r="4.43"/></svg>