<svg id="Layer_1" data-name="Layer 1" xmlns="http://www.w3.org/2000/svg" viewBox="0 0 71.53 82.6"><defs><style>.cls-1{fill:#f4c04d;}.cls-2{fill:#fff;}.cls-3{opacity:0.35;isolation:isolate;}</style></defs><title>sinatra</title><polygon class="cls-1" points="71.53 61.95 35.76 82.6 0 61.95 0 20.65 35.76 0 71.53 20.65 71.53 61.95"/><path class="cls-2" d="M59,31.91V51.82l-4.83.62V39.82l-4.72,8.9h-0.1l-5-8.93V53.56l-5.68.51V29.17L44.78,30l4.66,8.86,4.43-7.63Zm-0.12-5.73-22.1-4.45v3.15l22.1,3.75V26.18Z" transform="translate(-0.85 -0.2)"/><path class="cls-3" d="M14.33,31.87V51.64l4.83,0.82V39.95l4.72,8.9H24l5-8.93V53.36l5.69,0.84V29.13l-6.1.86-4.66,9-4.43-8Zm-0.1-5.69,22.56-4.45V25L14.22,28.77V26.18Z" transform="translate(-0.85 -0.2)"/><path class="cls-2" d="M58.89,56.83l-22.1,4.44V58l22.1-3.59v2.44Z" transform="translate(-0.85 -0.2)"/><path class="cls-3" d="M14.22,56.83l22.56,4.44V58L14.22,54.23v2.6Z" transform="translate(-0.85 -0.2)"/></svg>