<svg id="Layer_1" data-name="Layer 1" xmlns="http://www.w3.org/2000/svg" viewBox="0 0 71.53 82.6"><defs><style>.cls-1{fill:#98cf70;}.cls-2{fill:#81b05f;}.cls-3{fill:#fff;fill-rule:evenodd;}</style></defs><title>Untitled-5</title><polygon class="cls-1" points="71.53 61.95 35.77 82.6 0 61.95 0 20.65 35.77 0 71.53 20.65 71.53 61.95"/><polygon class="cls-2" points="18.71 55.9 18.94 56.12 41.88 79.07 71.53 61.95 71.53 50.45 52.5 31.42 35.77 30.01 24.13 33.06 18.71 55.9"/><path class="cls-3" d="M53.24,31.62A1.84,1.84,0,0,0,52.31,30L37,20.85a2.51,2.51,0,0,0-.84-0.61H36a2.57,2.57,0,0,0-.84.61l-15.29,9a2,2,0,0,0-.92,1.7l0,23.75a1,1,0,0,0,.46.82,0.89,0.89,0,0,0,.92,0l9.16-5.2a1.92,1.92,0,0,0,1-1.6V38.24a1.78,1.78,0,0,1,.85-1.6l3.83-2.23a1.8,1.8,0,0,1,1.82,0l4.14,2.23a2.14,2.14,0,0,1,1.19,1.6V49.31a1.66,1.66,0,0,0,.65,1.6l9,5.21a0.78,0.78,0,0,0,.86,0,0.9,0.9,0,0,0,.43-0.8V31.62Z" transform="translate(-0.73 -0.2)"/></svg>