<svg id="Layer_1" data-name="Layer 1" xmlns="http://www.w3.org/2000/svg" viewBox="0 0 71.53 82.6"><defs><style>.cls-1{fill:#3672a4;}.cls-2{fill:#29577d;}.cls-3{fill:#fff;}</style></defs><title>Untitled-5</title><polygon class="cls-1" points="71.53 61.95 35.77 82.6 0 61.95 0 20.65 35.77 0 71.53 20.65 71.53 61.95"/><polyline class="cls-2" points="17.48 46.85 46.84 76.2 71.53 61.95 71.53 53.09 55.3 36.86"/><path class="cls-3" d="M36.64,30.56H27.91V26.91L31.8,22.8H42.26l4.08,4.25V37.37l-3.82,3.86H30.36L26,45.65v5.56l-3.92-.5L18.22,47V36.95l4.45-4.45h14V30.56Zm-3.08-5.47-1.65,1.64,1.64,1.64,1.65-1.64Z" transform="translate(-0.73 -0.2)"/><path class="cls-3" d="M37.61,53.83h8.73V57.2l-3.71,3.42H32.17l-4.26-3.57V46.74l4-3.58H44.08l4.2-4.25V33.26l4.16,0.13L56,37.06v10.1l-4.26,4.73H37.61v1.94ZM38.16,59l1.65-1.65-1.64-1.64-1.65,1.64Z" transform="translate(-0.73 -0.2)"/></svg>