<svg id="Layer_1" data-name="Layer 1" xmlns="http://www.w3.org/2000/svg" viewBox="0 0 71.53 82.6"><defs><style>.cls-1{fill:#444;}.cls-2{fill:#00d8ff;}</style></defs><title>sinatra</title><polygon class="cls-1" points="71.53 61.95 35.76 82.6 0 61.95 0 20.65 35.76 0 71.53 20.65 71.53 61.95"/><circle class="cls-2" cx="35.76" cy="41.26" r="4.12"/><path class="cls-2" d="M57.3,37.35a18.73,18.73,0,0,0-5.83-3.07Q50.75,34,50,33.81q0.13-.51.23-1c1.14-5.55.33-9.88-2.12-11.29a5.58,5.58,0,0,0-4.74,0A18.73,18.73,0,0,0,37.78,25q-0.57.5-1.15,1.05l-0.76-.71c-4.24-3.76-8.39-5.22-10.84-3.8a5.58,5.58,0,0,0-2.36,4.11,18.73,18.73,0,0,0,.26,6.58q0.15,0.75.34,1.53-0.88.25-1.71,0.54c-5,1.75-8,4.41-8,7.14A5.83,5.83,0,0,0,16,45.69a18.6,18.6,0,0,0,6,3.22q0.6,0.21,1.25.39Q23,50.15,22.88,51c-1,5.21-.17,9.13,2.19,10.49a4.35,4.35,0,0,0,2.2.54,8.11,8.11,0,0,0,2.67-.51,18.6,18.6,0,0,0,5.8-3.61q0.48-.42,1-0.89,0.62,0.6,1.25,1.14c3,2.54,5.78,3.89,8,3.89a4.26,4.26,0,0,0,2.17-.54,5.83,5.83,0,0,0,2.46-4.21,18.6,18.6,0,0,0-.23-6.83q-0.12-.6-0.28-1.23l0.86-.27c5.38-1.78,8.72-4.65,8.72-7.48A5.58,5.58,0,0,0,57.3,37.35ZM44,23.36a3.83,3.83,0,0,1,3.08-.15,4.06,4.06,0,0,1,1.49,2.92,17.68,17.68,0,0,1-.32,6.27q-0.09.45-.21,0.92a47.18,47.18,0,0,0-6.17-1A46.58,46.58,0,0,0,38,27.48q0.53-.51,1.06-1A16.79,16.79,0,0,1,44,23.36ZM43,45.21Q42,47.1,40.84,48.78c-1.37.1-2.78,0.15-4.23,0.15s-2.83,0-4.17-.13c-0.79-1.15-1.55-2.35-2.26-3.58h0c-0.71-1.23-1.37-2.47-2-3.71,0.6-1.25,1.25-2.5,2-3.72h0c0.71-1.23,1.46-2.42,2.23-3.56,1.38-.11,2.79-0.16,4.2-0.16s2.83,0.05,4.21.16c0.76,1.13,1.51,2.31,2.22,3.55s1.39,2.49,2,3.7C44.43,42.71,43.77,44,43,45.21Zm3-1.46a41.3,41.3,0,0,1,1.55,4.06,41.94,41.94,0,0,1-4.3.73q0.71-1.13,1.41-2.35T46.09,43.75Zm-9.4,10.42c-0.93-1-1.86-2.12-2.77-3.32q1.32,0.05,2.69.05t2.79-.06A41.4,41.4,0,0,1,36.69,54.16Zm-6.76-5.58a41.41,41.41,0,0,1-4.25-.68c0.41-1.32.91-2.68,1.49-4.07q0.62,1.19,1.3,2.38h0Q29.18,47.42,29.93,48.58Zm-2.76-9.39c-0.57-1.36-1.06-2.69-1.46-4,1.32-.29,2.72-0.53,4.18-0.72q-0.73,1.13-1.41,2.32h0Q27.79,38,27.17,39.19Zm9.46-10.3a42.21,42.21,0,0,1,2.71,3.28Q38,32.1,36.61,32.1t-2.71.06C34.79,31,35.71,29.89,36.64,28.89Zm8.11,7.9q-0.68-1.18-1.4-2.31c1.47,0.19,2.88.43,4.21,0.74a42.19,42.19,0,0,1-1.48,4Q45.45,38,44.75,36.79ZM24.86,31.88A16.79,16.79,0,0,1,24.61,26,3.83,3.83,0,0,1,26,23.27a4.06,4.06,0,0,1,3.28.17,17.67,17.67,0,0,1,5.27,3.4l0.69,0.64a47.19,47.19,0,0,0-3.93,4.86,47.65,47.65,0,0,0-6.16,1Q25,32.58,24.86,31.88ZM22.63,47.06a16.65,16.65,0,0,1-5.38-2.86,4.08,4.08,0,0,1-1.72-2.74c0-2,3.35-4.12,6.68-5.28,0.51-.18,1-0.34,1.59-0.5A47.2,47.2,0,0,0,26,41.5a47.51,47.51,0,0,0-2.28,5.91Q23.18,47.24,22.63,47.06ZM26,59.74c-1.76-1-1.89-5-1.23-8.42q0.14-.74.34-1.53a46,46,0,0,0,6.21.9,47.47,47.47,0,0,0,4,4.89q-0.44.42-.88,0.81C30.56,59.78,27.37,60.51,26,59.74Zm22.38-8.92c1,5.06,0,8.18-1.29,8.95-1.76,1-5.24-.84-7.91-3.14q-0.57-.49-1.16-1.06a46,46,0,0,0,3.87-4.91,46.25,46.25,0,0,0,6.24-1Q48.32,50.27,48.43,50.82Zm1.89-3.75-0.77.24a45.86,45.86,0,0,0-2.34-5.84,46.49,46.49,0,0,0,2.24-5.75q0.71,0.2,1.37.43A16.79,16.79,0,0,1,56,38.87a3.83,3.83,0,0,1,1.66,2.59C57.7,43,55.39,45.39,50.32,47.07Z" transform="translate(-0.85 -0.2)"/></svg>