<svg id="Layer_1" data-name="Layer 1" xmlns="http://www.w3.org/2000/svg" viewBox="0 0 71.53 82.6"><defs><style>.cls-1{fill:#fc616a;}.cls-2{fill:#720a00;}.cls-3{fill:#d51d13;}.cls-4{fill:#fffefd;}</style></defs><title>sinatra</title><polygon class="cls-1" points="71.53 61.95 35.76 82.6 0 61.95 0 20.65 35.76 0 71.53 20.65 71.53 61.95"/><g id="hex-redis"><path class="cls-2" d="M59,53.06a1.71,1.71,0,0,1-1,1.45L39.48,65.62a5,5,0,0,1-4.72,0L16.22,54.5a1.73,1.73,0,0,1-1-1.42v-5.6a1.73,1.73,0,0,0,1,1.42L34.75,60a5,5,0,0,0,4.72,0L58,48.91a1.71,1.71,0,0,0,1-1.45v5.6Z" transform="translate(-0.85 -0.2)"/><path class="cls-3" d="M34.75,60L16.22,48.91a1.52,1.52,0,0,1,0-2.83L34.75,35a5,5,0,0,1,4.72,0L58,46.07a1.52,1.52,0,0,1,0,2.83L39.48,60A5,5,0,0,1,34.75,60Z" transform="translate(-0.85 -0.2)"/><path class="cls-2" d="M59,44.27a1.71,1.71,0,0,1-1,1.45L39.48,56.83a5,5,0,0,1-4.72,0L16.22,45.72a1.73,1.73,0,0,1-1-1.42V38.7a1.73,1.73,0,0,0,1,1.42L34.75,51.24a5,5,0,0,0,4.72,0L58,40.12a1.71,1.71,0,0,0,1-1.45v5.6Z" transform="translate(-0.85 -0.2)"/><path class="cls-3" d="M34.75,51.24L16.22,40.12a1.52,1.52,0,0,1,0-2.83L34.75,26.17a5,5,0,0,1,4.72,0L58,37.28a1.52,1.52,0,0,1,0,2.83L39.48,51.24A5,5,0,0,1,34.75,51.24Z" transform="translate(-0.85 -0.2)"/><path class="cls-2" d="M59,35.48a1.71,1.71,0,0,1-1,1.45L39.48,48a5,5,0,0,1-4.72,0L16.22,36.93a1.73,1.73,0,0,1-1-1.42v-5.6a1.73,1.73,0,0,0,1,1.42L34.75,42.45a5,5,0,0,0,4.72,0L58,31.33a1.71,1.71,0,0,0,1-1.45v5.6Z" transform="translate(-0.85 -0.2)"/><path class="cls-3" d="M34.75,42.45L16.22,31.33a1.52,1.52,0,0,1,0-2.83L34.75,17.38a5,5,0,0,1,4.72,0L58,28.5a1.52,1.52,0,0,1,0,2.83L39.48,42.45A5,5,0,0,1,34.75,42.45Z" transform="translate(-0.85 -0.2)"/><path class="cls-4" d="M29.52,31.78a6.64,6.64,0,0,1-6.22,0c-1.72-1-1.72-2.7,0-3.73a6.64,6.64,0,0,1,6.22,0C31.24,29.08,31.24,30.75,29.52,31.78Z" transform="translate(-0.85 -0.2)"/><polygon class="cls-4" points="40.03 21.82 38.22 23.94 41.03 25.63 37.24 25.17 35.51 27.26 34.92 24.88 31.01 24.5 34.42 23.49 33.67 21.21 36.48 22.9 40.03 21.82"/><polygon class="cls-4" points="39.66 33.72 31.01 35.11 37.34 38.91 39.66 33.72"/><polygon class="cls-2" points="45.96 33.2 40.15 29.71 45.96 26.22 51.78 29.71 45.96 33.2"/></g></svg>