<svg id="Layer_1" data-name="Layer 1" xmlns="http://www.w3.org/2000/svg" xmlns:xlink="http://www.w3.org/1999/xlink" viewBox="0 0 71.53 82.6"><defs><style>.cls-1{fill:#ef3942;}.cls-2{fill:#b52b32;}.cls-3{fill:#ffd6d9;}.cls-4{fill:#dadada;}.cls-5{fill:#ffa7ad;}.cls-6{fill:#ffc0c4;}.cls-7{fill:#ff9399;}.cls-8{fill:#d3d3d3;}.cls-9{fill:#ffd9db;}.cls-10{fill:#ffbdc0;}.cls-11{fill:#fff;}.cls-12{fill:#ff616b;}.cls-13{fill:#ff868d;}.cls-14{fill:url(#linear-gradient);}.cls-15{fill:#ffdee0;}.cls-16{fill:#ff747c;}</style><linearGradient id="linear-gradient" x1="20.58" y1="32.21" x2="20.58" y2="32.21" gradientUnits="userSpaceOnUse"><stop offset="0" stop-color="#f4f4f4"/><stop offset="0.2" stop-color="#f0f0f0"/><stop offset="0.4" stop-color="#e3e3e3"/><stop offset="0.61" stop-color="#cfcfcf"/><stop offset="0.82" stop-color="#b2b2b2"/><stop offset="1" stop-color="#939393"/></linearGradient></defs><title>Untitled-5</title><polygon class="cls-1" points="71.53 61.95 35.76 82.6 0 61.95 0 20.65 35.76 0 71.53 20.65 71.53 61.95"/><polyline class="cls-2" points="17.61 49.34 42.03 78.98 71.53 61.95 71.53 52.17 61.89 37.35"/><polygon class="cls-3" points="51.8 26.66 44.43 22.71 35.65 22.71 26.87 22.71 19.8 26.66 9.64 37.35 18.09 49.09 35.69 62.09 35.69 62.1 35.7 62.09 35.71 62.1 35.8 62.01 53.29 49.06 61.89 37.35 51.8 26.66"/><path class="cls-4" d="M36.39,49.26" transform="translate(-0.74 -0.2)"/><polygon class="cls-5" points="53.29 49.06 43.28 37.3 35.7 50.15 53.29 49.06"/><polygon class="cls-3" points="43.28 37.3 51.68 32.01 53.29 49.06 43.28 37.3"/><polygon class="cls-6" points="53.29 49.06 61.89 37.35 51.8 26.66 51.68 32.01 53.29 49.06"/><polygon class="cls-7" points="18.09 49.09 28.02 37.31 35.7 50.15 18.09 49.09"/><polygon class="cls-8" points="28.02 37.31 19.85 32.01 18.09 49.09 28.02 37.31"/><polygon class="cls-9" points="28.02 37.31 19.85 32.01 18.09 49.09 28.02 37.31"/><polygon class="cls-10" points="18.09 49.09 9.64 37.35 19.8 26.66 19.85 32.01 18.09 49.09"/><polygon class="cls-6" points="35.65 37.26 28.02 37.31 28.02 37.31 35.7 50.15 43.28 37.3 43.28 37.3 35.65 37.26"/><polygon class="cls-11" points="44.43 22.71 35.65 22.71 26.87 22.71 19.8 26.66 19.85 32.01 28.02 37.31 35.65 37.26 43.28 37.3 51.68 32.01 51.8 26.66 44.43 22.71"/><polygon class="cls-12" points="35.7 50.15 35.8 62.01 53.29 49.06 35.7 50.15"/><polygon class="cls-13" points="35.7 50.15 35.7 50.15 18.09 49.09 35.71 62.1 35.8 62.01 35.7 50.15"/><path class="cls-14" d="M20.58,32.21" transform="translate(-0.74 -0.2)"/><polygon class="cls-15" points="51.68 32.01 61.89 37.35 51.8 26.66 51.68 32.01"/><polyline class="cls-15" points="19.8 32.44 19.74 32.47 9.64 37.35 19.8 26.66"/><polygon class="cls-16" points="26.9 49.62 35.71 62.1 35.7 50.15 26.9 49.62"/><polygon class="cls-13" points="44.51 49.62 35.69 62.1 35.7 50.15 44.51 49.62"/></svg>