<svg id="Layer_1" data-name="Layer 1" xmlns="http://www.w3.org/2000/svg" viewBox="0 0 71.53 82.6"><defs><style>.cls-1{fill:#444;}.cls-2{fill:#212121;}.cls-3{fill:#fff;}</style></defs><title>sinatra</title><polygon class="cls-1" points="71.53 61.95 35.76 82.6 0 61.95 0 20.65 35.76 0 71.53 20.65 71.53 61.95"/><path class="cls-2" d="M54.29,24.81s-3-2.31-7.73-.28c-1.72.74-9,11.52-9,11.52s-5.46-6.56-9.86-3.63c-2.23,1.49,2.25,12.7.13,16l-6-6.27-1.92,5.19,7.94,8.27L23.47,60,41.8,79.73,72.32,62.08,72.23,44Z" transform="translate(-0.85 -0.2)"/><path class="cls-3" d="M49.59,23.43a10.1,10.1,0,0,0-7.22,3.86A24.33,24.33,0,0,0,38,35.41c-1.76-1.45-3.12-3.32-6-4.13a7.28,7.28,0,0,0-6.6,1.2,5.92,5.92,0,0,0-2,2.94c-0.85,2.76.89,5.22,1.68,6.1l1.73,1.85A2.63,2.63,0,0,1,27.6,46a3.19,3.19,0,0,1-4.06,1.87c-0.82-.25-2-0.86-1.73-1.71a7.41,7.41,0,0,1,.49-0.91,4.32,4.32,0,0,0,.22-0.57,2.29,2.29,0,0,0-1.29-2.87,1.92,1.92,0,0,0-2.64,1.33c-0.49,1.59.27,4.49,4.36,5.74,4.79,1.47,8.83-1.13,9.41-4.53,0.36-2.13-.6-3.71-2.36-5.74l-1.44-1.59a2.62,2.62,0,0,1-.27-3.49c0.76-1,1.84-1.37,3.61-.89,2.59,0.7,3.74,2.49,5.66,3.94-0.79,2.6-1.31,5.22-1.78,7.56L35.5,45.94c-1.37,7.21-2.42,11.16-5.15,13.44a4.42,4.42,0,0,1-2.52,1A0.73,0.73,0,0,1,27,59.8,1.06,1.06,0,0,1,27.6,59a1.51,1.51,0,0,0,.88-1.58,2.39,2.39,0,0,0-2.57-2.28,3,3,0,0,0-2.76,3c0.07,2,1.92,3.48,4.72,3.39,1.5-.05,4.84-0.66,8.13-4.57,3.83-4.49,4.9-9.63,5.71-13.39l0.9-5c0.5,0.06,1,.1,1.62.11,4.77,0.1,7.16-2.37,7.19-4.17a2,2,0,0,0-1.75-2.13,2,2,0,0,0-1.89,1.53c-0.22,1,1.52,1.91.16,2.79a7.58,7.58,0,0,1-5.13.71L43.26,35c0.9-4.64,2-10.34,6.24-10.48,0.31,0,1.43,0,1.46.76a1.71,1.71,0,0,1-.35.88,2,2,0,0,0-.39,1.26,2,2,0,0,0,2.24,1.92,2.43,2.43,0,0,0,2.22-2.63C54.61,24.63,52.45,23.34,49.59,23.43Z" transform="translate(-0.85 -0.2)"/></svg>