<svg id="Layer_1" data-name="Layer 1" xmlns="http://www.w3.org/2000/svg" viewBox="0 0 71.53 82.6"><defs><style>.cls-1{fill:#21759b;}.cls-2{fill:#08597c;}.cls-3{fill:#fff;}</style></defs><title>sinatra</title><polygon class="cls-1" points="71.53 61.95 35.76 82.6 0 61.95 0 20.65 35.76 0 71.53 20.65 71.53 61.95"/><path class="cls-2" d="M70.5,62V46.5L51.87,24.86l0.41,0a22.55,22.55,0,0,0-15.87-6.54A23.1,23.1,0,0,0,22.29,59.69L40.56,80Z" transform="translate(-0.85 -0.2)"/><path class="cls-3" d="M36.63,19.4A22.1,22.1,0,1,0,58.72,41.5,22.12,22.12,0,0,0,36.63,19.4ZM16.76,41.5a19.79,19.79,0,0,1,1.72-8.08l9.48,26A19.87,19.87,0,0,1,16.76,41.5ZM36.63,61.37A19.86,19.86,0,0,1,31,60.56l6-17.32L43.08,60a1.86,1.86,0,0,0,.14.27A19.83,19.83,0,0,1,36.63,61.37Zm2.74-29.18c1.2-.06,2.27-0.19,2.27-0.19a0.82,0.82,0,0,0-.13-1.64s-3.22.25-5.29,0.25S31,30.36,31,30.36A0.82,0.82,0,0,0,30.86,32s1,0.13,2.08.19L36,40.67l-4.35,13L24.46,32.19c1.2-.06,2.27-0.19,2.27-0.19a0.82,0.82,0,0,0-.13-1.64s-3.22.25-5.29,0.25l-1.28,0a19.86,19.86,0,0,1,30-3.74l-0.26,0a3.44,3.44,0,0,0-3.34,3.53c0,1.64.94,3,2,4.66A10.46,10.46,0,0,1,50,40.5c0,1.7-.65,3.67-1.51,6.42l-2,6.62Zm7.25,26.48,6.07-17.54A18.76,18.76,0,0,0,54.19,34a15.24,15.24,0,0,0-.13-2A19.87,19.87,0,0,1,46.62,58.67Z" transform="translate(-0.85 -0.2)"/></svg>