<svg id="Layer_1" data-name="Layer 1" xmlns="http://www.w3.org/2000/svg" viewBox="0 0 71.53 82.6"><defs><style>.cls-1{fill:#f04c5c;}.cls-2{fill:#c4314a;}.cls-3{fill:#fff;}</style></defs><title>icon-template</title><polygon class="cls-1" points="71.53 61.95 35.76 82.6 0 61.95 0 20.65 35.76 0 71.53 20.65 71.53 61.95"/><polygon class="cls-2" points="59.2 28.22 53.67 31.41 36.91 14.44 34.25 21.83 40.35 28.01 27.38 27.88 19.38 42.25 24.75 51.88 23.91 59.94 42.5 78.75 71.53 61.95 71.53 40.92 59.2 28.22"/><path class="cls-3" d="M25.25,60.35a1.9,1.9,0,0,1-1.9-1.77L22.92,52.5,17.42,43a1.9,1.9,0,0,1,0-1.9L25.7,26.74a1.9,1.9,0,0,1,1.65-1H43.89a1.9,1.9,0,0,1,1.65,1l8.27,14.33a1.9,1.9,0,0,1,0,1.9L45.54,57.3a1.9,1.9,0,0,1-1.65,1H31.59l-5.72,2A1.91,1.91,0,0,1,25.25,60.35ZM21.26,42l5.17,9a1.9,1.9,0,0,1,.25.82l0.28,4,3.68-1.28a1.91,1.91,0,0,1,.62-0.11H42.79L50,42,42.79,29.59H28.44Z"/><rect class="cls-3" x="33.64" y="14.25" width="3.95" height="7.91" rx="1.5" ry="1.5"/><rect class="cls-3" x="54.32" y="27.02" width="3.95" height="7.91" rx="1.5" ry="1.5" transform="translate(54.98 -33.27) rotate(60)"/></svg>