<svg id="Layer_1" data-name="Layer 1" xmlns="http://www.w3.org/2000/svg" viewBox="0 0 71.57 82.6"><defs><style>.cls-1{fill:#ee4323;}.cls-2{fill:#bf3e11;}.cls-3{fill:#fef6f5;}</style></defs><title>sinatra</title><polygon class="cls-1" points="71.53 61.95 35.76 82.6 0 61.95 0 20.65 35.76 0 71.53 20.65 71.53 61.95"/><polygon class="cls-2" points="71.45 54.42 38.06 19.8 20.06 53.8 43.39 77.98 71.57 62.05 71.45 54.42"/><path class="cls-3" d="M30.37,59.44c-2.51-1.09-4.86-3.84-4.87-6.67,0-3.08,1.94-5.69,4.37-7.41a3.34,3.34,0,0,0,.27,3.1,2.93,2.93,0,0,0,3,1.12c2.6-.57,2.71-3.42,1.18-5.08s-3-3.51-2.41-5.89a6.14,6.14,0,0,1,2-3.12c-0.72,1.88,1.32,3.73,2.66,4.66,2.32,1.6,4.87,2.81,7,4.69s3.91,4.64,3.57,7.74c-0.36,3.36-3,5.69-6,6.87,6.32-1.4,12.85-6.3,13-13.31,0.11-5.77-3.85-10.21-8.75-12.75L45,33.24a2.09,2.09,0,0,1,.17.85,3,3,0,0,0,.08-0.57,2.76,2.76,0,0,1-.09.68V34.1a2.87,2.87,0,0,1-.36.86l0.07-.08a3.08,3.08,0,0,1-4.93.29c-2.1-2.7,0-5.61.34-8.47,0.38-3.58-1.87-7.06-4.66-9.15,1.54,2.48-.49,5.77-2.11,7.61S30.08,28.43,28.35,30a43.41,43.41,0,0,0-5.18,5.61c-3.06,4.08-4.93,9.22-3.56,14.31s5.78,8.33,10.76,9.47h0Z" transform="translate(-0.83 -0.2)"/></svg>