<svg id="Layer_1" data-name="Layer 1" xmlns="http://www.w3.org/2000/svg" viewBox="0 0 71.53 82.6"><defs><style>.cls-1{fill:#e14b31;}.cls-2{fill:#b53224;}.cls-3{fill:#fff;}</style></defs><title>express</title><polygon class="cls-1" points="71.53 61.95 35.76 82.6 0 61.95 0 20.65 35.76 0 71.53 20.65 71.53 61.95"/><polygon class="cls-2" points="13.02 46.43 44.34 77.64 71.53 61.95 71.53 49.42 47.13 24.7 32.77 28.33 29.25 46.75 13.02 46.43"/><path class="cls-3" d="M52.55,47.59c-0.88-1.25-1.77-.13-3.09.7-3,1.88-7,3.88-11.07,3.94-5.86.08-5.27-3.72-5.27-3.72s21.49-7.36,15.63-21.88c-2.63-3.74-5.69-4.91-10-4.83s-9.58,2.73-13.06,10.54a33.9,33.9,0,0,0-2.48,9.94h0s-3.89.77-5.93-.93-3.15,0-3.15,0-3.53,4.4,0,5.76A42.63,42.63,0,0,0,22.94,49h0a16.39,16.39,0,0,0,6.19,9.7c3.57,2.71,9,2.3,13,1.33A23.87,23.87,0,0,0,52,54.39C53,53.26,53.42,48.84,52.55,47.59ZM32.1,42C32.35,31.84,39,27.43,41.27,29.64s1.44,7-2.89,9.94S32.1,42,32.1,42Z"/></svg>