<svg id="Layer_1" data-name="Layer 1" xmlns="http://www.w3.org/2000/svg" viewBox="0 0 71.53 82.6"><defs><style>.cls-1{fill:#ef454e;}.cls-2{fill:#fff;}</style></defs><title>php</title><polygon class="cls-1" points="71.53 61.95 35.77 82.6 0 61.95 0 20.65 35.77 0 71.53 20.65 71.53 61.95"/><path class="cls-2" d="M55.05,49.53l-6.49-3.36s-4.08,7.23-10.1,7.23-9.22-6.59-9.22-11.73c0-.46,0-1.18,0-1.18H54.5V38.18l-0.24-.1c0-7.26-2.9-11.57-6.9-13.57H23.88c-5,3-8.64,8.09-8.64,16.84,0,7.37,3.09,12.16,7.33,15.16H49.42A15.35,15.35,0,0,0,55.05,49.53Zm-20-21.64C41.6,27.89,41,33.5,41,33.5H29.56C29.71,33.5,31,27.89,35.07,27.89Z" transform="translate(-0.73 -0.2)"/></svg>