<svg id="Layer_1" data-name="Layer 1" xmlns="http://www.w3.org/2000/svg" viewBox="0 0 71.53 82.6"><defs><style>.cls-1{fill:#383838;}.cls-2{fill:#fff;}</style></defs><title>icon-template</title><polygon class="cls-1" points="71.53 61.95 35.76 82.6 0 61.95 0 20.65 35.76 0 71.53 20.65 71.53 61.95"/><path class="cls-2" d="M17.35,42.13v0.26a13.16,13.16,0,0,0,.52,3.73,9.53,9.53,0,0,0,1.54,3.12A7.32,7.32,0,0,0,22,51.37a7.85,7.85,0,0,0,3.59.78,7.65,7.65,0,0,0,5.31-1.76,9.2,9.2,0,0,0,2.7-4.88h1.65a10,10,0,0,1-3.19,6,9.68,9.68,0,0,1-6.48,2.08,9.84,9.84,0,0,1-4.32-.89,8.77,8.77,0,0,1-3.08-2.43,10.29,10.29,0,0,1-1.84-3.64,16.25,16.25,0,0,1-.61-4.53,15.87,15.87,0,0,1,.63-4.49,11.26,11.26,0,0,1,1.89-3.77,9.34,9.34,0,0,1,3.14-2.6,9.55,9.55,0,0,1,4.45-1,9.44,9.44,0,0,1,4.14.87,8.68,8.68,0,0,1,3,2.36,10.51,10.51,0,0,1,1.84,3.47,13.87,13.87,0,0,1,.63,4.23c0,0.14,0,.31,0,0.5s0,0.34,0,.46h-18Zm16.4-1.43a13.33,13.33,0,0,0-.61-3.45,8.54,8.54,0,0,0-1.54-2.86,7.69,7.69,0,0,0-2.48-2,7.27,7.27,0,0,0-3.33-.74,7.8,7.8,0,0,0-3.52.76,8,8,0,0,0-2.57,2,8.89,8.89,0,0,0-1.61,2.88,13.51,13.51,0,0,0-.7,3.38H33.75Z"/><path class="cls-2" d="M44.81,41.35L36.65,30.76H39l7,9.33,7-9.33h2.13L47,41.35l8.81,11.71H53.57L45.94,42.61,38.13,53.06H36Z"/></svg>