<svg id="Layer_1" data-name="Layer 1" xmlns="http://www.w3.org/2000/svg" xmlns:xlink="http://www.w3.org/1999/xlink" viewBox="0 0 71.53 82.6"><defs><style>.cls-1{fill:#e80000;}.cls-2{fill:#b8b8b8;}.cls-3{fill:#fff;}.cls-4{fill:#dfdfdf;}.cls-5{clip-path:url(#clip-path);}.cls-6{fill:#ea0001;}.cls-7{fill:#8a0001;}.cls-10,.cls-8,.cls-9{fill:none;stroke-miterlimit:10;}.cls-10,.cls-8{stroke:#fff;}.cls-8{stroke-width:3px;}.cls-9{stroke:#dfdfdf;stroke-linecap:round;}.cls-10{stroke-width:2px;}</style><clipPath id="clip-path" transform="translate(-0.74 -0.2)"><ellipse class="cls-1" cx="35.17" cy="40.21" rx="10.82" ry="5.82"/></clipPath></defs><title>php</title><polygon class="cls-2" points="71.53 61.95 35.76 82.6 0 61.95 0 20.65 35.76 0 71.53 20.65 71.53 61.95"/><ellipse class="cls-3" cx="34.43" cy="52.48" rx="7.55" ry="5"/><ellipse class="cls-4" cx="34.43" cy="37.39" rx="13.08" ry="7.04"/><ellipse class="cls-1" cx="34.43" cy="40.01" rx="10.82" ry="5.82"/><g class="cls-5"><ellipse class="cls-6" cx="34.43" cy="40.01" rx="10.82" ry="5.82"/><path class="cls-7" d="M51.86,32.29H24.72v7a15.16,15.16,0,0,1,8.36-2.2c4.69,0,8.62,1.69,10.12,3.93C43.2,41.05,51.2,40.29,51.86,32.29Z" transform="translate(-0.74 -0.2)"/></g><path class="cls-3" d="M42.42,53.29c-0.92,2-3.81,2.48-7.25,2.48s-6.34-.92-7.25-2.27l-0.18,0c-6.72-8.4-6-15.71-6-15.71V37.59c0,3.89,6,7,13.26,7s13.17-3.15,13.17-7l0,0.1s0.93,7.6-5.79,15.6h0Z" transform="translate(-0.74 -0.2)"/><path class="cls-3" d="M35,32.55c6.46,0,11.28,2.66,11.28,5s-4.82,5-11.28,5-11.28-2.66-11.28-5,4.82-5,11.28-5m0-2c-7.33,0-13.28,3.15-13.28,7s5.94,7,13.28,7,13.28-3.15,13.28-7-5.94-7-13.28-7h0Z" transform="translate(-0.74 -0.2)"/><path class="cls-8" d="M48,38.3a6.25,6.25,0,0,1,0,12.5h-5.3" transform="translate(-0.74 -0.2)"/><path class="cls-8" d="M48,38.3a6.25,6.25,0,0,1,0,12.5h-5.3" transform="translate(-0.74 -0.2)"/><path class="cls-9" d="M48.07,39a5.58,5.58,0,0,1,5.06,3.22" transform="translate(-0.74 -0.2)"/><line class="cls-9" x1="42.99" y1="51.59" x2="48.99" y2="51.59"/><path class="cls-9" d="M28.51,51.73a23.58,23.58,0,0,1-4.34-9.32" transform="translate(-0.74 -0.2)"/><path class="cls-10" d="M44.9,20.81c-1.18,4-4.27,6.56-5.73,7.78" transform="translate(-0.74 -0.2)"/><path class="cls-10" d="M28.51,29.69c-0.65-4.69,2.06-7,4.25-8.78a17.75,17.75,0,0,0,1.57-1.44" transform="translate(-0.74 -0.2)"/><path class="cls-10" d="M40.09,15.52c1.25,4.74-2.25,7.66-4.13,9.23-2.24,1.87-2.74,2.49-2.5,4.25" transform="translate(-0.74 -0.2)"/></svg>