<svg id="Layer_1" data-name="Layer 1" xmlns="http://www.w3.org/2000/svg" viewBox="0 0 71.53 82.6"><defs><style>.cls-1{fill:#65cf69;}.cls-2{fill:#55b358;}.cls-3{fill:#fff;}.cls-4{fill:none;stroke:#fff;stroke-linecap:round;stroke-miterlimit:10;stroke-width:5px;}</style></defs><title>clojure</title><polygon class="cls-1" points="71.53 61.95 35.76 82.6 0 61.95 0 20.65 35.76 0 71.53 20.65 71.53 61.95"/><polygon class="cls-2" points="71.53 61.95 71.53 48.54 52.17 29.18 47.38 30.07 40.41 23.09 35.77 21.93 23.18 28.5 18.35 39.51 16.69 52.73 24.25 60.29 24.01 64.25 39.84 80.08 71.53 61.95"/><circle class="cls-3" cx="35.76" cy="29.18" r="10.33"/><path class="cls-4" d="M45.89,29.38a8.39,8.39,0,0,1,8.39,8.39v20.4" transform="translate(-0.74 -0.2)"/><path class="cls-4" d="M28.11,29.38a8.39,8.39,0,0,0-8.39,8.39V51.84" transform="translate(-0.74 -0.2)"/><path class="cls-4" d="M47.28,54.38V37.77a1.39,1.39,0,0,0-1.39-1.39L43,34" transform="translate(-0.74 -0.2)"/><path class="cls-4" d="M26.72,62.71V37.77a1.39,1.39,0,0,1,1.39-1.39L31,34" transform="translate(-0.74 -0.2)"/><line class="cls-4" x1="32.87" y1="36.27" x2="32.87" y2="54.18"/><line class="cls-4" x1="39.66" y1="36.27" x2="39.66" y2="60.15"/><circle class="cls-1" cx="35.52" cy="32.79" r="2.13"/><circle class="cls-1" cx="35.52" cy="24.16" r="2.13"/><circle class="cls-1" cx="31.2" cy="28.48" r="2.13"/><circle class="cls-1" cx="39.84" cy="28.48" r="2.13"/></svg>