<svg id="Layer_1" data-name="Layer 1" xmlns="http://www.w3.org/2000/svg" xmlns:xlink="http://www.w3.org/1999/xlink" viewBox="0 0 71.53 82.95"><defs><style>.cls-1{fill:#7197ee;}.cls-2{fill:#fff;}.cls-3{fill:#4a67a8;}.cls-4{fill:#ffc88d;}.cls-5{fill:url(#radial-gradient);}.cls-6{fill:url(#radial-gradient-2);}.cls-7{fill:#002b64;}.cls-8{fill:#678ad9;}.cls-9{fill:#394e80;}.cls-10{fill:#c7fffa;}</style><radialGradient id="radial-gradient" cx="1443.09" cy="-4208.57" r="34.01" gradientTransform="matrix(0.38, -0.93, 0.36, 0.15, 1019.01, 2029.4)" gradientUnits="userSpaceOnUse"><stop offset="0" stop-color="#543824"/><stop offset="1" stop-color="#8b5e3c" stop-opacity="0"/></radialGradient><radialGradient id="radial-gradient-2" cx="297.45" cy="-631.86" r="19.3" gradientTransform="matrix(0.11, 0.39, 1.45, -0.4, 919.41, -341.21)" gradientUnits="userSpaceOnUse"><stop offset="0" stop-color="#fff"/><stop offset="1" stop-color="#fff" stop-opacity="0"/></radialGradient></defs><title>sinatra</title><polygon class="cls-1" points="71.53 61.95 35.76 82.6 0 61.95 0 20.65 35.76 0 71.53 20.65 71.53 61.95"/><g id="hex-maria-db"><circle class="cls-2" cx="32.33" cy="15.15" r="1.19"/><circle class="cls-2" cx="38.89" cy="9.63" r="1.19"/><circle class="cls-2" cx="15.2" cy="18.57" r="1.19"/><circle class="cls-2" cx="67.2" cy="38.54" r="1.19"/><polygon class="cls-3" points="35.91 82.95 8.49 66.86 64.07 67 35.91 82.95"/><path id="path3352" class="cls-4" d="M32.14,80.47S37.21,54.84,39.74,51c2.68-4.17,6.85-6.71,10.58-9.39,4.32-3,8.2-6.11,8.79-11.92-4.47-.45-5.51-1.49-6.26-3.73-2.24,1.34-4.32,1.49-6.71,1.64a59.93,59.93,0,0,0-7,.3C19.18,30,3.68,64.08,3.68,64.08Z" transform="translate(-0.85 -0.2)"/><path id="path3352-2" data-name="path3352" class="cls-5" d="M32.14,80.47S37.21,54.84,39.74,51c2.68-4.17,6.85-6.71,10.58-9.39,4.32-3,8.2-6.11,8.79-11.92-4.47-.45-5.51-1.49-6.26-3.73-2.24,1.34-4.32,1.49-6.71,1.64a59.93,59.93,0,0,0-7,.3C19.18,30,3.68,64.08,3.68,64.08Z" transform="translate(-0.85 -0.2)"/><path id="path4028" class="cls-6" d="M52.85,25.93c-2.24,1.34-4.32,1.49-6.71,1.64a59.93,59.93,0,0,0-7,.3c-8.49.89-16.39,8-21,13.41L36.76,60.05c1-4.17,1.94-7.45,3-9.09,2.68-4.17,6.85-6.71,10.58-9.39,4.32-3,8-6.11,8.79-11.92C54.64,29.36,53.6,28.31,52.85,25.93Z" transform="translate(-0.85 -0.2)"/><path id="path3880" class="cls-7" d="M31.54,37.25c3.28,2.83,10,.6,8.79-5.07C35.27,31.89,32.44,33.53,31.54,37.25Z" transform="translate(-0.85 -0.2)"/><path id="path3880-2" data-name="path3880" class="cls-2" d="M36.16,34.57a1.2,1.2,0,0,0,1.94-1.19C36.91,33.23,36.31,33.68,36.16,34.57Z" transform="translate(-0.85 -0.2)"/><path id="path3882" class="cls-8" d="M53.15,34.57a13.1,13.1,0,0,0,.6,6c0.15,0.45,0,.89-0.3.3a11.63,11.63,0,0,1-.75-6.11C52.7,33.83,53.15,34,53.15,34.57Z" transform="translate(-0.85 -0.2)"/><path id="path3884" class="cls-8" d="M51.66,34.57c-0.3,1.64-1.49,4.77-.6,8.64,0.15,0.6-.3,1.19-0.45.15-0.89-3.73,0-6.41.45-8.79C51.36,33.68,51.66,34,51.66,34.57Z" transform="translate(-0.85 -0.2)"/><path id="path3888" class="cls-8" d="M50,34.42c-0.6,1.64-2.38,6.85-1.94,10.73,0,0.6-.45,1.19-0.45.15-0.3-3.73,1.19-8.64,1.94-10.88C49.87,33.38,50.17,33.68,50,34.42Z" transform="translate(-0.85 -0.2)"/><path class="cls-9" d="M52.85,25.93s3.43-3.73,5.36-3.58a2.18,2.18,0,0,1,2.09,1.79c0.45,1.34-1.19,5.51-1.19,5.51s-3,.3-4.47-0.6A4.78,4.78,0,0,1,52.85,25.93Z" transform="translate(-0.85 -0.2)"/><polygon class="cls-2" points="70.48 63.28 55.88 71.62 53.79 72.97 54.69 61.04 61.54 50.61 65.42 56.13 68.4 60.89 70.48 63.28"/><polygon class="cls-10" points="59.16 57.77 60.05 63.88 55.88 71.62 53.79 72.97 50.36 74.9 56.47 54.04 61.69 50.61 59.16 57.77"/></g></svg>