<?xml version="1.0" encoding="utf-8"?>
<!-- Generator: Adobe Illustrator 19.2.0, SVG Export Plug-In . SVG Version: 6.00 Build 0)  -->
<svg version="1.1" id="Layer_1" xmlns="http://www.w3.org/2000/svg" xmlns:xlink="http://www.w3.org/1999/xlink" x="0px" y="0px"
	 viewBox="0 0 71.5 82.9" enable-background="new 0 0 71.5 82.9" xml:space="preserve">
<title>sinatra</title>
<polygon fill="#245693" points="71.5,62 35.8,82.7 0,62 0,20.7 35.8,0.1 71.5,20.7 "/>
<g>
	<path fill="#FFFFFF" d="M47.7,51.8c0.6,1,3,1.5,4.3,1.2c-0.7-0.7-1.5-3.4-1.6-4.7C49.7,49.1,48,50.4,47.7,51.8z"/>
	<path fill="#FFFFFF" d="M60.4,23.1c-0.4-0.2-1,0.1-1.4,0.3c-0.7,0.4-1.4,0.5-2.1,0.5c-0.6,0-1.3,0-2.2,0.1
		c-7.1,0.7-8,8.6-12.6,13.1c-0.3,0.3-0.7,0.6-1.1,0.9c-1.6,1.2-3.6,2-5.4,2.7c-2.9,1.1-5.7,1.2-8.5,2.2c-2,0.7-4.1,1.7-5.7,2.9
		c-0.4,0.3-0.8,0.6-1.2,0.9c-1,0.8-1.6,1.7-2.2,2.6c-0.6,0.9-1.3,1.9-2.2,2.8c-1.5,1.5-7.2,0.4-9.2,1.8c-0.2,0.2-0.4,0.3-0.5,0.6
		c1.1,0.5,1.8,0.2,3.1,0.3c0.2,1.2-2.6,1.9-2.2,2.4c3.2,0.5,5.1,0,7.7-1.1c2.2-0.9,4.3-2.9,6.9-3.7c3.8-1.2,7.9,0,12,0.2
		c1,0.1,2,0.1,2.9,0c1.5-0.9,1.5-4.4,2.9-4.7c0,4.9-2,7.8-4.1,10.6c4.4-0.8,7-3.3,8.8-6.7c0.5-1,1-2.1,1.4-3.3
		c0.6,0.5,0.3,2,0.6,2.8c3-1.7,4.8-5.5,5.9-9.4c1.3-4.5,1.9-9.1,2.7-10.4c0.8-1.3,2.1-2.1,3.3-2.9c1.4-0.9,2.6-1.9,2.8-3.7
		C61.1,24,60.7,23.3,60.4,23.1z M52.3,27c0.3-1.2,1.2-1.7,2.8-1.6C55.5,27.1,53.3,27.8,52.3,27z M56.3,27.1c0,0-0.1,0-0.1,0
		c-0.1-0.1-0.2-0.2-0.1-0.3c0.7-1.4,2.3-2.5,2.4-2.6c0.1-0.1,0.2,0,0.3,0.1c0.1,0.1,0,0.2-0.1,0.3c0,0-1.5,1.1-2.2,2.4
		C56.5,27.1,56.4,27.1,56.3,27.1z M59.2,25.1c0,0-1.2,1-1.6,2.4c0,0.1-0.1,0.2-0.2,0.2c0,0,0,0-0.1,0c-0.1,0-0.2-0.1-0.2-0.3
		c0.4-1.5,1.7-2.6,1.7-2.6c0.1-0.1,0.2-0.1,0.3,0C59.3,24.8,59.3,25,59.2,25.1z"/>
</g>
</svg>
