<svg id="Layer_1" data-name="Layer 1" xmlns="http://www.w3.org/2000/svg" viewBox="0 0 71.53 82.6"><defs><style>.cls-1{fill:#a1cccc;}.cls-2{fill:#fff;}.cls-3{fill:#ffa3a9;}.cls-4{fill:none;stroke:#c4c9c9;stroke-miterlimit:10;stroke-width:2px;}.cls-5{fill:#abb0b0;}</style></defs><title>sinatra</title><polygon class="cls-1" points="71.53 61.95 35.76 82.6 0 61.95 0 20.65 35.76 0 71.53 20.65 71.53 61.95"/><g id="hex-memcached"><path class="cls-2" d="M36.8,69C54.39,69,60.5,56.33,60.5,48A43.79,43.79,0,0,0,46.94,15.79c0,7.9-.15,18-9.39,18" transform="translate(-0.85 -0.2)"/><path class="cls-2" d="M38.29,69C20.71,69,14.6,56.33,14.6,48A43.79,43.79,0,0,1,28.16,15.79c0,7.9.15,18,9.39,18" transform="translate(-0.85 -0.2)"/><circle class="cls-2" cx="49.81" cy="47.04" r="5.22"/><path class="cls-3" d="M50.66,42.47A4.62,4.62,0,1,1,46,47.09a4.55,4.55,0,0,1,4.62-4.62m0-1.49a6.11,6.11,0,1,0,6.11,6.11A6.24,6.24,0,0,0,50.66,41h0Z" transform="translate(-0.85 -0.2)"/><polyline class="cls-4" points="37.44 51.36 37.44 60.3 31.63 65.36"/><line class="cls-4" x1="42.81" y1="65.22" x2="37.44" y2="59.7"/><circle class="cls-2" cx="25.22" cy="47.04" r="5.22"/><polygon class="cls-5" points="40.42 50.16 37.44 53 34.61 50.16 40.42 50.16"/><path class="cls-3" d="M26.07,42.47a4.62,4.62,0,1,1-4.62,4.62,4.64,4.64,0,0,1,4.62-4.62m0-1.49a6.11,6.11,0,1,0,6.11,6.11A6.14,6.14,0,0,0,26.07,41h0Z" transform="translate(-0.85 -0.2)"/></g></svg>