<svg id="Layer_1" data-name="Layer 1" xmlns="http://www.w3.org/2000/svg" viewBox="0 0 71.53 82.6"><defs><style>.cls-1{fill:#df4f4f;}.cls-2{fill:#fff;}</style></defs><title>icon-template</title><polygon class="cls-1" points="71.53 61.95 35.76 82.6 0 61.95 0 20.65 35.76 0 71.53 20.65 71.53 61.95"/><path class="cls-2" d="M17.1,22L48.79,55.57a1.48,1.48,0,0,0,1.91-.13,1.41,1.41,0,0,0,.19-1.78L17.1,22h0Z"/><path class="cls-2" d="M27.14,25.17l24.13,26a1.48,1.48,0,0,0,1.91-.13,1.41,1.41,0,0,0,.19-1.78L27.14,25.17h0Z"/><path class="cls-2" d="M20.09,32L44.22,58a1.48,1.48,0,0,0,1.91-.13,1.41,1.41,0,0,0,.19-1.78L20.09,32h0Z"/><path class="cls-2" d="M35.62,27.9L52.48,46.08A1,1,0,0,0,53.81,46a1,1,0,0,0,.13-1.24L35.62,27.9h0Z"/><path class="cls-2" d="M22.41,39.83L39.27,58a1,1,0,0,0,1.33-.09,1,1,0,0,0,.13-1.24L22.41,39.83h0Z"/><path class="cls-2" d="M44.29,31.84l7.64,8.26a0.53,0.53,0,0,0,.66,0,0.44,0.44,0,0,0,.07-0.58l-8.37-7.64h0Z"/><path class="cls-2" d="M26.63,48.21l7.64,8.26a0.53,0.53,0,0,0,.66,0A0.44,0.44,0,0,0,35,55.85l-8.37-7.64h0Z"/></svg>