<svg id="Layer_1" data-name="Layer 1" xmlns="http://www.w3.org/2000/svg" viewBox="0 0 71.53 82.6"><defs><style>.cls-1{fill:#1a93db;}.cls-2{fill:#fff;}.cls-3{fill:#95c3ed;}.cls-4{fill:none;stroke:#107cbf;stroke-linecap:round;stroke-miterlimit:10;stroke-width:1.78px;}.cls-5{fill:#78b0e3;}</style></defs><title>sinatra</title><polygon class="cls-1" points="71.53 61.95 35.76 82.6 0 61.95 0 20.65 35.76 0 71.53 20.65 71.53 61.95"/><g id="hex-mysql-db"><path class="cls-2" d="M53.4,38.36c-3.65-5.11-6.13-10.22-14.45-12S22,28.58,22,28.58a7.1,7.1,0,0,0-4.09-3.07,9.57,9.57,0,0,0-5-.29s-1.31.88-1,3.36,2.92,6,3.94,6.86,3.8,4.23,4.82,5.26,2.92,5.26,3.21,7.59c2.77,3.36,11.09,11.39,22.19,7,8.17-3.21,10.51-8,11.09-11.68C55.88,41.72,54.42,39.82,53.4,38.36Z" transform="translate(-0.85 -0.2)"/><path class="cls-3" d="M57.34,43.18a60.72,60.72,0,0,0-3.5-5.11C50.19,33,47.12,28,38.8,26.1a28.3,28.3,0,0,0-15.62,1.46,32.33,32.33,0,0,0-5-2.48c-3.65-1.61-5.4.44-5.4,0.44l-0.29.29c2.48,1,5.26,4.09,7,6.42,3.07,4.23,10.8,7.15,15.18,11.39,2.77,2.77,3.8,1.61,5.4,3.5,1.75,2.19,1,6.42,1.75,9.63a23.89,23.89,0,0,0,4.09-1C54.71,52.23,56.76,46.83,57.34,43.18Z" transform="translate(-0.85 -0.2)"/><circle class="cls-2" cx="46.1" cy="44.21" r="2.92" transform="translate(-8.11 8.9) rotate(-10.46)"/><path class="cls-4" d="M55.73,46.68" transform="translate(-0.85 -0.2)"/><path class="cls-4" d="M8.44,53.69a23.22,23.22,0,0,1-1.61-7.15,21.42,21.42,0,0,1,1.9-10.07" transform="translate(-0.85 -0.2)"/><path class="cls-4" d="M22.6,20.55a39.54,39.54,0,0,1,15.18-3.94A41.56,41.56,0,0,1,54,18.95" transform="translate(-0.85 -0.2)"/><path class="cls-4" d="M60.7,58.21a30.6,30.6,0,0,1-19.42,8c-15,.88-27.74-8.17-28.47-20.14a19.65,19.65,0,0,1,1.61-8.61" transform="translate(-0.85 -0.2)"/><path class="cls-4" d="M39.82,21.87c15-.29,27.44,9.2,27.59,21.31a17.28,17.28,0,0,1-1.9,8.17" transform="translate(-0.85 -0.2)"/><path class="cls-4" d="M57.49,34.27a13.37,13.37,0,0,1,4.38,9.05c0.58,9.2-8.9,17.08-21,17.81S18.36,55,17.78,46" transform="translate(-0.85 -0.2)"/><path class="cls-4" d="M25.22,29.6" transform="translate(-0.85 -0.2)"/><path class="cls-5" d="M23.18,27.41s8.32,3.94,11.24,5.84c-1.17-2.19-7.74-7-7.74-7A15,15,0,0,0,23.18,27.41Z" transform="translate(-0.85 -0.2)"/></g></svg>