<svg id="Layer_1" data-name="Layer 1" xmlns="http://www.w3.org/2000/svg" viewBox="0 0 72 82.6"><defs><style>.cls-1{fill:#697fb8;}.cls-2{fill:none;}.cls-3{fill:#52638f;}.cls-4{fill:#fff;}.cls-5{fill:#353f5c;}.cls-6{fill:#374e78;}</style></defs><title>php</title><polygon class="cls-1" points="71.77 61.95 36 82.6 0.23 61.95 0.23 20.65 36 0 71.77 20.65 71.77 61.95"/><path class="cls-2" d="M51.23,53.68l-5.42-2.5,0.28-1.72v0.06l-3.52-.23,0-.05-0.72,0-3.2,3.39-2.23-.37-0.21-2.43L33.9,51,31.27,61.87l-10,2.42-6-8,3.5-1.63L23.9,59l3.86-2.74-2.1-13.85,0.93-1.74-5-3.82L23.33,36l4.27,2.78,6.3-11.86,7.19-6.32,7,1.05,8.95-1.05,2.67,5L72.5,27.07V20.85L36.5,0.2,0.5,20.85v41.3L36.38,82.8l5-2.85ZM14.91,38.86L20.7,43.5h3.51l0.7,2.73-5.09-.47-6.14-5.92Z" transform="translate(-0.5 -0.2)"/><path class="cls-3" d="M72.09,27L59.85,25.5l-2.67-5-9,1.09-7-1-7.21,6.33L27.61,38.78l5.63,3.67,3.64-.66,1.59,2.85-5.21,1.19L26.58,40.7l-0.93,1.74,2.1,13.85L23.9,59l-5.1-4.38-3.5,1.63,6,8,10-2.42L33.9,51l2.32-1.16,0.21,2.43,2.23,0.37,3.2-3.39,0.72,0,7.29-18.45L46.1,49.46l-0.28,1.72,5.42,2.5L41.44,79.94,59.22,69.82,71.79,62ZM41,36.38a2.27,2.27,0,1,1,2.28-2.27A2.27,2.27,0,0,1,41,36.38Z" transform="translate(-0.5 -0.2)"/><polygon class="cls-4" points="22.83 35.8 21.11 36.67 26.08 40.5 27.1 38.58 22.83 35.8"/><polygon class="cls-4" points="37.96 44.44 36.37 41.59 32.73 42.25 27.1 38.58 26.08 40.5 32.76 45.62 37.96 44.44"/><polygon class="cls-4" points="24.41 46.02 23.71 43.3 20.2 43.3 14.41 38.66 13.18 39.67 19.32 45.51 24.41 46.02"/><circle class="cls-5" cx="40.55" cy="33.9" r="2.27"/><polygon class="cls-6" points="60.91 28.98 60.91 28.98 67.04 41.09 56.31 56.05 51.38 53.77 56 64.09 69.31 41.22 60.91 28.98"/><polygon class="cls-6" points="42.07 49.09 45.59 49.32 45.6 49.26 49.38 30.59 42.09 49.04 42.07 49.09"/></svg>