<svg id="Layer_1" data-name="Layer 1" xmlns="http://www.w3.org/2000/svg" viewBox="0 0 71.53 82.6"><defs><style>.cls-1{fill:#b4ccdb;}.cls-2{fill:#3d8ec9;}.cls-3{fill:#2c668f;}</style></defs><title>sinatra</title><polygon class="cls-1" points="71.53 61.95 35.76 82.6 0 61.95 0 20.65 35.76 0 71.53 20.65 71.53 61.95"/><g id="hex-postgres-db"><path class="cls-2" d="M33.87,55.73V69a5.82,5.82,0,0,0,5.81,5.81A5.92,5.92,0,0,0,45.5,69V56a5.35,5.35,0,0,1,4.77-5.36V35A14.16,14.16,0,0,0,22,35V47.68a3.77,3.77,0,0,0,3.43,3.87,5.62,5.62,0,0,1,3.13-1,5.63,5.63,0,0,1,5.36,5.22h0Z" transform="translate(-0.85 -0.2)"/><circle class="cls-3" cx="44.5" cy="36.31" r="4.92"/><path class="cls-3" d="M40.88,38.59s7,8.35,7,13.11a4.23,4.23,0,0,1,2.53-.89V36.66" transform="translate(-0.85 -0.2)"/><circle class="cls-3" cx="27.06" cy="36.9" r="5.81"/><path class="cls-3" d="M33.57,37.1C33.57,42.32,29,45,29,50.52c0,0-3.13.45-3.58,1.19a2.77,2.77,0,0,1-2.24-1.19,4,4,0,0,1-1-2.83V37.55" transform="translate(-0.85 -0.2)"/><circle class="cls-2" cx="27.21" cy="36.31" r="1.94"/><circle class="cls-3" cx="34.96" cy="55.38" r="1.94"/><rect class="cls-3" x="33.02" y="55.38" width="3.87" height="13.86"/><circle class="cls-3" cx="38.83" cy="72.67" r="1.94"/><path class="cls-3" d="M37.75,69.44c0,1.34.45,1.49,1.94,1.49s0,3.87,0,3.87a5.85,5.85,0,0,1-5.81-5.36" transform="translate(-0.85 -0.2)"/><path class="cls-2" d="M27.17,17.73A19.49,19.49,0,0,0,7.65,37.25,19.28,19.28,0,0,0,18.23,54.54V35A18.14,18.14,0,0,1,30.15,18h0A10.14,10.14,0,0,0,27.17,17.73Z" transform="translate(-0.85 -0.2)"/><path class="cls-2" d="M28.51,53.79a2.83,2.83,0,0,0-3.13,2.38c-0.89,6.11.89,13.11,0.89,13.11a29.79,29.79,0,0,0,4.62-12.22h0A3,3,0,0,0,28.51,53.79Z" transform="translate(-0.85 -0.2)"/><path class="cls-2" d="M53.39,55.73h0a2.73,2.73,0,0,0-3.13-2.38,2.81,2.81,0,0,0-2.38,3.13A37.15,37.15,0,0,0,52.2,68.84,31.41,31.41,0,0,0,53.39,55.73Z" transform="translate(-0.85 -0.2)"/><path class="cls-3" d="M13.31,23.39A19.48,19.48,0,0,0,7.65,37.25a20.13,20.13,0,0,0,5.66,13.86V23.39Z" transform="translate(-0.85 -0.2)"/><circle class="cls-2" cx="44.5" cy="36.31" r="1.94"/><circle class="cls-3" cx="27.21" cy="56.42" r="2.83"/><circle class="cls-3" cx="49.86" cy="55.83" r="2.83"/><path class="cls-2" d="M45.79,17.28a18.85,18.85,0,0,0-4.17.45A18.3,18.3,0,0,1,54.29,35V52.45c7.3-7.3,9.39-10.58,9.39-17.44A17.81,17.81,0,0,0,45.79,17.28Z" transform="translate(-0.85 -0.2)"/><path class="cls-3" d="M56.23,42.47a9,9,0,0,0,2.09,5.81c4.17-4.62,5.36-7.9,5.36-13.26a7.25,7.25,0,0,0-.15-1.79A9.57,9.57,0,0,0,56.23,42.47Z" transform="translate(-0.85 -0.2)"/></g></svg>