<svg id="Layer_1" data-name="Layer 1" xmlns="http://www.w3.org/2000/svg" viewBox="0 0 71.57 82.6"><defs><style>.cls-1{fill:#3e99c1;}.cls-2{fill:#32759b;}.cls-3{fill:none;stroke:#efefef;stroke-linecap:round;stroke-linejoin:round;stroke-width:2px;}</style></defs><title>clojure</title><polygon class="cls-1" points="71.53 61.95 35.76 82.6 0 61.95 0 20.65 35.76 0 71.53 20.65 71.53 61.95"/><polygon class="cls-2" points="19.67 52.91 43.68 77.71 71.39 61.91 71.58 53.32 51.36 29.65 30.51 18.93 19.67 24.9 19.67 52.91"/><polygon class="cls-3" points="40.67 36.45 20.7 24.9 30.85 18.93 50.83 30.48 40.67 36.45"/><polyline class="cls-3" points="43.05 35.05 50.83 39.55 40.67 45.52 20.7 33.97 28.48 29.39"/><polyline class="cls-3" points="43.05 44.13 50.83 48.63 40.67 54.59 20.7 43.04 28.48 38.47"/><polyline class="cls-3" points="43.05 53.2 50.83 57.7 40.67 63.67 20.7 52.11 28.48 47.54"/><line class="cls-3" x1="40.67" y1="36.45" x2="40.67" y2="63.67"/><line class="cls-3" x1="20.7" y1="24.9" x2="20.7" y2="52.11"/><line class="cls-3" x1="50.83" y1="30.48" x2="50.83" y2="57.7"/></svg>