<svg id="Layer_1" data-name="Layer 1" xmlns="http://www.w3.org/2000/svg" viewBox="0 0 71.76 82.6"><defs><style>.cls-1{fill:#ef3942;}.cls-2{fill:#c12e35;}.cls-3{fill:#fcf2f3;}</style></defs><title>clojure</title><polygon class="cls-1" points="71.53 61.95 35.76 82.6 0 61.95 0 20.65 35.76 0 71.53 20.65 71.53 61.95"/><polygon class="cls-2" points="46.8 17.36 43.63 21.88 36.29 14.45 35.3 19.99 41.52 26.08 36.98 33.92 28.81 25.85 22.45 26.48 34.44 38.31 30.28 45.47 21.98 37.28 16.17 39.99 27.16 50.83 24.4 55.57 19.01 50.15 13.74 54.73 38.18 80.76 71.77 61.95 71.77 44.05 46.8 17.36"/><path class="cls-3" d="M20.58,32.21" transform="translate(-0.74 -0.2)"/><path class="cls-3" d="M22.12,61.51c-0.58-20,5.63-37.25,25.42-43.95l1.54,3C37.51,28.5,35.78,44.5,40.87,61.39Z" transform="translate(-0.74 -0.2)"/><rect class="cls-3" x="14.65" y="50.17" width="4.94" height="4.94" transform="matrix(1, 0.07, -0.07, 1, 3.02, -1.28)"/><polygon class="cls-3" points="20.64 41.39 16.17 39.92 17.63 35.45 21.98 37.29 20.64 41.39"/><polygon class="cls-3" points="26.17 28.99 22.45 26.48 25.64 22.71 28.82 25.85 26.17 28.99"/><polygon class="cls-3" points="35.38 19.99 32.85 16.83 36.48 14.45 38.43 17.99 35.38 19.99"/><polygon class="cls-3" points="46.67 56.62 42.13 56.3 41.03 51.66 45.33 51.96 46.67 56.62"/><polygon class="cls-3" points="44.55 47.03 40.37 46.3 40.28 42.21 44.01 43.33 44.55 47.03"/><polygon class="cls-3" points="43.97 39.51 40.65 38.16 41.69 34.54 44.55 36.58 43.97 39.51"/><polygon class="cls-3" points="45.36 32.66 43.12 30.19 45.19 27.29 46.72 30.23 45.36 32.66"/></svg>