<svg id="Layer_1" data-name="Layer 1" xmlns="http://www.w3.org/2000/svg" xmlns:xlink="http://www.w3.org/1999/xlink" viewBox="0 0 71.53 82.6"><defs><style>.cls-1{fill:none;}.cls-2{fill:#999;}.cls-3{clip-path:url(#clip-path);}.cls-4{fill:#666;}.cls-5{fill:#dbdbdb;}</style><clipPath id="clip-path"><polygon class="cls-1" points="71.53 61.95 35.76 82.6 -0.01 61.95 -0.01 20.65 35.76 0 71.53 20.65 71.53 61.95"/></clipPath></defs><title>rust</title><polygon class="cls-2" points="71.53 61.95 35.76 82.6 0 61.95 0 20.65 35.76 0 71.53 20.65 71.53 61.95"/><g class="cls-3"><polygon class="cls-4" points="35.14 19.16 36.13 17.86 39.19 20.91 40.62 18.15 43.72 21.25 45.09 19.58 48.21 22.7 49.04 21.64 52.62 25.22 52.7 24.63 71.53 43.45 71.53 61.95 39.7 80.23 18.27 58.81 18.68 58.44 15.55 55.32 16.14 54.14 13.33 51.33 14.48 49.49 11.89 46.9 13.72 44.58 11.25 42.1 21.67 26.08 35.14 19.16"/></g><path id="path3" class="cls-5" d="M59.48,41.2l-2-1.26a1.94,1.94,0,0,0-.06-0.59l1.75-1.63a0.7,0.7,0,0,0-.23-1.17l-2.28-.85-0.17-.58,1.4-1.94a0.7,0.7,0,0,0-.46-1.1l-2.36-.38-0.28-.53,1-2.18a0.7,0.7,0,0,0-.66-1l-2.4.08-0.38-.46,0.55-2.33a0.7,0.7,0,0,0-.84-0.84L49.73,25l-0.47-.37,0.08-2.4a0.7,0.7,0,0,0-1-.66l-2.18,1-0.53-.28-0.37-2.37a0.7,0.7,0,0,0-1.1-.46l-2,1.35-0.58-.17-0.84-2.24a0.7,0.7,0,0,0-1.17-.23L38,19.91l-0.59-.06-1.26-2a0.7,0.7,0,0,0-1.19,0l-1.26,2-0.59.06L31.45,18.2a0.7,0.7,0,0,0-1.17.23l-0.84,2.24-0.57.13-1.94-1.4a0.7,0.7,0,0,0-1.1.46l-0.39,2.36-0.53.28-2.18-1a0.7,0.7,0,0,0-1,.66l0.08,2.4-0.46.38L19,24.39a0.7,0.7,0,0,0-.84.84l0.55,2.33L18.35,28,16,27.94a0.7,0.7,0,0,0-.66,1l1,2.18L16,31.65,13.65,32a0.7,0.7,0,0,0-.46,1.1l1.4,1.94-0.18.58-2.24.84a0.7,0.7,0,0,0-.23,1.17l1.75,1.63a2.9,2.9,0,0,1-.06.59l-2,1.26a0.7,0.7,0,0,0,0,1.19l2,1.26a2.9,2.9,0,0,0,.06.59l-1.75,1.63A0.7,0.7,0,0,0,12.17,47l2.24,0.84c0.06,0.19.11,0.39,0.18,0.58l-1.4,1.94a0.7,0.7,0,0,0,.46,1.1L16,51.82l0.25,0.61-1,2.17a0.7,0.7,0,0,0,.66,1l2.4-.08L18.7,56,18.18,58.3a0.7,0.7,0,0,0,.84.84l2.33-.55L21.81,59l-0.08,2.4a0.7,0.7,0,0,0,1,.66l2.18-1,0.53,0.28,0.38,2.36a0.7,0.7,0,0,0,1.1.46l1.94-1.4,0.58,0.18,0.82,2.25a0.7,0.7,0,0,0,1.17.23l1.63-1.75,0.59,0.06,1.26,2a0.7,0.7,0,0,0,1.19,0l1.26-2,0.59-.06,1.63,1.75a0.7,0.7,0,0,0,1.17-.23l0.84-2.24,0.58-.18,1.94,1.4a0.7,0.7,0,0,0,1.1-.46l0.38-2.36L46.12,61l2.18,1a0.7,0.7,0,0,0,1-.66l0-2.41,0.46-.38,2.33,0.55a0.7,0.7,0,0,0,.84-0.84L52.34,56l0.38-.46,2.4,0.08a0.7,0.7,0,0,0,.66-1l-1-2.18,0.28-.53,2.36-.38a0.7,0.7,0,0,0,.46-1.1l-1.4-1.94,0.18-.58L58.9,47a0.7,0.7,0,0,0,.23-1.17l-1.75-1.63a1.94,1.94,0,0,1,.06-0.59l2-1.26a0.7,0.7,0,0,0,0-1.19h0ZM45.84,58.11A1.44,1.44,0,1,1,47.55,57a1.44,1.44,0,0,1-1.71,1.11h0Zm-0.69-4.68a1.31,1.31,0,0,0-1.56,1h0L42.86,57.8a17.79,17.79,0,0,1-14.8-.07l-0.72-3.38a1.31,1.31,0,0,0-1.56-1h0l-3,.64a17.63,17.63,0,0,1-1.52-1.81h14.5c0.16,0,.27,0,0.27-0.18V46.87c0-.15-0.11-0.18-0.27-0.18H31.51V43.44H36.1a2.88,2.88,0,0,1,2.82,2.45c0.18,0.72.58,3,.86,3.79s1.38,2.51,2.57,2.51h7.49a17.73,17.73,0,0,1-1.64,1.93l-3-.66h0ZM25.08,58a1.44,1.44,0,1,1,1.11-1.71A1.44,1.44,0,0,1,25.08,58h0Zm-5.5-22.31a1.44,1.44,0,1,1-1.9-.73h0a1.44,1.44,0,0,1,1.9.72h0Zm-1.69,4L21,38.35a1.32,1.32,0,0,0,.67-1.74L21,35.16h2.52V46.51H18.46a17.77,17.77,0,0,1-.68-4.87A18.07,18.07,0,0,1,17.89,39.73Zm13.63-1.1V35.29h6c0.31,0,2.18.36,2.18,1.76,0,1.16-1.44,1.58-2.62,1.58H31.52Zm21.77,3V43H51.41a0.25,0.25,0,0,0-.26.3v0.84c0,2-1.11,2.4-2.08,2.5a2,2,0,0,1-2.08-1c-0.55-3.07-1.46-3.73-2.9-4.87,1.79-1.13,3.64-2.8,3.64-5A5.71,5.71,0,0,0,44.94,31a7.92,7.92,0,0,0-3.79-1.24H22.31a17.73,17.73,0,0,1,10-5.6l2.22,2.33a1.31,1.31,0,0,0,1.85,0h0l2.48-2.38A17.76,17.76,0,0,1,51,32.8l-1.7,3.89a1.32,1.32,0,0,0,.67,1.74l3.27,1.45q0.06,0.87.06,1.76h0ZM34.46,22.21a1.44,1.44,0,1,1,0,2l0,0A1.44,1.44,0,0,1,34.46,22.21ZM51.34,35.8a1.44,1.44,0,1,1,.73,1.91,1.44,1.44,0,0,1-.73-1.91h0Z"/></svg>