<svg id="Layer_1" data-name="Layer 1" xmlns="http://www.w3.org/2000/svg" viewBox="0 0 71.53 82.6"><defs><style>.cls-1{fill:#697fb8;}.cls-2{fill:#dc322d;}.cls-3{fill:#c22c28;}.cls-4{fill:none;}.cls-5{fill:#f28885;}.cls-6{fill:#fff;}</style></defs><title>php</title><polygon class="cls-1" points="71.53 61.95 35.76 82.6 0 61.95 0 20.65 35.76 0 71.53 20.65 71.53 61.95"/><polygon class="cls-2" points="71.53 61.95 35.77 82.6 0 61.95 0 20.65 35.77 0 71.53 20.65 71.53 61.95"/><polyline class="cls-3" points="22.86 60.08 41.86 79.08 71.53 61.95 71.53 41.41 47.5 17.38"/><polygon class="cls-4" points="71.53 61.95 35.77 82.6 0 61.95 0 20.65 35.77 0 71.53 20.65 71.53 61.95"/><path class="cls-5" d="M23.6,34s24.64,2.46,24.64,6.57V30.72s0-4.11-24.64-6.57V34Z" transform="translate(-0.73 -0.2)"/><path class="cls-5" d="M23.6,47.14s24.64,2.46,24.64,6.57V43.86s0-4.11-24.64-6.57v9.85Z" transform="translate(-0.73 -0.2)"/><path class="cls-6" d="M48.23,17.58v9.85s0,4.11-24.64,6.57V24.15S48.23,21.68,48.23,17.58Z" transform="translate(-0.73 -0.2)"/><path class="cls-6" d="M23.6,37.29s24.64-2.46,24.64-6.57v9.85s0,4.11-24.64,6.57V37.29Z" transform="translate(-0.73 -0.2)"/><path class="cls-6" d="M23.6,60.28V50.43S48.23,48,48.23,43.86v9.85S48.23,57.82,23.6,60.28Z" transform="translate(-0.73 -0.2)"/></svg>