<svg id="Layer_1" data-name="Layer 1" xmlns="http://www.w3.org/2000/svg" viewBox="0 0 71.6 82.6"><defs><style>.cls-1{fill:#5e5e5e;}.cls-2{fill:#444;}.cls-3{fill:#efeae6;}.cls-4{fill:#333;}</style></defs><title>sinatra</title><polygon class="cls-1" points="71.6 61.9 35.8 82.6 0 61.9 0 20.7 35.8 0 71.6 20.7 71.6 61.9"/><polygon class="cls-2" points="11.9 50.7 39.4 80.4 71.5 62 71.5 50 59.1 34.3 56.7 35.5 49.9 26.2 35.6 39.2 11.9 50.7"/><path class="cls-3" d="M11.9,47.5c0-4,9.3-9.9,24.1-14.4,7.6-2.3,14.9-2.6,20-.9s6.5,5.8,6.5,9.7c0,6.1-11.1,13.7-22.8,14.7S11.9,56.6,11.9,47.5Z" transform="translate(-0.8 -0.2)"/><path class="cls-3" d="M22,37.5s0.8-5.3.9-6.4c0.5-4.5,3.2-5.6,6.8-6.3a13.54,13.54,0,0,1,7.2.4c1,0.4-9.4,3.2-8.7,3.9,1.9,1.7,14.2-6.1,20.1-4.3,2.1,0.7,2.6,1.4,3.9,6.2,0.4,1.4,1.7,7.3,1.7,7.3a7.68,7.68,0,0,1-6.1,3.5c-4.1.1-12.3,0.4-16.3,0.1S22.4,40.4,22,37.5Z" transform="translate(-0.8 -0.2)"/><path class="cls-4" d="M54.4,40.4s1,3.3-5.3,6c-3.7,1.6-11,3.1-17.9,3.1-4,0-9.3-2.6-9.7-5.5L22,37.5c0.4,2.9,5.6,4,9.6,4.4s12-.2,16.4-1.7a12.84,12.84,0,0,0,5.6-3.6Z" transform="translate(-0.8 -0.2)"/></svg>