<svg id="Layer_1" data-name="Layer 1" xmlns="http://www.w3.org/2000/svg" viewBox="0 0 71.53 82.6"><defs><style>.cls-1{fill:#21759b;}.cls-2{fill:#08597c;}.cls-3{fill:#fff;}</style></defs><title>wordpress</title><polygon class="cls-1" points="71.53 61.95 35.76 82.6 0 61.95 0 20.65 35.76 0 71.53 20.65 71.53 61.95"/><path class="cls-2" d="M71.53,62V48.48L52.44,25.31A23.14,23.14,0,0,0,16.79,54.66c1.29,1.81,23.26,25.46,23.26,25.46Z"/><path class="cls-3" d="M35.78,19.2A22.1,22.1,0,1,0,57.87,41.31h0A22.12,22.12,0,0,0,35.78,19.2ZM15.91,41.3a19.79,19.79,0,0,1,1.72-8.08l9.48,26A19.87,19.87,0,0,1,15.91,41.3ZM35.78,61.17a19.86,19.86,0,0,1-5.63-.81l6-17.32L42.23,59.8a1.86,1.86,0,0,0,.14.27A19.83,19.83,0,0,1,35.78,61.17ZM38.52,32c1.2-.06,2.27-0.19,2.27-0.19a0.82,0.82,0,1,0-.13-1.64s-3.22.25-5.29,0.25-5.22-.25-5.22-0.25A0.82,0.82,0,0,0,30,31.8s1,0.13,2.08.19l3.06,8.48-4.35,13L23.61,32c1.2-.06,2.27-0.19,2.27-0.19a0.82,0.82,0,0,0-.13-1.64s-3.22.25-5.29,0.25H19.18a19.86,19.86,0,0,1,30-3.74H48.92a3.44,3.44,0,0,0-3.34,3.53c0,1.64.94,3,2,4.66a10.46,10.46,0,0,1,1.57,5.44c0,1.7-.65,3.67-1.51,6.42l-2,6.62Zm7.25,26.48,6.07-17.54a18.76,18.76,0,0,0,1.5-7.13,15.24,15.24,0,0,0-.13-2A19.87,19.87,0,0,1,45.77,58.47Z"/></svg>