<svg id="Layer_1" data-name="Layer 1" xmlns="http://www.w3.org/2000/svg" width="1602" height="202.07" viewBox="0 0 1602 202.07"><defs><style>.cls-1{fill:#71c2f8;stroke:#71c2f8;}.cls-1,.cls-10,.cls-100,.cls-102,.cls-103,.cls-106,.cls-107,.cls-11,.cls-110,.cls-111,.cls-112,.cls-113,.cls-114,.cls-115,.cls-119,.cls-12,.cls-120,.cls-121,.cls-123,.cls-125,.cls-126,.cls-127,.cls-130,.cls-131,.cls-14,.cls-15,.cls-16,.cls-17,.cls-18,.cls-19,.cls-2,.cls-20,.cls-23,.cls-24,.cls-3,.cls-31,.cls-32,.cls-33,.cls-35,.cls-36,.cls-39,.cls-4,.cls-40,.cls-42,.cls-43,.cls-44,.cls-46,.cls-47,.cls-48,.cls-5,.cls-50,.cls-51,.cls-53,.cls-55,.cls-57,.cls-59,.cls-6,.cls-61,.cls-62,.cls-64,.cls-65,.cls-66,.cls-7,.cls-72,.cls-74,.cls-76,.cls-77,.cls-78,.cls-79,.cls-8,.cls-80,.cls-84,.cls-87,.cls-88,.cls-89,.cls-9,.cls-91,.cls-92,.cls-93,.cls-96,.cls-98,.cls-99{stroke-width:2px;}.cls-2{fill:#87d7fb;stroke:#87d7fb;}.cls-3{fill:#6eb7fa;stroke:#6eb7fa;}.cls-4{fill:#6ebcf9;stroke:#6ebcf9;}.cls-5{fill:#6db6fa;stroke:#6db6fa;}.cls-6{fill:#74bff7;stroke:#74bff7;}.cls-7{fill:#7dcaf9;stroke:#7dcaf9;}.cls-8{fill:#6fb6fa;stroke:#6fb6fa;}.cls-9{fill:#71bcfa;stroke:#71bcfa;}.cls-10{fill:#7fc9f9;stroke:#7fc9f9;}.cls-11{fill:#73bbf9;stroke:#73bbf9;}.cls-12{fill:#77bef7;stroke:#77bef7;}.cls-13{fill:#76b7f8;stroke:#76b7f8;}.cls-101,.cls-104,.cls-105,.cls-108,.cls-109,.cls-116,.cls-117,.cls-118,.cls-122,.cls-124,.cls-128,.cls-129,.cls-13,.cls-21,.cls-22,.cls-25,.cls-26,.cls-27,.cls-28,.cls-29,.cls-30,.cls-34,.cls-37,.cls-38,.cls-41,.cls-45,.cls-49,.cls-52,.cls-54,.cls-56,.cls-58,.cls-60,.cls-63,.cls-67,.cls-68,.cls-69,.cls-70,.cls-71,.cls-73,.cls-75,.cls-81,.cls-82,.cls-83,.cls-85,.cls-86,.cls-90,.cls-94,.cls-95,.cls-97{stroke-width:1.51px;}.cls-14{fill:#73b5fa;stroke:#73b5fa;}.cls-15{fill:#ffa0fa;stroke:#ffa0fa;}.cls-16{fill:#76bbfa;stroke:#76bbfa;}.cls-17{fill:#80c8f8;stroke:#80c8f8;}.cls-18{fill:#95cefd;stroke:#95cefd;}.cls-19{fill:#86c7f9;stroke:#86c7f9;}.cls-20{fill:#74b5fb;stroke:#74b5fb;}.cls-21{fill:#7abef7;stroke:#7abef7;}.cls-22{fill:#78c0f8;stroke:#78c0f8;}.cls-23{fill:#77b2fa;stroke:#77b2fa;}.cls-24{fill:#96c9fc;stroke:#96c9fc;}.cls-25{fill:#7bbdf7;stroke:#7bbdf7;}.cls-26{fill:#7fbbf8;stroke:#7fbbf8;}.cls-27{fill:#7cbdf8;stroke:#7cbdf8;}.cls-28{fill:#9eebfe;stroke:#9eebfe;}.cls-29{fill:#79b7f9;stroke:#79b7f9;}.cls-30{fill:#7ebbf7;stroke:#7ebbf7;}.cls-31{fill:#76adfb;stroke:#76adfb;}.cls-32{fill:#97c4fc;stroke:#97c4fc;}.cls-33{fill:#8bd3f9;stroke:#8bd3f9;}.cls-34{fill:#7cb7fa;stroke:#7cb7fa;}.cls-35{fill:#79bcfb;stroke:#79bcfb;}.cls-36{fill:#7ab1fa;stroke:#7ab1fa;}.cls-37{fill:#7db4f9;stroke:#7db4f9;}.cls-38{fill:#7eb4f9;stroke:#7eb4f9;}.cls-39{fill:#7cbafb;stroke:#7cbafb;}.cls-40{fill:#83c4f7;stroke:#83c4f7;}.cls-41{fill:#80b0f8;stroke:#80b0f8;}.cls-42{fill:#8bd1f8;stroke:#8bd1f8;}.cls-43{fill:#97c3fb;stroke:#97c3fb;}.cls-44{fill:#7eb7fa;stroke:#7eb7fa;}.cls-45{fill:#85c3f8;stroke:#85c3f8;}.cls-46{fill:#73a8f9;stroke:#73a8f9;}.cls-47{fill:#7bacf9;stroke:#7bacf9;}.cls-48{fill:#80b3fa;stroke:#80b3fa;}.cls-49{fill:#82bbf9;stroke:#82bbf9;}.cls-50{fill:#7cb0fb;stroke:#7cb0fb;}.cls-51{fill:#98bbfb;stroke:#98bbfb;}.cls-52{fill:#81baf8;stroke:#81baf8;}.cls-53{fill:#8dcff8;stroke:#8dcff8;}.cls-54{fill:#7bbbf6;stroke:#7bbbf6;}.cls-55{fill:#84c2f7;stroke:#84c2f7;}.cls-56{fill:#77b6f8;stroke:#77b6f8;}.cls-57{fill:#6ea7f7;stroke:#6ea7f7;}.cls-58{fill:#76b3f6;stroke:#76b3f6;}.cls-59{fill:#87b3f8;stroke:#87b3f8;}.cls-60{fill:#6eaaf5;stroke:#6eaaf5;}.cls-61{fill:#7bacf5;stroke:#7bacf5;}.cls-62{fill:#69a5f6;stroke:#69a5f6;}.cls-63{fill:#6ca6f4;stroke:#6ca6f4;}.cls-64{fill:#7dc4f5;stroke:#7dc4f5;}.cls-65{fill:#619df5;stroke:#619df5;}.cls-66{fill:#5ea3f4;stroke:#5ea3f4;}.cls-67{fill:#66b0f3;stroke:#66b0f3;}.cls-68{fill:#68adf2;stroke:#68adf2;}.cls-69{fill:#60a8f3;stroke:#60a8f3;}.cls-70{fill:#58a6f1;stroke:#58a6f1;}.cls-71{fill:#62a3f1;stroke:#62a3f1;}.cls-72{fill:#73aef4;stroke:#73aef4;}.cls-73{fill:#55a8ef;stroke:#55a8ef;}.cls-74{fill:#549bf3;stroke:#549bf3;}.cls-75{fill:#54abf0;stroke:#54abf0;}.cls-76{fill:#509ff1;stroke:#509ff1;}.cls-77{fill:#7db7f6;stroke:#7db7f6;}.cls-78{fill:#72b8f4;stroke:#72b8f4;}.cls-79{fill:#489cf0;stroke:#489cf0;}.cls-80{fill:#46a6f0;stroke:#46a6f0;}.cls-81{fill:#51a8ee;stroke:#51a8ee;}.cls-82{fill:#43a6ee;stroke:#43a6ee;}.cls-83{fill:#4aaaef;stroke:#4aaaef;}.cls-84{fill:#5baaf0;stroke:#5baaf0;}.cls-85{fill:#43aded;stroke:#43aded;}.cls-86{fill:#3ab7ed;stroke:#3ab7ed;}.cls-87{fill:#3ea3ef;stroke:#3ea3ef;}.cls-88{fill:#5cabf0;stroke:#5cabf0;}.cls-89{fill:#38b0ee;stroke:#38b0ee;}.cls-90{fill:#3cb4eb;stroke:#3cb4eb;}.cls-91{fill:#4ea6ee;stroke:#4ea6ee;}.cls-92{fill:#49a5ed;stroke:#49a5ed;}.cls-93{fill:#28bded;stroke:#28bded;}.cls-94{fill:#2dbbeb;stroke:#2dbbeb;}.cls-95{fill:#23b9eb;stroke:#23b9eb;}.cls-109,.cls-96{fill:#22bbec;stroke:#22bbec;}.cls-97{fill:#2ac4eb;stroke:#2ac4eb;}.cls-104,.cls-98{fill:#22bcec;stroke:#22bcec;}.cls-99{fill:#56abf0;stroke:#56abf0;}.cls-100{fill:#3cb6ec;stroke:#3cb6ec;}.cls-101{fill:#23bbec;stroke:#23bbec;}.cls-102,.cls-124{fill:#24c5ed;stroke:#24c5ed;}.cls-103{fill:#30b4ec;stroke:#30b4ec;}.cls-105{fill:#24c4ec;stroke:#24c4ec;}.cls-106{fill:#45a0ee;stroke:#45a0ee;}.cls-107{fill:#22bdee;stroke:#22bdee;}.cls-108{fill:#24c4ed;stroke:#24c4ed;}.cls-110{fill:#24c5ee;stroke:#24c5ee;}.cls-111,.cls-122{fill:#23bfef;stroke:#23bfef;}.cls-112{fill:#38afed;stroke:#38afed;}.cls-113{fill:#3da8ee;stroke:#3da8ee;}.cls-114{fill:#509ef1;stroke:#509ef1;}.cls-115{fill:#5399f2;stroke:#5399f2;}.cls-116{fill:#22bced;stroke:#22bced;}.cls-117{fill:#25c6ee;stroke:#25c6ee;}.cls-118{fill:#2eb6ed;stroke:#2eb6ed;}.cls-119{fill:#23c0f0;stroke:#23c0f0;}.cls-120{fill:#40a3ef;stroke:#40a3ef;}.cls-121{fill:#4fa1f2;stroke:#4fa1f2;}.cls-123{fill:#24c7f0;stroke:#24c7f0;}.cls-125{fill:#31b0ee;stroke:#31b0ee;}.cls-126{fill:#2faeee;stroke:#2faeee;}.cls-127{fill:#47a0f1;stroke:#47a0f1;}.cls-128{fill:#23beee;stroke:#23beee;}.cls-129{fill:#25c6ef;stroke:#25c6ef;}.cls-130{fill:#24c8f1;stroke:#24c8f1;}.cls-131{fill:#4e9df3;stroke:#4e9df3;}</style></defs><title>Untitled-12</title><polygon class="cls-1" points="1484.93 98.9 1601 141.39 1601 129.96 1542.34 41.49 1484.93 98.9"/><polygon class="cls-2" points="1601 201 1601 165.76 1583.96 201 1601 201"/><polygon class="cls-3" points="1601 3.31 1601 1 1508.09 1 1550.22 22.35 1601 3.31"/><polygon class="cls-4" points="1601 129.96 1601 6.11 1542.34 41.49 1601 129.96"/><polygon class="cls-5" points="1542.34 41.49 1601 6.11 1601 3.31 1550.22 22.35 1542.34 41.49"/><polygon class="cls-6" points="1568.84 201 1583.96 201 1601 165.76 1601 141.39 1484.93 98.9 1568.84 201"/><polygon class="cls-7" points="1479.1 201 1568.84 201 1484.93 98.89 1479.1 201"/><polygon class="cls-8" points="1550.22 22.35 1508.09 1 1492.29 1 1542.34 41.48 1550.22 22.35"/><polygon class="cls-9" points="1542.34 41.49 1492.29 1 1469.23 1 1484.93 98.89 1542.34 41.49"/><polygon class="cls-10" points="1441.17 201 1479.1 201 1484.93 98.89 1441.17 201"/><polygon class="cls-11" points="1484.93 98.9 1469.23 1 1453.38 1 1408.39 78.63 1484.93 98.9"/><polygon class="cls-12" points="1401.63 141.67 1433.27 201 1441.17 201 1484.93 98.89 1401.63 141.67"/><polygon class="cls-13" points="1484.93 98.9 1408.39 78.64 1401.63 141.68 1484.93 98.9"/><polygon class="cls-14" points="1453.38 1 1404.07 1 1408.39 78.63 1453.38 1"/><polygon class="cls-15" points="1333.66 201 1339.89 201 1335.22 192.33 1333.66 201"/><polygon class="cls-16" points="1408.39 78.63 1404.07 1 1379.08 1 1336.34 84.26 1408.39 78.63"/><polygon class="cls-17" points="1368.99 156.31 1427 201 1433.27 201 1401.63 141.67 1368.99 156.31"/><polygon class="cls-18" points="1339.89 201 1387.84 201 1335.22 192.33 1339.89 201"/><polygon class="cls-19" points="1335.22 192.33 1387.84 201 1427 201 1368.99 156.31 1335.22 192.33"/><polygon class="cls-20" points="1379.08 1 1325.09 1 1336.34 84.26 1379.08 1"/><polygon class="cls-21" points="1401.63 141.68 1336.34 84.27 1368.99 156.31 1401.63 141.68"/><polygon class="cls-22" points="1408.39 78.64 1336.34 84.27 1401.63 141.68 1408.39 78.64"/><polygon class="cls-23" points="1336.34 84.26 1325.09 1 1278.55 1 1260.92 18.97 1336.34 84.26"/><polygon class="cls-24" points="1294.69 200.21 1294.83 201 1333.66 201 1335.22 192.33 1294.69 200.21"/><polygon class="cls-25" points="1368.99 156.31 1336.34 84.27 1335.22 192.33 1368.99 156.31"/><polygon class="cls-26" points="1335.22 192.33 1336.34 84.27 1294.69 200.21 1335.22 192.33"/><polygon class="cls-27" points="1294.69 200.21 1336.34 84.27 1242.91 103.4 1294.69 200.21"/><polygon class="cls-28" points="1293.99 201 1294.83 201 1294.69 200.21 1293.99 201"/><polygon class="cls-29" points="1336.34 84.27 1260.92 18.98 1242.91 103.4 1336.34 84.27"/><polygon class="cls-30" points="1222.65 130.42 1294.69 200.21 1242.91 103.4 1222.65 130.42"/><polygon class="cls-31" points="1278.55 1 1261.58 1 1260.92 18.97 1278.55 1"/><polygon class="cls-32" points="1289.5 201 1293.99 201 1294.69 200.21 1289.5 201"/><polygon class="cls-33" points="1222.65 130.42 1191.48 201 1289.5 201 1294.69 200.21 1222.65 130.42"/><polygon class="cls-34" points="1260.92 18.98 1185.5 24.6 1242.91 103.4 1260.92 18.98"/><polygon class="cls-35" points="1261.58 1 1213.75 1 1260.92 18.97 1261.58 1"/><polygon class="cls-36" points="1260.92 18.97 1213.75 1 1213.59 1 1185.5 24.6 1260.92 18.97"/><polygon class="cls-37" points="1242.91 103.4 1185.5 24.6 1222.65 130.42 1242.91 103.4"/><polygon class="cls-38" points="1185.5 24.6 1103.33 61.75 1222.65 130.42 1185.5 24.6"/><polygon class="cls-39" points="1213.59 1 1091.11 1 1185.5 24.6 1213.59 1"/><polygon class="cls-40" points="1083.06 105.65 1169.75 201 1191.48 201 1222.65 130.41 1083.06 105.65"/><polygon class="cls-41" points="1222.65 130.42 1103.33 61.75 1083.06 105.65 1222.65 130.42"/><polygon class="cls-42" points="1068.43 179.95 1134.15 201 1169.75 201 1083.06 105.65 1068.43 179.95"/><polygon class="cls-43" points="1073.69 201 1134.15 201 1068.43 179.94 1073.69 201"/><polygon class="cls-44" points="1185.5 24.6 1091.11 1 1090.95 1 1103.33 61.75 1185.5 24.6"/><polygon class="cls-45" points="1068.43 179.95 1083.06 105.65 1056.05 129.29 1068.43 179.95"/><polygon class="cls-46" points="1006.96 1 955.91 1 988.5 9.96 1006.96 1"/><polygon class="cls-47" points="1008.77 88.77 1090.9 1 1090.48 1 988.5 9.97 1008.77 88.77"/><polygon class="cls-48" points="1103.33 61.75 1090.95 1 1090.9 1 1008.77 88.76 1103.33 61.75"/><polygon class="cls-49" points="1103.33 61.75 1008.77 88.77 1083.06 105.65 1103.33 61.75"/><polygon class="cls-50" points="1090.48 1 1006.96 1 988.5 9.96 1090.48 1"/><polygon class="cls-51" points="1035.72 201 1073.69 201 1068.43 179.94 1035.72 201"/><polygon class="cls-52" points="1083.06 105.65 1008.77 88.77 1056.05 129.29 1083.06 105.65"/><polygon class="cls-53" points="1056.05 129.29 1007.72 201 1035.72 201 1068.43 179.94 1056.05 129.29"/><polygon class="cls-54" points="1056.05 129.29 1008.77 88.77 934.47 143.93 1056.05 129.29"/><polygon class="cls-55" points="934.47 143.92 967.71 201 1007.72 201 1056.05 129.29 934.47 143.92"/><polygon class="cls-56" points="988.5 9.97 956.99 27.98 1008.77 88.77 988.5 9.97"/><polygon class="cls-57" points="988.5 9.97 955.91 1 906.34 1 956.99 27.98 988.5 9.97"/><polygon class="cls-58" points="1008.77 88.77 956.99 27.98 934.47 143.93 1008.77 88.77"/><polygon class="cls-59" points="912.99 201 967.71 201 934.47 143.92 912.99 201"/><polygon class="cls-60" points="956.99 27.98 859.05 73.01 934.47 143.93 956.99 27.98"/><polygon class="cls-61" points="875.94 152.93 885.55 201 912.99 201 934.47 143.92 875.94 152.93"/><polygon class="cls-62" points="956.99 27.98 906.34 1 855.01 1 859.05 73 956.99 27.98"/><polygon class="cls-63" points="934.47 143.93 859.05 73.01 875.94 152.93 934.47 143.93"/><polygon class="cls-64" points="807.27 196.83 814.34 201 885.55 201 875.94 152.93 807.27 196.83"/><polygon class="cls-55" points="804.74 201 814.34 201 807.27 196.83 804.74 201"/><polygon class="cls-65" points="855.01 1 803.88 1 859.05 73 855.01 1"/><polygon class="cls-66" points="859.05 73.01 803.88 1 785.73 1 774.63 24.6 859.05 73.01"/><polygon class="cls-67" points="875.94 152.93 859.05 73.01 789.26 119.16 875.94 152.93"/><polygon class="cls-68" points="807.27 196.83 875.94 152.93 789.26 119.16 807.27 196.83"/><polygon class="cls-69" points="859.05 73.01 774.63 24.6 789.26 119.16 859.05 73.01"/><polygon class="cls-70" points="774.63 24.6 692.45 80.89 789.26 119.16 774.63 24.6"/><polygon class="cls-71" points="686.82 191.21 807.27 196.83 789.26 119.16 686.82 191.21"/><polygon class="cls-72" points="686.82 191.2 697.22 201 804.74 201 807.27 196.83 686.82 191.2"/><polygon class="cls-73" points="682.32 132.67 686.82 191.21 789.26 119.16 682.32 132.67"/><polygon class="cls-74" points="785.73 1 730.2 1 774.63 24.6 785.73 1"/><polygon class="cls-75" points="789.26 119.16 692.45 80.89 682.32 132.67 789.26 119.16"/><polygon class="cls-76" points="774.63 24.6 730.2 1 701.01 1 692.45 80.88 774.63 24.6"/><polygon class="cls-77" points="690.66 201 697.22 201 686.82 191.2 690.66 201"/><polygon class="cls-78" points="667.22 201 690.66 201 686.82 191.2 667.22 201"/><polygon class="cls-79" points="692.45 80.89 701.01 1 681.53 1 628.29 38.11 692.45 80.89"/><polygon class="cls-80" points="681.53 1 637.24 1 628.29 38.11 681.53 1"/><polygon class="cls-81" points="615.9 167.57 686.82 191.21 682.32 132.67 615.9 167.57"/><polygon class="cls-82" points="682.32 132.67 628.29 38.11 590.01 137.17 682.32 132.67"/><polygon class="cls-83" points="692.45 80.89 628.29 38.11 682.32 132.67 692.45 80.89"/><polygon class="cls-84" points="615.9 167.56 630.68 201 667.22 201 686.82 191.2 615.9 167.56"/><polygon class="cls-85" points="590.01 137.17 615.9 167.57 682.32 132.67 590.01 137.17"/><polygon class="cls-86" points="628.29 38.11 541.61 68.51 590.01 137.17 628.29 38.11"/><polygon class="cls-87" points="637.24 1 601.49 1 628.29 38.11 637.24 1"/><polygon class="cls-88" points="602.63 201 630.68 201 615.9 167.56 602.63 201"/><polygon class="cls-89" points="628.29 38.11 601.49 1 573.27 1 541.61 68.5 628.29 38.11"/><polygon class="cls-90" points="510.09 163.06 615.9 167.57 590.01 137.17 510.09 163.06"/><polygon class="cls-91" points="510.09 163.06 545.4 201 602.63 201 615.9 167.56 510.09 163.06"/><polygon class="cls-92" points="493.2 193.45 506.96 201 545.4 201 510.09 163.06 493.2 193.45"/><polygon class="cls-93" points="573.27 1 484.23 1 541.61 68.5 573.27 1"/><polygon class="cls-94" points="590.01 137.17 541.61 68.51 510.09 163.06 590.01 137.17"/><polygon class="cls-84" points="493.52 201 506.96 201 493.2 193.45 493.52 201"/><polygon class="cls-95" points="541.61 68.51 485.32 78.64 510.09 163.06 541.61 68.51"/><polygon class="cls-96" points="541.61 68.5 484.23 1 469.62 1 485.32 78.63 541.61 68.5"/><polygon class="cls-97" points="493.2 193.46 510.09 163.06 411.03 109.03 493.2 193.46"/><polygon class="cls-95" points="510.09 163.06 485.32 78.64 411.03 109.03 510.09 163.06"/><polygon class="cls-98" points="485.32 78.63 469.62 1 443.92 1 397.52 50.49 485.32 78.63"/><polygon class="cls-99" points="465.35 201 493.52 201 493.2 193.45 465.35 201"/><polygon class="cls-100" points="411.03 109.03 380.96 201 465.35 201 493.2 193.45 411.03 109.03"/><polygon class="cls-101" points="485.32 78.64 397.52 50.49 411.03 109.03 485.32 78.64"/><polygon class="cls-102" points="443.92 1 381.73 1 397.52 50.49 443.92 1"/><polygon class="cls-103" points="328.85 154.06 357.46 201 380.96 201 411.03 109.03 328.85 154.06"/><polygon class="cls-104" points="397.52 50.49 337.86 30.23 411.03 109.03 397.52 50.49"/><polygon class="cls-105" points="411.03 109.03 337.86 30.23 328.85 154.06 411.03 109.03"/><polygon class="cls-102" points="397.52 50.49 381.73 1 376.16 1 337.86 30.23 397.52 50.49"/><polygon class="cls-106" points="318.92 201 357.46 201 328.85 154.05 318.92 201"/><polygon class="cls-107" points="376.16 1 333.68 1 337.86 30.23 376.16 1"/><polygon class="cls-108" points="337.86 30.23 242.18 68.51 328.85 154.06 337.86 30.23"/><polygon class="cls-109" points="328.85 154.06 242.18 68.51 230.92 159.69 328.85 154.06"/><polygon class="cls-110" points="337.86 30.23 333.68 1 330.36 1 242.18 68.5 337.86 30.23"/><polygon class="cls-111" points="330.36 1 233.29 1 242.18 68.5 330.36 1"/><polygon class="cls-112" points="230.92 159.68 297.73 201 318.92 201 328.85 154.05 230.92 159.68"/><polygon class="cls-113" points="206.15 179.95 277.31 201 297.73 201 230.92 159.68 206.15 179.95"/><polygon class="cls-114" points="206.4 201 277.31 201 206.15 179.94 206.4 201"/><polygon class="cls-111" points="242.18 68.5 233.29 1 182.93 1 181.39 3.21 242.18 68.5"/><polygon class="cls-115" points="194.97 201 206.4 201 206.15 179.94 194.97 201"/><polygon class="cls-104" points="178.01 142.8 230.92 159.69 184.77 91.02 178.01 142.8"/><polygon class="cls-116" points="230.92 159.69 242.18 68.51 184.77 91.02 230.92 159.69"/><polygon class="cls-117" points="242.18 68.51 181.39 3.22 184.77 91.02 242.18 68.51"/><polygon class="cls-118" points="206.15 179.95 230.92 159.69 178.01 142.8 206.15 179.95"/><polygon class="cls-119" points="182.93 1 159.28 1 181.39 3.21 182.93 1"/><polygon class="cls-120" points="178.01 142.8 143.47 201 177.47 201 206.15 179.94 178.01 142.8"/><polygon class="cls-121" points="177.47 201 194.97 201 206.15 179.94 177.47 201"/><polygon class="cls-117" points="184.77 91.02 181.39 3.22 102.59 97.77 184.77 91.02"/><polygon class="cls-122" points="181.39 3.22 67.69 73.01 102.59 97.77 181.39 3.22"/><polygon class="cls-123" points="181.39 3.21 159.28 1 68.69 1 67.69 73 181.39 3.21"/><polygon class="cls-124" points="102.59 97.77 178.01 142.8 184.77 91.02 102.59 97.77"/><polygon class="cls-125" points="37.3 151.8 79.39 201 112.83 201 102.59 97.77 37.3 151.8"/><polygon class="cls-126" points="102.59 97.77 112.83 201 143.47 201 178.01 142.8 102.59 97.77"/><polygon class="cls-127" points="41.84 201 79.39 201 37.3 151.8 41.84 201"/><polygon class="cls-123" points="67.69 73.01 68.69 1 56.42 1 27.17 22.35 67.69 73.01"/><polygon class="cls-128" points="67.69 73.01 37.3 151.81 102.59 97.77 67.69 73.01"/><polygon class="cls-129" points="27.17 22.35 37.3 151.81 67.69 73.01 27.17 22.35"/><polygon class="cls-130" points="56.42 1 6.43 1 27.17 22.35 56.42 1"/><polygon class="cls-123" points="37.3 151.81 27.17 22.35 6.43 1 1 1 1 25.18 37.3 151.81"/><polygon class="cls-131" points="23.98 201 41.84 201 37.3 151.8 23.98 201"/><polygon class="cls-107" points="1 25.18 1 201 23.98 201 37.3 151.8 1 25.18"/></svg>