<svg id="Layer_1" data-name="Layer 1" xmlns="http://www.w3.org/2000/svg" viewBox="0 0 1602 202.06"><defs><style>.cls-1{fill:#8ec7ed;stroke:#8ec7ed;}.cls-1,.cls-10,.cls-102,.cls-103,.cls-106,.cls-107,.cls-108,.cls-109,.cls-11,.cls-110,.cls-111,.cls-112,.cls-115,.cls-116,.cls-118,.cls-12,.cls-120,.cls-121,.cls-122,.cls-123,.cls-125,.cls-14,.cls-15,.cls-16,.cls-17,.cls-18,.cls-2,.cls-21,.cls-22,.cls-28,.cls-29,.cls-3,.cls-30,.cls-32,.cls-33,.cls-36,.cls-37,.cls-39,.cls-4,.cls-40,.cls-41,.cls-43,.cls-44,.cls-45,.cls-47,.cls-5,.cls-50,.cls-52,.cls-54,.cls-56,.cls-57,.cls-59,.cls-6,.cls-60,.cls-61,.cls-62,.cls-68,.cls-7,.cls-70,.cls-72,.cls-73,.cls-74,.cls-75,.cls-76,.cls-8,.cls-80,.cls-83,.cls-84,.cls-85,.cls-87,.cls-88,.cls-89,.cls-9,.cls-92,.cls-94,.cls-95,.cls-96,.cls-98,.cls-99{stroke-width:2px;}.cls-2{fill:#9dceed;stroke:#9dceed;}.cls-3{fill:#8dcbf5;stroke:#8dcbf5;}.cls-4{fill:#8ac8ef;stroke:#8ac8ef;}.cls-5{fill:#8bcbf3;stroke:#8bcbf3;}.cls-6{fill:#8ec4e8;stroke:#8ec4e8;}.cls-7{fill:#9ecfef;stroke:#9ecfef;}.cls-8{fill:#8ecbf4;stroke:#8ecbf4;}.cls-9{fill:#8fccf2;stroke:#8fccf2;}.cls-10,.cls-34{fill:#9aceef;stroke:#9aceef;}.cls-11{fill:#90caf1;stroke:#90caf1;}.cls-12{fill:#91c6e9;stroke:#91c6e9;}.cls-13{fill:#93c9ec;stroke:#93c9ec;}.cls-100,.cls-101,.cls-104,.cls-105,.cls-113,.cls-114,.cls-117,.cls-119,.cls-124,.cls-13,.cls-19,.cls-20,.cls-23,.cls-24,.cls-25,.cls-26,.cls-27,.cls-31,.cls-34,.cls-35,.cls-38,.cls-42,.cls-46,.cls-48,.cls-49,.cls-51,.cls-53,.cls-55,.cls-58,.cls-63,.cls-64,.cls-65,.cls-66,.cls-67,.cls-69,.cls-71,.cls-77,.cls-78,.cls-79,.cls-81,.cls-82,.cls-86,.cls-90,.cls-91,.cls-93,.cls-97{stroke-width:1.51px;}.cls-14{fill:#91ccf5;stroke:#91ccf5;}.cls-15{fill:#a6d2f1;stroke:#a6d2f1;}.cls-16{fill:#93cdf2;stroke:#93cdf2;}.cls-17{fill:#bbe4ff;stroke:#bbe4ff;}.cls-18{fill:#94d0f6;stroke:#94d0f6;}.cls-19{fill:#91c8ea;stroke:#91c8ea;}.cls-20{fill:#94c9ed;stroke:#94c9ed;}.cls-21{fill:#97d0f5;stroke:#97d0f5;}.cls-22{fill:#b9e2fd;stroke:#b9e2fd;}.cls-23{fill:#95c7e9;stroke:#95c7e9;}.cls-24{fill:#9bcbeb;stroke:#9bcbeb;}.cls-25{fill:#96c9eb;stroke:#96c9eb;}.cls-26{fill:#95cdf0;stroke:#95cdf0;}.cls-27{fill:#97c9e9;stroke:#97c9e9;}.cls-28{fill:#96d2f8;stroke:#96d2f8;}.cls-29{fill:#bde3fc;stroke:#bde3fc;}.cls-30{fill:#abd6f1;stroke:#abd6f1;}.cls-31{fill:#99cff2;stroke:#99cff2;}.cls-32{fill:#9bd2f7;stroke:#9bd2f7;}.cls-33{fill:#97d1f5;stroke:#97d1f5;}.cls-35{fill:#99cff0;stroke:#99cff0;}.cls-36{fill:#99d2f6;stroke:#99d2f6;}.cls-37{fill:#9ecbe9;stroke:#9ecbe9;}.cls-38{fill:#9ecfee;stroke:#9ecfee;}.cls-39{fill:#a7d2ee;stroke:#a7d2ee;}.cls-40{fill:#b9dff8;stroke:#b9dff8;}.cls-41{fill:#9dd2f5;stroke:#9dd2f5;}.cls-42{fill:#9ecceb;stroke:#9ecceb;}.cls-43{fill:#8dc9ef;stroke:#8dc9ef;}.cls-44{fill:#98cef1;stroke:#98cef1;}.cls-45{fill:#9dd0f3;stroke:#9dd0f3;}.cls-46{fill:#9fcfef;stroke:#9fcfef;}.cls-47{fill:#bae0f7;stroke:#bae0f7;}.cls-48{fill:#9ecdeb;stroke:#9ecdeb;}.cls-49{fill:#91c5e5;stroke:#91c5e5;}.cls-50{fill:#9cc8e6;stroke:#9cc8e6;}.cls-51{fill:#91c8eb;stroke:#91c8eb;}.cls-52{fill:#87c3ea;stroke:#87c3ea;}.cls-53{fill:#8dc2e5;stroke:#8dc2e5;}.cls-54{fill:#a3cfec;stroke:#a3cfec;}.cls-55{fill:#83bbde;stroke:#83bbde;}.cls-56{fill:#90c0de;stroke:#90c0de;}.cls-57{fill:#7ebbe2;stroke:#7ebbe2;}.cls-58{fill:#7cb3d6;stroke:#7cb3d6;}.cls-59{fill:#90c1df;stroke:#90c1df;}.cls-60{fill:#9dcbe8;stroke:#9dcbe8;}.cls-61{fill:#75b3db;stroke:#75b3db;}.cls-62{fill:#73afd7;stroke:#73afd7;}.cls-63{fill:#74acd1;stroke:#74acd1;}.cls-116,.cls-64{fill:#77abcc;stroke:#77abcc;}.cls-65{fill:#6caad1;stroke:#6caad1;}.cls-66{fill:#65a1c9;stroke:#65a1c9;}.cls-67{fill:#6fa5c8;stroke:#6fa5c8;}.cls-68{fill:#85b8d9;stroke:#85b8d9;}.cls-69{fill:#5b95ba;stroke:#5b95ba;}.cls-70{fill:#64a7d3;stroke:#64a7d3;}.cls-71{fill:#5d98c0;stroke:#5d98c0;}.cls-72{fill:#60a0ca;stroke:#60a0ca;}.cls-73{fill:#aacbe0;stroke:#aacbe0;}.cls-74{fill:#96bdd6;stroke:#96bdd6;}.cls-75{fill:#6a9fc2;stroke:#6a9fc2;}.cls-76{fill:#679fc4;stroke:#679fc4;}.cls-77{fill:#6a9ab9;stroke:#6a9ab9;}.cls-78{fill:#5e91b4;stroke:#5e91b4;}.cls-79{fill:#659abb;stroke:#659abb;}.cls-80{fill:#78a3c0;stroke:#78a3c0;}.cls-81{fill:#5d90af;stroke:#5d90af;}.cls-82{fill:#538bb0;stroke:#538bb0;}.cls-83{fill:#5e98be;stroke:#5e98be;}.cls-84{fill:#7aa7c2;stroke:#7aa7c2;}.cls-85{fill:#5991b6;stroke:#5991b6;}.cls-86{fill:#5286a8;stroke:#5286a8;}.cls-87{fill:#6897b6;stroke:#6897b6;}.cls-88{fill:#6493b3;stroke:#6493b3;}.cls-89{fill:#4b87b0;stroke:#4b87b0;}.cls-90{fill:#4b80a5;stroke:#4b80a5;}.cls-91{fill:#447da4;stroke:#447da4;}.cls-105,.cls-92{fill:#4784ac;stroke:#4784ac;}.cls-93{fill:#477fa3;stroke:#477fa3;}.cls-100,.cls-94{fill:#4784ae;stroke:#4784ae;}.cls-95{fill:#72a2c0;stroke:#72a2c0;}.cls-96{fill:#578bad;stroke:#578bad;}.cls-97{fill:#4381aa;stroke:#4381aa;}.cls-119,.cls-98{fill:#4787b3;stroke:#4787b3;}.cls-99{fill:#4e86aa;stroke:#4e86aa;}.cls-101{fill:#4483ab;stroke:#4483ab;}.cls-102{fill:#6297b9;stroke:#6297b9;}.cls-103{fill:#4b8bb6;stroke:#4b8bb6;}.cls-104{fill:#4585af;stroke:#4585af;}.cls-106{fill:#498ab5;stroke:#498ab5;}.cls-107,.cls-117{fill:#4c8eba;stroke:#4c8eba;}.cls-108{fill:#578eb3;stroke:#578eb3;}.cls-109{fill:#5c94b8;stroke:#5c94b8;}.cls-110{fill:#72a6c7;stroke:#72a6c7;}.cls-111{fill:#4b90bc;stroke:#4b90bc;}.cls-112{fill:#78accf;stroke:#78accf;}.cls-113{fill:#4787b0;stroke:#4787b0;}.cls-114{fill:#4b8db8;stroke:#4b8db8;}.cls-115{fill:#5e98bd;stroke:#5e98bd;}.cls-118{fill:#4b91bf;stroke:#4b91bf;}.cls-120{fill:#5691b8;stroke:#5691b8;}.cls-121{fill:#4c8ab4;stroke:#4c8ab4;}.cls-122{fill:#6fa6c9;stroke:#6fa6c9;}.cls-123{fill:#4e93c1;stroke:#4e93c1;}.cls-124{fill:#4a8ebb;stroke:#4a8ebb;}.cls-125{fill:#77aed3;stroke:#77aed3;}</style></defs><title>sailsjs</title><polygon class="cls-1" points="59.66 41.49 1 129.96 1 141.39 117.07 98.9 59.66 41.49"/><polygon class="cls-2" points="18.04 201 1 165.76 1 201 18.04 201"/><polygon class="cls-3" points="51.78 22.35 93.91 1 1 1 1 3.31 51.78 22.35"/><polygon class="cls-4" points="59.66 41.49 1 6.11 1 129.96 59.66 41.49"/><polygon class="cls-5" points="51.78 22.35 1 3.31 1 6.11 59.66 41.49 51.78 22.35"/><polygon class="cls-6" points="117.07 98.9 1 141.39 1 165.76 18.04 201 33.16 201 117.07 98.9"/><polygon class="cls-7" points="117.07 98.89 33.16 201 122.9 201 117.07 98.89"/><polygon class="cls-8" points="59.66 41.48 109.71 1 93.91 1 51.78 22.35 59.66 41.48"/><polygon class="cls-9" points="117.07 98.89 132.77 1 109.71 1 59.66 41.49 117.07 98.89"/><polygon class="cls-10" points="117.07 98.89 122.9 201 160.83 201 117.07 98.89"/><polygon class="cls-11" points="193.61 78.63 148.62 1 132.77 1 117.07 98.9 193.61 78.63"/><polygon class="cls-12" points="117.07 98.89 160.83 201 168.73 201 200.37 141.67 117.07 98.89"/><polygon class="cls-13" points="200.37 141.68 193.61 78.64 117.07 98.9 200.37 141.68"/><polygon class="cls-14" points="193.61 78.63 197.93 1 148.62 1 193.61 78.63"/><polygon class="cls-15" points="266.78 192.33 262.11 201 268.34 201 266.78 192.33"/><polygon class="cls-16" points="265.66 84.26 222.92 1 197.93 1 193.61 78.63 265.66 84.26"/><polygon class="cls-2" points="200.37 141.67 168.73 201 175 201 233.01 156.31 200.37 141.67"/><polygon class="cls-17" points="266.78 192.33 214.16 201 262.11 201 266.78 192.33"/><polygon class="cls-15" points="233.01 156.31 175 201 214.16 201 266.78 192.33 233.01 156.31"/><polygon class="cls-18" points="265.66 84.26 276.91 1 222.92 1 265.66 84.26"/><polygon class="cls-19" points="233.01 156.31 265.66 84.27 200.37 141.68 233.01 156.31"/><polygon class="cls-20" points="200.37 141.68 265.66 84.27 193.61 78.64 200.37 141.68"/><polygon class="cls-21" points="341.08 18.97 323.45 1 276.91 1 265.66 84.26 341.08 18.97"/><polygon class="cls-22" points="266.78 192.33 268.34 201 307.17 201 307.31 200.21 266.78 192.33"/><polygon class="cls-23" points="266.78 192.33 265.66 84.27 233.01 156.31 266.78 192.33"/><polygon class="cls-24" points="307.31 200.21 265.66 84.27 266.78 192.33 307.31 200.21"/><polygon class="cls-25" points="359.09 103.4 265.66 84.27 307.31 200.21 359.09 103.4"/><polygon class="cls-15" points="307.31 200.21 307.17 201 308.01 201 307.31 200.21"/><polygon class="cls-26" points="359.09 103.4 341.08 18.98 265.66 84.27 359.09 103.4"/><polygon class="cls-27" points="359.09 103.4 307.31 200.21 379.35 130.42 359.09 103.4"/><polygon class="cls-28" points="341.08 18.97 340.42 1 323.45 1 341.08 18.97"/><polygon class="cls-29" points="307.31 200.21 308.01 201 312.5 201 307.31 200.21"/><polygon class="cls-30" points="307.31 200.21 312.5 201 410.52 201 379.35 130.42 307.31 200.21"/><polygon class="cls-31" points="359.09 103.4 416.5 24.6 341.08 18.98 359.09 103.4"/><polygon class="cls-32" points="341.08 18.97 388.25 1 340.42 1 341.08 18.97"/><polygon class="cls-33" points="416.5 24.6 388.41 1 388.25 1 341.08 18.97 416.5 24.6"/><polygon class="cls-34" points="379.35 130.42 416.5 24.6 359.09 103.4 379.35 130.42"/><polygon class="cls-35" points="379.35 130.42 498.67 61.75 416.5 24.6 379.35 130.42"/><polygon class="cls-36" points="416.5 24.6 510.89 1 388.41 1 416.5 24.6"/><polygon class="cls-37" points="379.35 130.41 410.52 201 432.25 201 518.94 105.65 379.35 130.41"/><polygon class="cls-38" points="518.94 105.65 498.67 61.75 379.35 130.42 518.94 105.65"/><polygon class="cls-39" points="518.94 105.65 432.25 201 467.85 201 533.57 179.95 518.94 105.65"/><polygon class="cls-40" points="533.57 179.94 467.85 201 528.31 201 533.57 179.94"/><polygon class="cls-41" points="498.67 61.75 511.05 1 510.89 1 416.5 24.6 498.67 61.75"/><polygon class="cls-42" points="545.95 129.29 518.94 105.65 533.57 179.95 545.95 129.29"/><polygon class="cls-43" points="613.5 9.96 646.09 1 595.04 1 613.5 9.96"/><polygon class="cls-44" points="613.5 9.97 511.52 1 511.1 1 593.23 88.77 613.5 9.97"/><polygon class="cls-45" points="593.23 88.76 511.1 1 511.05 1 498.67 61.75 593.23 88.76"/><polygon class="cls-46" points="518.94 105.65 593.23 88.77 498.67 61.75 518.94 105.65"/><polygon class="cls-36" points="613.5 9.96 595.04 1 511.52 1 613.5 9.96"/><polygon class="cls-47" points="533.57 179.94 528.31 201 566.28 201 533.57 179.94"/><polygon class="cls-48" points="545.95 129.29 593.23 88.77 518.94 105.65 545.95 129.29"/><polygon class="cls-39" points="533.57 179.94 566.28 201 594.28 201 545.95 129.29 533.57 179.94"/><polygon class="cls-49" points="667.53 143.93 593.23 88.77 545.95 129.29 667.53 143.93"/><polygon class="cls-50" points="545.95 129.29 594.28 201 634.29 201 667.53 143.92 545.95 129.29"/><polygon class="cls-51" points="593.23 88.77 645.01 27.98 613.5 9.97 593.23 88.77"/><polygon class="cls-52" points="645.01 27.98 695.66 1 646.09 1 613.5 9.97 645.01 27.98"/><polygon class="cls-53" points="667.53 143.93 645.01 27.98 593.23 88.77 667.53 143.93"/><polygon class="cls-54" points="667.53 143.92 634.29 201 689.01 201 667.53 143.92"/><polygon class="cls-55" points="667.53 143.93 742.95 73.01 645.01 27.98 667.53 143.93"/><polygon class="cls-56" points="667.53 143.92 689.01 201 716.45 201 726.06 152.93 667.53 143.92"/><polygon class="cls-57" points="742.95 73 746.99 1 695.66 1 645.01 27.98 742.95 73"/><polygon class="cls-58" points="726.06 152.93 742.95 73.01 667.53 143.93 726.06 152.93"/><polygon class="cls-59" points="726.06 152.93 716.45 201 787.66 201 794.73 196.83 726.06 152.93"/><polygon class="cls-60" points="794.73 196.83 787.66 201 797.26 201 794.73 196.83"/><polygon class="cls-61" points="742.95 73 798.12 1 746.99 1 742.95 73"/><polygon class="cls-62" points="827.37 24.6 816.27 1 798.12 1 742.95 73.01 827.37 24.6"/><polygon class="cls-63" points="812.74 119.16 742.95 73.01 726.06 152.93 812.74 119.16"/><polygon class="cls-64" points="812.74 119.16 726.06 152.93 794.73 196.83 812.74 119.16"/><polygon class="cls-65" points="812.74 119.16 827.37 24.6 742.95 73.01 812.74 119.16"/><polygon class="cls-66" points="812.74 119.16 909.55 80.89 827.37 24.6 812.74 119.16"/><polygon class="cls-67" points="812.74 119.16 794.73 196.83 915.18 191.21 812.74 119.16"/><polygon class="cls-68" points="794.73 196.83 797.26 201 904.78 201 915.18 191.2 794.73 196.83"/><polygon class="cls-69" points="812.74 119.16 915.18 191.21 919.68 132.67 812.74 119.16"/><polygon class="cls-70" points="827.37 24.6 871.8 1 816.27 1 827.37 24.6"/><polygon class="cls-71" points="919.68 132.67 909.55 80.89 812.74 119.16 919.68 132.67"/><polygon class="cls-72" points="909.55 80.88 900.99 1 871.8 1 827.37 24.6 909.55 80.88"/><polygon class="cls-73" points="915.18 191.2 904.78 201 911.34 201 915.18 191.2"/><polygon class="cls-74" points="915.18 191.2 911.34 201 934.78 201 915.18 191.2"/><polygon class="cls-75" points="973.71 38.11 920.47 1 900.99 1 909.55 80.89 973.71 38.11"/><polygon class="cls-76" points="973.71 38.11 964.76 1 920.47 1 973.71 38.11"/><polygon class="cls-77" points="919.68 132.67 915.18 191.21 986.1 167.57 919.68 132.67"/><polygon class="cls-78" points="1011.99 137.17 973.71 38.11 919.68 132.67 1011.99 137.17"/><polygon class="cls-79" points="919.68 132.67 973.71 38.11 909.55 80.89 919.68 132.67"/><polygon class="cls-80" points="915.18 191.2 934.78 201 971.32 201 986.1 167.56 915.18 191.2"/><polygon class="cls-81" points="919.68 132.67 986.1 167.57 1011.99 137.17 919.68 132.67"/><polygon class="cls-82" points="1011.99 137.17 1060.39 68.51 973.71 38.11 1011.99 137.17"/><polygon class="cls-83" points="973.71 38.11 1000.51 1 964.76 1 973.71 38.11"/><polygon class="cls-84" points="986.1 167.56 971.32 201 999.37 201 986.1 167.56"/><polygon class="cls-85" points="1060.39 68.5 1028.73 1 1000.51 1 973.71 38.11 1060.39 68.5"/><polygon class="cls-86" points="1011.99 137.17 986.1 167.57 1091.91 163.06 1011.99 137.17"/><polygon class="cls-87" points="986.1 167.56 999.37 201 1056.6 201 1091.91 163.06 986.1 167.56"/><polygon class="cls-88" points="1091.91 163.06 1056.6 201 1095.04 201 1108.8 193.45 1091.91 163.06"/><polygon class="cls-89" points="1060.39 68.5 1117.77 1 1028.73 1 1060.39 68.5"/><polygon class="cls-90" points="1091.91 163.06 1060.39 68.51 1011.99 137.17 1091.91 163.06"/><polygon class="cls-80" points="1108.8 193.45 1095.04 201 1108.48 201 1108.8 193.45"/><polygon class="cls-91" points="1091.91 163.06 1116.68 78.64 1060.39 68.51 1091.91 163.06"/><polygon class="cls-92" points="1116.68 78.63 1132.38 1 1117.77 1 1060.39 68.5 1116.68 78.63"/><polygon class="cls-93" points="1190.97 109.03 1091.91 163.06 1108.8 193.46 1190.97 109.03"/><polygon class="cls-91" points="1190.97 109.03 1116.68 78.64 1091.91 163.06 1190.97 109.03"/><polygon class="cls-94" points="1204.48 50.49 1158.08 1 1132.38 1 1116.68 78.63 1204.48 50.49"/><polygon class="cls-95" points="1108.8 193.45 1108.48 201 1136.65 201 1108.8 193.45"/><polygon class="cls-96" points="1108.8 193.45 1136.65 201 1221.04 201 1190.97 109.03 1108.8 193.45"/><polygon class="cls-97" points="1190.97 109.03 1204.48 50.49 1116.68 78.64 1190.97 109.03"/><polygon class="cls-98" points="1204.48 50.49 1220.27 1 1158.08 1 1204.48 50.49"/><polygon class="cls-99" points="1190.97 109.03 1221.04 201 1244.54 201 1273.15 154.06 1190.97 109.03"/><polygon class="cls-100" points="1190.97 109.03 1264.14 30.23 1204.48 50.49 1190.97 109.03"/><polygon class="cls-101" points="1273.15 154.06 1264.14 30.23 1190.97 109.03 1273.15 154.06"/><polygon class="cls-98" points="1264.14 30.23 1225.84 1 1220.27 1 1204.48 50.49 1264.14 30.23"/><polygon class="cls-102" points="1273.15 154.05 1244.54 201 1283.08 201 1273.15 154.05"/><polygon class="cls-103" points="1264.14 30.23 1268.32 1 1225.84 1 1264.14 30.23"/><polygon class="cls-104" points="1273.15 154.06 1359.82 68.51 1264.14 30.23 1273.15 154.06"/><polygon class="cls-105" points="1371.08 159.69 1359.82 68.51 1273.15 154.06 1371.08 159.69"/><polygon class="cls-106" points="1359.82 68.5 1271.64 1 1268.32 1 1264.14 30.23 1359.82 68.5"/><polygon class="cls-107" points="1359.82 68.5 1368.71 1 1271.64 1 1359.82 68.5"/><polygon class="cls-108" points="1273.15 154.05 1283.08 201 1304.27 201 1371.08 159.68 1273.15 154.05"/><polygon class="cls-109" points="1371.08 159.68 1304.27 201 1324.69 201 1395.85 179.95 1371.08 159.68"/><polygon class="cls-110" points="1395.85 179.94 1324.69 201 1395.6 201 1395.85 179.94"/><polygon class="cls-111" points="1420.61 3.21 1419.07 1 1368.71 1 1359.82 68.5 1420.61 3.21"/><polygon class="cls-112" points="1395.85 179.94 1395.6 201 1407.03 201 1395.85 179.94"/><polygon class="cls-100" points="1417.23 91.02 1371.08 159.69 1423.99 142.8 1417.23 91.02"/><polygon class="cls-113" points="1417.23 91.02 1359.82 68.51 1371.08 159.69 1417.23 91.02"/><polygon class="cls-114" points="1417.23 91.02 1420.61 3.22 1359.82 68.51 1417.23 91.02"/><polygon class="cls-100" points="1423.99 142.8 1371.08 159.69 1395.85 179.95 1423.99 142.8"/><polygon class="cls-106" points="1420.61 3.21 1442.72 1 1419.07 1 1420.61 3.21"/><polygon class="cls-115" points="1395.85 179.94 1424.53 201 1458.53 201 1423.99 142.8 1395.85 179.94"/><polygon class="cls-116" points="1395.85 179.94 1407.03 201 1424.53 201 1395.85 179.94"/><polygon class="cls-106" points="1499.41 97.77 1420.61 3.22 1417.23 91.02 1499.41 97.77"/><polygon class="cls-117" points="1499.41 97.77 1534.31 73.01 1420.61 3.22 1499.41 97.77"/><polygon class="cls-118" points="1534.31 73 1533.31 1 1442.72 1 1420.61 3.21 1534.31 73"/><polygon class="cls-119" points="1417.23 91.02 1423.99 142.8 1499.41 97.77 1417.23 91.02"/><polygon class="cls-120" points="1499.41 97.77 1489.17 201 1522.61 201 1564.7 151.8 1499.41 97.77"/><polygon class="cls-121" points="1423.99 142.8 1458.53 201 1489.17 201 1499.41 97.77 1423.99 142.8"/><polygon class="cls-122" points="1564.7 151.8 1522.61 201 1560.16 201 1564.7 151.8"/><polygon class="cls-123" points="1574.83 22.35 1545.58 1 1533.31 1 1534.31 73.01 1574.83 22.35"/><polygon class="cls-107" points="1499.41 97.77 1564.7 151.81 1534.31 73.01 1499.41 97.77"/><polygon class="cls-124" points="1534.31 73.01 1564.7 151.81 1574.83 22.35 1534.31 73.01"/><polygon class="cls-122" points="1574.83 22.35 1595.57 1 1545.58 1 1574.83 22.35"/><polygon class="cls-118" points="1601 25.18 1601 1 1595.57 1 1574.83 22.35 1564.7 151.81 1601 25.18"/><polygon class="cls-125" points="1564.7 151.8 1560.16 201 1578.02 201 1564.7 151.8"/><polygon class="cls-103" points="1564.7 151.8 1578.02 201 1601 201 1601 25.18 1564.7 151.8"/></svg>