<svg id="Layer_1" data-name="Layer 1" xmlns="http://www.w3.org/2000/svg" width="1602" height="202.07" viewBox="0 0 1602 202.07"><defs><style>.cls-1{fill:#a1322b;stroke:#a1322b;}.cls-1,.cls-10,.cls-100,.cls-101,.cls-104,.cls-105,.cls-108,.cls-109,.cls-11,.cls-110,.cls-111,.cls-112,.cls-113,.cls-114,.cls-118,.cls-119,.cls-120,.cls-122,.cls-124,.cls-125,.cls-126,.cls-127,.cls-13,.cls-130,.cls-131,.cls-14,.cls-15,.cls-16,.cls-17,.cls-18,.cls-19,.cls-2,.cls-22,.cls-23,.cls-29,.cls-3,.cls-30,.cls-31,.cls-33,.cls-34,.cls-37,.cls-38,.cls-4,.cls-40,.cls-41,.cls-42,.cls-44,.cls-45,.cls-46,.cls-48,.cls-49,.cls-5,.cls-51,.cls-53,.cls-55,.cls-57,.cls-59,.cls-6,.cls-60,.cls-62,.cls-63,.cls-64,.cls-65,.cls-7,.cls-71,.cls-73,.cls-75,.cls-76,.cls-77,.cls-78,.cls-8,.cls-82,.cls-85,.cls-86,.cls-87,.cls-89,.cls-9,.cls-90,.cls-91,.cls-93,.cls-95,.cls-97,.cls-98{stroke-width:2px;}.cls-2{fill:#b34636;stroke:#b34636;}.cls-3{fill:#af3f2c;stroke:#af3f2c;}.cls-4{fill:#a6382b;stroke:#a6382b;}.cls-5{fill:#ab382d;stroke:#ab382d;}.cls-6{fill:#9a322a;stroke:#9a322a;}.cls-35,.cls-7{fill:#a53c2f;stroke:#a53c2f;}.cls-8{fill:#ad3d2c;stroke:#ad3d2c;}.cls-9{fill:#a9352d;stroke:#a9352d;}.cls-10{fill:#a8312d;stroke:#a8312d;}.cls-11{fill:#9b2d2c;stroke:#9b2d2c;}.cls-12,.cls-14{fill:#a1372c;stroke:#a1372c;}.cls-102,.cls-103,.cls-106,.cls-107,.cls-115,.cls-116,.cls-117,.cls-12,.cls-121,.cls-123,.cls-128,.cls-129,.cls-20,.cls-21,.cls-24,.cls-25,.cls-26,.cls-27,.cls-28,.cls-32,.cls-35,.cls-36,.cls-39,.cls-43,.cls-47,.cls-50,.cls-52,.cls-54,.cls-56,.cls-58,.cls-61,.cls-66,.cls-67,.cls-68,.cls-69,.cls-70,.cls-72,.cls-74,.cls-79,.cls-80,.cls-81,.cls-83,.cls-84,.cls-88,.cls-92,.cls-94,.cls-96,.cls-99{stroke-width:1.51px;}.cls-13{fill:#af3d2d;stroke:#af3d2d;}.cls-15{fill:#a93a2f;stroke:#a93a2f;}.cls-16{fill:#a13030;stroke:#a13030;}.cls-17{fill:#b7403b;stroke:#b7403b;}.cls-18{fill:#a94532;stroke:#a94532;}.cls-19{fill:#b0432f;stroke:#b0432f;}.cls-20{fill:#9e322c;stroke:#9e322c;}.cls-21{fill:#a1322d;stroke:#a1322d;}.cls-22{fill:#ae3f30;stroke:#ae3f30;}.cls-23{fill:#b6503c;stroke:#b6503c;}.cls-24{fill:#9b322e;stroke:#9b322e;}.cls-25{fill:#a0372e;stroke:#a0372e;}.cls-26{fill:#9f392d;stroke:#9f392d;}.cls-27{fill:#a7352f;stroke:#a7352f;}.cls-28{fill:#9d332e;stroke:#9d332e;}.cls-29{fill:#b33e32;stroke:#b33e32;}.cls-30{fill:#b5573b;stroke:#b5573b;}.cls-31{fill:#a94b34;stroke:#a94b34;}.cls-32{fill:#a93d31;stroke:#a93d31;}.cls-33{fill:#b13b32;stroke:#b13b32;}.cls-34{fill:#af3f30;stroke:#af3f30;}.cls-36{fill:#a73d30;stroke:#a73d30;}.cls-37{fill:#b14632;stroke:#b14632;}.cls-38{fill:#9d3930;stroke:#9d3930;}.cls-39{fill:#a3382f;stroke:#a3382f;}.cls-40{fill:#a34533;stroke:#a34533;}.cls-41{fill:#9f452d;stroke:#9f452d;}.cls-42{fill:#ae4332;stroke:#ae4332;}.cls-43{fill:#9f3a30;stroke:#9f3a30;}.cls-44{fill:#a63f2b;stroke:#a63f2b;}.cls-45{fill:#a8422f;stroke:#a8422f;}.cls-46{fill:#aa4532;stroke:#aa4532;}.cls-47{fill:#a54630;stroke:#a54630;}.cls-48{fill:#b04632;stroke:#b04632;}.cls-49{fill:#a14a31;stroke:#a14a31;}.cls-50{fill:#a0412f;stroke:#a0412f;}.cls-51{fill:#a34734;stroke:#a34734;}.cls-52{fill:#98392a;stroke:#98392a;}.cls-53{fill:#993b2e;stroke:#993b2e;}.cls-54{fill:#a0412c;stroke:#a0412c;}.cls-55{fill:#9e3d28;stroke:#9e3d28;}.cls-56{fill:#983129;stroke:#983129;}.cls-57{fill:#a13e31;stroke:#a13e31;}.cls-58{fill:#912b25;stroke:#912b25;}.cls-59{fill:#913a2a;stroke:#913a2a;}.cls-60{fill:#953424;stroke:#953424;}.cls-61{fill:#872f23;stroke:#872f23;}.cls-62{fill:#923b2b;stroke:#923b2b;}.cls-63{fill:#9a342f;stroke:#9a342f;}.cls-64{fill:#8e3221;stroke:#8e3221;}.cls-65{fill:#882c1e;stroke:#882c1e;}.cls-66{fill:#812e20;stroke:#812e20;}.cls-67{fill:#7d2b20;stroke:#7d2b20;}.cls-68{fill:#812a1f;stroke:#812a1f;}.cls-69{fill:#7f2a1e;stroke:#7f2a1e;}.cls-70{fill:#782a1e;stroke:#782a1e;}.cls-71{fill:#8a2a26;stroke:#8a2a26;}.cls-72{fill:#712019;stroke:#712019;}.cls-73{fill:#83291d;stroke:#83291d;}.cls-74{fill:#76211b;stroke:#76211b;}.cls-75{fill:#80271d;stroke:#80271d;}.cls-76{fill:#9b3f32;stroke:#9b3f32;}.cls-77{fill:#802e20;stroke:#802e20;}.cls-78{fill:#832d1e;stroke:#832d1e;}.cls-79{fill:#762b1f;stroke:#762b1f;}.cls-80{fill:#722a1a;stroke:#722a1a;}.cls-81{fill:#7a2d1d;stroke:#7a2d1d;}.cls-82{fill:#7e2c23;stroke:#7e2c23;}.cls-83{fill:#73301b;stroke:#73301b;}.cls-84{fill:#742c1a;stroke:#742c1a;}.cls-85{fill:#832e1e;stroke:#832e1e;}.cls-86{fill:#863328;stroke:#863328;}.cls-87{fill:#792e1b;stroke:#792e1b;}.cls-88{fill:#6c2917;stroke:#6c2917;}.cls-89{fill:#792c20;stroke:#792c20;}.cls-90{fill:#772d1f;stroke:#772d1f;}.cls-91{fill:#742616;stroke:#742616;}.cls-92{fill:#682316;stroke:#682316;}.cls-93{fill:#844026;stroke:#844026;}.cls-94{fill:#682113;stroke:#682113;}.cls-107,.cls-95{fill:#702114;stroke:#702114;}.cls-96{fill:#672014;stroke:#672014;}.cls-102,.cls-97{fill:#712115;stroke:#712115;}.cls-98{fill:#70291a;stroke:#70291a;}.cls-99{fill:#6d1f14;stroke:#6d1f14;}.cls-100,.cls-123{fill:#772514;stroke:#772514;}.cls-101{fill:#6d2516;stroke:#6d2516;}.cls-103{fill:#6f2113;stroke:#6f2113;}.cls-104{fill:#7c281f;stroke:#7c281f;}.cls-105{fill:#792516;stroke:#792516;}.cls-106{fill:#732314;stroke:#732314;}.cls-108{fill:#782417;stroke:#782417;}.cls-109,.cls-121{fill:#7f2416;stroke:#7f2416;}.cls-110{fill:#77241a;stroke:#77241a;}.cls-111{fill:#7c261c;stroke:#7c261c;}.cls-112{fill:#8c3525;stroke:#8c3525;}.cls-113{fill:#802818;stroke:#802818;}.cls-114{fill:#944428;stroke:#944428;}.cls-115{fill:#742315;stroke:#742315;}.cls-116{fill:#7c2716;stroke:#7c2716;}.cls-117{fill:#742517;stroke:#742517;}.cls-118{fill:#862718;stroke:#862718;}.cls-119{fill:#812d1f;stroke:#812d1f;}.cls-120{fill:#913826;stroke:#913826;}.cls-122{fill:#842717;stroke:#842717;}.cls-124{fill:#7c2d1a;stroke:#7c2d1a;}.cls-125{fill:#782c18;stroke:#782c18;}.cls-126{fill:#8d3123;stroke:#8d3123;}.cls-127{fill:#852618;stroke:#852618;}.cls-128{fill:#7b2715;stroke:#7b2715;}.cls-129{fill:#802516;stroke:#802516;}.cls-130{fill:#8a2919;stroke:#8a2919;}.cls-131{fill:#973b27;stroke:#973b27;}</style></defs><title>Untitled-18</title><polygon class="cls-1" points="1484.93 98.9 1601 141.39 1601 129.96 1542.34 41.49 1484.93 98.9"/><polygon class="cls-2" points="1601 201 1601 165.76 1583.96 201 1601 201"/><polygon class="cls-3" points="1601 3.31 1601 1 1508.09 1 1550.22 22.35 1601 3.31"/><polygon class="cls-4" points="1601 129.96 1601 6.11 1542.34 41.49 1601 129.96"/><polygon class="cls-5" points="1542.34 41.49 1601 6.11 1601 3.31 1550.22 22.35 1542.34 41.49"/><polygon class="cls-6" points="1568.84 201 1583.96 201 1601 165.76 1601 141.39 1484.93 98.9 1568.84 201"/><polygon class="cls-7" points="1479.1 201 1568.84 201 1484.93 98.89 1479.1 201"/><polygon class="cls-8" points="1550.22 22.35 1508.09 1 1492.29 1 1542.34 41.48 1550.22 22.35"/><polygon class="cls-9" points="1542.34 41.49 1492.29 1 1469.23 1 1484.93 98.89 1542.34 41.49"/><polygon class="cls-7" points="1441.17 201 1479.1 201 1484.93 98.89 1441.17 201"/><polygon class="cls-10" points="1484.93 98.9 1469.23 1 1453.38 1 1408.39 78.63 1484.93 98.9"/><polygon class="cls-11" points="1401.63 141.67 1433.27 201 1441.17 201 1484.93 98.89 1401.63 141.67"/><polygon class="cls-12" points="1484.93 98.9 1408.39 78.64 1401.63 141.68 1484.93 98.9"/><polygon class="cls-13" points="1453.38 1 1404.07 1 1408.39 78.63 1453.38 1"/><polygon class="cls-14" points="1333.66 201 1339.89 201 1335.22 192.33 1333.66 201"/><polygon class="cls-15" points="1408.39 78.63 1404.07 1 1379.08 1 1336.34 84.26 1408.39 78.63"/><polygon class="cls-16" points="1368.99 156.31 1427 201 1433.27 201 1401.63 141.67 1368.99 156.31"/><polygon class="cls-17" points="1339.89 201 1387.84 201 1335.22 192.33 1339.89 201"/><polygon class="cls-18" points="1335.22 192.33 1387.84 201 1427 201 1368.99 156.31 1335.22 192.33"/><polygon class="cls-19" points="1379.08 1 1325.09 1 1336.34 84.26 1379.08 1"/><polygon class="cls-20" points="1401.63 141.68 1336.34 84.27 1368.99 156.31 1401.63 141.68"/><polygon class="cls-21" points="1408.39 78.64 1336.34 84.27 1401.63 141.68 1408.39 78.64"/><polygon class="cls-22" points="1336.34 84.26 1325.09 1 1278.55 1 1260.92 18.97 1336.34 84.26"/><polygon class="cls-23" points="1294.69 200.21 1294.83 201 1333.66 201 1335.22 192.33 1294.69 200.21"/><polygon class="cls-24" points="1368.99 156.31 1336.34 84.27 1335.22 192.33 1368.99 156.31"/><polygon class="cls-25" points="1335.22 192.33 1336.34 84.27 1294.69 200.21 1335.22 192.33"/><polygon class="cls-26" points="1294.69 200.21 1336.34 84.27 1242.91 103.4 1294.69 200.21"/><polygon class="cls-27" points="1336.34 84.27 1260.92 18.98 1242.91 103.4 1336.34 84.27"/><polygon class="cls-28" points="1222.65 130.42 1294.69 200.21 1242.91 103.4 1222.65 130.42"/><polygon class="cls-29" points="1278.55 1 1261.58 1 1260.92 18.97 1278.55 1"/><polygon class="cls-30" points="1289.5 201 1293.99 201 1294.69 200.21 1289.5 201"/><polygon class="cls-31" points="1222.65 130.42 1191.48 201 1289.5 201 1294.69 200.21 1222.65 130.42"/><polygon class="cls-32" points="1260.92 18.98 1185.5 24.6 1242.91 103.4 1260.92 18.98"/><polygon class="cls-33" points="1261.58 1 1213.75 1 1260.92 18.97 1261.58 1"/><polygon class="cls-34" points="1260.92 18.97 1213.75 1 1213.59 1 1185.5 24.6 1260.92 18.97"/><polygon class="cls-35" points="1242.91 103.4 1185.5 24.6 1222.65 130.42 1242.91 103.4"/><polygon class="cls-36" points="1185.5 24.6 1103.33 61.75 1222.65 130.42 1185.5 24.6"/><polygon class="cls-37" points="1213.59 1 1091.11 1 1185.5 24.6 1213.59 1"/><polygon class="cls-38" points="1083.06 105.65 1169.75 201 1191.48 201 1222.65 130.41 1083.06 105.65"/><polygon class="cls-39" points="1222.65 130.42 1103.33 61.75 1083.06 105.65 1222.65 130.42"/><polygon class="cls-40" points="1068.43 179.95 1134.15 201 1169.75 201 1083.06 105.65 1068.43 179.95"/><polygon class="cls-41" points="1073.69 201 1134.15 201 1068.43 179.94 1073.69 201"/><polygon class="cls-42" points="1185.5 24.6 1091.11 1 1090.95 1 1103.33 61.75 1185.5 24.6"/><polygon class="cls-43" points="1068.43 179.95 1083.06 105.65 1056.05 129.29 1068.43 179.95"/><polygon class="cls-44" points="1006.96 1 955.91 1 988.5 9.96 1006.96 1"/><polygon class="cls-45" points="1008.77 88.77 1090.9 1 1090.48 1 988.5 9.97 1008.77 88.77"/><polygon class="cls-46" points="1103.33 61.75 1090.95 1 1090.9 1 1008.77 88.76 1103.33 61.75"/><polygon class="cls-47" points="1103.33 61.75 1008.77 88.77 1083.06 105.65 1103.33 61.75"/><polygon class="cls-48" points="1090.48 1 1006.96 1 988.5 9.96 1090.48 1"/><polygon class="cls-49" points="1035.72 201 1073.69 201 1068.43 179.94 1035.72 201"/><polygon class="cls-50" points="1083.06 105.65 1008.77 88.77 1056.05 129.29 1083.06 105.65"/><polygon class="cls-51" points="1056.05 129.29 1007.72 201 1035.72 201 1068.43 179.94 1056.05 129.29"/><polygon class="cls-52" points="1056.05 129.29 1008.77 88.77 934.47 143.93 1056.05 129.29"/><polygon class="cls-53" points="934.47 143.92 967.71 201 1007.72 201 1056.05 129.29 934.47 143.92"/><polygon class="cls-54" points="988.5 9.97 956.99 27.98 1008.77 88.77 988.5 9.97"/><polygon class="cls-55" points="988.5 9.97 955.91 1 906.34 1 956.99 27.98 988.5 9.97"/><polygon class="cls-56" points="1008.77 88.77 956.99 27.98 934.47 143.93 1008.77 88.77"/><polygon class="cls-57" points="912.99 201 967.71 201 934.47 143.92 912.99 201"/><polygon class="cls-58" points="956.99 27.98 859.05 73.01 934.47 143.93 956.99 27.98"/><polygon class="cls-59" points="875.94 152.93 885.55 201 912.99 201 934.47 143.92 875.94 152.93"/><polygon class="cls-60" points="956.99 27.98 906.34 1 855.01 1 859.05 73 956.99 27.98"/><polygon class="cls-61" points="934.47 143.93 859.05 73.01 875.94 152.93 934.47 143.93"/><polygon class="cls-62" points="807.27 196.83 814.34 201 885.55 201 875.94 152.93 807.27 196.83"/><polygon class="cls-63" points="804.74 201 814.34 201 807.27 196.83 804.74 201"/><polygon class="cls-64" points="855.01 1 803.88 1 859.05 73 855.01 1"/><polygon class="cls-65" points="859.05 73.01 803.88 1 785.73 1 774.63 24.6 859.05 73.01"/><polygon class="cls-66" points="875.94 152.93 859.05 73.01 789.26 119.16 875.94 152.93"/><polygon class="cls-67" points="807.27 196.83 875.94 152.93 789.26 119.16 807.27 196.83"/><polygon class="cls-68" points="859.05 73.01 774.63 24.6 789.26 119.16 859.05 73.01"/><polygon class="cls-69" points="774.63 24.6 692.45 80.89 789.26 119.16 774.63 24.6"/><polygon class="cls-70" points="686.82 191.21 807.27 196.83 789.26 119.16 686.82 191.21"/><polygon class="cls-71" points="686.82 191.2 697.22 201 804.74 201 807.27 196.83 686.82 191.2"/><polygon class="cls-72" points="682.32 132.67 686.82 191.21 789.26 119.16 682.32 132.67"/><polygon class="cls-73" points="785.73 1 730.2 1 774.63 24.6 785.73 1"/><polygon class="cls-74" points="789.26 119.16 692.45 80.89 682.32 132.67 789.26 119.16"/><polygon class="cls-75" points="774.63 24.6 730.2 1 701.01 1 692.45 80.88 774.63 24.6"/><polygon class="cls-76" points="690.66 201 697.22 201 686.82 191.2 690.66 201"/><polygon class="cls-76" points="667.22 201 690.66 201 686.82 191.2 667.22 201"/><polygon class="cls-77" points="692.45 80.89 701.01 1 681.53 1 628.29 38.11 692.45 80.89"/><polygon class="cls-78" points="681.53 1 637.24 1 628.29 38.11 681.53 1"/><polygon class="cls-79" points="615.9 167.57 686.82 191.21 682.32 132.67 615.9 167.57"/><polygon class="cls-80" points="682.32 132.67 628.29 38.11 590.01 137.17 682.32 132.67"/><polygon class="cls-81" points="692.45 80.89 628.29 38.11 682.32 132.67 692.45 80.89"/><polygon class="cls-82" points="615.9 167.56 630.68 201 667.22 201 686.82 191.2 615.9 167.56"/><polygon class="cls-83" points="590.01 137.17 615.9 167.57 682.32 132.67 590.01 137.17"/><polygon class="cls-84" points="628.29 38.11 541.61 68.51 590.01 137.17 628.29 38.11"/><polygon class="cls-85" points="637.24 1 601.49 1 628.29 38.11 637.24 1"/><polygon class="cls-86" points="602.63 201 630.68 201 615.9 167.56 602.63 201"/><polygon class="cls-87" points="628.29 38.11 601.49 1 573.27 1 541.61 68.5 628.29 38.11"/><polygon class="cls-88" points="510.09 163.06 615.9 167.57 590.01 137.17 510.09 163.06"/><polygon class="cls-89" points="510.09 163.06 545.4 201 602.63 201 615.9 167.56 510.09 163.06"/><polygon class="cls-90" points="493.2 193.45 506.96 201 545.4 201 510.09 163.06 493.2 193.45"/><polygon class="cls-91" points="573.27 1 484.23 1 541.61 68.5 573.27 1"/><polygon class="cls-92" points="590.01 137.17 541.61 68.51 510.09 163.06 590.01 137.17"/><polygon class="cls-93" points="493.52 201 506.96 201 493.2 193.45 493.52 201"/><polygon class="cls-94" points="541.61 68.51 485.32 78.64 510.09 163.06 541.61 68.51"/><polygon class="cls-95" points="541.61 68.5 484.23 1 469.62 1 485.32 78.63 541.61 68.5"/><polygon class="cls-96" points="493.2 193.46 510.09 163.06 411.03 109.03 493.2 193.46"/><polygon class="cls-94" points="510.09 163.06 485.32 78.64 411.03 109.03 510.09 163.06"/><polygon class="cls-97" points="485.32 78.63 469.62 1 443.92 1 397.52 50.49 485.32 78.63"/><polygon class="cls-93" points="465.35 201 493.52 201 493.2 193.45 465.35 201"/><polygon class="cls-98" points="411.03 109.03 380.96 201 465.35 201 493.2 193.45 411.03 109.03"/><polygon class="cls-99" points="485.32 78.64 397.52 50.49 411.03 109.03 485.32 78.64"/><polygon class="cls-100" points="443.92 1 381.73 1 397.52 50.49 443.92 1"/><polygon class="cls-101" points="328.85 154.06 357.46 201 380.96 201 411.03 109.03 328.85 154.06"/><polygon class="cls-102" points="397.52 50.49 337.86 30.23 411.03 109.03 397.52 50.49"/><polygon class="cls-103" points="411.03 109.03 337.86 30.23 328.85 154.06 411.03 109.03"/><polygon class="cls-100" points="397.52 50.49 381.73 1 376.16 1 337.86 30.23 397.52 50.49"/><polygon class="cls-104" points="318.92 201 357.46 201 328.85 154.05 318.92 201"/><polygon class="cls-105" points="376.16 1 333.68 1 337.86 30.23 376.16 1"/><polygon class="cls-106" points="337.86 30.23 242.18 68.51 328.85 154.06 337.86 30.23"/><polygon class="cls-107" points="328.85 154.06 242.18 68.51 230.92 159.69 328.85 154.06"/><polygon class="cls-108" points="337.86 30.23 333.68 1 330.36 1 242.18 68.5 337.86 30.23"/><polygon class="cls-109" points="330.36 1 233.29 1 242.18 68.5 330.36 1"/><polygon class="cls-110" points="230.92 159.68 297.73 201 318.92 201 328.85 154.05 230.92 159.68"/><polygon class="cls-111" points="206.15 179.95 277.31 201 297.73 201 230.92 159.68 206.15 179.95"/><polygon class="cls-112" points="206.4 201 277.31 201 206.15 179.94 206.4 201"/><polygon class="cls-113" points="242.18 68.5 233.29 1 182.93 1 181.39 3.21 242.18 68.5"/><polygon class="cls-114" points="194.97 201 206.4 201 206.15 179.94 194.97 201"/><polygon class="cls-102" points="178.01 142.8 230.92 159.69 184.77 91.02 178.01 142.8"/><polygon class="cls-115" points="230.92 159.69 242.18 68.51 184.77 91.02 230.92 159.69"/><polygon class="cls-116" points="242.18 68.51 181.39 3.22 184.77 91.02 242.18 68.51"/><polygon class="cls-117" points="206.15 179.95 230.92 159.69 178.01 142.8 206.15 179.95"/><polygon class="cls-118" points="182.93 1 159.28 1 181.39 3.21 182.93 1"/><polygon class="cls-119" points="178.01 142.8 143.47 201 177.47 201 206.15 179.94 178.01 142.8"/><polygon class="cls-120" points="177.47 201 194.97 201 206.15 179.94 177.47 201"/><polygon class="cls-116" points="184.77 91.02 181.39 3.22 102.59 97.77 184.77 91.02"/><polygon class="cls-121" points="181.39 3.22 67.69 73.01 102.59 97.77 181.39 3.22"/><polygon class="cls-122" points="181.39 3.21 159.28 1 68.69 1 67.69 73 181.39 3.21"/><polygon class="cls-123" points="102.59 97.77 178.01 142.8 184.77 91.02 102.59 97.77"/><polygon class="cls-124" points="37.3 151.8 79.39 201 112.83 201 102.59 97.77 37.3 151.8"/><polygon class="cls-125" points="102.59 97.77 112.83 201 143.47 201 178.01 142.8 102.59 97.77"/><polygon class="cls-126" points="41.84 201 79.39 201 37.3 151.8 41.84 201"/><polygon class="cls-127" points="67.69 73.01 68.69 1 56.42 1 27.17 22.35 67.69 73.01"/><polygon class="cls-128" points="67.69 73.01 37.3 151.81 102.59 97.77 67.69 73.01"/><polygon class="cls-129" points="27.17 22.35 37.3 151.81 67.69 73.01 27.17 22.35"/><polygon class="cls-130" points="56.42 1 6.43 1 27.17 22.35 56.42 1"/><polygon class="cls-122" points="37.3 151.81 27.17 22.35 6.43 1 1 1 1 25.18 37.3 151.81"/><polygon class="cls-131" points="23.98 201 41.84 201 37.3 151.8 23.98 201"/><polygon class="cls-105" points="1 25.18 1 201 23.98 201 37.3 151.8 1 25.18"/></svg>