<svg id="Layer_1" data-name="Layer 1" xmlns="http://www.w3.org/2000/svg" viewBox="0 0 1602 202.06"><defs><style>.cls-1,.cls-15{fill:#ef7351;stroke:#ef7351;}.cls-1,.cls-10,.cls-12,.cls-13,.cls-16,.cls-17,.cls-2,.cls-22,.cls-24,.cls-26,.cls-27,.cls-29,.cls-3,.cls-30,.cls-32,.cls-33,.cls-35,.cls-36,.cls-37,.cls-38,.cls-4,.cls-43,.cls-45,.cls-47,.cls-48,.cls-49,.cls-5,.cls-50,.cls-55,.cls-56,.cls-57,.cls-59,.cls-6,.cls-60,.cls-62,.cls-64,.cls-66,.cls-68,.cls-7,.cls-72,.cls-75,.cls-76,.cls-78,.cls-79,.cls-8,.cls-80,.cls-82,.cls-9{stroke-width:2px;}.cls-2{fill:#f97854;stroke:#f97854;}.cls-3{fill:#f67753;stroke:#f67753;}.cls-4{fill:#f17452;stroke:#f17452;}.cls-5{fill:#f57653;stroke:#f57653;}.cls-6{fill:#ea7150;stroke:#ea7150;}.cls-25,.cls-7{fill:#f07451;stroke:#f07451;}.cls-23,.cls-8{fill:#f37552;stroke:#f37552;}.cls-9{fill:#f27552;stroke:#f27552;}.cls-10,.cls-18{fill:#eb7150;stroke:#eb7150;}.cls-11,.cls-30{fill:#ee7351;stroke:#ee7351;}.cls-11,.cls-14,.cls-15,.cls-18,.cls-19,.cls-20,.cls-21,.cls-23,.cls-25,.cls-28,.cls-31,.cls-34,.cls-39,.cls-40,.cls-41,.cls-42,.cls-44,.cls-46,.cls-51,.cls-52,.cls-53,.cls-54,.cls-58,.cls-61,.cls-63,.cls-65,.cls-67,.cls-69,.cls-70,.cls-71,.cls-73,.cls-74,.cls-77,.cls-81{stroke-width:1.51px;}.cls-12{fill:#ff7b56;stroke:#ff7b56;}.cls-13{fill:#f77753;stroke:#f77753;}.cls-14,.cls-26{fill:#ec7250;stroke:#ec7250;}.cls-16{fill:#f67653;stroke:#f67653;}.cls-17{fill:#fe7a56;stroke:#fe7a56;}.cls-19{fill:#ed7351;stroke:#ed7351;}.cls-20{fill:#ed7250;stroke:#ed7250;}.cls-21{fill:#f27452;stroke:#f27452;}.cls-22{fill:#fc7955;stroke:#fc7955;}.cls-24{fill:#f87754;stroke:#f87754;}.cls-27{fill:#f47653;stroke:#f47653;}.cls-28{fill:#e9704f;stroke:#e9704f;}.cls-29{fill:#e9714f;stroke:#e9714f;}.cls-31,.cls-32{fill:#e26d4d;stroke:#e26d4d;}.cls-33{fill:#e46e4e;stroke:#e46e4e;}.cls-34,.cls-48{fill:#dc6b4b;stroke:#dc6b4b;}.cls-35{fill:#e36e4d;stroke:#e36e4d;}.cls-36{fill:#e8704f;stroke:#e8704f;}.cls-37{fill:#e06d4d;stroke:#e06d4d;}.cls-38{fill:#dd6b4b;stroke:#dd6b4b;}.cls-39{fill:#d9694a;stroke:#d9694a;}.cls-40{fill:#d66849;stroke:#d66849;}.cls-41{fill:#d46749;stroke:#d46749;}.cls-42{fill:#d36749;stroke:#d36749;}.cls-43{fill:#de6c4c;stroke:#de6c4c;}.cls-44,.cls-55{fill:#cb6346;stroke:#cb6346;}.cls-45{fill:#da6a4b;stroke:#da6a4b;}.cls-46,.cls-50{fill:#cf6547;stroke:#cf6547;}.cls-47{fill:#d56749;stroke:#d56749;}.cls-49{fill:#cd6447;stroke:#cd6447;}.cls-51,.cls-80{fill:#ca6246;stroke:#ca6246;}.cls-52,.cls-60{fill:#c25f43;stroke:#c25f43;}.cls-53{fill:#c96246;stroke:#c96246;}.cls-54,.cls-79{fill:#c15f43;stroke:#c15f43;}.cls-56{fill:#d26648;stroke:#d26648;}.cls-57,.cls-77{fill:#c66145;stroke:#c66145;}.cls-58{fill:#bd5d42;stroke:#bd5d42;}.cls-59,.cls-73{fill:#c46044;stroke:#c46044;}.cls-61{fill:#bb5c42;stroke:#bb5c42;}.cls-62{fill:#cc6347;stroke:#cc6347;}.cls-63{fill:#bb5c41;stroke:#bb5c41;}.cls-64,.cls-74{fill:#c05e43;stroke:#c05e43;}.cls-65{fill:#ba5b41;stroke:#ba5b41;}.cls-66,.cls-69{fill:#c15e43;stroke:#c15e43;}.cls-67,.cls-68{fill:#be5d42;stroke:#be5d42;}.cls-70{fill:#bf5e43;stroke:#bf5e43;}.cls-71{fill:#bd5c42;stroke:#bd5c42;}.cls-72{fill:#c76145;stroke:#c76145;}.cls-75{fill:#ca6346;stroke:#ca6346;}.cls-76{fill:#d06548;stroke:#d06548;}.cls-78{fill:#c96245;stroke:#c96245;}.cls-81,.cls-82{fill:#c35f44;stroke:#c35f44;}</style></defs><title>express</title><polygon class="cls-1" points="117.07 98.9 1 141.39 1 129.96 59.66 41.49 117.07 98.9"/><polygon class="cls-2" points="1 201 1 165.76 18.04 201 1 201"/><polygon class="cls-3" points="1 3.31 1 1 93.91 1 51.78 22.35 1 3.31"/><polygon class="cls-4" points="1 129.96 1 6.11 59.66 41.49 1 129.96"/><polygon class="cls-5" points="59.66 41.49 1 6.11 1 3.31 51.78 22.35 59.66 41.49"/><polygon class="cls-6" points="33.16 201 18.04 201 1 165.76 1 141.39 117.07 98.9 33.16 201"/><polygon class="cls-7" points="122.9 201 33.16 201 117.07 98.89 122.9 201"/><polygon class="cls-5" points="51.78 22.35 93.91 1 109.71 1 59.66 41.48 51.78 22.35"/><polygon class="cls-8" points="59.66 41.49 109.71 1 132.77 1 117.07 98.89 59.66 41.49"/><polygon class="cls-7" points="160.83 201 122.9 201 117.07 98.89 160.83 201"/><polygon class="cls-9" points="117.07 98.9 132.77 1 148.62 1 193.61 78.63 117.07 98.9"/><polygon class="cls-10" points="200.37 141.67 168.73 201 160.83 201 117.07 98.89 200.37 141.67"/><polygon class="cls-11" points="117.07 98.9 193.61 78.64 200.37 141.68 117.07 98.9"/><polygon class="cls-3" points="148.62 1 197.93 1 193.61 78.63 148.62 1"/><polygon class="cls-8" points="268.34 201 262.11 201 266.78 192.33 268.34 201"/><polygon class="cls-8" points="193.61 78.63 197.93 1 222.92 1 265.66 84.26 193.61 78.63"/><polygon class="cls-1" points="233.01 156.31 175 201 168.73 201 200.37 141.67 233.01 156.31"/><polygon class="cls-12" points="262.11 201 214.16 201 266.78 192.33 262.11 201"/><polygon class="cls-8" points="266.78 192.33 214.16 201 175 201 233.01 156.31 266.78 192.33"/><polygon class="cls-13" points="222.92 1 276.91 1 265.66 84.26 222.92 1"/><polygon class="cls-14" points="200.37 141.68 265.66 84.27 233.01 156.31 200.37 141.68"/><polygon class="cls-15" points="193.61 78.64 265.66 84.27 200.37 141.68 193.61 78.64"/><polygon class="cls-16" points="265.66 84.26 276.91 1 323.45 1 341.08 18.97 265.66 84.26"/><polygon class="cls-17" points="307.31 200.21 307.17 201 268.34 201 266.78 192.33 307.31 200.21"/><polygon class="cls-18" points="233.01 156.31 265.66 84.27 266.78 192.33 233.01 156.31"/><polygon class="cls-19" points="266.78 192.33 265.66 84.27 307.31 200.21 266.78 192.33"/><polygon class="cls-20" points="307.31 200.21 265.66 84.27 359.09 103.4 307.31 200.21"/><polygon class="cls-8" points="308.01 201 307.17 201 307.31 200.21 308.01 201"/><polygon class="cls-21" points="265.66 84.27 341.08 18.98 359.09 103.4 265.66 84.27"/><polygon class="cls-14" points="379.35 130.42 307.31 200.21 359.09 103.4 379.35 130.42"/><polygon class="cls-2" points="323.45 1 340.43 1 341.08 18.97 323.45 1"/><polygon class="cls-22" points="312.5 201 308.01 201 307.31 200.21 312.5 201"/><polygon class="cls-8" points="379.35 130.42 410.52 201 312.5 201 307.31 200.21 379.35 130.42"/><polygon class="cls-23" points="341.08 18.98 416.5 24.6 359.09 103.4 341.08 18.98"/><polygon class="cls-24" points="340.43 1 388.25 1 341.08 18.97 340.43 1"/><polygon class="cls-3" points="341.08 18.97 388.25 1 388.41 1 416.5 24.6 341.08 18.97"/><polygon class="cls-25" points="359.09 103.4 416.5 24.6 379.35 130.42 359.09 103.4"/><polygon class="cls-21" points="416.5 24.6 498.68 61.75 379.35 130.42 416.5 24.6"/><polygon class="cls-24" points="388.41 1 510.89 1 416.5 24.6 388.41 1"/><polygon class="cls-26" points="518.94 105.65 432.25 201 410.52 201 379.35 130.41 518.94 105.65"/><polygon class="cls-25" points="379.35 130.42 498.68 61.75 518.94 105.65 379.35 130.42"/><polygon class="cls-7" points="533.57 179.95 467.85 201 432.25 201 518.94 105.65 533.57 179.95"/><polygon class="cls-2" points="528.31 201 467.85 201 533.57 179.94 528.31 201"/><polygon class="cls-16" points="416.5 24.6 510.89 1 511.05 1 498.68 61.75 416.5 24.6"/><polygon class="cls-20" points="533.57 179.95 518.94 105.65 545.95 129.29 533.57 179.95"/><polygon class="cls-4" points="595.04 1 646.09 1 613.5 9.96 595.04 1"/><polygon class="cls-9" points="593.23 88.77 511.1 1 511.52 1 613.5 9.97 593.23 88.77"/><polygon class="cls-27" points="498.68 61.75 511.05 1 511.1 1 593.23 88.76 498.68 61.75"/><polygon class="cls-25" points="498.68 61.75 593.23 88.77 518.94 105.65 498.68 61.75"/><polygon class="cls-13" points="511.52 1 595.04 1 613.5 9.96 511.52 1"/><polygon class="cls-24" points="566.28 201 528.31 201 533.57 179.94 566.28 201"/><polygon class="cls-19" points="518.94 105.65 593.23 88.77 545.95 129.29 518.94 105.65"/><polygon class="cls-7" points="545.95 129.29 594.28 201 566.28 201 533.57 179.94 545.95 129.29"/><polygon class="cls-28" points="545.95 129.29 593.23 88.77 667.53 143.93 545.95 129.29"/><polygon class="cls-29" points="667.53 143.92 634.29 201 594.28 201 545.95 129.29 667.53 143.92"/><polygon class="cls-19" points="613.5 9.97 645.01 27.98 593.23 88.77 613.5 9.97"/><polygon class="cls-26" points="613.5 9.97 646.09 1 695.66 1 645.01 27.98 613.5 9.97"/><polygon class="cls-28" points="593.23 88.77 645.01 27.98 667.53 143.93 593.23 88.77"/><polygon class="cls-30" points="689.01 201 634.29 201 667.53 143.92 689.01 201"/><polygon class="cls-31" points="645.01 27.98 742.95 73.01 667.53 143.93 645.01 27.98"/><polygon class="cls-32" points="726.06 152.93 716.45 201 689.01 201 667.53 143.92 726.06 152.93"/><polygon class="cls-33" points="645.01 27.98 695.66 1 746.99 1 742.95 73 645.01 27.98"/><polygon class="cls-34" points="667.53 143.93 742.95 73.01 726.06 152.93 667.53 143.93"/><polygon class="cls-35" points="794.73 196.83 787.66 201 716.45 201 726.06 152.93 794.73 196.83"/><polygon class="cls-36" points="797.26 201 787.66 201 794.73 196.83 797.26 201"/><polygon class="cls-37" points="746.99 1 798.12 1 742.95 73 746.99 1"/><polygon class="cls-38" points="742.95 73.01 798.12 1 816.27 1 827.38 24.6 742.95 73.01"/><polygon class="cls-39" points="726.06 152.93 742.95 73.01 812.74 119.16 726.06 152.93"/><polygon class="cls-40" points="794.73 196.83 726.06 152.93 812.74 119.16 794.73 196.83"/><polygon class="cls-39" points="742.95 73.01 827.38 24.6 812.74 119.16 742.95 73.01"/><polygon class="cls-41" points="827.38 24.6 909.55 80.89 812.74 119.16 827.38 24.6"/><polygon class="cls-42" points="915.18 191.21 794.73 196.83 812.74 119.16 915.18 191.21"/><polygon class="cls-43" points="915.18 191.2 904.78 201 797.26 201 794.73 196.83 915.18 191.2"/><polygon class="cls-44" points="919.68 132.67 915.18 191.21 812.74 119.16 919.68 132.67"/><polygon class="cls-45" points="816.27 1 871.8 1 827.38 24.6 816.27 1"/><polygon class="cls-46" points="812.74 119.16 909.55 80.89 919.68 132.67 812.74 119.16"/><polygon class="cls-47" points="827.38 24.6 871.8 1 900.99 1 909.55 80.88 827.38 24.6"/><polygon class="cls-35" points="911.34 201 904.78 201 915.18 191.2 911.34 201"/><polygon class="cls-48" points="934.78 201 911.34 201 915.18 191.2 934.78 201"/><polygon class="cls-49" points="909.55 80.89 900.99 1 920.47 1 973.71 38.11 909.55 80.89"/><polygon class="cls-50" points="920.47 1 964.76 1 973.71 38.11 920.47 1"/><polygon class="cls-51" points="986.1 167.57 915.18 191.21 919.68 132.67 986.1 167.57"/><polygon class="cls-52" points="919.68 132.67 973.71 38.11 1011.99 137.17 919.68 132.67"/><polygon class="cls-53" points="909.55 80.89 973.71 38.11 919.68 132.67 909.55 80.89"/><polygon class="cls-50" points="986.1 167.56 971.32 201 934.78 201 915.18 191.2 986.1 167.56"/><polygon class="cls-54" points="1011.99 137.17 986.1 167.57 919.68 132.67 1011.99 137.17"/><polygon class="cls-52" points="973.71 38.11 1060.39 68.51 1011.99 137.17 973.71 38.11"/><polygon class="cls-55" points="964.76 1 1000.51 1 973.71 38.11 964.76 1"/><polygon class="cls-56" points="999.37 201 971.32 201 986.1 167.56 999.37 201"/><polygon class="cls-57" points="973.71 38.11 1000.51 1 1028.72 1 1060.39 68.5 973.71 38.11"/><polygon class="cls-58" points="1091.91 163.06 986.1 167.57 1011.99 137.17 1091.91 163.06"/><polygon class="cls-57" points="1091.91 163.06 1056.6 201 999.37 201 986.1 167.56 1091.91 163.06"/><polygon class="cls-59" points="1108.8 193.45 1095.04 201 1056.6 201 1091.91 163.06 1108.8 193.45"/><polygon class="cls-60" points="1028.72 1 1117.77 1 1060.39 68.5 1028.72 1"/><polygon class="cls-61" points="1011.99 137.17 1060.39 68.51 1091.91 163.06 1011.99 137.17"/><polygon class="cls-62" points="1108.48 201 1095.04 201 1108.8 193.45 1108.48 201"/><polygon class="cls-63" points="1060.39 68.51 1116.68 78.64 1091.91 163.06 1060.39 68.51"/><polygon class="cls-64" points="1060.39 68.5 1117.77 1 1132.38 1 1116.68 78.63 1060.39 68.5"/><polygon class="cls-65" points="1108.8 193.46 1091.91 163.06 1190.97 109.03 1108.8 193.46"/><polygon class="cls-63" points="1091.91 163.06 1116.68 78.64 1190.97 109.03 1091.91 163.06"/><polygon class="cls-66" points="1116.68 78.63 1132.38 1 1158.08 1 1204.48 50.49 1116.68 78.63"/><polygon class="cls-62" points="1136.65 201 1108.48 201 1108.8 193.45 1136.65 201"/><polygon class="cls-64" points="1190.97 109.03 1221.04 201 1136.65 201 1108.8 193.45 1190.97 109.03"/><polygon class="cls-67" points="1116.68 78.64 1204.48 50.49 1190.97 109.03 1116.68 78.64"/><polygon class="cls-59" points="1158.08 1 1220.27 1 1204.48 50.49 1158.08 1"/><polygon class="cls-68" points="1273.15 154.06 1244.54 201 1221.04 201 1190.97 109.03 1273.15 154.06"/><polygon class="cls-69" points="1204.48 50.49 1264.14 30.23 1190.97 109.03 1204.48 50.49"/><polygon class="cls-70" points="1190.97 109.03 1264.14 30.23 1273.15 154.06 1190.97 109.03"/><polygon class="cls-59" points="1204.48 50.49 1220.27 1 1225.84 1 1264.14 30.23 1204.48 50.49"/><polygon class="cls-64" points="1283.08 201 1244.54 201 1273.15 154.05 1283.08 201"/><polygon class="cls-57" points="1225.84 1 1268.32 1 1264.14 30.23 1225.84 1"/><polygon class="cls-67" points="1264.14 30.23 1359.82 68.51 1273.15 154.06 1264.14 30.23"/><polygon class="cls-71" points="1273.15 154.06 1359.82 68.51 1371.08 159.69 1273.15 154.06"/><polygon class="cls-60" points="1264.14 30.23 1268.32 1 1271.64 1 1359.82 68.5 1264.14 30.23"/><polygon class="cls-57" points="1271.64 1 1368.71 1 1359.82 68.5 1271.64 1"/><polygon class="cls-66" points="1371.08 159.68 1304.27 201 1283.08 201 1273.15 154.05 1371.08 159.68"/><polygon class="cls-59" points="1395.85 179.95 1324.69 201 1304.27 201 1371.08 159.68 1395.85 179.95"/><polygon class="cls-49" points="1395.6 201 1324.69 201 1395.85 179.94 1395.6 201"/><polygon class="cls-72" points="1359.82 68.5 1368.71 1 1419.07 1 1420.61 3.21 1359.82 68.5"/><polygon class="cls-56" points="1407.03 201 1395.6 201 1395.85 179.94 1407.03 201"/><polygon class="cls-67" points="1423.99 142.8 1371.08 159.69 1417.23 91.02 1423.99 142.8"/><polygon class="cls-70" points="1371.08 159.69 1359.82 68.51 1417.23 91.02 1371.08 159.69"/><polygon class="cls-73" points="1359.82 68.51 1420.61 3.22 1417.23 91.02 1359.82 68.51"/><polygon class="cls-74" points="1395.85 179.95 1371.08 159.69 1423.99 142.8 1395.85 179.95"/><polygon class="cls-75" points="1419.07 1 1442.72 1 1420.61 3.21 1419.07 1"/><polygon class="cls-64" points="1423.99 142.8 1458.53 201 1424.53 201 1395.85 179.94 1423.99 142.8"/><polygon class="cls-76" points="1424.53 201 1407.03 201 1395.85 179.94 1424.53 201"/><polygon class="cls-73" points="1417.23 91.02 1420.61 3.22 1499.41 97.77 1417.23 91.02"/><polygon class="cls-77" points="1420.61 3.22 1534.31 73.01 1499.41 97.77 1420.61 3.22"/><polygon class="cls-78" points="1420.61 3.21 1442.72 1 1533.31 1 1534.31 73 1420.61 3.21"/><polygon class="cls-69" points="1499.41 97.77 1423.99 142.8 1417.23 91.02 1499.41 97.77"/><polygon class="cls-59" points="1564.7 151.8 1522.61 201 1489.16 201 1499.41 97.77 1564.7 151.8"/><polygon class="cls-79" points="1499.41 97.77 1489.16 201 1458.53 201 1423.99 142.8 1499.41 97.77"/><polygon class="cls-50" points="1560.16 201 1522.61 201 1564.7 151.8 1560.16 201"/><polygon class="cls-80" points="1534.31 73.01 1533.31 1 1545.58 1 1574.83 22.35 1534.31 73.01"/><polygon class="cls-81" points="1534.31 73.01 1564.7 151.81 1499.41 97.77 1534.31 73.01"/><polygon class="cls-77" points="1574.83 22.35 1564.7 151.81 1534.31 73.01 1574.83 22.35"/><polygon class="cls-62" points="1545.58 1 1595.57 1 1574.83 22.35 1545.58 1"/><polygon class="cls-78" points="1564.7 151.81 1574.83 22.35 1595.57 1 1601 1 1601 25.18 1564.7 151.81"/><polygon class="cls-47" points="1578.02 201 1560.16 201 1564.7 151.8 1578.02 201"/><polygon class="cls-82" points="1601 25.18 1601 201 1578.02 201 1564.7 151.8 1601 25.18"/></svg>