<svg id="Layer_1" data-name="Layer 1" xmlns="http://www.w3.org/2000/svg" viewBox="0 0 1602 202.06"><defs><style>.cls-1,.cls-17{fill:#a8a8a8;stroke:#a8a8a8;}.cls-1,.cls-10,.cls-11,.cls-13,.cls-14,.cls-15,.cls-18,.cls-19,.cls-2,.cls-25,.cls-27,.cls-29,.cls-3,.cls-30,.cls-32,.cls-33,.cls-35,.cls-36,.cls-37,.cls-39,.cls-4,.cls-40,.cls-42,.cls-43,.cls-44,.cls-45,.cls-5,.cls-50,.cls-52,.cls-54,.cls-55,.cls-56,.cls-57,.cls-58,.cls-6,.cls-63,.cls-64,.cls-65,.cls-67,.cls-68,.cls-7,.cls-70,.cls-72,.cls-74,.cls-75,.cls-77,.cls-8,.cls-81,.cls-85,.cls-86,.cls-88,.cls-89,.cls-9,.cls-90,.cls-93{stroke-width:2px;}.cls-2{fill:#bababa;stroke:#bababa;}.cls-3{fill:#b5b5b5;stroke:#b5b5b5;}.cls-4{fill:#acacac;stroke:#acacac;}.cls-5{fill:#b2b2b2;stroke:#b2b2b2;}.cls-6{fill:#a1a1a1;stroke:#a1a1a1;}.cls-28,.cls-7{fill:#ababab;stroke:#ababab;}.cls-8{fill:#b3b3b3;stroke:#b3b3b3;}.cls-26,.cls-9{fill:#b0b0b0;stroke:#b0b0b0;}.cls-10{fill:#aeaeae;stroke:#aeaeae;}.cls-11,.cls-20{fill:#a2a2a2;stroke:#a2a2a2;}.cls-12,.cls-37{fill:#a7a7a7;stroke:#a7a7a7;}.cls-12,.cls-16,.cls-17,.cls-20,.cls-21,.cls-22,.cls-23,.cls-24,.cls-26,.cls-28,.cls-31,.cls-34,.cls-38,.cls-41,.cls-46,.cls-47,.cls-48,.cls-49,.cls-51,.cls-53,.cls-59,.cls-60,.cls-61,.cls-62,.cls-66,.cls-69,.cls-71,.cls-73,.cls-76,.cls-78,.cls-79,.cls-80,.cls-82,.cls-83,.cls-84,.cls-87,.cls-91,.cls-92{stroke-width:1.51px;}.cls-13{fill:#afafaf;stroke:#afafaf;}.cls-14{fill:#c4c4c4;stroke:#c4c4c4;}.cls-15{fill:#b6b6b6;stroke:#b6b6b6;}.cls-16,.cls-36{fill:#a4a4a4;stroke:#a4a4a4;}.cls-18{fill:#b4b4b4;stroke:#b4b4b4;}.cls-19{fill:#c1c1c1;stroke:#c1c1c1;}.cls-21{fill:#a6a6a6;stroke:#a6a6a6;}.cls-22{fill:#a5a5a5;stroke:#a5a5a5;}.cls-23{fill:#adadad;stroke:#adadad;}.cls-24,.cls-30{fill:#a3a3a3;stroke:#a3a3a3;}.cls-25{fill:#bfbfbf;stroke:#bfbfbf;}.cls-27{fill:#b8b8b8;stroke:#b8b8b8;}.cls-29{fill:#b7b7b7;stroke:#b7b7b7;}.cls-31,.cls-32{fill:#aaa;stroke:#aaa;}.cls-33{fill:#b1b1b1;stroke:#b1b1b1;}.cls-34{fill:#9e9e9e;stroke:#9e9e9e;}.cls-35{fill:#9f9f9f;stroke:#9f9f9f;}.cls-38,.cls-39{fill:#939393;stroke:#939393;}.cls-40{fill:#979797;stroke:#979797;}.cls-41,.cls-56{fill:#898989;stroke:#898989;}.cls-42{fill:#949494;stroke:#949494;}.cls-43{fill:#9d9d9d;stroke:#9d9d9d;}.cls-44{fill:#909090;stroke:#909090;}.cls-45{fill:#8a8a8a;stroke:#8a8a8a;}.cls-46{fill:#848484;stroke:#848484;}.cls-47{fill:#7f7f7f;stroke:#7f7f7f;}.cls-48{fill:#7c7c7c;stroke:#7c7c7c;}.cls-49{fill:#7b7b7b;stroke:#7b7b7b;}.cls-50{fill:#8d8d8d;stroke:#8d8d8d;}.cls-51,.cls-63{fill:#6d6d6d;stroke:#6d6d6d;}.cls-52{fill:#868686;stroke:#868686;}.cls-53,.cls-58{fill:#737373;stroke:#737373;}.cls-54{fill:#7d7d7d;stroke:#7d7d7d;}.cls-55{fill:#959595;stroke:#959595;}.cls-57{fill:#717171;stroke:#717171;}.cls-59,.cls-90{fill:#6b6b6b;stroke:#6b6b6b;}.cls-60,.cls-68{fill:#5e5e5e;stroke:#5e5e5e;}.cls-61{fill:#6a6a6a;stroke:#6a6a6a;}.cls-62,.cls-89{fill:#5d5d5d;stroke:#5d5d5d;}.cls-64{fill:#797979;stroke:#797979;}.cls-65,.cls-87{fill:#646464;stroke:#646464;}.cls-66{fill:#565656;stroke:#565656;}.cls-67,.cls-83{fill:#616161;stroke:#616161;}.cls-69{fill:#535353;stroke:#535353;}.cls-70{fill:#6f6f6f;stroke:#6f6f6f;}.cls-71{fill:#525252;stroke:#525252;}.cls-72,.cls-84{fill:#5a5a5a;stroke:#5a5a5a;}.cls-73{fill:#515151;stroke:#515151;}.cls-74,.cls-78{fill:#5c5c5c;stroke:#5c5c5c;}.cls-75{fill:#5b5b5b;stroke:#5b5b5b;}.cls-76,.cls-77{fill:#585858;stroke:#585858;}.cls-79{fill:#595959;stroke:#595959;}.cls-80{fill:#555;stroke:#555;}.cls-81{fill:#666;stroke:#666;}.cls-82{fill:#575757;stroke:#575757;}.cls-85{fill:#6c6c6c;stroke:#6c6c6c;}.cls-86{fill:#767676;stroke:#767676;}.cls-88{fill:#696969;stroke:#696969;}.cls-91{fill:#606060;stroke:#606060;}.cls-92{fill:#656565;stroke:#656565;}.cls-93{fill:#5f5f5f;stroke:#5f5f5f;}</style></defs><title>sinatra</title><polygon class="cls-1" points="117.07 98.9 1 141.39 1 129.96 59.66 41.49 117.07 98.9"/><polygon class="cls-2" points="1 201 1 165.76 18.04 201 1 201"/><polygon class="cls-3" points="1 3.31 1 1 93.91 1 51.78 22.35 1 3.31"/><polygon class="cls-4" points="1 129.96 1 6.11 59.66 41.49 1 129.96"/><polygon class="cls-5" points="59.66 41.49 1 6.11 1 3.31 51.78 22.35 59.66 41.49"/><polygon class="cls-6" points="33.16 201 18.04 201 1 165.76 1 141.39 117.07 98.9 33.16 201"/><polygon class="cls-7" points="122.9 201 33.16 201 117.07 98.89 122.9 201"/><polygon class="cls-8" points="51.78 22.35 93.91 1 109.71 1 59.66 41.48 51.78 22.35"/><polygon class="cls-9" points="59.66 41.49 109.71 1 132.77 1 117.07 98.89 59.66 41.49"/><polygon class="cls-7" points="160.83 201 122.9 201 117.07 98.89 160.83 201"/><polygon class="cls-10" points="117.07 98.9 132.77 1 148.62 1 193.61 78.63 117.07 98.9"/><polygon class="cls-11" points="200.37 141.67 168.73 201 160.83 201 117.07 98.89 200.37 141.67"/><polygon class="cls-12" points="117.07 98.9 193.61 78.64 200.37 141.68 117.07 98.9"/><polygon class="cls-3" points="148.62 1 197.93 1 193.61 78.63 148.62 1"/><polygon class="cls-13" points="268.34 201 262.11 201 266.78 192.33 268.34 201"/><polygon class="cls-9" points="193.61 78.63 197.93 1 222.92 1 265.66 84.26 193.61 78.63"/><polygon class="cls-1" points="233.01 156.31 175 201 168.73 201 200.37 141.67 233.01 156.31"/><polygon class="cls-14" points="262.11 201 214.16 201 266.78 192.33 262.11 201"/><polygon class="cls-13" points="266.78 192.33 214.16 201 175 201 233.01 156.31 266.78 192.33"/><polygon class="cls-15" points="222.92 1 276.91 1 265.66 84.26 222.92 1"/><polygon class="cls-16" points="200.37 141.68 265.66 84.27 233.01 156.31 200.37 141.68"/><polygon class="cls-17" points="193.61 78.64 265.66 84.27 200.37 141.68 193.61 78.64"/><polygon class="cls-18" points="265.66 84.26 276.91 1 323.45 1 341.08 18.97 265.66 84.26"/><polygon class="cls-19" points="307.31 200.21 307.17 201 268.34 201 266.78 192.33 307.31 200.21"/><polygon class="cls-20" points="233.01 156.31 265.66 84.27 266.78 192.33 233.01 156.31"/><polygon class="cls-21" points="266.78 192.33 265.66 84.27 307.31 200.21 266.78 192.33"/><polygon class="cls-22" points="307.31 200.21 265.66 84.27 359.09 103.4 307.31 200.21"/><polygon class="cls-13" points="308.01 201 307.17 201 307.31 200.21 308.01 201"/><polygon class="cls-23" points="265.66 84.27 341.08 18.98 359.09 103.4 265.66 84.27"/><polygon class="cls-24" points="379.35 130.42 307.31 200.21 359.09 103.4 379.35 130.42"/><polygon class="cls-2" points="323.45 1 340.43 1 341.08 18.97 323.45 1"/><polygon class="cls-25" points="312.5 201 308.01 201 307.31 200.21 312.5 201"/><polygon class="cls-13" points="379.35 130.42 410.52 201 312.5 201 307.31 200.21 379.35 130.42"/><polygon class="cls-26" points="341.08 18.98 416.5 24.6 359.09 103.4 341.08 18.98"/><polygon class="cls-27" points="340.43 1 388.25 1 341.08 18.97 340.43 1"/><polygon class="cls-3" points="341.08 18.97 388.25 1 388.41 1 416.5 24.6 341.08 18.97"/><polygon class="cls-28" points="359.09 103.4 416.5 24.6 379.35 130.42 359.09 103.4"/><polygon class="cls-23" points="416.5 24.6 498.68 61.75 379.35 130.42 416.5 24.6"/><polygon class="cls-29" points="388.41 1 510.89 1 416.5 24.6 388.41 1"/><polygon class="cls-30" points="518.94 105.65 432.25 201 410.52 201 379.35 130.41 518.94 105.65"/><polygon class="cls-31" points="379.35 130.42 498.68 61.75 518.94 105.65 379.35 130.42"/><polygon class="cls-32" points="533.57 179.95 467.85 201 432.25 201 518.94 105.65 533.57 179.95"/><polygon class="cls-2" points="528.31 201 467.85 201 533.57 179.94 528.31 201"/><polygon class="cls-18" points="416.5 24.6 510.89 1 511.05 1 498.68 61.75 416.5 24.6"/><polygon class="cls-22" points="533.57 179.95 518.94 105.65 545.95 129.29 533.57 179.95"/><polygon class="cls-4" points="595.04 1 646.09 1 613.5 9.96 595.04 1"/><polygon class="cls-10" points="593.23 88.77 511.1 1 511.52 1 613.5 9.97 593.23 88.77"/><polygon class="cls-33" points="498.68 61.75 511.05 1 511.1 1 593.23 88.76 498.68 61.75"/><polygon class="cls-28" points="498.68 61.75 593.23 88.77 518.94 105.65 498.68 61.75"/><polygon class="cls-15" points="511.52 1 595.04 1 613.5 9.96 511.52 1"/><polygon class="cls-27" points="566.28 201 528.31 201 533.57 179.94 566.28 201"/><polygon class="cls-21" points="518.94 105.65 593.23 88.77 545.95 129.29 518.94 105.65"/><polygon class="cls-32" points="545.95 129.29 594.28 201 566.28 201 533.57 179.94 545.95 129.29"/><polygon class="cls-34" points="545.95 129.29 593.23 88.77 667.53 143.93 545.95 129.29"/><polygon class="cls-35" points="667.53 143.92 634.29 201 594.28 201 545.95 129.29 667.53 143.92"/><polygon class="cls-21" points="613.5 9.97 645.01 27.98 593.23 88.77 613.5 9.97"/><polygon class="cls-36" points="613.5 9.97 646.09 1 695.66 1 645.01 27.98 613.5 9.97"/><polygon class="cls-34" points="593.23 88.77 645.01 27.98 667.53 143.93 593.23 88.77"/><polygon class="cls-37" points="689.01 201 634.29 201 667.53 143.92 689.01 201"/><polygon class="cls-38" points="645.01 27.98 742.95 73.01 667.53 143.93 645.01 27.98"/><polygon class="cls-39" points="726.06 152.93 716.45 201 689.01 201 667.53 143.92 726.06 152.93"/><polygon class="cls-40" points="645.01 27.98 695.66 1 746.99 1 742.95 73 645.01 27.98"/><polygon class="cls-41" points="667.53 143.93 742.95 73.01 726.06 152.93 667.53 143.93"/><polygon class="cls-42" points="794.73 196.83 787.66 201 716.45 201 726.06 152.93 794.73 196.83"/><polygon class="cls-43" points="797.26 201 787.66 201 794.73 196.83 797.26 201"/><polygon class="cls-44" points="746.99 1 798.12 1 742.95 73 746.99 1"/><polygon class="cls-45" points="742.95 73.01 798.12 1 816.27 1 827.38 24.6 742.95 73.01"/><polygon class="cls-46" points="726.06 152.93 742.95 73.01 812.74 119.16 726.06 152.93"/><polygon class="cls-47" points="794.73 196.83 726.06 152.93 812.74 119.16 794.73 196.83"/><polygon class="cls-46" points="742.95 73.01 827.38 24.6 812.74 119.16 742.95 73.01"/><polygon class="cls-48" points="827.38 24.6 909.55 80.89 812.74 119.16 827.38 24.6"/><polygon class="cls-49" points="915.18 191.21 794.73 196.83 812.74 119.16 915.18 191.21"/><polygon class="cls-50" points="915.18 191.2 904.78 201 797.26 201 794.73 196.83 915.18 191.2"/><polygon class="cls-51" points="919.68 132.67 915.18 191.21 812.74 119.16 919.68 132.67"/><polygon class="cls-52" points="816.27 1 871.8 1 827.38 24.6 816.27 1"/><polygon class="cls-53" points="812.74 119.16 909.55 80.89 919.68 132.67 812.74 119.16"/><polygon class="cls-54" points="827.38 24.6 871.8 1 900.99 1 909.55 80.88 827.38 24.6"/><polygon class="cls-55" points="911.34 201 904.78 201 915.18 191.2 911.34 201"/><polygon class="cls-56" points="934.78 201 911.34 201 915.18 191.2 934.78 201"/><polygon class="cls-57" points="909.55 80.89 900.99 1 920.47 1 973.71 38.11 909.55 80.89"/><polygon class="cls-58" points="920.47 1 964.76 1 973.71 38.11 920.47 1"/><polygon class="cls-59" points="986.1 167.57 915.18 191.21 919.68 132.67 986.1 167.57"/><polygon class="cls-60" points="919.68 132.67 973.71 38.11 1011.99 137.17 919.68 132.67"/><polygon class="cls-61" points="909.55 80.89 973.71 38.11 919.68 132.67 909.55 80.89"/><polygon class="cls-58" points="986.1 167.56 971.32 201 934.78 201 915.18 191.2 986.1 167.56"/><polygon class="cls-62" points="1011.99 137.17 986.1 167.57 919.68 132.67 1011.99 137.17"/><polygon class="cls-60" points="973.71 38.11 1060.39 68.51 1011.99 137.17 973.71 38.11"/><polygon class="cls-63" points="964.76 1 1000.51 1 973.71 38.11 964.76 1"/><polygon class="cls-64" points="999.37 201 971.32 201 986.1 167.56 999.37 201"/><polygon class="cls-65" points="973.71 38.11 1000.51 1 1028.72 1 1060.39 68.5 973.71 38.11"/><polygon class="cls-66" points="1091.91 163.06 986.1 167.57 1011.99 137.17 1091.91 163.06"/><polygon class="cls-65" points="1091.91 163.06 1056.6 201 999.37 201 986.1 167.56 1091.91 163.06"/><polygon class="cls-67" points="1108.8 193.45 1095.04 201 1056.6 201 1091.91 163.06 1108.8 193.45"/><polygon class="cls-68" points="1028.72 1 1117.77 1 1060.39 68.5 1028.72 1"/><polygon class="cls-69" points="1011.99 137.17 1060.39 68.51 1091.91 163.06 1011.99 137.17"/><polygon class="cls-70" points="1108.48 201 1095.04 201 1108.8 193.45 1108.48 201"/><polygon class="cls-71" points="1060.39 68.51 1116.68 78.64 1091.91 163.06 1060.39 68.51"/><polygon class="cls-72" points="1060.39 68.5 1117.77 1 1132.38 1 1116.68 78.63 1060.39 68.5"/><polygon class="cls-73" points="1108.8 193.46 1091.91 163.06 1190.97 109.03 1108.8 193.46"/><polygon class="cls-71" points="1091.91 163.06 1116.68 78.64 1190.97 109.03 1091.91 163.06"/><polygon class="cls-74" points="1116.68 78.63 1132.38 1 1158.08 1 1204.48 50.49 1116.68 78.63"/><polygon class="cls-70" points="1136.65 201 1108.48 201 1108.8 193.45 1136.65 201"/><polygon class="cls-75" points="1190.97 109.03 1221.04 201 1136.65 201 1108.8 193.45 1190.97 109.03"/><polygon class="cls-76" points="1116.68 78.64 1204.48 50.49 1190.97 109.03 1116.68 78.64"/><polygon class="cls-67" points="1158.08 1 1220.27 1 1204.48 50.49 1158.08 1"/><polygon class="cls-77" points="1273.15 154.06 1244.54 201 1221.04 201 1190.97 109.03 1273.15 154.06"/><polygon class="cls-78" points="1204.48 50.49 1264.14 30.23 1190.97 109.03 1204.48 50.49"/><polygon class="cls-79" points="1190.97 109.03 1264.14 30.23 1273.15 154.06 1190.97 109.03"/><polygon class="cls-67" points="1204.48 50.49 1220.27 1 1225.84 1 1264.14 30.23 1204.48 50.49"/><polygon class="cls-72" points="1283.08 201 1244.54 201 1273.15 154.05 1283.08 201"/><polygon class="cls-65" points="1225.84 1 1268.32 1 1264.14 30.23 1225.84 1"/><polygon class="cls-76" points="1264.14 30.23 1359.82 68.51 1273.15 154.06 1264.14 30.23"/><polygon class="cls-80" points="1273.15 154.06 1359.82 68.51 1371.08 159.69 1273.15 154.06"/><polygon class="cls-68" points="1264.14 30.23 1268.32 1 1271.64 1 1359.82 68.5 1264.14 30.23"/><polygon class="cls-65" points="1271.64 1 1368.71 1 1359.82 68.5 1271.64 1"/><polygon class="cls-74" points="1371.08 159.68 1304.27 201 1283.08 201 1273.15 154.05 1371.08 159.68"/><polygon class="cls-67" points="1395.85 179.95 1324.69 201 1304.27 201 1371.08 159.68 1395.85 179.95"/><polygon class="cls-57" points="1395.6 201 1324.69 201 1395.85 179.94 1395.6 201"/><polygon class="cls-81" points="1359.82 68.5 1368.71 1 1419.07 1 1420.61 3.21 1359.82 68.5"/><polygon class="cls-64" points="1407.03 201 1395.6 201 1395.85 179.94 1407.03 201"/><polygon class="cls-82" points="1423.99 142.8 1371.08 159.69 1417.23 91.02 1423.99 142.8"/><polygon class="cls-79" points="1371.08 159.69 1359.82 68.51 1417.23 91.02 1371.08 159.69"/><polygon class="cls-83" points="1359.82 68.51 1420.61 3.22 1417.23 91.02 1359.82 68.51"/><polygon class="cls-84" points="1395.85 179.95 1371.08 159.69 1423.99 142.8 1395.85 179.95"/><polygon class="cls-85" points="1419.07 1 1442.72 1 1420.61 3.21 1419.07 1"/><polygon class="cls-75" points="1423.99 142.8 1458.53 201 1424.53 201 1395.85 179.94 1423.99 142.8"/><polygon class="cls-86" points="1424.53 201 1407.03 201 1395.85 179.94 1424.53 201"/><polygon class="cls-83" points="1417.23 91.02 1420.61 3.22 1499.41 97.77 1417.23 91.02"/><polygon class="cls-87" points="1420.61 3.22 1534.31 73.01 1499.41 97.77 1420.61 3.22"/><polygon class="cls-88" points="1420.61 3.21 1442.72 1 1533.31 1 1534.31 73 1420.61 3.21"/><polygon class="cls-78" points="1499.41 97.77 1423.99 142.8 1417.23 91.02 1499.41 97.77"/><polygon class="cls-67" points="1564.7 151.8 1522.61 201 1489.16 201 1499.41 97.77 1564.7 151.8"/><polygon class="cls-89" points="1499.41 97.77 1489.16 201 1458.53 201 1423.99 142.8 1499.41 97.77"/><polygon class="cls-58" points="1560.16 201 1522.61 201 1564.7 151.8 1560.16 201"/><polygon class="cls-90" points="1534.31 73.01 1533.31 1 1545.58 1 1574.83 22.35 1534.31 73.01"/><polygon class="cls-91" points="1534.31 73.01 1564.7 151.81 1499.41 97.77 1534.31 73.01"/><polygon class="cls-92" points="1574.83 22.35 1564.7 151.81 1534.31 73.01 1574.83 22.35"/><polygon class="cls-70" points="1545.58 1 1595.57 1 1574.83 22.35 1545.58 1"/><polygon class="cls-88" points="1564.7 151.81 1574.83 22.35 1595.57 1 1601 1 1601 25.18 1564.7 151.81"/><polygon class="cls-54" points="1578.02 201 1560.16 201 1564.7 151.8 1578.02 201"/><polygon class="cls-93" points="1601 25.18 1601 201 1578.02 201 1564.7 151.8 1601 25.18"/></svg>