<svg id="Layer_1" data-name="Layer 1" xmlns="http://www.w3.org/2000/svg" width="1602" height="202.07" viewBox="0 0 1602 202.07"><defs><style>.cls-1{fill:#cf8468;stroke:#cf8468;}.cls-1,.cls-10,.cls-100,.cls-102,.cls-103,.cls-106,.cls-107,.cls-11,.cls-110,.cls-111,.cls-112,.cls-113,.cls-114,.cls-115,.cls-116,.cls-12,.cls-120,.cls-121,.cls-122,.cls-124,.cls-126,.cls-127,.cls-128,.cls-129,.cls-132,.cls-133,.cls-14,.cls-15,.cls-16,.cls-17,.cls-18,.cls-19,.cls-2,.cls-22,.cls-23,.cls-29,.cls-3,.cls-30,.cls-31,.cls-33,.cls-34,.cls-37,.cls-38,.cls-4,.cls-40,.cls-41,.cls-42,.cls-44,.cls-45,.cls-46,.cls-48,.cls-49,.cls-5,.cls-51,.cls-53,.cls-55,.cls-57,.cls-59,.cls-6,.cls-60,.cls-62,.cls-63,.cls-64,.cls-65,.cls-7,.cls-71,.cls-73,.cls-75,.cls-76,.cls-77,.cls-78,.cls-79,.cls-8,.cls-83,.cls-86,.cls-87,.cls-88,.cls-9,.cls-90,.cls-91,.cls-92,.cls-95,.cls-98,.cls-99{stroke-width:2px;}.cls-2{fill:#e19d84;stroke:#e19d84;}.cls-3{fill:#dc8c6a;stroke:#dc8c6a;}.cls-4{fill:#d38567;stroke:#d38567;}.cls-5{fill:#d98869;stroke:#d98869;}.cls-6{fill:#c88067;stroke:#c88067;}.cls-7{fill:#d28d74;stroke:#d28d74;}.cls-8{fill:#da8b6a;stroke:#da8b6a;}.cls-9{fill:#d78a6a;stroke:#d78a6a;}.cls-10{fill:#d28f74;stroke:#d28f74;}.cls-11{fill:#d58b6c;stroke:#d58b6c;}.cls-12{fill:#c9846b;stroke:#c9846b;}.cls-13{fill:#ce896c;stroke:#ce896c;}.cls-101,.cls-104,.cls-105,.cls-108,.cls-109,.cls-117,.cls-118,.cls-119,.cls-123,.cls-125,.cls-13,.cls-130,.cls-131,.cls-20,.cls-21,.cls-24,.cls-25,.cls-26,.cls-27,.cls-28,.cls-32,.cls-35,.cls-36,.cls-39,.cls-43,.cls-47,.cls-50,.cls-52,.cls-54,.cls-56,.cls-58,.cls-61,.cls-66,.cls-67,.cls-68,.cls-69,.cls-70,.cls-72,.cls-74,.cls-80,.cls-81,.cls-82,.cls-84,.cls-85,.cls-89,.cls-93,.cls-94,.cls-96,.cls-97{stroke-width:1.51px;}.cls-14{fill:#dc8f6e;stroke:#dc8f6e;}.cls-15{fill:#d6987e;stroke:#d6987e;}.cls-16{fill:#d78f6e;stroke:#d78f6e;}.cls-17{fill:#cf8e75;stroke:#cf8e75;}.cls-18{fill:#ebb099;stroke:#ebb099;}.cls-19{fill:#dd9271;stroke:#dd9271;}.cls-20{fill:#cb876c;stroke:#cb876c;}.cls-21{fill:#cf8b6e;stroke:#cf8b6e;}.cls-22{fill:#db9473;stroke:#db9473;}.cls-23{fill:#e8ae98;stroke:#e8ae98;}.cls-24{fill:#c9886e;stroke:#c9886e;}.cls-25{fill:#cd8f74;stroke:#cd8f74;}.cls-26{fill:#cc8c70;stroke:#cc8c70;}.cls-27{fill:#d49071;stroke:#d49071;}.cls-28{fill:#ca8c72;stroke:#ca8c72;}.cls-29{fill:#e19775;stroke:#e19775;}.cls-30{fill:#e6b297;stroke:#e6b297;}.cls-31{fill:#d69982;stroke:#d69982;}.cls-32{fill:#d79375;stroke:#d79375;}.cls-33{fill:#df9776;stroke:#df9776;}.cls-34{fill:#dc9775;stroke:#dc9775;}.cls-35{fill:#d29174;stroke:#d29174;}.cls-36{fill:#d49475;stroke:#d49475;}.cls-37{fill:#de9978;stroke:#de9978;}.cls-38{fill:#ca9076;stroke:#ca9076;}.cls-39{fill:#d19477;stroke:#d19477;}.cls-40{fill:#d19980;stroke:#d19980;}.cls-41{fill:#e1af94;stroke:#e1af94;}.cls-42{fill:#db9978;stroke:#db9978;}.cls-43{fill:#cc9378;stroke:#cc9378;}.cls-44{fill:#d38c6a;stroke:#d38c6a;}.cls-45{fill:#d59474;stroke:#d59474;}.cls-46{fill:#d89779;stroke:#d89779;}.cls-47{fill:#d29578;stroke:#d29578;}.cls-48{fill:#dd9978;stroke:#dd9978;}.cls-49{fill:#dfae94;stroke:#dfae94;}.cls-50{fill:#cd9275;stroke:#cd9275;}.cls-51{fill:#d19a82;stroke:#d19a82;}.cls-52{fill:#c5876c;stroke:#c5876c;}.cls-53{fill:#c68b74;stroke:#c68b74;}.cls-54{fill:#cd8c6c;stroke:#cd8c6c;}.cls-55{fill:#cb8563;stroke:#cb8563;}.cls-56{fill:#c58566;stroke:#c58566;}.cls-57{fill:#ce967c;stroke:#ce967c;}.cls-58{fill:#be7d5e;stroke:#be7d5e;}.cls-59{fill:#be8469;stroke:#be8469;}.cls-60{fill:#c27d5b;stroke:#c27d5b;}.cls-61{fill:#b47458;stroke:#b47458;}.cls-62{fill:#bf8269;stroke:#bf8269;}.cls-63{fill:#c89075;stroke:#c89075;}.cls-64{fill:#bb7552;stroke:#bb7552;}.cls-65{fill:#b5704e;stroke:#b5704e;}.cls-66{fill:#af6e50;stroke:#af6e50;}.cls-67{fill:#aa6d51;stroke:#aa6d51;}.cls-68{fill:#af6a4c;stroke:#af6a4c;}.cls-69{fill:#a76143;stroke:#a76143;}.cls-70{fill:#a6684c;stroke:#a6684c;}.cls-71{fill:#b87a5f;stroke:#b87a5f;}.cls-72{fill:#98573b;stroke:#98573b;}.cls-73{fill:#b16744;stroke:#b16744;}.cls-74{fill:#9e593d;stroke:#9e593d;}.cls-75{fill:#a85f3f;stroke:#a85f3f;}.cls-76{fill:#c0876b;stroke:#c0876b;}.cls-77{fill:#b4785d;stroke:#b4785d;}.cls-78{fill:#a05535;stroke:#a05535;}.cls-79{fill:#a25434;stroke:#a25434;}.cls-80{fill:#965237;stroke:#965237;}.cls-81{fill:#914a2d;stroke:#914a2d;}.cls-82{fill:#995034;stroke:#995034;}.cls-83{fill:#9e5d42;stroke:#9e5d42;}.cls-84{fill:#8c452c;stroke:#8c452c;}.cls-85{fill:#8d3f26;stroke:#8d3f26;}.cls-86{fill:#9c4b2d;stroke:#9c4b2d;}.cls-87{fill:#a06044;stroke:#a06044;}.cls-88{fill:#934227;stroke:#934227;}.cls-89{fill:#853c25;stroke:#853c25;}.cls-90{fill:#935034;stroke:#935034;}.cls-91{fill:#904d32;stroke:#904d32;}.cls-92{fill:#8d321b;stroke:#8d321b;}.cls-93{fill:#82311c;stroke:#82311c;}.cls-94{fill:#812a16;stroke:#812a16;}.cls-109,.cls-95{fill:#892c16;stroke:#892c16;}.cls-96{fill:#802d19;stroke:#802d19;}.cls-97{fill:#812b16;stroke:#812b16;}.cls-104,.cls-98{fill:#8b2f18;stroke:#8b2f18;}.cls-99{fill:#9e5a3f;stroke:#9e5a3f;}.cls-100{fill:#8a3d26;stroke:#8a3d26;}.cls-101{fill:#872c17;stroke:#872c17;}.cls-102,.cls-125{fill:#902f18;stroke:#902f18;}.cls-103{fill:#87351f;stroke:#87351f;}.cls-105{fill:#882e18;stroke:#882e18;}.cls-106{fill:#964c31;stroke:#964c31;}.cls-107{fill:#933019;stroke:#933019;}.cls-108{fill:#8c2d18;stroke:#8c2d18;}.cls-110{fill:#922f17;stroke:#922f17;}.cls-111,.cls-123{fill:#983119;stroke:#983119;}.cls-112{fill:#904027;stroke:#904027;}.cls-113{fill:#95472b;stroke:#95472b;}.cls-114{fill:#a55b3c;stroke:#a55b3c;}.cls-115{fill:#9a331a;stroke:#9a331a;}.cls-116{fill:#ad6542;stroke:#ad6542;}.cls-117{fill:#8d2e18;stroke:#8d2e18;}.cls-118{fill:#953119;stroke:#953119;}.cls-119{fill:#8e3720;stroke:#8e3720;}.cls-120{fill:#a0341b;stroke:#a0341b;}.cls-121{fill:#9b4c2d;stroke:#9b4c2d;}.cls-122{fill:#aa603e;stroke:#aa603e;}.cls-124{fill:#9d341b;stroke:#9d341b;}.cls-126{fill:#953e23;stroke:#953e23;}.cls-127{fill:#913a1f;stroke:#913a1f;}.cls-128{fill:#a75937;stroke:#a75937;}.cls-129{fill:#9f341b;stroke:#9f341b;}.cls-130{fill:#943119;stroke:#943119;}.cls-131{fill:#99321a;stroke:#99321a;}.cls-132{fill:#a3361c;stroke:#a3361c;}.cls-133{fill:#b1623f;stroke:#b1623f;}</style></defs><title>Untitled-25</title><polygon class="cls-1" points="1484.93 98.9 1601 141.39 1601 129.96 1542.34 41.49 1484.93 98.9"/><polygon class="cls-2" points="1601 201 1601 165.76 1583.96 201 1601 201"/><polygon class="cls-3" points="1601 3.31 1601 1 1508.09 1 1550.22 22.35 1601 3.31"/><polygon class="cls-4" points="1601 129.96 1601 6.11 1542.34 41.49 1601 129.96"/><polygon class="cls-5" points="1542.34 41.49 1601 6.11 1601 3.31 1550.22 22.35 1542.34 41.49"/><polygon class="cls-6" points="1568.84 201 1583.96 201 1601 165.76 1601 141.39 1484.93 98.9 1568.84 201"/><polygon class="cls-7" points="1479.1 201 1568.84 201 1484.93 98.89 1479.1 201"/><polygon class="cls-8" points="1550.22 22.35 1508.09 1 1492.29 1 1542.34 41.48 1550.22 22.35"/><polygon class="cls-9" points="1542.34 41.49 1492.29 1 1469.23 1 1484.93 98.89 1542.34 41.49"/><polygon class="cls-10" points="1441.17 201 1479.1 201 1484.93 98.89 1441.17 201"/><polygon class="cls-11" points="1484.93 98.9 1469.23 1 1453.38 1 1408.39 78.63 1484.93 98.9"/><polygon class="cls-12" points="1401.63 141.67 1433.27 201 1441.17 201 1484.93 98.89 1401.63 141.67"/><polygon class="cls-13" points="1484.93 98.9 1408.39 78.64 1401.63 141.68 1484.93 98.9"/><polygon class="cls-14" points="1453.38 1 1404.07 1 1408.39 78.63 1453.38 1"/><polygon class="cls-15" points="1333.66 201 1339.89 201 1335.22 192.33 1333.66 201"/><polygon class="cls-16" points="1408.39 78.63 1404.07 1 1379.08 1 1336.34 84.26 1408.39 78.63"/><polygon class="cls-17" points="1368.99 156.31 1427 201 1433.27 201 1401.63 141.67 1368.99 156.31"/><polygon class="cls-18" points="1339.89 201 1387.84 201 1335.22 192.33 1339.89 201"/><polygon class="cls-15" points="1335.22 192.33 1387.84 201 1427 201 1368.99 156.31 1335.22 192.33"/><polygon class="cls-19" points="1379.08 1 1325.09 1 1336.34 84.26 1379.08 1"/><polygon class="cls-20" points="1401.63 141.68 1336.34 84.27 1368.99 156.31 1401.63 141.68"/><polygon class="cls-21" points="1408.39 78.64 1336.34 84.27 1401.63 141.68 1408.39 78.64"/><polygon class="cls-22" points="1336.34 84.26 1325.09 1 1278.55 1 1260.92 18.97 1336.34 84.26"/><polygon class="cls-23" points="1294.69 200.21 1294.83 201 1333.66 201 1335.22 192.33 1294.69 200.21"/><polygon class="cls-24" points="1368.99 156.31 1336.34 84.27 1335.22 192.33 1368.99 156.31"/><polygon class="cls-25" points="1335.22 192.33 1336.34 84.27 1294.69 200.21 1335.22 192.33"/><polygon class="cls-26" points="1294.69 200.21 1336.34 84.27 1242.91 103.4 1294.69 200.21"/><polygon class="cls-15" points="1293.99 201 1294.83 201 1294.69 200.21 1293.99 201"/><polygon class="cls-27" points="1336.34 84.27 1260.92 18.98 1242.91 103.4 1336.34 84.27"/><polygon class="cls-28" points="1222.65 130.42 1294.69 200.21 1242.91 103.4 1222.65 130.42"/><polygon class="cls-29" points="1278.55 1 1261.58 1 1260.92 18.97 1278.55 1"/><polygon class="cls-30" points="1289.5 201 1293.99 201 1294.69 200.21 1289.5 201"/><polygon class="cls-31" points="1222.65 130.42 1191.48 201 1289.5 201 1294.69 200.21 1222.65 130.42"/><polygon class="cls-32" points="1260.92 18.98 1185.5 24.6 1242.91 103.4 1260.92 18.98"/><polygon class="cls-33" points="1261.58 1 1213.75 1 1260.92 18.97 1261.58 1"/><polygon class="cls-34" points="1260.92 18.97 1213.75 1 1213.59 1 1185.5 24.6 1260.92 18.97"/><polygon class="cls-35" points="1242.91 103.4 1185.5 24.6 1222.65 130.42 1242.91 103.4"/><polygon class="cls-36" points="1185.5 24.6 1103.33 61.75 1222.65 130.42 1185.5 24.6"/><polygon class="cls-37" points="1213.59 1 1091.11 1 1185.5 24.6 1213.59 1"/><polygon class="cls-38" points="1083.06 105.65 1169.75 201 1191.48 201 1222.65 130.41 1083.06 105.65"/><polygon class="cls-39" points="1222.65 130.42 1103.33 61.75 1083.06 105.65 1222.65 130.42"/><polygon class="cls-40" points="1068.43 179.95 1134.15 201 1169.75 201 1083.06 105.65 1068.43 179.95"/><polygon class="cls-41" points="1073.69 201 1134.15 201 1068.43 179.94 1073.69 201"/><polygon class="cls-42" points="1185.5 24.6 1091.11 1 1090.95 1 1103.33 61.75 1185.5 24.6"/><polygon class="cls-43" points="1068.43 179.95 1083.06 105.65 1056.05 129.29 1068.43 179.95"/><polygon class="cls-44" points="1006.96 1 955.91 1 988.5 9.96 1006.96 1"/><polygon class="cls-45" points="1008.77 88.77 1090.9 1 1090.48 1 988.5 9.97 1008.77 88.77"/><polygon class="cls-46" points="1103.33 61.75 1090.95 1 1090.9 1 1008.77 88.76 1103.33 61.75"/><polygon class="cls-47" points="1103.33 61.75 1008.77 88.77 1083.06 105.65 1103.33 61.75"/><polygon class="cls-48" points="1090.48 1 1006.96 1 988.5 9.96 1090.48 1"/><polygon class="cls-49" points="1035.72 201 1073.69 201 1068.43 179.94 1035.72 201"/><polygon class="cls-50" points="1083.06 105.65 1008.77 88.77 1056.05 129.29 1083.06 105.65"/><polygon class="cls-51" points="1056.05 129.29 1007.72 201 1035.72 201 1068.43 179.94 1056.05 129.29"/><polygon class="cls-52" points="1056.05 129.29 1008.77 88.77 934.47 143.93 1056.05 129.29"/><polygon class="cls-53" points="934.47 143.92 967.71 201 1007.72 201 1056.05 129.29 934.47 143.92"/><polygon class="cls-54" points="988.5 9.97 956.99 27.98 1008.77 88.77 988.5 9.97"/><polygon class="cls-55" points="988.5 9.97 955.91 1 906.34 1 956.99 27.98 988.5 9.97"/><polygon class="cls-56" points="1008.77 88.77 956.99 27.98 934.47 143.93 1008.77 88.77"/><polygon class="cls-57" points="912.99 201 967.71 201 934.47 143.92 912.99 201"/><polygon class="cls-58" points="956.99 27.98 859.05 73.01 934.47 143.93 956.99 27.98"/><polygon class="cls-59" points="875.94 152.93 885.55 201 912.99 201 934.47 143.92 875.94 152.93"/><polygon class="cls-60" points="956.99 27.98 906.34 1 855.01 1 859.05 73 956.99 27.98"/><polygon class="cls-61" points="934.47 143.93 859.05 73.01 875.94 152.93 934.47 143.93"/><polygon class="cls-62" points="807.27 196.83 814.34 201 885.55 201 875.94 152.93 807.27 196.83"/><polygon class="cls-63" points="804.74 201 814.34 201 807.27 196.83 804.74 201"/><polygon class="cls-64" points="855.01 1 803.88 1 859.05 73 855.01 1"/><polygon class="cls-65" points="859.05 73.01 803.88 1 785.73 1 774.63 24.6 859.05 73.01"/><polygon class="cls-66" points="875.94 152.93 859.05 73.01 789.26 119.16 875.94 152.93"/><polygon class="cls-67" points="807.27 196.83 875.94 152.93 789.26 119.16 807.27 196.83"/><polygon class="cls-68" points="859.05 73.01 774.63 24.6 789.26 119.16 859.05 73.01"/><polygon class="cls-69" points="774.63 24.6 692.45 80.89 789.26 119.16 774.63 24.6"/><polygon class="cls-70" points="686.82 191.21 807.27 196.83 789.26 119.16 686.82 191.21"/><polygon class="cls-71" points="686.82 191.2 697.22 201 804.74 201 807.27 196.83 686.82 191.2"/><polygon class="cls-72" points="682.32 132.67 686.82 191.21 789.26 119.16 682.32 132.67"/><polygon class="cls-73" points="785.73 1 730.2 1 774.63 24.6 785.73 1"/><polygon class="cls-74" points="789.26 119.16 692.45 80.89 682.32 132.67 789.26 119.16"/><polygon class="cls-75" points="774.63 24.6 730.2 1 701.01 1 692.45 80.88 774.63 24.6"/><polygon class="cls-76" points="690.66 201 697.22 201 686.82 191.2 690.66 201"/><polygon class="cls-77" points="667.22 201 690.66 201 686.82 191.2 667.22 201"/><polygon class="cls-78" points="692.45 80.89 701.01 1 681.53 1 628.29 38.11 692.45 80.89"/><polygon class="cls-79" points="681.53 1 637.24 1 628.29 38.11 681.53 1"/><polygon class="cls-80" points="615.9 167.57 686.82 191.21 682.32 132.67 615.9 167.57"/><polygon class="cls-81" points="682.32 132.67 628.29 38.11 590.01 137.17 682.32 132.67"/><polygon class="cls-82" points="692.45 80.89 628.29 38.11 682.32 132.67 692.45 80.89"/><polygon class="cls-83" points="615.9 167.56 630.68 201 667.22 201 686.82 191.2 615.9 167.56"/><polygon class="cls-84" points="590.01 137.17 615.9 167.57 682.32 132.67 590.01 137.17"/><polygon class="cls-85" points="628.29 38.11 541.61 68.51 590.01 137.17 628.29 38.11"/><polygon class="cls-86" points="637.24 1 601.49 1 628.29 38.11 637.24 1"/><polygon class="cls-87" points="602.63 201 630.68 201 615.9 167.56 602.63 201"/><polygon class="cls-88" points="628.29 38.11 601.49 1 573.27 1 541.61 68.5 628.29 38.11"/><polygon class="cls-89" points="510.09 163.06 615.9 167.57 590.01 137.17 510.09 163.06"/><polygon class="cls-90" points="510.09 163.06 545.4 201 602.63 201 615.9 167.56 510.09 163.06"/><polygon class="cls-91" points="493.2 193.45 506.96 201 545.4 201 510.09 163.06 493.2 193.45"/><polygon class="cls-92" points="573.27 1 484.23 1 541.61 68.5 573.27 1"/><polygon class="cls-93" points="590.01 137.17 541.61 68.51 510.09 163.06 590.01 137.17"/><polygon class="cls-83" points="493.52 201 506.96 201 493.2 193.45 493.52 201"/><polygon class="cls-94" points="541.61 68.51 485.32 78.64 510.09 163.06 541.61 68.51"/><polygon class="cls-95" points="541.61 68.5 484.23 1 469.62 1 485.32 78.63 541.61 68.5"/><polygon class="cls-96" points="493.2 193.46 510.09 163.06 411.03 109.03 493.2 193.46"/><polygon class="cls-97" points="510.09 163.06 485.32 78.64 411.03 109.03 510.09 163.06"/><polygon class="cls-98" points="485.32 78.63 469.62 1 443.92 1 397.52 50.49 485.32 78.63"/><polygon class="cls-99" points="465.35 201 493.52 201 493.2 193.45 465.35 201"/><polygon class="cls-100" points="411.03 109.03 380.96 201 465.35 201 493.2 193.45 411.03 109.03"/><polygon class="cls-101" points="485.32 78.64 397.52 50.49 411.03 109.03 485.32 78.64"/><polygon class="cls-102" points="443.92 1 381.73 1 397.52 50.49 443.92 1"/><polygon class="cls-103" points="328.85 154.06 357.46 201 380.96 201 411.03 109.03 328.85 154.06"/><polygon class="cls-104" points="397.52 50.49 337.86 30.23 411.03 109.03 397.52 50.49"/><polygon class="cls-105" points="411.03 109.03 337.86 30.23 328.85 154.06 411.03 109.03"/><polygon class="cls-102" points="397.52 50.49 381.73 1 376.16 1 337.86 30.23 397.52 50.49"/><polygon class="cls-106" points="318.92 201 357.46 201 328.85 154.05 318.92 201"/><polygon class="cls-107" points="376.16 1 333.68 1 337.86 30.23 376.16 1"/><polygon class="cls-108" points="337.86 30.23 242.18 68.51 328.85 154.06 337.86 30.23"/><polygon class="cls-109" points="328.85 154.06 242.18 68.51 230.92 159.69 328.85 154.06"/><polygon class="cls-110" points="337.86 30.23 333.68 1 330.36 1 242.18 68.5 337.86 30.23"/><polygon class="cls-111" points="330.36 1 233.29 1 242.18 68.5 330.36 1"/><polygon class="cls-112" points="230.92 159.68 297.73 201 318.92 201 328.85 154.05 230.92 159.68"/><polygon class="cls-113" points="206.15 179.95 277.31 201 297.73 201 230.92 159.68 206.15 179.95"/><polygon class="cls-114" points="206.4 201 277.31 201 206.15 179.94 206.4 201"/><polygon class="cls-115" points="242.18 68.5 233.29 1 182.93 1 181.39 3.21 242.18 68.5"/><polygon class="cls-116" points="194.97 201 206.4 201 206.15 179.94 194.97 201"/><polygon class="cls-104" points="178.01 142.8 230.92 159.69 184.77 91.02 178.01 142.8"/><polygon class="cls-117" points="230.92 159.69 242.18 68.51 184.77 91.02 230.92 159.69"/><polygon class="cls-118" points="242.18 68.51 181.39 3.22 184.77 91.02 242.18 68.51"/><polygon class="cls-119" points="206.15 179.95 230.92 159.69 178.01 142.8 206.15 179.95"/><polygon class="cls-120" points="182.93 1 159.28 1 181.39 3.21 182.93 1"/><polygon class="cls-121" points="178.01 142.8 143.47 201 177.47 201 206.15 179.94 178.01 142.8"/><polygon class="cls-122" points="177.47 201 194.97 201 206.15 179.94 177.47 201"/><polygon class="cls-118" points="184.77 91.02 181.39 3.22 102.59 97.77 184.77 91.02"/><polygon class="cls-123" points="181.39 3.22 67.69 73.01 102.59 97.77 181.39 3.22"/><polygon class="cls-124" points="181.39 3.21 159.28 1 68.69 1 67.69 73 181.39 3.21"/><polygon class="cls-125" points="102.59 97.77 178.01 142.8 184.77 91.02 102.59 97.77"/><polygon class="cls-126" points="37.3 151.8 79.39 201 112.83 201 102.59 97.77 37.3 151.8"/><polygon class="cls-127" points="102.59 97.77 112.83 201 143.47 201 178.01 142.8 102.59 97.77"/><polygon class="cls-128" points="41.84 201 79.39 201 37.3 151.8 41.84 201"/><polygon class="cls-129" points="67.69 73.01 68.69 1 56.42 1 27.17 22.35 67.69 73.01"/><polygon class="cls-130" points="67.69 73.01 37.3 151.81 102.59 97.77 67.69 73.01"/><polygon class="cls-131" points="27.17 22.35 37.3 151.81 67.69 73.01 27.17 22.35"/><polygon class="cls-132" points="56.42 1 6.43 1 27.17 22.35 56.42 1"/><polygon class="cls-124" points="37.3 151.81 27.17 22.35 6.43 1 1 1 1 25.18 37.3 151.81"/><polygon class="cls-133" points="23.98 201 41.84 201 37.3 151.8 23.98 201"/><polygon class="cls-107" points="1 25.18 1 201 23.98 201 37.3 151.8 1 25.18"/></svg>