<svg id="Layer_1" data-name="Layer 1" xmlns="http://www.w3.org/2000/svg" viewBox="0 0 1602 202.06"><defs><style>.cls-1,.cls-15{fill:#303030;stroke:#303030;}.cls-1,.cls-11,.cls-12,.cls-13,.cls-16,.cls-2,.cls-21,.cls-23,.cls-25,.cls-26,.cls-28,.cls-3,.cls-30,.cls-31,.cls-33,.cls-34,.cls-35,.cls-39,.cls-4,.cls-41,.cls-43,.cls-44,.cls-45,.cls-46,.cls-47,.cls-5,.cls-51,.cls-54,.cls-55,.cls-56,.cls-58,.cls-59,.cls-6,.cls-60,.cls-63,.cls-65,.cls-66,.cls-68,.cls-69,.cls-7,.cls-72,.cls-73,.cls-75,.cls-76,.cls-77,.cls-8,.cls-81,.cls-83,.cls-85,.cls-86,.cls-9{stroke-width:2px;}.cls-2{fill:#393939;stroke:#393939;}.cls-3{fill:#363636;stroke:#363636;}.cls-24,.cls-4{fill:#313131;stroke:#313131;}.cls-5{fill:#343434;stroke:#343434;}.cls-6{fill:#2c2c2c;stroke:#2c2c2c;}.cls-7{fill:#353535;stroke:#353535;}.cls-22,.cls-8{fill:#333334;stroke:#333334;}.cls-20,.cls-9{fill:#323232;stroke:#323232;}.cls-10{fill:#2f2f2f;stroke:#2f2f2f;}.cls-10,.cls-14,.cls-15,.cls-17,.cls-18,.cls-19,.cls-20,.cls-22,.cls-24,.cls-27,.cls-29,.cls-32,.cls-36,.cls-37,.cls-38,.cls-40,.cls-42,.cls-48,.cls-49,.cls-50,.cls-52,.cls-53,.cls-57,.cls-61,.cls-62,.cls-64,.cls-67,.cls-70,.cls-71,.cls-74,.cls-78,.cls-79,.cls-80,.cls-82,.cls-84{stroke-width:1.51px;}.cls-11{fill:#464646;stroke:#464646;}.cls-12{fill:#3e3e3f;stroke:#3e3e3f;}.cls-13{fill:#373737;stroke:#373737;}.cls-14,.cls-26{fill:#2d2d2d;stroke:#2d2d2d;}.cls-16{fill:#3d3d3d;stroke:#3d3d3d;}.cls-17{fill:#2c2c2d;stroke:#2c2c2d;}.cls-18{fill:#2e2e2e;stroke:#2e2e2e;}.cls-19{fill:#434343;stroke:#434343;}.cls-21{fill:#3c3c3c;stroke:#3c3c3c;}.cls-23{fill:#383838;stroke:#383838;}.cls-25{fill:#373738;stroke:#373738;}.cls-27{fill:#2a2a2a;stroke:#2a2a2a;}.cls-28{fill:#2b2b2b;stroke:#2b2b2b;}.cls-29,.cls-30{fill:#262626;stroke:#262626;}.cls-31{fill:#292929;stroke:#292929;}.cls-32,.cls-45{fill:#212121;stroke:#212121;}.cls-33{fill:#272727;stroke:#272727;}.cls-34{fill:#252525;stroke:#252525;}.cls-35{fill:#222;stroke:#222;}.cls-36{fill:#1e1e1e;stroke:#1e1e1e;}.cls-37{fill:#1b1b1b;stroke:#1b1b1b;}.cls-38,.cls-43{fill:#212122;stroke:#212122;}.cls-39{fill:#232323;stroke:#232323;}.cls-40{fill:#18181a;stroke:#18181a;}.cls-41{fill:#1f1f1f;stroke:#1f1f1f;}.cls-42,.cls-51{fill:#1b1b1e;stroke:#1b1b1e;}.cls-44{fill:#282828;stroke:#282828;}.cls-46{fill:#1c1c20;stroke:#1c1c20;}.cls-47{fill:#1e1e21;stroke:#1e1e21;}.cls-48,.cls-72{fill:#161618;stroke:#161618;}.cls-49{fill:#1d1c1c;stroke:#1d1c1c;}.cls-50,.cls-86{fill:#18181b;stroke:#18181b;}.cls-52,.cls-77{fill:#181717;stroke:#181717;}.cls-53,.cls-60{fill:#191818;stroke:#191818;}.cls-54{fill:#19191d;stroke:#19191d;}.cls-55{fill:#1d1d20;stroke:#1d1d20;}.cls-56{fill:#1f1e1d;stroke:#1f1e1d;}.cls-57{fill:#111010;stroke:#111010;}.cls-58{fill:#1f1e1e;stroke:#1f1e1e;}.cls-59{fill:#1c1b1b;stroke:#1c1b1b;}.cls-61{fill:#0e0d0d;stroke:#0e0d0d;}.cls-62{fill:#0d0c0c;stroke:#0d0c0c;}.cls-63,.cls-74{fill:#151414;stroke:#151414;}.cls-64{fill:#0c0b0b;stroke:#0c0b0b;}.cls-65,.cls-70{fill:#171616;stroke:#171616;}.cls-66{fill:#161515;stroke:#161515;}.cls-67,.cls-69{fill:#131212;stroke:#131212;}.cls-68,.cls-82{fill:#1c1a1a;stroke:#1c1a1a;}.cls-71{fill:#141313;stroke:#141313;}.cls-73{fill:#1f1d1d;stroke:#1f1d1d;}.cls-75{fill:#1e1c1c;stroke:#1e1c1c;}.cls-76{fill:#21201f;stroke:#21201f;}.cls-78,.cls-81{fill:#211f1f;stroke:#211f1f;}.cls-79,.cls-85{fill:#1a1919;stroke:#1a1919;}.cls-80{fill:#17171a;stroke:#17171a;}.cls-83{fill:#1d1b1b;stroke:#1d1b1b;}.cls-84{fill:#201e1e;stroke:#201e1e;}</style></defs><title>react</title><polygon class="cls-1" points="1484.93 98.9 1601 141.39 1601 129.96 1542.34 41.49 1484.93 98.9"/><polygon class="cls-2" points="1601 201 1601 165.76 1583.96 201 1601 201"/><polygon class="cls-3" points="1601 3.31 1601 1 1508.09 1 1550.22 22.35 1601 3.31"/><polygon class="cls-4" points="1601 129.96 1601 6.11 1542.34 41.49 1601 129.96"/><polygon class="cls-5" points="1542.34 41.49 1601 6.11 1601 3.31 1550.22 22.35 1542.34 41.49"/><polygon class="cls-6" points="1568.84 201 1583.96 201 1601 165.76 1601 141.39 1484.93 98.9 1568.84 201"/><polygon class="cls-4" points="1479.1 201 1568.84 201 1484.93 98.89 1479.1 201"/><polygon class="cls-7" points="1550.22 22.35 1508.09 1 1492.29 1 1542.34 41.48 1550.22 22.35"/><polygon class="cls-8" points="1542.34 41.49 1492.29 1 1469.23 1 1484.93 98.89 1542.34 41.49"/><polygon class="cls-4" points="1441.17 201 1479.1 201 1484.93 98.89 1441.17 201"/><polygon class="cls-9" points="1484.93 98.9 1469.23 1 1453.38 1 1408.39 78.63 1484.93 98.9"/><polygon class="cls-6" points="1401.63 141.67 1433.27 201 1441.17 201 1484.93 98.89 1401.63 141.67"/><polygon class="cls-10" points="1484.93 98.9 1408.39 78.64 1401.63 141.68 1484.93 98.9"/><polygon class="cls-3" points="1453.38 1 1404.07 1 1408.39 78.63 1453.38 1"/><polygon class="cls-11" points="1333.66 201 1339.89 201 1335.22 192.33 1333.66 201"/><polygon class="cls-8" points="1408.39 78.63 1404.07 1 1379.08 1 1336.34 84.26 1408.39 78.63"/><polygon class="cls-1" points="1368.99 156.31 1427 201 1433.27 201 1401.63 141.67 1368.99 156.31"/><polygon class="cls-12" points="1339.89 201 1387.84 201 1335.22 192.33 1339.89 201"/><polygon class="cls-8" points="1335.22 192.33 1387.84 201 1427 201 1368.99 156.31 1335.22 192.33"/><polygon class="cls-13" points="1379.08 1 1325.09 1 1336.34 84.26 1379.08 1"/><polygon class="cls-14" points="1401.63 141.68 1336.34 84.27 1368.99 156.31 1401.63 141.68"/><polygon class="cls-15" points="1408.39 78.64 1336.34 84.27 1401.63 141.68 1408.39 78.64"/><polygon class="cls-3" points="1336.34 84.26 1325.09 1 1278.55 1 1260.92 18.97 1336.34 84.26"/><polygon class="cls-16" points="1294.69 200.21 1294.83 201 1333.66 201 1335.22 192.33 1294.69 200.21"/><polygon class="cls-17" points="1368.99 156.31 1336.34 84.27 1335.22 192.33 1368.99 156.31"/><polygon class="cls-10" points="1335.22 192.33 1336.34 84.27 1294.69 200.21 1335.22 192.33"/><polygon class="cls-18" points="1294.69 200.21 1336.34 84.27 1242.91 103.4 1294.69 200.21"/><polygon class="cls-19" points="1293.99 201 1294.83 201 1294.69 200.21 1293.99 201"/><polygon class="cls-20" points="1336.34 84.27 1260.92 18.98 1242.91 103.4 1336.34 84.27"/><polygon class="cls-14" points="1222.65 130.42 1294.69 200.21 1242.91 103.4 1222.65 130.42"/><polygon class="cls-2" points="1278.55 1 1261.58 1 1260.92 18.97 1278.55 1"/><polygon class="cls-21" points="1289.5 201 1293.99 201 1294.69 200.21 1289.5 201"/><polygon class="cls-8" points="1222.65 130.42 1191.48 201 1289.5 201 1294.69 200.21 1222.65 130.42"/><polygon class="cls-22" points="1260.92 18.98 1185.5 24.6 1242.91 103.4 1260.92 18.98"/><polygon class="cls-23" points="1261.58 1 1213.75 1 1260.92 18.97 1261.58 1"/><polygon class="cls-3" points="1260.92 18.97 1213.75 1 1213.59 1 1185.5 24.6 1260.92 18.97"/><polygon class="cls-24" points="1242.91 103.4 1185.5 24.6 1222.65 130.42 1242.91 103.4"/><polygon class="cls-20" points="1185.5 24.6 1103.33 61.75 1222.65 130.42 1185.5 24.6"/><polygon class="cls-25" points="1213.59 1 1091.11 1 1185.5 24.6 1213.59 1"/><polygon class="cls-26" points="1083.06 105.65 1169.75 201 1191.48 201 1222.65 130.41 1083.06 105.65"/><polygon class="cls-24" points="1222.65 130.42 1103.33 61.75 1083.06 105.65 1222.65 130.42"/><polygon class="cls-4" points="1068.43 179.95 1134.15 201 1169.75 201 1083.06 105.65 1068.43 179.95"/><polygon class="cls-2" points="1073.69 201 1134.15 201 1068.43 179.94 1073.69 201"/><polygon class="cls-3" points="1185.5 24.6 1091.11 1 1090.95 1 1103.33 61.75 1185.5 24.6"/><polygon class="cls-18" points="1068.43 179.95 1083.06 105.65 1056.05 129.29 1068.43 179.95"/><polygon class="cls-4" points="1006.96 1 955.91 1 988.5 9.96 1006.96 1"/><polygon class="cls-9" points="1008.77 88.77 1090.9 1 1090.48 1 988.5 9.97 1008.77 88.77"/><polygon class="cls-5" points="1103.33 61.75 1090.95 1 1090.9 1 1008.77 88.76 1103.33 61.75"/><polygon class="cls-24" points="1103.33 61.75 1008.77 88.77 1083.06 105.65 1103.33 61.75"/><polygon class="cls-13" points="1090.48 1 1006.96 1 988.5 9.96 1090.48 1"/><polygon class="cls-23" points="1035.72 201 1073.69 201 1068.43 179.94 1035.72 201"/><polygon class="cls-10" points="1083.06 105.65 1008.77 88.77 1056.05 129.29 1083.06 105.65"/><polygon class="cls-4" points="1056.05 129.29 1007.72 201 1035.72 201 1068.43 179.94 1056.05 129.29"/><polygon class="cls-27" points="1056.05 129.29 1008.77 88.77 934.47 143.93 1056.05 129.29"/><polygon class="cls-28" points="934.47 143.92 967.71 201 1007.72 201 1056.05 129.29 934.47 143.92"/><polygon class="cls-18" points="988.5 9.97 956.99 27.98 1008.77 88.77 988.5 9.97"/><polygon class="cls-26" points="988.5 9.97 955.91 1 906.34 1 956.99 27.98 988.5 9.97"/><polygon class="cls-27" points="1008.77 88.77 956.99 27.98 934.47 143.93 1008.77 88.77"/><polygon class="cls-1" points="912.99 201 967.71 201 934.47 143.92 912.99 201"/><polygon class="cls-29" points="956.99 27.98 859.05 73.01 934.47 143.93 956.99 27.98"/><polygon class="cls-30" points="875.94 152.93 885.55 201 912.99 201 934.47 143.92 875.94 152.93"/><polygon class="cls-31" points="956.99 27.98 906.34 1 855.01 1 859.05 73 956.99 27.98"/><polygon class="cls-32" points="934.47 143.93 859.05 73.01 875.94 152.93 934.47 143.93"/><polygon class="cls-33" points="807.27 196.83 814.34 201 885.55 201 875.94 152.93 807.27 196.83"/><polygon class="cls-6" points="804.74 201 814.34 201 807.27 196.83 804.74 201"/><polygon class="cls-34" points="855.01 1 803.88 1 859.05 73 855.01 1"/><polygon class="cls-35" points="859.05 73.01 803.88 1 785.73 1 774.63 24.6 859.05 73.01"/><polygon class="cls-36" points="875.94 152.93 859.05 73.01 789.26 119.16 875.94 152.93"/><polygon class="cls-37" points="807.27 196.83 875.94 152.93 789.26 119.16 807.27 196.83"/><polygon class="cls-36" points="859.05 73.01 774.63 24.6 789.26 119.16 859.05 73.01"/><polygon class="cls-38" points="774.63 24.6 692.45 80.89 789.26 119.16 774.63 24.6"/><polygon class="cls-38" points="686.82 191.21 807.27 196.83 789.26 119.16 686.82 191.21"/><polygon class="cls-39" points="686.82 191.2 697.22 201 804.74 201 807.27 196.83 686.82 191.2"/><polygon class="cls-40" points="682.32 132.67 686.82 191.21 789.26 119.16 682.32 132.67"/><polygon class="cls-41" points="785.73 1 730.2 1 774.63 24.6 785.73 1"/><polygon class="cls-42" points="789.26 119.16 692.45 80.89 682.32 132.67 789.26 119.16"/><polygon class="cls-43" points="774.63 24.6 730.2 1 701.01 1 692.45 80.88 774.63 24.6"/><polygon class="cls-44" points="690.66 201 697.22 201 686.82 191.2 690.66 201"/><polygon class="cls-45" points="667.22 201 690.66 201 686.82 191.2 667.22 201"/><polygon class="cls-46" points="692.45 80.89 701.01 1 681.53 1 628.29 38.11 692.45 80.89"/><polygon class="cls-47" points="681.53 1 637.24 1 628.29 38.11 681.53 1"/><polygon class="cls-48" points="615.9 167.57 686.82 191.21 682.32 132.67 615.9 167.57"/><polygon class="cls-49" points="682.32 132.67 628.29 38.11 590.01 137.17 682.32 132.67"/><polygon class="cls-50" points="692.45 80.89 628.29 38.11 682.32 132.67 692.45 80.89"/><polygon class="cls-51" points="615.9 167.56 630.68 201 667.22 201 686.82 191.2 615.9 167.56"/><polygon class="cls-52" points="590.01 137.17 615.9 167.57 682.32 132.67 590.01 137.17"/><polygon class="cls-53" points="628.29 38.11 541.61 68.51 590.01 137.17 628.29 38.11"/><polygon class="cls-54" points="637.24 1 601.49 1 628.29 38.11 637.24 1"/><polygon class="cls-55" points="602.63 201 630.68 201 615.9 167.56 602.63 201"/><polygon class="cls-56" points="628.29 38.11 601.49 1 573.27 1 541.61 68.5 628.29 38.11"/><polygon class="cls-57" points="510.09 163.06 615.9 167.57 590.01 137.17 510.09 163.06"/><polygon class="cls-58" points="510.09 163.06 545.4 201 602.63 201 615.9 167.56 510.09 163.06"/><polygon class="cls-59" points="493.2 193.45 506.96 201 545.4 201 510.09 163.06 493.2 193.45"/><polygon class="cls-60" points="573.27 1 484.23 1 541.61 68.5 573.27 1"/><polygon class="cls-61" points="590.01 137.17 541.61 68.51 510.09 163.06 590.01 137.17"/><polygon class="cls-51" points="493.52 201 506.96 201 493.2 193.45 493.52 201"/><polygon class="cls-62" points="541.61 68.51 485.32 78.64 510.09 163.06 541.61 68.51"/><polygon class="cls-63" points="541.61 68.5 484.23 1 469.62 1 485.32 78.63 541.61 68.5"/><polygon class="cls-64" points="493.2 193.46 510.09 163.06 411.03 109.03 493.2 193.46"/><polygon class="cls-62" points="510.09 163.06 485.32 78.64 411.03 109.03 510.09 163.06"/><polygon class="cls-65" points="485.32 78.63 469.62 1 443.92 1 397.52 50.49 485.32 78.63"/><polygon class="cls-51" points="465.35 201 493.52 201 493.2 193.45 465.35 201"/><polygon class="cls-66" points="411.03 109.03 380.96 201 465.35 201 493.2 193.45 411.03 109.03"/><polygon class="cls-67" points="485.32 78.64 397.52 50.49 411.03 109.03 485.32 78.64"/><polygon class="cls-68" points="443.92 1 381.73 1 397.52 50.49 443.92 1"/><polygon class="cls-69" points="328.85 154.06 357.46 201 380.96 201 411.03 109.03 328.85 154.06"/><polygon class="cls-70" points="397.52 50.49 337.86 30.23 411.03 109.03 397.52 50.49"/><polygon class="cls-71" points="411.03 109.03 337.86 30.23 328.85 154.06 411.03 109.03"/><polygon class="cls-68" points="397.52 50.49 381.73 1 376.16 1 337.86 30.23 397.52 50.49"/><polygon class="cls-72" points="318.92 201 357.46 201 328.85 154.05 318.92 201"/><polygon class="cls-73" points="376.16 1 333.68 1 337.86 30.23 376.16 1"/><polygon class="cls-52" points="337.86 30.23 242.18 68.51 328.85 154.06 337.86 30.23"/><polygon class="cls-74" points="328.85 154.06 242.18 68.51 230.92 159.69 328.85 154.06"/><polygon class="cls-75" points="337.86 30.23 333.68 1 330.36 1 242.18 68.5 337.86 30.23"/><polygon class="cls-63" points="330.36 1 233.29 1 242.18 68.5 330.36 1"/><polygon class="cls-59" points="230.92 159.68 297.73 201 318.92 201 328.85 154.05 230.92 159.68"/><polygon class="cls-76" points="206.15 179.95 277.31 201 297.73 201 230.92 159.68 206.15 179.95"/><polygon class="cls-75" points="206.4 201 277.31 201 206.15 179.94 206.4 201"/><polygon class="cls-77" points="242.18 68.5 233.29 1 182.93 1 181.39 3.21 242.18 68.5"/><polygon class="cls-59" points="194.97 201 206.4 201 206.15 179.94 194.97 201"/><polygon class="cls-70" points="178.01 142.8 230.92 159.69 184.77 91.02 178.01 142.8"/><polygon class="cls-53" points="230.92 159.69 242.18 68.51 184.77 91.02 230.92 159.69"/><polygon class="cls-78" points="242.18 68.51 181.39 3.22 184.77 91.02 242.18 68.51"/><polygon class="cls-79" points="206.15 179.95 230.92 159.69 178.01 142.8 206.15 179.95"/><polygon class="cls-46" points="182.93 1 159.28 1 181.39 3.21 182.93 1"/><polygon class="cls-59" points="178.01 142.8 143.47 201 177.47 201 206.15 179.94 178.01 142.8"/><polygon class="cls-76" points="177.47 201 194.97 201 206.15 179.94 177.47 201"/><polygon class="cls-78" points="184.77 91.02 181.39 3.22 102.59 97.77 184.77 91.02"/><polygon class="cls-80" points="181.39 3.22 67.69 73.01 102.59 97.77 181.39 3.22"/><polygon class="cls-81" points="181.39 3.21 159.28 1 68.69 1 67.69 73 181.39 3.21"/><polygon class="cls-82" points="102.59 97.77 178.01 142.8 184.77 91.02 102.59 97.77"/><polygon class="cls-81" points="37.3 151.8 79.39 201 112.83 201 102.59 97.77 37.3 151.8"/><polygon class="cls-83" points="102.59 97.77 112.83 201 143.47 201 178.01 142.8 102.59 97.77"/><polygon class="cls-83" points="41.84 201 79.39 201 37.3 151.8 41.84 201"/><polygon class="cls-81" points="67.69 73.01 68.69 1 56.42 1 27.17 22.35 67.69 73.01"/><polygon class="cls-84" points="67.69 73.01 37.3 151.81 102.59 97.77 67.69 73.01"/><polygon class="cls-77" points="27.17 22.35 37.3 151.81 67.69 73.01 27.17 22.35"/><polygon class="cls-75" points="56.42 1 6.43 1 27.17 22.35 56.42 1"/><polygon class="cls-85" points="37.3 151.81 27.17 22.35 6.43 1 1 1 1 25.18 37.3 151.81"/><polygon class="cls-86" points="23.98 201 41.84 201 37.3 151.8 23.98 201"/><polygon class="cls-73" points="1 25.18 1 201 23.98 201 37.3 151.8 1 25.18"/></svg>