<?xml version="1.0" encoding="utf-8"?>
<!-- Generator: Adobe Illustrator 19.2.0, SVG Export Plug-In . SVG Version: 6.00 Build 0)  -->
<svg version="1.1" id="Layer_1" xmlns="http://www.w3.org/2000/svg" xmlns:xlink="http://www.w3.org/1999/xlink" x="0px" y="0px"
	 viewBox="0 0 1602 202.1" style="enable-background:new 0 0 1602 202.1;" xml:space="preserve">
<style type="text/css">
	.st0{fill:#5B5959;stroke:#5B5959;stroke-width:2;}
	.st1{fill:#6D6C6C;stroke:#6D6C6C;stroke-width:2;}
	.st2{fill:#686666;stroke:#686666;stroke-width:2;}
	.st3{fill:#5F5D5D;stroke:#5F5D5D;stroke-width:2;}
	.st4{fill:#656363;stroke:#656363;stroke-width:2;}
	.st5{fill:#545252;stroke:#545252;stroke-width:2;}
	.st6{fill:#5E5D5D;stroke:#5E5D5D;stroke-width:2;}
	.st7{fill:#666464;stroke:#666464;stroke-width:2;}
	.st8{fill:#636161;stroke:#636161;stroke-width:2;}
	.st9{fill:#615F5F;stroke:#615F5F;stroke-width:2;}
	.st10{fill:#555453;stroke:#555453;stroke-width:2;}
	.st11{fill:#5A5858;stroke:#5A5858;stroke-width:1.51;}
	.st12{fill:#838383;stroke:#838383;stroke-width:2;}
	.st13{fill:#5B5A5A;stroke:#5B5A5A;stroke-width:2;}
	.st14{fill:#777676;stroke:#777676;stroke-width:2;}
	.st15{fill:#626161;stroke:#626161;stroke-width:2;}
	.st16{fill:#696767;stroke:#696767;stroke-width:2;}
	.st17{fill:#575655;stroke:#575655;stroke-width:1.51;}
	.st18{fill:#5B5959;stroke:#5B5959;stroke-width:1.51;}
	.st19{fill:#676565;stroke:#676565;stroke-width:2;}
	.st20{fill:#747373;stroke:#747373;stroke-width:2;}
	.st21{fill:#555454;stroke:#555454;stroke-width:1.51;}
	.st22{fill:#595858;stroke:#595858;stroke-width:1.51;}
	.st23{fill:#585757;stroke:#585757;stroke-width:1.51;}
	.st24{fill:#7D7D7D;stroke:#7D7D7D;stroke-width:1.51;}
	.st25{fill:#605F5E;stroke:#605F5E;stroke-width:1.51;}
	.st26{fill:#565555;stroke:#565555;stroke-width:1.51;}
	.st27{fill:#6D6B6B;stroke:#6D6B6B;stroke-width:2;}
	.st28{fill:#727171;stroke:#727171;stroke-width:2;}
	.st29{fill:#636261;stroke:#636261;stroke-width:1.51;}
	.st30{fill:#6B6969;stroke:#6B6969;stroke-width:2;}
	.st31{fill:#5E5D5D;stroke:#5E5D5D;stroke-width:1.51;}
	.st32{fill:#605F5F;stroke:#605F5F;stroke-width:1.51;}
	.st33{fill:#6A6868;stroke:#6A6868;stroke-width:2;}
	.st34{fill:#565555;stroke:#565555;stroke-width:2;}
	.st35{fill:#5D5C5C;stroke:#5D5C5C;stroke-width:1.51;}
	.st36{fill:#5D5C5C;stroke:#5D5C5C;stroke-width:2;}
	.st37{fill:#676665;stroke:#676665;stroke-width:2;}
	.st38{fill:#61605F;stroke:#61605F;stroke-width:2;}
	.st39{fill:#646363;stroke:#646363;stroke-width:2;}
	.st40{fill:#6B6B6A;stroke:#6B6B6A;stroke-width:2;}
	.st41{fill:#515050;stroke:#515050;stroke-width:1.51;}
	.st42{fill:#525151;stroke:#525151;stroke-width:2;}
	.st43{fill:#595857;stroke:#595857;stroke-width:1.51;}
	.st44{fill:#575555;stroke:#575555;stroke-width:2;}
	.st45{fill:#51504F;stroke:#51504F;stroke-width:1.51;}
	.st46{fill:#5A5959;stroke:#5A5959;stroke-width:2;}
	.st47{fill:#4A4948;stroke:#4A4948;stroke-width:1.51;}
	.st48{fill:#4A4949;stroke:#4A4949;stroke-width:2;}
	.st49{fill:#4E4C4C;stroke:#4E4C4C;stroke-width:2;}
	.st50{fill:#403F3F;stroke:#403F3F;stroke-width:1.51;}
	.st51{fill:#4B4A4A;stroke:#4B4A4A;stroke-width:2;}
	.st52{fill:#545353;stroke:#545353;stroke-width:2;}
	.st53{fill:#474545;stroke:#474545;stroke-width:2;}
	.st54{fill:#413F3F;stroke:#413F3F;stroke-width:2;}
	.st55{fill:#3B3A39;stroke:#3B3A39;stroke-width:1.51;}
	.st56{fill:#363535;stroke:#363535;stroke-width:1.51;}
	.st57{fill:#3B3939;stroke:#3B3939;stroke-width:1.51;}
	.st58{fill:#333131;stroke:#333131;stroke-width:1.51;}
	.st59{fill:#323131;stroke:#323131;stroke-width:1.51;}
	.st60{fill:#444343;stroke:#444343;stroke-width:2;}
	.st61{fill:#242323;stroke:#242323;stroke-width:1.51;}
	.st62{fill:#3D3B3B;stroke:#3D3B3B;stroke-width:2;}
	.st63{fill:#2A2929;stroke:#2A2929;stroke-width:1.51;}
	.st64{fill:#343232;stroke:#343232;stroke-width:2;}
	.st65{fill:#4C4B4B;stroke:#4C4B4B;stroke-width:2;}
	.st66{fill:#403F3F;stroke:#403F3F;stroke-width:2;}
	.st67{fill:#2C2A2A;stroke:#2C2A2A;stroke-width:2;}
	.st68{fill:#2E2C2C;stroke:#2E2C2C;stroke-width:2;}
	.st69{fill:#222121;stroke:#222121;stroke-width:1.51;}
	.st70{fill:#1D1C1C;stroke:#1D1C1C;stroke-width:1.51;}
	.st71{fill:#252424;stroke:#252424;stroke-width:1.51;}
	.st72{fill:#2A2929;stroke:#2A2929;stroke-width:2;}
	.st73{fill:#181717;stroke:#181717;stroke-width:1.51;}
	.st74{fill:#191818;stroke:#191818;stroke-width:1.51;}
	.st75{fill:#282626;stroke:#282626;stroke-width:2;}
	.st76{fill:#2C2B2B;stroke:#2C2B2B;stroke-width:2;}
	.st77{fill:#1F1E1D;stroke:#1F1E1D;stroke-width:2;}
	.st78{fill:#111010;stroke:#111010;stroke-width:1.51;}
	.st79{fill:#1F1E1E;stroke:#1F1E1E;stroke-width:2;}
	.st80{fill:#1C1B1B;stroke:#1C1B1B;stroke-width:2;}
	.st81{fill:#191818;stroke:#191818;stroke-width:2;}
	.st82{fill:#0E0D0D;stroke:#0E0D0D;stroke-width:1.51;}
	.st83{fill:#0D0C0C;stroke:#0D0C0C;stroke-width:1.51;}
	.st84{fill:#151414;stroke:#151414;stroke-width:2;}
	.st85{fill:#0C0B0B;stroke:#0C0B0B;stroke-width:1.51;}
	.st86{fill:#171616;stroke:#171616;stroke-width:2;}
	.st87{fill:#161515;stroke:#161515;stroke-width:2;}
	.st88{fill:#131212;stroke:#131212;stroke-width:1.51;}
	.st89{fill:#1C1A1A;stroke:#1C1A1A;stroke-width:2;}
	.st90{fill:#131212;stroke:#131212;stroke-width:2;}
	.st91{fill:#171616;stroke:#171616;stroke-width:1.51;}
	.st92{fill:#141313;stroke:#141313;stroke-width:1.51;}
	.st93{fill:#222121;stroke:#222121;stroke-width:2;}
	.st94{fill:#1F1D1D;stroke:#1F1D1D;stroke-width:2;}
	.st95{fill:#151414;stroke:#151414;stroke-width:1.51;}
	.st96{fill:#1E1C1C;stroke:#1E1C1C;stroke-width:2;}
	.st97{fill:#21201F;stroke:#21201F;stroke-width:2;}
	.st98{fill:#181717;stroke:#181717;stroke-width:2;}
	.st99{fill:#211F1F;stroke:#211F1F;stroke-width:1.51;}
	.st100{fill:#1A1919;stroke:#1A1919;stroke-width:1.51;}
	.st101{fill:#242222;stroke:#242222;stroke-width:1.51;}
	.st102{fill:#211F1F;stroke:#211F1F;stroke-width:2;}
	.st103{fill:#1C1A1A;stroke:#1C1A1A;stroke-width:1.51;}
	.st104{fill:#1D1B1B;stroke:#1D1B1B;stroke-width:2;}
	.st105{fill:#201E1E;stroke:#201E1E;stroke-width:1.51;}
	.st106{fill:#1A1919;stroke:#1A1919;stroke-width:2;}
	.st107{fill:#252323;stroke:#252323;stroke-width:2;}
</style>
<title>Untitled-1</title>
<polygon class="st0" points="1484.9,98.9 1601,141.4 1601,130 1542.3,41.5 "/>
<polygon class="st1" points="1601,201 1601,165.8 1584,201 "/>
<polygon class="st2" points="1601,3.3 1601,1 1508.1,1 1550.2,22.4 "/>
<polygon class="st3" points="1601,130 1601,6.1 1542.3,41.5 "/>
<polygon class="st4" points="1542.3,41.5 1601,6.1 1601,3.3 1550.2,22.4 "/>
<polygon class="st5" points="1568.8,201 1584,201 1601,165.8 1601,141.4 1484.9,98.9 "/>
<polygon class="st6" points="1479.1,201 1568.8,201 1484.9,98.9 "/>
<polygon class="st7" points="1550.2,22.4 1508.1,1 1492.3,1 1542.3,41.5 "/>
<polygon class="st8" points="1542.3,41.5 1492.3,1 1469.2,1 1484.9,98.9 "/>
<polygon class="st6" points="1441.2,201 1479.1,201 1484.9,98.9 "/>
<polygon class="st9" points="1484.9,98.9 1469.2,1 1453.4,1 1408.4,78.6 "/>
<polygon class="st10" points="1401.6,141.7 1433.3,201 1441.2,201 1484.9,98.9 "/>
<polygon class="st11" points="1484.9,98.9 1408.4,78.6 1401.6,141.7 "/>
<polygon class="st2" points="1453.4,1 1404.1,1 1408.4,78.6 "/>
<polygon class="st12" points="1333.7,201 1339.9,201 1335.2,192.3 "/>
<polygon class="st8" points="1408.4,78.6 1404.1,1 1379.1,1 1336.3,84.3 "/>
<polygon class="st13" points="1369,156.3 1427,201 1433.3,201 1401.6,141.7 "/>
<polygon class="st14" points="1339.9,201 1387.8,201 1335.2,192.3 "/>
<polygon class="st15" points="1335.2,192.3 1387.8,201 1427,201 1369,156.3 "/>
<polygon class="st16" points="1379.1,1 1325.1,1 1336.3,84.3 "/>
<polygon class="st17" points="1401.6,141.7 1336.3,84.3 1369,156.3 "/>
<polygon class="st18" points="1408.4,78.6 1336.3,84.3 1401.6,141.7 "/>
<polygon class="st19" points="1336.3,84.3 1325.1,1 1278.6,1 1260.9,19 "/>
<polygon class="st20" points="1294.7,200.2 1294.8,201 1333.7,201 1335.2,192.3 "/>
<polygon class="st21" points="1369,156.3 1336.3,84.3 1335.2,192.3 "/>
<polygon class="st22" points="1335.2,192.3 1336.3,84.3 1294.7,200.2 "/>
<polygon class="st23" points="1294.7,200.2 1336.3,84.3 1242.9,103.4 "/>
<polygon class="st24" points="1294,201 1294.8,201 1294.7,200.2 "/>
<polygon class="st25" points="1336.3,84.3 1260.9,19 1242.9,103.4 "/>
<polygon class="st26" points="1222.7,130.4 1294.7,200.2 1242.9,103.4 "/>
<polygon class="st27" points="1278.6,1 1261.6,1 1260.9,19 "/>
<polygon class="st28" points="1289.5,201 1294,201 1294.7,200.2 "/>
<polygon class="st15" points="1222.7,130.4 1191.5,201 1289.5,201 1294.7,200.2 "/>
<polygon class="st29" points="1260.9,19 1185.5,24.6 1242.9,103.4 "/>
<polygon class="st30" points="1261.6,1 1213.8,1 1260.9,19 "/>
<polygon class="st2" points="1260.9,19 1213.8,1 1213.6,1 1185.5,24.6 "/>
<polygon class="st31" points="1242.9,103.4 1185.5,24.6 1222.7,130.4 "/>
<polygon class="st32" points="1185.5,24.6 1103.3,61.8 1222.7,130.4 "/>
<polygon class="st33" points="1213.6,1 1091.1,1 1185.5,24.6 "/>
<polygon class="st34" points="1083.1,105.7 1169.8,201 1191.5,201 1222.7,130.4 "/>
<polygon class="st35" points="1222.7,130.4 1103.3,61.8 1083.1,105.7 "/>
<polygon class="st36" points="1068.4,179.9 1134.2,201 1169.8,201 1083.1,105.7 "/>
<polygon class="st1" points="1073.7,201 1134.2,201 1068.4,179.9 "/>
<polygon class="st37" points="1185.5,24.6 1091.1,1 1090.9,1 1103.3,61.8 "/>
<polygon class="st23" points="1068.4,179.9 1083.1,105.7 1056.1,129.3 "/>
<polygon class="st3" points="1007,1 955.9,1 988.5,10 "/>
<polygon class="st38" points="1008.8,88.8 1090.9,1 1090.5,1 988.5,10 "/>
<polygon class="st39" points="1103.3,61.8 1090.9,1 1090.9,1 1008.8,88.8 "/>
<polygon class="st31" points="1103.3,61.8 1008.8,88.8 1083.1,105.7 "/>
<polygon class="st16" points="1090.5,1 1007,1 988.5,10 "/>
<polygon class="st40" points="1035.7,201 1073.7,201 1068.4,179.9 "/>
<polygon class="st22" points="1083.1,105.7 1008.8,88.8 1056.1,129.3 "/>
<polygon class="st36" points="1056.1,129.3 1007.7,201 1035.7,201 1068.4,179.9 "/>
<polygon class="st41" points="1056.1,129.3 1008.8,88.8 934.5,143.9 "/>
<polygon class="st42" points="934.5,143.9 967.7,201 1007.7,201 1056.1,129.3 "/>
<polygon class="st43" points="988.5,10 957,28 1008.8,88.8 "/>
<polygon class="st44" points="988.5,10 955.9,1 906.3,1 957,28 "/>
<polygon class="st45" points="1008.8,88.8 957,28 934.5,143.9 "/>
<polygon class="st46" points="913,201 967.7,201 934.5,143.9 "/>
<polygon class="st47" points="957,28 859,73 934.5,143.9 "/>
<polygon class="st48" points="875.9,152.9 885.5,201 913,201 934.5,143.9 "/>
<polygon class="st49" points="957,28 906.3,1 855,1 859,73 "/>
<polygon class="st50" points="934.5,143.9 859,73 875.9,152.9 "/>
<polygon class="st51" points="807.3,196.8 814.3,201 885.5,201 875.9,152.9 "/>
<polygon class="st52" points="804.7,201 814.3,201 807.3,196.8 "/>
<polygon class="st53" points="855,1 803.9,1 859,73 "/>
<polygon class="st54" points="859,73 803.9,1 785.7,1 774.6,24.6 "/>
<polygon class="st55" points="875.9,152.9 859,73 789.3,119.2 "/>
<polygon class="st56" points="807.3,196.8 875.9,152.9 789.3,119.2 "/>
<polygon class="st57" points="859,73 774.6,24.6 789.3,119.2 "/>
<polygon class="st58" points="774.6,24.6 692.5,80.9 789.3,119.2 "/>
<polygon class="st59" points="686.8,191.2 807.3,196.8 789.3,119.2 "/>
<polygon class="st60" points="686.8,191.2 697.2,201 804.7,201 807.3,196.8 "/>
<polygon class="st61" points="682.3,132.7 686.8,191.2 789.3,119.2 "/>
<polygon class="st62" points="785.7,1 730.2,1 774.6,24.6 "/>
<polygon class="st63" points="789.3,119.2 692.5,80.9 682.3,132.7 "/>
<polygon class="st64" points="774.6,24.6 730.2,1 701,1 692.5,80.9 "/>
<polygon class="st65" points="690.7,201 697.2,201 686.8,191.2 "/>
<polygon class="st66" points="667.2,201 690.7,201 686.8,191.2 "/>
<polygon class="st67" points="692.5,80.9 701,1 681.5,1 628.3,38.1 "/>
<polygon class="st68" points="681.5,1 637.2,1 628.3,38.1 "/>
<polygon class="st69" points="615.9,167.6 686.8,191.2 682.3,132.7 "/>
<polygon class="st70" points="682.3,132.7 628.3,38.1 590,137.2 "/>
<polygon class="st71" points="692.5,80.9 628.3,38.1 682.3,132.7 "/>
<polygon class="st72" points="615.9,167.6 630.7,201 667.2,201 686.8,191.2 "/>
<polygon class="st73" points="590,137.2 615.9,167.6 682.3,132.7 "/>
<polygon class="st74" points="628.3,38.1 541.6,68.5 590,137.2 "/>
<polygon class="st75" points="637.2,1 601.5,1 628.3,38.1 "/>
<polygon class="st76" points="602.6,201 630.7,201 615.9,167.6 "/>
<polygon class="st77" points="628.3,38.1 601.5,1 573.3,1 541.6,68.5 "/>
<polygon class="st78" points="510.1,163.1 615.9,167.6 590,137.2 "/>
<polygon class="st79" points="510.1,163.1 545.4,201 602.6,201 615.9,167.6 "/>
<polygon class="st80" points="493.2,193.4 507,201 545.4,201 510.1,163.1 "/>
<polygon class="st81" points="573.3,1 484.2,1 541.6,68.5 "/>
<polygon class="st82" points="590,137.2 541.6,68.5 510.1,163.1 "/>
<polygon class="st72" points="493.5,201 507,201 493.2,193.4 "/>
<polygon class="st83" points="541.6,68.5 485.3,78.6 510.1,163.1 "/>
<polygon class="st84" points="541.6,68.5 484.2,1 469.6,1 485.3,78.6 "/>
<polygon class="st85" points="493.2,193.5 510.1,163.1 411,109 "/>
<polygon class="st83" points="510.1,163.1 485.3,78.6 411,109 "/>
<polygon class="st86" points="485.3,78.6 469.6,1 443.9,1 397.5,50.5 "/>
<polygon class="st72" points="465.4,201 493.5,201 493.2,193.4 "/>
<polygon class="st87" points="411,109 381,201 465.4,201 493.2,193.4 "/>
<polygon class="st88" points="485.3,78.6 397.5,50.5 411,109 "/>
<polygon class="st89" points="443.9,1 381.7,1 397.5,50.5 "/>
<polygon class="st90" points="328.9,154.1 357.5,201 381,201 411,109 "/>
<polygon class="st91" points="397.5,50.5 337.9,30.2 411,109 "/>
<polygon class="st92" points="411,109 337.9,30.2 328.9,154.1 "/>
<polygon class="st89" points="397.5,50.5 381.7,1 376.2,1 337.9,30.2 "/>
<polygon class="st93" points="318.9,201 357.5,201 328.9,154.1 "/>
<polygon class="st94" points="376.2,1 333.7,1 337.9,30.2 "/>
<polygon class="st73" points="337.9,30.2 242.2,68.5 328.9,154.1 "/>
<polygon class="st95" points="328.9,154.1 242.2,68.5 230.9,159.7 "/>
<polygon class="st96" points="337.9,30.2 333.7,1 330.4,1 242.2,68.5 "/>
<polygon class="st84" points="330.4,1 233.3,1 242.2,68.5 "/>
<polygon class="st80" points="230.9,159.7 297.7,201 318.9,201 328.9,154.1 "/>
<polygon class="st97" points="206.1,179.9 277.3,201 297.7,201 230.9,159.7 "/>
<polygon class="st96" points="206.4,201 277.3,201 206.1,179.9 "/>
<polygon class="st98" points="242.2,68.5 233.3,1 182.9,1 181.4,3.2 "/>
<polygon class="st80" points="195,201 206.4,201 206.1,179.9 "/>
<polygon class="st91" points="178,142.8 230.9,159.7 184.8,91 "/>
<polygon class="st74" points="230.9,159.7 242.2,68.5 184.8,91 "/>
<polygon class="st99" points="242.2,68.5 181.4,3.2 184.8,91 "/>
<polygon class="st100" points="206.1,179.9 230.9,159.7 178,142.8 "/>
<polygon class="st67" points="182.9,1 159.3,1 181.4,3.2 "/>
<polygon class="st80" points="178,142.8 143.5,201 177.5,201 206.1,179.9 "/>
<polygon class="st97" points="177.5,201 195,201 206.1,179.9 "/>
<polygon class="st99" points="184.8,91 181.4,3.2 102.6,97.8 "/>
<polygon class="st101" points="181.4,3.2 67.7,73 102.6,97.8 "/>
<polygon class="st102" points="181.4,3.2 159.3,1 68.7,1 67.7,73 "/>
<polygon class="st103" points="102.6,97.8 178,142.8 184.8,91 "/>
<polygon class="st102" points="37.3,151.8 79.4,201 112.8,201 102.6,97.8 "/>
<polygon class="st104" points="102.6,97.8 112.8,201 143.5,201 178,142.8 "/>
<polygon class="st104" points="41.8,201 79.4,201 37.3,151.8 "/>
<polygon class="st102" points="67.7,73 68.7,1 56.4,1 27.2,22.4 "/>
<polygon class="st105" points="67.7,73 37.3,151.8 102.6,97.8 "/>
<polygon class="st98" points="27.2,22.4 37.3,151.8 67.7,73 "/>
<polygon class="st96" points="56.4,1 6.4,1 27.2,22.4 "/>
<polygon class="st106" points="37.3,151.8 27.2,22.4 6.4,1 1,1 1,25.2 "/>
<polygon class="st107" points="24,201 41.8,201 37.3,151.8 "/>
<polygon class="st94" points="1,25.2 1,201 24,201 37.3,151.8 "/>
</svg>
