<svg id="Layer_1" data-name="Layer 1" xmlns="http://www.w3.org/2000/svg" viewBox="0 0 1602 202.06"><defs><style>.cls-1{fill:#3e9aaa;stroke:#3e9aaa;}.cls-1,.cls-10,.cls-100,.cls-101,.cls-104,.cls-105,.cls-108,.cls-109,.cls-11,.cls-110,.cls-111,.cls-112,.cls-113,.cls-114,.cls-117,.cls-118,.cls-12,.cls-120,.cls-122,.cls-123,.cls-124,.cls-125,.cls-127,.cls-14,.cls-15,.cls-16,.cls-17,.cls-18,.cls-2,.cls-21,.cls-22,.cls-28,.cls-29,.cls-3,.cls-30,.cls-32,.cls-33,.cls-36,.cls-37,.cls-39,.cls-4,.cls-40,.cls-41,.cls-43,.cls-44,.cls-45,.cls-47,.cls-48,.cls-5,.cls-51,.cls-53,.cls-55,.cls-57,.cls-58,.cls-6,.cls-60,.cls-61,.cls-62,.cls-63,.cls-69,.cls-7,.cls-71,.cls-73,.cls-74,.cls-75,.cls-76,.cls-77,.cls-8,.cls-81,.cls-84,.cls-85,.cls-86,.cls-88,.cls-89,.cls-9,.cls-90,.cls-93,.cls-96,.cls-97,.cls-98{stroke-width:2px;}.cls-2{fill:#4a94aa;stroke:#4a94aa;}.cls-3{fill:#3f9bb7;stroke:#3f9bb7;}.cls-4{fill:#3ca0ae;stroke:#3ca0ae;}.cls-5{fill:#3da2b4;stroke:#3da2b4;}.cls-6{fill:#3e9ba3;stroke:#3e9ba3;}.cls-7{fill:#4b94ad;stroke:#4b94ad;}.cls-8{fill:#3f9ab5;stroke:#3f9ab5;}.cls-9{fill:#4099b2;stroke:#4099b2;}.cls-10{fill:#489cad;stroke:#489cad;}.cls-11{fill:#4099b0;stroke:#4099b0;}.cls-12{fill:#4198a4;stroke:#4198a4;}.cls-13{fill:#4291a9;stroke:#4291a9;}.cls-102,.cls-103,.cls-106,.cls-107,.cls-115,.cls-116,.cls-119,.cls-121,.cls-126,.cls-13,.cls-19,.cls-20,.cls-23,.cls-24,.cls-25,.cls-26,.cls-27,.cls-31,.cls-34,.cls-35,.cls-38,.cls-42,.cls-46,.cls-49,.cls-50,.cls-52,.cls-54,.cls-56,.cls-59,.cls-64,.cls-65,.cls-66,.cls-67,.cls-68,.cls-70,.cls-72,.cls-78,.cls-79,.cls-80,.cls-82,.cls-83,.cls-87,.cls-91,.cls-92,.cls-94,.cls-95,.cls-99{stroke-width:1.51px;}.cls-14{fill:#429ab7;stroke:#429ab7;}.cls-15{fill:#519fb1;stroke:#519fb1;}.cls-16{fill:#4395b2;stroke:#4395b2;}.cls-17{fill:#65afc6;stroke:#65afc6;}.cls-18{fill:#459eb8;stroke:#459eb8;}.cls-19{fill:#4194a6;stroke:#4194a6;}.cls-20{fill:#4394aa;stroke:#4394aa;}.cls-21{fill:#469bb6;stroke:#469bb6;}.cls-22{fill:#63b0c3;stroke:#63b0c3;}.cls-23{fill:#4395a4;stroke:#4395a4;}.cls-24{fill:#488da8;stroke:#488da8;}.cls-25{fill:#4492a7;stroke:#4492a7;}.cls-26{fill:#4597af;stroke:#4597af;}.cls-27{fill:#4595a5;stroke:#4595a5;}.cls-28{fill:#469dbc;stroke:#469dbc;}.cls-29{fill:#659ec1;stroke:#659ec1;}.cls-30{fill:#559ab1;stroke:#559ab1;}.cls-31{fill:#4898b2;stroke:#4898b2;}.cls-32{fill:#4a98ba;stroke:#4a98ba;}.cls-33{fill:#4797b7;stroke:#4797b7;}.cls-34{fill:#4894ad;stroke:#4894ad;}.cls-35{fill:#4893af;stroke:#4893af;}.cls-36{fill:#4999b9;stroke:#4999b9;}.cls-37{fill:#4a8ba5;stroke:#4a8ba5;}.cls-38{fill:#4b8eac;stroke:#4b8eac;}.cls-39{fill:#5294ac;stroke:#5294ac;}.cls-40{fill:#619ebc;stroke:#619ebc;}.cls-41{fill:#4b98b6;stroke:#4b98b6;}.cls-42{fill:#4a8da7;stroke:#4a8da7;}.cls-43{fill:#3e90ae;stroke:#3e90ae;}.cls-44{fill:#4692b0;stroke:#4692b0;}.cls-45{fill:#4b95b3;stroke:#4b95b3;}.cls-46{fill:#4c8fad;stroke:#4c8fad;}.cls-47{fill:#4998b8;stroke:#4998b8;}.cls-48{fill:#629cba;stroke:#629cba;}.cls-49{fill:#4a8ba8;stroke:#4a8ba8;}.cls-50{fill:#408da0;stroke:#408da0;}.cls-51{fill:#488aa1;stroke:#488aa1;}.cls-52{fill:#418ca8;stroke:#418ca8;}.cls-53{fill:#3a84a6;stroke:#3a84a6;}.cls-54{fill:#3d83a0;stroke:#3d83a0;}.cls-55{fill:#4e92a9;stroke:#4e92a9;}.cls-56{fill:#367c99;stroke:#367c99;}.cls-57{fill:#408299;stroke:#408299;}.cls-58{fill:#337e9d;stroke:#337e9d;}.cls-59{fill:#32788f;stroke:#32788f;}.cls-60{fill:#40889a;stroke:#40889a;}.cls-61{fill:#498ba3;stroke:#498ba3;}.cls-62{fill:#2d7496;stroke:#2d7496;}.cls-63{fill:#2b6d90;stroke:#2b6d90;}.cls-64{fill:#2d6f8a;stroke:#2d6f8a;}.cls-65{fill:#2e6c85;stroke:#2e6c85;}.cls-66{fill:#27758a;stroke:#27758a;}.cls-67{fill:#226b82;stroke:#226b82;}.cls-68{fill:#296881;stroke:#296881;}.cls-69{fill:#387f93;stroke:#387f93;}.cls-70{fill:#1c5f73;stroke:#1c5f73;}.cls-71{fill:#216f8c;stroke:#216f8c;}.cls-72{fill:#1d6a79;stroke:#1d6a79;}.cls-73{fill:#1f6783;stroke:#1f6783;}.cls-74{fill:#52839b;stroke:#52839b;}.cls-75{fill:#44788f;stroke:#44788f;}.cls-76{fill:#26607b;stroke:#26607b;}.cls-77{fill:#24627d;stroke:#24627d;}.cls-78{fill:#265e71;stroke:#265e71;}.cls-79{fill:#1e5d6c;stroke:#1e5d6c;}.cls-80{fill:#236374;stroke:#236374;}.cls-81{fill:#2f6479;stroke:#2f6479;}.cls-82{fill:#1e5567;stroke:#1e5567;}.cls-83{fill:#185768;stroke:#185768;}.cls-84{fill:#1e6677;stroke:#1e6677;}.cls-85{fill:#315f7b;stroke:#315f7b;}.cls-86{fill:#1b566e;stroke:#1b566e;}.cls-87{fill:#175260;stroke:#175260;}.cls-88{fill:#255b6e;stroke:#255b6e;}.cls-89{fill:#22536b;stroke:#22536b;}.cls-90{fill:#125a68;stroke:#125a68;}.cls-91{fill:#134c5d;stroke:#134c5d;}.cls-92{fill:#0f4f5c;stroke:#0f4f5c;}.cls-107,.cls-93{fill:#105564;stroke:#105564;}.cls-94{fill:#114d5b;stroke:#114d5b;}.cls-95{fill:#0f4b5c;stroke:#0f4b5c;}.cls-102,.cls-96{fill:#105966;stroke:#105966;}.cls-97{fill:#2b6879;stroke:#2b6879;}.cls-98{fill:#1a5b65;stroke:#1a5b65;}.cls-99{fill:#0e5862;stroke:#0e5862;}.cls-100,.cls-121{fill:#105b6b;stroke:#105b6b;}.cls-101{fill:#155462;stroke:#155462;}.cls-103{fill:#0f5a63;stroke:#0f5a63;}.cls-104{fill:#215b71;stroke:#215b71;}.cls-105{fill:#125c6e;stroke:#125c6e;}.cls-106{fill:#0f5967;stroke:#0f5967;}.cls-108{fill:#115c6d;stroke:#115c6d;}.cls-109,.cls-119{fill:#126273;stroke:#126273;}.cls-110{fill:#1a5a6b;stroke:#1a5a6b;}.cls-111{fill:#1d5b70;stroke:#1d5b70;}.cls-112{fill:#2b6980;stroke:#2b6980;}.cls-113{fill:#126175;stroke:#126175;}.cls-114{fill:#2f6888;stroke:#2f6888;}.cls-115{fill:#105768;stroke:#105768;}.cls-116{fill:#125f70;stroke:#125f70;}.cls-117{fill:#1e5c76;stroke:#1e5c76;}.cls-118{fill:#2e6885;stroke:#2e6885;}.cls-120{fill:#126678;stroke:#126678;}.cls-122{fill:#195c70;stroke:#195c70;}.cls-123{fill:#135b6c;stroke:#135b6c;}.cls-124{fill:#296382;stroke:#296382;}.cls-125{fill:#13687a;stroke:#13687a;}.cls-126{fill:#116274;stroke:#116274;}.cls-127{fill:#2e708c;stroke:#2e708c;}</style></defs><title>rust</title><polygon class="cls-1" points="59.66 41.49 1 129.96 1 141.39 117.07 98.9 59.66 41.49"/><polygon class="cls-2" points="18.04 201 1 165.76 1 201 18.04 201"/><polygon class="cls-3" points="51.78 22.35 93.91 1 1 1 1 3.31 51.78 22.35"/><polygon class="cls-4" points="59.66 41.49 1 6.11 1 129.96 59.66 41.49"/><polygon class="cls-5" points="51.78 22.35 1 3.31 1 6.11 59.66 41.49 51.78 22.35"/><polygon class="cls-6" points="117.07 98.9 1 141.39 1 165.76 18.04 201 33.16 201 117.07 98.9"/><polygon class="cls-7" points="117.07 98.89 33.16 201 122.9 201 117.07 98.89"/><polygon class="cls-8" points="59.66 41.48 109.71 1 93.91 1 51.78 22.35 59.66 41.48"/><polygon class="cls-9" points="117.07 98.89 132.77 1 109.71 1 59.66 41.49 117.07 98.89"/><polygon class="cls-10" points="117.07 98.89 122.9 201 160.83 201 117.07 98.89"/><polygon class="cls-11" points="193.61 78.63 148.62 1 132.77 1 117.07 98.9 193.61 78.63"/><polygon class="cls-12" points="117.07 98.89 160.83 201 168.73 201 200.37 141.67 117.07 98.89"/><polygon class="cls-13" points="200.37 141.68 193.61 78.64 117.07 98.9 200.37 141.68"/><polygon class="cls-14" points="193.61 78.63 197.93 1 148.62 1 193.61 78.63"/><polygon class="cls-15" points="266.78 192.33 262.11 201 268.34 201 266.78 192.33"/><polygon class="cls-16" points="265.66 84.26 222.92 1 197.93 1 193.61 78.63 265.66 84.26"/><polygon class="cls-2" points="200.37 141.67 168.73 201 175 201 233.01 156.31 200.37 141.67"/><polygon class="cls-17" points="266.78 192.33 214.16 201 262.11 201 266.78 192.33"/><polygon class="cls-15" points="233.01 156.31 175 201 214.16 201 266.78 192.33 233.01 156.31"/><polygon class="cls-18" points="265.66 84.26 276.91 1 222.92 1 265.66 84.26"/><polygon class="cls-19" points="233.01 156.31 265.66 84.27 200.37 141.68 233.01 156.31"/><polygon class="cls-20" points="200.37 141.68 265.66 84.27 193.61 78.64 200.37 141.68"/><polygon class="cls-21" points="341.08 18.97 323.45 1 276.91 1 265.66 84.26 341.08 18.97"/><polygon class="cls-22" points="266.78 192.33 268.34 201 307.17 201 307.31 200.21 266.78 192.33"/><polygon class="cls-23" points="266.78 192.33 265.66 84.27 233.01 156.31 266.78 192.33"/><polygon class="cls-24" points="307.31 200.21 265.66 84.27 266.78 192.33 307.31 200.21"/><polygon class="cls-25" points="359.09 103.4 265.66 84.27 307.31 200.21 359.09 103.4"/><polygon class="cls-15" points="307.31 200.21 307.17 201 308.01 201 307.31 200.21"/><polygon class="cls-26" points="359.09 103.4 341.08 18.98 265.66 84.27 359.09 103.4"/><polygon class="cls-27" points="359.09 103.4 307.31 200.21 379.35 130.42 359.09 103.4"/><polygon class="cls-28" points="341.08 18.97 340.42 1 323.45 1 341.08 18.97"/><polygon class="cls-29" points="307.31 200.21 308.01 201 312.5 201 307.31 200.21"/><polygon class="cls-30" points="307.31 200.21 312.5 201 410.52 201 379.35 130.42 307.31 200.21"/><polygon class="cls-31" points="359.09 103.4 416.5 24.6 341.08 18.98 359.09 103.4"/><polygon class="cls-32" points="341.08 18.97 388.25 1 340.42 1 341.08 18.97"/><polygon class="cls-33" points="416.5 24.6 388.41 1 388.25 1 341.08 18.97 416.5 24.6"/><polygon class="cls-34" points="379.35 130.42 416.5 24.6 359.09 103.4 379.35 130.42"/><polygon class="cls-35" points="379.35 130.42 498.67 61.75 416.5 24.6 379.35 130.42"/><polygon class="cls-36" points="416.5 24.6 510.89 1 388.41 1 416.5 24.6"/><polygon class="cls-37" points="379.35 130.41 410.52 201 432.25 201 518.94 105.65 379.35 130.41"/><polygon class="cls-38" points="518.94 105.65 498.67 61.75 379.35 130.42 518.94 105.65"/><polygon class="cls-39" points="518.94 105.65 432.25 201 467.85 201 533.57 179.95 518.94 105.65"/><polygon class="cls-40" points="533.57 179.94 467.85 201 528.31 201 533.57 179.94"/><polygon class="cls-41" points="498.67 61.75 511.05 1 510.89 1 416.5 24.6 498.67 61.75"/><polygon class="cls-42" points="545.95 129.29 518.94 105.65 533.57 179.95 545.95 129.29"/><polygon class="cls-43" points="613.5 9.96 646.09 1 595.04 1 613.5 9.96"/><polygon class="cls-44" points="613.5 9.97 511.52 1 511.1 1 593.23 88.77 613.5 9.97"/><polygon class="cls-45" points="593.23 88.76 511.1 1 511.05 1 498.67 61.75 593.23 88.76"/><polygon class="cls-46" points="518.94 105.65 593.23 88.77 498.67 61.75 518.94 105.65"/><polygon class="cls-47" points="613.5 9.96 595.04 1 511.52 1 613.5 9.96"/><polygon class="cls-48" points="533.57 179.94 528.31 201 566.28 201 533.57 179.94"/><polygon class="cls-49" points="545.95 129.29 593.23 88.77 518.94 105.65 545.95 129.29"/><polygon class="cls-39" points="533.57 179.94 566.28 201 594.28 201 545.95 129.29 533.57 179.94"/><polygon class="cls-50" points="667.53 143.93 593.23 88.77 545.95 129.29 667.53 143.93"/><polygon class="cls-51" points="545.95 129.29 594.28 201 634.29 201 667.53 143.92 545.95 129.29"/><polygon class="cls-52" points="593.23 88.77 645.01 27.98 613.5 9.97 593.23 88.77"/><polygon class="cls-53" points="645.01 27.98 695.66 1 646.09 1 613.5 9.97 645.01 27.98"/><polygon class="cls-54" points="667.53 143.93 645.01 27.98 593.23 88.77 667.53 143.93"/><polygon class="cls-55" points="667.53 143.92 634.29 201 689.01 201 667.53 143.92"/><polygon class="cls-56" points="667.53 143.93 742.95 73.01 645.01 27.98 667.53 143.93"/><polygon class="cls-57" points="667.53 143.92 689.01 201 716.45 201 726.06 152.93 667.53 143.92"/><polygon class="cls-58" points="742.95 73 746.99 1 695.66 1 645.01 27.98 742.95 73"/><polygon class="cls-59" points="726.06 152.93 742.95 73.01 667.53 143.93 726.06 152.93"/><polygon class="cls-60" points="726.06 152.93 716.45 201 787.66 201 794.73 196.83 726.06 152.93"/><polygon class="cls-61" points="794.73 196.83 787.66 201 797.26 201 794.73 196.83"/><polygon class="cls-62" points="742.95 73 798.12 1 746.99 1 742.95 73"/><polygon class="cls-63" points="827.37 24.6 816.27 1 798.12 1 742.95 73.01 827.37 24.6"/><polygon class="cls-64" points="812.74 119.16 742.95 73.01 726.06 152.93 812.74 119.16"/><polygon class="cls-65" points="812.74 119.16 726.06 152.93 794.73 196.83 812.74 119.16"/><polygon class="cls-66" points="812.74 119.16 827.37 24.6 742.95 73.01 812.74 119.16"/><polygon class="cls-67" points="812.74 119.16 909.55 80.89 827.37 24.6 812.74 119.16"/><polygon class="cls-68" points="812.74 119.16 794.73 196.83 915.18 191.21 812.74 119.16"/><polygon class="cls-69" points="794.73 196.83 797.26 201 904.78 201 915.18 191.2 794.73 196.83"/><polygon class="cls-70" points="812.74 119.16 915.18 191.21 919.68 132.67 812.74 119.16"/><polygon class="cls-71" points="827.37 24.6 871.8 1 816.27 1 827.37 24.6"/><polygon class="cls-72" points="919.68 132.67 909.55 80.89 812.74 119.16 919.68 132.67"/><polygon class="cls-73" points="909.55 80.88 900.99 1 871.8 1 827.37 24.6 909.55 80.88"/><polygon class="cls-74" points="915.18 191.2 904.78 201 911.34 201 915.18 191.2"/><polygon class="cls-75" points="915.18 191.2 911.34 201 934.78 201 915.18 191.2"/><polygon class="cls-76" points="973.71 38.11 920.47 1 900.99 1 909.55 80.89 973.71 38.11"/><polygon class="cls-77" points="973.71 38.11 964.76 1 920.47 1 973.71 38.11"/><polygon class="cls-78" points="919.68 132.67 915.18 191.21 986.1 167.57 919.68 132.67"/><polygon class="cls-79" points="1011.99 137.17 973.71 38.11 919.68 132.67 1011.99 137.17"/><polygon class="cls-80" points="919.68 132.67 973.71 38.11 909.55 80.89 919.68 132.67"/><polygon class="cls-81" points="915.18 191.2 934.78 201 971.32 201 986.1 167.56 915.18 191.2"/><polygon class="cls-82" points="919.68 132.67 986.1 167.57 1011.99 137.17 919.68 132.67"/><polygon class="cls-83" points="1011.99 137.17 1060.39 68.51 973.71 38.11 1011.99 137.17"/><polygon class="cls-84" points="973.71 38.11 1000.51 1 964.76 1 973.71 38.11"/><polygon class="cls-85" points="986.1 167.56 971.32 201 999.37 201 986.1 167.56"/><polygon class="cls-86" points="1060.39 68.5 1028.73 1 1000.51 1 973.71 38.11 1060.39 68.5"/><polygon class="cls-87" points="1011.99 137.17 986.1 167.57 1091.91 163.06 1011.99 137.17"/><polygon class="cls-88" points="986.1 167.56 999.37 201 1056.6 201 1091.91 163.06 986.1 167.56"/><polygon class="cls-89" points="1091.91 163.06 1056.6 201 1095.04 201 1108.8 193.45 1091.91 163.06"/><polygon class="cls-90" points="1060.39 68.5 1117.77 1 1028.73 1 1060.39 68.5"/><polygon class="cls-91" points="1091.91 163.06 1060.39 68.51 1011.99 137.17 1091.91 163.06"/><polygon class="cls-81" points="1108.8 193.45 1095.04 201 1108.48 201 1108.8 193.45"/><polygon class="cls-92" points="1091.91 163.06 1116.68 78.64 1060.39 68.51 1091.91 163.06"/><polygon class="cls-93" points="1116.68 78.63 1132.38 1 1117.77 1 1060.39 68.5 1116.68 78.63"/><polygon class="cls-94" points="1190.97 109.03 1091.91 163.06 1108.8 193.46 1190.97 109.03"/><polygon class="cls-95" points="1190.97 109.03 1116.68 78.64 1091.91 163.06 1190.97 109.03"/><polygon class="cls-96" points="1204.48 50.49 1158.08 1 1132.38 1 1116.68 78.63 1204.48 50.49"/><polygon class="cls-97" points="1108.8 193.45 1108.48 201 1136.65 201 1108.8 193.45"/><polygon class="cls-98" points="1108.8 193.45 1136.65 201 1221.04 201 1190.97 109.03 1108.8 193.45"/><polygon class="cls-99" points="1190.97 109.03 1204.48 50.49 1116.68 78.64 1190.97 109.03"/><polygon class="cls-100" points="1204.48 50.49 1220.27 1 1158.08 1 1204.48 50.49"/><polygon class="cls-101" points="1190.97 109.03 1221.04 201 1244.54 201 1273.15 154.06 1190.97 109.03"/><polygon class="cls-102" points="1190.97 109.03 1264.14 30.23 1204.48 50.49 1190.97 109.03"/><polygon class="cls-103" points="1273.15 154.06 1264.14 30.23 1190.97 109.03 1273.15 154.06"/><polygon class="cls-100" points="1264.14 30.23 1225.84 1 1220.27 1 1204.48 50.49 1264.14 30.23"/><polygon class="cls-104" points="1273.15 154.05 1244.54 201 1283.08 201 1273.15 154.05"/><polygon class="cls-105" points="1264.14 30.23 1268.32 1 1225.84 1 1264.14 30.23"/><polygon class="cls-106" points="1273.15 154.06 1359.82 68.51 1264.14 30.23 1273.15 154.06"/><polygon class="cls-107" points="1371.08 159.69 1359.82 68.51 1273.15 154.06 1371.08 159.69"/><polygon class="cls-108" points="1359.82 68.5 1271.64 1 1268.32 1 1264.14 30.23 1359.82 68.5"/><polygon class="cls-109" points="1359.82 68.5 1368.71 1 1271.64 1 1359.82 68.5"/><polygon class="cls-110" points="1273.15 154.05 1283.08 201 1304.27 201 1371.08 159.68 1273.15 154.05"/><polygon class="cls-111" points="1371.08 159.68 1304.27 201 1324.69 201 1395.85 179.95 1371.08 159.68"/><polygon class="cls-112" points="1395.85 179.94 1324.69 201 1395.6 201 1395.85 179.94"/><polygon class="cls-113" points="1420.61 3.21 1419.07 1 1368.71 1 1359.82 68.5 1420.61 3.21"/><polygon class="cls-114" points="1395.85 179.94 1395.6 201 1407.03 201 1395.85 179.94"/><polygon class="cls-102" points="1417.23 91.02 1371.08 159.69 1423.99 142.8 1417.23 91.02"/><polygon class="cls-115" points="1417.23 91.02 1359.82 68.51 1371.08 159.69 1417.23 91.02"/><polygon class="cls-116" points="1417.23 91.02 1420.61 3.22 1359.82 68.51 1417.23 91.02"/><polygon class="cls-102" points="1423.99 142.8 1371.08 159.69 1395.85 179.95 1423.99 142.8"/><polygon class="cls-108" points="1420.61 3.21 1442.72 1 1419.07 1 1420.61 3.21"/><polygon class="cls-117" points="1395.85 179.94 1424.53 201 1458.53 201 1423.99 142.8 1395.85 179.94"/><polygon class="cls-118" points="1395.85 179.94 1407.03 201 1424.53 201 1395.85 179.94"/><polygon class="cls-108" points="1499.41 97.77 1420.61 3.22 1417.23 91.02 1499.41 97.77"/><polygon class="cls-119" points="1499.41 97.77 1534.31 73.01 1420.61 3.22 1499.41 97.77"/><polygon class="cls-120" points="1534.31 73 1533.31 1 1442.72 1 1420.61 3.21 1534.31 73"/><polygon class="cls-121" points="1417.23 91.02 1423.99 142.8 1499.41 97.77 1417.23 91.02"/><polygon class="cls-122" points="1499.41 97.77 1489.17 201 1522.61 201 1564.7 151.8 1499.41 97.77"/><polygon class="cls-123" points="1423.99 142.8 1458.53 201 1489.17 201 1499.41 97.77 1423.99 142.8"/><polygon class="cls-124" points="1564.7 151.8 1522.61 201 1560.16 201 1564.7 151.8"/><polygon class="cls-125" points="1574.83 22.35 1545.58 1 1533.31 1 1534.31 73.01 1574.83 22.35"/><polygon class="cls-109" points="1499.41 97.77 1564.7 151.81 1534.31 73.01 1499.41 97.77"/><polygon class="cls-126" points="1534.31 73.01 1564.7 151.81 1574.83 22.35 1534.31 73.01"/><polygon class="cls-124" points="1574.83 22.35 1595.57 1 1545.58 1 1574.83 22.35"/><polygon class="cls-120" points="1601 25.18 1601 1 1595.57 1 1574.83 22.35 1564.7 151.81 1601 25.18"/><polygon class="cls-127" points="1564.7 151.8 1560.16 201 1578.02 201 1564.7 151.8"/><polygon class="cls-105" points="1564.7 151.8 1578.02 201 1601 201 1601 25.18 1564.7 151.8"/></svg>