<svg id="Layer_1" data-name="Layer 1" xmlns="http://www.w3.org/2000/svg" width="1602" height="202.07" viewBox="0 0 1602 202.07"><defs><style>.cls-1{fill:#437a84;stroke:#437a84;}.cls-1,.cls-10,.cls-100,.cls-101,.cls-103,.cls-104,.cls-105,.cls-106,.cls-107,.cls-108,.cls-109,.cls-11,.cls-112,.cls-113,.cls-115,.cls-117,.cls-118,.cls-119,.cls-12,.cls-121,.cls-14,.cls-15,.cls-16,.cls-17,.cls-18,.cls-2,.cls-21,.cls-22,.cls-28,.cls-29,.cls-3,.cls-30,.cls-32,.cls-33,.cls-36,.cls-37,.cls-39,.cls-4,.cls-40,.cls-41,.cls-43,.cls-44,.cls-45,.cls-47,.cls-48,.cls-5,.cls-51,.cls-53,.cls-55,.cls-57,.cls-58,.cls-6,.cls-60,.cls-61,.cls-62,.cls-63,.cls-69,.cls-7,.cls-71,.cls-73,.cls-74,.cls-75,.cls-76,.cls-77,.cls-8,.cls-81,.cls-84,.cls-85,.cls-86,.cls-88,.cls-89,.cls-9,.cls-90,.cls-91,.cls-92,.cls-94,.cls-95,.cls-97,.cls-98{stroke-width:2px;}.cls-2{fill:#4c7784;stroke:#4c7784;}.cls-3{fill:#477f91;stroke:#477f91;}.cls-4{fill:#437f88;stroke:#437f88;}.cls-5{fill:#45838e;stroke:#45838e;}.cls-6{fill:#427a7d;stroke:#427a7d;}.cls-7{fill:#4e7887;stroke:#4e7887;}.cls-8{fill:#467e8f;stroke:#467e8f;}.cls-9{fill:#467c8c;stroke:#467c8c;}.cls-10{fill:#4c7c87;stroke:#4c7c87;}.cls-11{fill:#467b8a;stroke:#467b8a;}.cls-12{fill:#44777e;stroke:#44777e;}.cls-13{fill:#467483;stroke:#467483;}.cls-102,.cls-110,.cls-111,.cls-114,.cls-116,.cls-120,.cls-13,.cls-19,.cls-20,.cls-23,.cls-24,.cls-25,.cls-26,.cls-27,.cls-31,.cls-34,.cls-35,.cls-38,.cls-42,.cls-46,.cls-49,.cls-50,.cls-52,.cls-54,.cls-56,.cls-59,.cls-64,.cls-65,.cls-66,.cls-67,.cls-68,.cls-70,.cls-72,.cls-78,.cls-79,.cls-80,.cls-82,.cls-83,.cls-87,.cls-93,.cls-96,.cls-99{stroke-width:1.51px;}.cls-14{fill:#4a7f91;stroke:#4a7f91;}.cls-15{fill:#53818b;stroke:#53818b;}.cls-16{fill:#497a8c;stroke:#497a8c;}.cls-17{fill:#6992a0;stroke:#6992a0;}.cls-18{fill:#4c8292;stroke:#4c8292;}.cls-19{fill:#457580;stroke:#457580;}.cls-20{fill:#477684;stroke:#477684;}.cls-21{fill:#4d8090;stroke:#4d8090;}.cls-22{fill:#67929d;stroke:#67929d;}.cls-23{fill:#46757e;stroke:#46757e;}.cls-24{fill:#4b7282;stroke:#4b7282;}.cls-25{fill:#487581;stroke:#487581;}.cls-26{fill:#497b89;stroke:#497b89;}.cls-27{fill:#48767f;stroke:#48767f;}.cls-28{fill:#4e8296;stroke:#4e8296;}.cls-29{fill:#67889b;stroke:#67889b;}.cls-30{fill:#577e8b;stroke:#577e8b;}.cls-31{fill:#4d7c8c;stroke:#4d7c8c;}.cls-32{fill:#507f94;stroke:#507f94;}.cls-33{fill:#4d7d91;stroke:#4d7d91;}.cls-34{fill:#4c7887;stroke:#4c7887;}.cls-35{fill:#4c7989;stroke:#4c7989;}.cls-36{fill:#4f7f93;stroke:#4f7f93;}.cls-37{fill:#4b707f;stroke:#4b707f;}.cls-38{fill:#4e7586;stroke:#4e7586;}.cls-39{fill:#547886;stroke:#547886;}.cls-40{fill:#638696;stroke:#638696;}.cls-41{fill:#507e90;stroke:#507e90;}.cls-42{fill:#4c7281;stroke:#4c7281;}.cls-43{fill:#457588;stroke:#457588;}.cls-44{fill:#4b788a;stroke:#4b788a;}.cls-45{fill:#4f7b8d;stroke:#4f7b8d;}.cls-46{fill:#4f7587;stroke:#4f7587;}.cls-47{fill:#4f7e92;stroke:#4f7e92;}.cls-48{fill:#638394;stroke:#638394;}.cls-49{fill:#4c7182;stroke:#4c7182;}.cls-50{fill:#426f7a;stroke:#426f7a;}.cls-51{fill:#496e7b;stroke:#496e7b;}.cls-52{fill:#457182;stroke:#457182;}.cls-53{fill:#3f6c80;stroke:#3f6c80;}.cls-54{fill:#40697a;stroke:#40697a;}.cls-55{fill:#507683;stroke:#507683;}.cls-56{fill:#3a6273;stroke:#3a6273;}.cls-57{fill:#416673;stroke:#416673;}.cls-58{fill:#386577;stroke:#386577;}.cls-59{fill:#345b69;stroke:#345b69;}.cls-60{fill:#416a74;stroke:#416a74;}.cls-61{fill:#4a6f7d;stroke:#4a6f7d;}.cls-62{fill:#325c70;stroke:#325c70;}.cls-63{fill:#2f556a;stroke:#2f556a;}.cls-64{fill:#2e5564;stroke:#2e5564;}.cls-65{fill:#2e515f;stroke:#2e515f;}.cls-66{fill:#2b5864;stroke:#2b5864;}.cls-67{fill:#254f5c;stroke:#254f5c;}.cls-68{fill:#2a4c5b;stroke:#2a4c5b;}.cls-69{fill:#39616d;stroke:#39616d;}.cls-70{fill:#1e424d;stroke:#1e424d;}.cls-71{fill:#275466;stroke:#275466;}.cls-72{fill:#204a53;stroke:#204a53;}.cls-73{fill:#244d5d;stroke:#244d5d;}.cls-74{fill:#4f6875;stroke:#4f6875;}.cls-75{fill:#415d69;stroke:#415d69;}.cls-76{fill:#274655;stroke:#274655;}.cls-77{fill:#264857;stroke:#264857;}.cls-78{fill:#24414b;stroke:#24414b;}.cls-79{fill:#1d3e46;stroke:#1d3e46;}.cls-80{fill:#23454e;stroke:#23454e;}.cls-81{fill:#2c4853;stroke:#2c4853;}.cls-82{fill:#1c3841;stroke:#1c3841;}.cls-83{fill:#193942;stroke:#193942;}.cls-84{fill:#204851;stroke:#204851;}.cls-85{fill:#2e4655;stroke:#2e4655;}.cls-86{fill:#1c3c48;stroke:#1c3c48;}.cls-87{fill:#12383d;stroke:#12383d;}.cls-88{fill:#223e48;stroke:#223e48;}.cls-89{fill:#203945;stroke:#203945;}.cls-90{fill:#153a42;stroke:#153a42;}.cls-91{fill:#173d46;stroke:#173d46;}.cls-92,.cls-99{fill:#143840;stroke:#143840;}.cls-93,.cls-98{fill:#13363e;stroke:#13363e;}.cls-94{fill:#2a4a53;stroke:#2a4a53;}.cls-95{fill:#19393f;stroke:#19393f;}.cls-96{fill:#11363c;stroke:#11363c;}.cls-116,.cls-97{fill:#143d45;stroke:#143d45;}.cls-100{fill:#213f4b;stroke:#213f4b;}.cls-101{fill:#163e48;stroke:#163e48;}.cls-102{fill:#133941;stroke:#133941;}.cls-103{fill:#153d47;stroke:#153d47;}.cls-104,.cls-114{fill:#17434d;stroke:#17434d;}.cls-105{fill:#1b3c45;stroke:#1b3c45;}.cls-106{fill:#1e3f4a;stroke:#1e3f4a;}.cls-107{fill:#2b4d5a;stroke:#2b4d5a;}.cls-108{fill:#17444f;stroke:#17444f;}.cls-109{fill:#305062;stroke:#305062;}.cls-110{fill:#143942;stroke:#143942;}.cls-111{fill:#16414a;stroke:#16414a;}.cls-112{fill:#204150;stroke:#204150;}.cls-113{fill:#2e4f5f;stroke:#2e4f5f;}.cls-115{fill:#184752;stroke:#184752;}.cls-117{fill:#1b404a;stroke:#1b404a;}.cls-118{fill:#2a4b5c;stroke:#2a4b5c;}.cls-119{fill:#194a54;stroke:#194a54;}.cls-120{fill:#17444e;stroke:#17444e;}.cls-121{fill:#305666;stroke:#305666;}</style></defs><title>Untitled-45</title><polygon class="cls-1" points="1484.93 98.9 1601 141.39 1601 129.96 1542.34 41.49 1484.93 98.9"/><polygon class="cls-2" points="1601 201 1601 165.76 1583.96 201 1601 201"/><polygon class="cls-3" points="1601 3.31 1601 1 1508.09 1 1550.22 22.35 1601 3.31"/><polygon class="cls-4" points="1601 129.96 1601 6.11 1542.34 41.49 1601 129.96"/><polygon class="cls-5" points="1542.34 41.49 1601 6.11 1601 3.31 1550.22 22.35 1542.34 41.49"/><polygon class="cls-6" points="1568.84 201 1583.96 201 1601 165.76 1601 141.39 1484.93 98.9 1568.84 201"/><polygon class="cls-7" points="1479.1 201 1568.84 201 1484.93 98.89 1479.1 201"/><polygon class="cls-8" points="1550.22 22.35 1508.09 1 1492.29 1 1542.34 41.48 1550.22 22.35"/><polygon class="cls-9" points="1542.34 41.49 1492.29 1 1469.23 1 1484.93 98.89 1542.34 41.49"/><polygon class="cls-10" points="1441.17 201 1479.1 201 1484.93 98.89 1441.17 201"/><polygon class="cls-11" points="1484.93 98.9 1469.23 1 1453.38 1 1408.39 78.63 1484.93 98.9"/><polygon class="cls-12" points="1401.63 141.67 1433.27 201 1441.17 201 1484.93 98.89 1401.63 141.67"/><polygon class="cls-13" points="1484.93 98.9 1408.39 78.64 1401.63 141.68 1484.93 98.9"/><polygon class="cls-14" points="1453.38 1 1404.07 1 1408.39 78.63 1453.38 1"/><polygon class="cls-15" points="1333.66 201 1339.89 201 1335.22 192.33 1333.66 201"/><polygon class="cls-16" points="1408.39 78.63 1404.07 1 1379.08 1 1336.34 84.26 1408.39 78.63"/><polygon class="cls-2" points="1368.99 156.31 1427 201 1433.27 201 1401.63 141.67 1368.99 156.31"/><polygon class="cls-17" points="1339.89 201 1387.84 201 1335.22 192.33 1339.89 201"/><polygon class="cls-15" points="1335.22 192.33 1387.84 201 1427 201 1368.99 156.31 1335.22 192.33"/><polygon class="cls-18" points="1379.08 1 1325.09 1 1336.34 84.26 1379.08 1"/><polygon class="cls-19" points="1401.63 141.68 1336.34 84.27 1368.99 156.31 1401.63 141.68"/><polygon class="cls-20" points="1408.39 78.64 1336.34 84.27 1401.63 141.68 1408.39 78.64"/><polygon class="cls-21" points="1336.34 84.26 1325.09 1 1278.55 1 1260.92 18.97 1336.34 84.26"/><polygon class="cls-22" points="1294.69 200.21 1294.83 201 1333.66 201 1335.22 192.33 1294.69 200.21"/><polygon class="cls-23" points="1368.99 156.31 1336.34 84.27 1335.22 192.33 1368.99 156.31"/><polygon class="cls-24" points="1335.22 192.33 1336.34 84.27 1294.69 200.21 1335.22 192.33"/><polygon class="cls-25" points="1294.69 200.21 1336.34 84.27 1242.91 103.4 1294.69 200.21"/><polygon class="cls-15" points="1293.99 201 1294.83 201 1294.69 200.21 1293.99 201"/><polygon class="cls-26" points="1336.34 84.27 1260.92 18.98 1242.91 103.4 1336.34 84.27"/><polygon class="cls-27" points="1222.65 130.42 1294.69 200.21 1242.91 103.4 1222.65 130.42"/><polygon class="cls-28" points="1278.55 1 1261.58 1 1260.92 18.97 1278.55 1"/><polygon class="cls-29" points="1289.5 201 1293.99 201 1294.69 200.21 1289.5 201"/><polygon class="cls-30" points="1222.65 130.42 1191.48 201 1289.5 201 1294.69 200.21 1222.65 130.42"/><polygon class="cls-31" points="1260.92 18.98 1185.5 24.6 1242.91 103.4 1260.92 18.98"/><polygon class="cls-32" points="1261.58 1 1213.75 1 1260.92 18.97 1261.58 1"/><polygon class="cls-33" points="1260.92 18.97 1213.75 1 1213.59 1 1185.5 24.6 1260.92 18.97"/><polygon class="cls-34" points="1242.91 103.4 1185.5 24.6 1222.65 130.42 1242.91 103.4"/><polygon class="cls-35" points="1185.5 24.6 1103.33 61.75 1222.65 130.42 1185.5 24.6"/><polygon class="cls-36" points="1213.59 1 1091.11 1 1185.5 24.6 1213.59 1"/><polygon class="cls-37" points="1083.06 105.65 1169.75 201 1191.48 201 1222.65 130.41 1083.06 105.65"/><polygon class="cls-38" points="1222.65 130.42 1103.33 61.75 1083.06 105.65 1222.65 130.42"/><polygon class="cls-39" points="1068.43 179.95 1134.15 201 1169.75 201 1083.06 105.65 1068.43 179.95"/><polygon class="cls-40" points="1073.69 201 1134.15 201 1068.43 179.94 1073.69 201"/><polygon class="cls-41" points="1185.5 24.6 1091.11 1 1090.95 1 1103.33 61.75 1185.5 24.6"/><polygon class="cls-42" points="1068.43 179.95 1083.06 105.65 1056.05 129.29 1068.43 179.95"/><polygon class="cls-43" points="1006.96 1 955.91 1 988.5 9.96 1006.96 1"/><polygon class="cls-44" points="1008.77 88.77 1090.9 1 1090.48 1 988.5 9.97 1008.77 88.77"/><polygon class="cls-45" points="1103.33 61.75 1090.95 1 1090.9 1 1008.77 88.76 1103.33 61.75"/><polygon class="cls-46" points="1103.33 61.75 1008.77 88.77 1083.06 105.65 1103.33 61.75"/><polygon class="cls-47" points="1090.48 1 1006.96 1 988.5 9.96 1090.48 1"/><polygon class="cls-48" points="1035.72 201 1073.69 201 1068.43 179.94 1035.72 201"/><polygon class="cls-49" points="1083.06 105.65 1008.77 88.77 1056.05 129.29 1083.06 105.65"/><polygon class="cls-39" points="1056.05 129.29 1007.72 201 1035.72 201 1068.43 179.94 1056.05 129.29"/><polygon class="cls-50" points="1056.05 129.29 1008.77 88.77 934.47 143.93 1056.05 129.29"/><polygon class="cls-51" points="934.47 143.92 967.71 201 1007.72 201 1056.05 129.29 934.47 143.92"/><polygon class="cls-52" points="988.5 9.97 956.99 27.98 1008.77 88.77 988.5 9.97"/><polygon class="cls-53" points="988.5 9.97 955.91 1 906.34 1 956.99 27.98 988.5 9.97"/><polygon class="cls-54" points="1008.77 88.77 956.99 27.98 934.47 143.93 1008.77 88.77"/><polygon class="cls-55" points="912.99 201 967.71 201 934.47 143.92 912.99 201"/><polygon class="cls-56" points="956.99 27.98 859.05 73.01 934.47 143.93 956.99 27.98"/><polygon class="cls-57" points="875.94 152.93 885.55 201 912.99 201 934.47 143.92 875.94 152.93"/><polygon class="cls-58" points="956.99 27.98 906.34 1 855.01 1 859.05 73 956.99 27.98"/><polygon class="cls-59" points="934.47 143.93 859.05 73.01 875.94 152.93 934.47 143.93"/><polygon class="cls-60" points="807.27 196.83 814.34 201 885.55 201 875.94 152.93 807.27 196.83"/><polygon class="cls-61" points="804.74 201 814.34 201 807.27 196.83 804.74 201"/><polygon class="cls-62" points="855.01 1 803.88 1 859.05 73 855.01 1"/><polygon class="cls-63" points="859.05 73.01 803.88 1 785.73 1 774.63 24.6 859.05 73.01"/><polygon class="cls-64" points="875.94 152.93 859.05 73.01 789.26 119.16 875.94 152.93"/><polygon class="cls-65" points="807.27 196.83 875.94 152.93 789.26 119.16 807.27 196.83"/><polygon class="cls-66" points="859.05 73.01 774.63 24.6 789.26 119.16 859.05 73.01"/><polygon class="cls-67" points="774.63 24.6 692.45 80.89 789.26 119.16 774.63 24.6"/><polygon class="cls-68" points="686.82 191.21 807.27 196.83 789.26 119.16 686.82 191.21"/><polygon class="cls-69" points="686.82 191.2 697.22 201 804.74 201 807.27 196.83 686.82 191.2"/><polygon class="cls-70" points="682.32 132.67 686.82 191.21 789.26 119.16 682.32 132.67"/><polygon class="cls-71" points="785.73 1 730.2 1 774.63 24.6 785.73 1"/><polygon class="cls-72" points="789.26 119.16 692.45 80.89 682.32 132.67 789.26 119.16"/><polygon class="cls-73" points="774.63 24.6 730.2 1 701.01 1 692.45 80.88 774.63 24.6"/><polygon class="cls-74" points="690.66 201 697.22 201 686.82 191.2 690.66 201"/><polygon class="cls-75" points="667.22 201 690.66 201 686.82 191.2 667.22 201"/><polygon class="cls-76" points="692.45 80.89 701.01 1 681.53 1 628.29 38.11 692.45 80.89"/><polygon class="cls-77" points="681.53 1 637.24 1 628.29 38.11 681.53 1"/><polygon class="cls-78" points="615.9 167.57 686.82 191.21 682.32 132.67 615.9 167.57"/><polygon class="cls-79" points="682.32 132.67 628.29 38.11 590.01 137.17 682.32 132.67"/><polygon class="cls-80" points="692.45 80.89 628.29 38.11 682.32 132.67 692.45 80.89"/><polygon class="cls-81" points="615.9 167.56 630.68 201 667.22 201 686.82 191.2 615.9 167.56"/><polygon class="cls-82" points="590.01 137.17 615.9 167.57 682.32 132.67 590.01 137.17"/><polygon class="cls-83" points="628.29 38.11 541.61 68.51 590.01 137.17 628.29 38.11"/><polygon class="cls-84" points="637.24 1 601.49 1 628.29 38.11 637.24 1"/><polygon class="cls-85" points="602.63 201 630.68 201 615.9 167.56 602.63 201"/><polygon class="cls-86" points="628.29 38.11 601.49 1 573.27 1 541.61 68.5 628.29 38.11"/><polygon class="cls-87" points="510.09 163.06 615.9 167.57 590.01 137.17 510.09 163.06"/><polygon class="cls-88" points="510.09 163.06 545.4 201 602.63 201 615.9 167.56 510.09 163.06"/><polygon class="cls-89" points="493.2 193.45 506.96 201 545.4 201 510.09 163.06 493.2 193.45"/><polygon class="cls-90" points="573.27 1 484.23 1 541.61 68.5 573.27 1"/><polygon class="cls-91" points="590.01 137.17 541.61 68.51 510.09 163.06 590.01 137.17"/><polygon class="cls-81" points="493.52 201 506.96 201 493.2 193.45 493.52 201"/><polygon class="cls-92" points="541.61 68.51 485.32 78.64 510.09 163.06 541.61 68.51"/><polygon class="cls-91" points="541.61 68.5 484.23 1 469.62 1 485.32 78.63 541.61 68.5"/><polygon class="cls-92" points="493.2 193.46 510.09 163.06 411.03 109.03 493.2 193.46"/><polygon class="cls-93" points="510.09 163.06 485.32 78.64 411.03 109.03 510.09 163.06"/><polygon class="cls-92" points="485.32 78.63 469.62 1 443.92 1 397.52 50.49 485.32 78.63"/><polygon class="cls-94" points="465.35 201 493.52 201 493.2 193.45 465.35 201"/><polygon class="cls-95" points="411.03 109.03 380.96 201 465.35 201 493.2 193.45 411.03 109.03"/><polygon class="cls-96" points="485.32 78.64 397.52 50.49 411.03 109.03 485.32 78.64"/><polygon class="cls-97" points="443.92 1 381.73 1 397.52 50.49 443.92 1"/><polygon class="cls-98" points="328.85 154.06 357.46 201 380.96 201 411.03 109.03 328.85 154.06"/><polygon class="cls-99" points="397.52 50.49 337.86 30.23 411.03 109.03 397.52 50.49"/><polygon class="cls-87" points="411.03 109.03 337.86 30.23 328.85 154.06 411.03 109.03"/><polygon class="cls-97" points="397.52 50.49 381.73 1 376.16 1 337.86 30.23 397.52 50.49"/><polygon class="cls-100" points="318.92 201 357.46 201 328.85 154.05 318.92 201"/><polygon class="cls-101" points="376.16 1 333.68 1 337.86 30.23 376.16 1"/><polygon class="cls-102" points="337.86 30.23 242.18 68.51 328.85 154.06 337.86 30.23"/><polygon class="cls-93" points="328.85 154.06 242.18 68.51 230.92 159.69 328.85 154.06"/><polygon class="cls-103" points="337.86 30.23 333.68 1 330.36 1 242.18 68.5 337.86 30.23"/><polygon class="cls-104" points="330.36 1 233.29 1 242.18 68.5 330.36 1"/><polygon class="cls-105" points="230.92 159.68 297.73 201 318.92 201 328.85 154.05 230.92 159.68"/><polygon class="cls-106" points="206.15 179.95 277.31 201 297.73 201 230.92 159.68 206.15 179.95"/><polygon class="cls-107" points="206.4 201 277.31 201 206.15 179.94 206.4 201"/><polygon class="cls-108" points="242.18 68.5 233.29 1 182.93 1 181.39 3.21 242.18 68.5"/><polygon class="cls-109" points="194.97 201 206.4 201 206.15 179.94 194.97 201"/><polygon class="cls-99" points="178.01 142.8 230.92 159.69 184.77 91.02 178.01 142.8"/><polygon class="cls-110" points="230.92 159.69 242.18 68.51 184.77 91.02 230.92 159.69"/><polygon class="cls-111" points="242.18 68.51 181.39 3.22 184.77 91.02 242.18 68.51"/><polygon class="cls-99" points="206.15 179.95 230.92 159.69 178.01 142.8 206.15 179.95"/><polygon class="cls-103" points="182.93 1 159.28 1 181.39 3.21 182.93 1"/><polygon class="cls-112" points="178.01 142.8 143.47 201 177.47 201 206.15 179.94 178.01 142.8"/><polygon class="cls-113" points="177.47 201 194.97 201 206.15 179.94 177.47 201"/><polygon class="cls-103" points="184.77 91.02 181.39 3.22 102.59 97.77 184.77 91.02"/><polygon class="cls-114" points="181.39 3.22 67.69 73.01 102.59 97.77 181.39 3.22"/><polygon class="cls-115" points="181.39 3.21 159.28 1 68.69 1 67.69 73 181.39 3.21"/><polygon class="cls-116" points="102.59 97.77 178.01 142.8 184.77 91.02 102.59 97.77"/><polygon class="cls-117" points="37.3 151.8 79.39 201 112.83 201 102.59 97.77 37.3 151.8"/><polygon class="cls-91" points="102.59 97.77 112.83 201 143.47 201 178.01 142.8 102.59 97.77"/><polygon class="cls-118" points="41.84 201 79.39 201 37.3 151.8 41.84 201"/><polygon class="cls-119" points="67.69 73.01 68.69 1 56.42 1 27.17 22.35 67.69 73.01"/><polygon class="cls-104" points="67.69 73.01 37.3 151.81 102.59 97.77 67.69 73.01"/><polygon class="cls-120" points="27.17 22.35 37.3 151.81 67.69 73.01 27.17 22.35"/><polygon class="cls-118" points="56.42 1 6.43 1 27.17 22.35 56.42 1"/><polygon class="cls-115" points="37.3 151.81 27.17 22.35 6.43 1 1 1 1 25.18 37.3 151.81"/><polygon class="cls-121" points="23.98 201 41.84 201 37.3 151.8 23.98 201"/><polygon class="cls-101" points="1 25.18 1 201 23.98 201 37.3 151.8 1 25.18"/></svg>